<?xml version="1.0" standalone="no"?>
 <!DOCTYPE svg PUBLIC "-//W3C//DTD SVG 1.1//EN" 
 "http://www.w3.org/Graphics/SVG/1.1/DTD/svg11.dtd"> 
<svg
  xmlns:svg="http://www.w3.org/2000/svg"
  xmlns="http://www.w3.org/2000/svg"
  xmlns:xlink="http://www.w3.org/1999/xlink"
  version="1.1"
  width="297.002200mm" height="210.007200mm" viewBox="0.000000 0.000000 297.002200 210.007200">
<title>SVG Image created as RobotASK-B_Cu.svg date 2024/04/15 22:01:26 </title>
  <desc>Image generated by PCBNEW </desc>
<g style="fill:#000000; fill-opacity:1.000000;stroke:#000000; stroke-opacity:1.000000;
stroke-linecap:round; stroke-linejoin:round;"
 transform="translate(0 0) scale(1 1)">
</g>
<g style="fill:#000000; fill-opacity:1.000000; 
stroke:#000000; stroke-width:0.021200; stroke-opacity:1; 
stroke-linecap:round; stroke-linejoin:round;">
<rect x="54.481732" y="0.611252" width="118.925821" height="162.017495" rx="0.000000" />
</g>
<g style="fill:none; 
stroke:#FFFFFF; stroke-width:0.400000; stroke-opacity:1; 
stroke-linecap:round; stroke-linejoin:round;">
<g transform="rotate(-45.000000 132.969586 82.569586)">
<text x="132.969586" y="82.569586"
transform="scale(-1 1) translate(-265.939172 0)"
textLength="28.419051" font-size="2.666666" lengthAdjust="spacingAndGlyphs"
text-anchor="middle" opacity="0">Tomasz Pawłowski</text>
</g>
<g class="stroked-text"><desc>Tomasz Pawłowski</desc>
<path d="M140.997713 71.337470
L140.189591 72.145592
" />
<path d="M142.007866 73.155744
L140.593652 71.741531
" />
<path d="M140.930369 74.233241
L140.997713 74.031210
" />
<path d="M140.997713 74.031210
L140.997713 73.896523
" />
<path d="M140.997713 73.896523
L140.930369 73.694492
" />
<path d="M140.930369 73.694492
L140.526308 73.290431
" />
<path d="M140.526308 73.290431
L140.324278 73.223088
" />
<path d="M140.324278 73.223088
L140.189591 73.223088
" />
<path d="M140.189591 73.223088
L139.987560 73.290431
" />
<path d="M139.987560 73.290431
L139.785530 73.492462
" />
<path d="M139.785530 73.492462
L139.718186 73.694492
" />
<path d="M139.718186 73.694492
L139.718186 73.829179
" />
<path d="M139.718186 73.829179
L139.785530 74.031210
" />
<path d="M139.785530 74.031210
L140.189591 74.435271
" />
<path d="M140.189591 74.435271
L140.391621 74.502615
" />
<path d="M140.391621 74.502615
L140.526308 74.502615
" />
<path d="M140.526308 74.502615
L140.728339 74.435271
" />
<path d="M140.728339 74.435271
L140.930369 74.233241
" />
<path d="M139.852873 75.310737
L138.910064 74.367928
" />
<path d="M139.044751 74.502615
L138.910064 74.502615
" />
<path d="M138.910064 74.502615
L138.708034 74.569958
" />
<path d="M138.708034 74.569958
L138.506003 74.771989
" />
<path d="M138.506003 74.771989
L138.438659 74.974019
" />
<path d="M138.438659 74.974019
L138.506003 75.176050
" />
<path d="M138.506003 75.176050
L139.246782 75.916828
" />
<path d="M138.506003 75.176050
L138.303972 75.108706
" />
<path d="M138.303972 75.108706
L138.101942 75.176050
" />
<path d="M138.101942 75.176050
L137.899911 75.378080
" />
<path d="M137.899911 75.378080
L137.832568 75.580111
" />
<path d="M137.832568 75.580111
L137.899911 75.782141
" />
<path d="M137.899911 75.782141
L138.640690 76.522920
" />
<path d="M137.361163 77.802447
L136.620385 77.061668
" />
<path d="M136.620385 77.061668
L136.553041 76.859637
" />
<path d="M136.553041 76.859637
L136.620385 76.657607
" />
<path d="M136.620385 76.657607
L136.889759 76.388233
" />
<path d="M136.889759 76.388233
L137.091789 76.320889
" />
<path d="M137.293820 77.735103
L137.495850 77.667760
" />
<path d="M137.495850 77.667760
L137.832568 77.331042
" />
<path d="M137.832568 77.331042
L137.899911 77.129012
" />
<path d="M137.899911 77.129012
L137.832568 76.926981
" />
<path d="M137.832568 76.926981
L137.697881 76.792294
" />
<path d="M137.697881 76.792294
L137.495850 76.724950
" />
<path d="M137.495850 76.724950
L137.293820 76.792294
" />
<path d="M137.293820 76.792294
L136.957102 77.129012
" />
<path d="M136.957102 77.129012
L136.755072 77.196355
" />
<path d="M136.687728 78.341195
L136.620385 78.543225
" />
<path d="M136.620385 78.543225
L136.351011 78.812599
" />
<path d="M136.351011 78.812599
L136.148980 78.879943
" />
<path d="M136.148980 78.879943
L135.946950 78.812599
" />
<path d="M135.946950 78.812599
L135.879606 78.745256
" />
<path d="M135.879606 78.745256
L135.812263 78.543225
" />
<path d="M135.812263 78.543225
L135.879606 78.341195
" />
<path d="M135.879606 78.341195
L136.081637 78.139164
" />
<path d="M136.081637 78.139164
L136.148980 77.937134
" />
<path d="M136.148980 77.937134
L136.081637 77.735103
" />
<path d="M136.081637 77.735103
L136.014293 77.667760
" />
<path d="M136.014293 77.667760
L135.812263 77.600416
" />
<path d="M135.812263 77.600416
L135.610232 77.667760
" />
<path d="M135.610232 77.667760
L135.408201 77.869790
" />
<path d="M135.408201 77.869790
L135.340858 78.071821
" />
<path d="M134.734766 78.543225
L133.993988 79.284004
" />
<path d="M133.993988 79.284004
L135.677575 79.486035
" />
<path d="M135.677575 79.486035
L134.936797 80.226813
" />
<path d="M133.320552 81.843058
L131.906338 80.428844
" />
<path d="M131.906338 80.428844
L131.367590 80.967592
" />
<path d="M131.367590 80.967592
L131.300247 81.169623
" />
<path d="M131.300247 81.169623
L131.300247 81.304310
" />
<path d="M131.300247 81.304310
L131.367590 81.506340
" />
<path d="M131.367590 81.506340
L131.569621 81.708371
" />
<path d="M131.569621 81.708371
L131.771651 81.775714
" />
<path d="M131.771651 81.775714
L131.906338 81.775714
" />
<path d="M131.906338 81.775714
L132.108369 81.708371
" />
<path d="M132.108369 81.708371
L132.647117 81.169623
" />
<path d="M131.300247 83.863363
L130.559468 83.122584
" />
<path d="M130.559468 83.122584
L130.492125 82.920554
" />
<path d="M130.492125 82.920554
L130.559468 82.718523
" />
<path d="M130.559468 82.718523
L130.828842 82.449149
" />
<path d="M130.828842 82.449149
L131.030873 82.381806
" />
<path d="M131.232903 83.796019
L131.434934 83.728676
" />
<path d="M131.434934 83.728676
L131.771651 83.391958
" />
<path d="M131.771651 83.391958
L131.838995 83.189928
" />
<path d="M131.838995 83.189928
L131.771651 82.987897
" />
<path d="M131.771651 82.987897
L131.636964 82.853210
" />
<path d="M131.636964 82.853210
L131.434934 82.785867
" />
<path d="M131.434934 82.785867
L131.232903 82.853210
" />
<path d="M131.232903 82.853210
L130.896186 83.189928
" />
<path d="M130.896186 83.189928
L130.694155 83.257271
" />
<path d="M129.818690 83.459302
L130.492125 84.671485
" />
<path d="M130.492125 84.671485
L129.549316 84.267424
" />
<path d="M129.549316 84.267424
L129.953377 85.210233
" />
<path d="M129.953377 85.210233
L128.741194 84.536798
" />
<path d="M128.943224 86.220385
L129.010568 86.018355
" />
<path d="M129.010568 86.018355
L128.943224 85.816324
" />
<path d="M128.943224 85.816324
L127.731041 84.604141
" />
<path d="M128.673850 85.142889
L128.000415 85.277576
" />
<path d="M128.202446 86.961164
L128.269789 86.759133
" />
<path d="M128.269789 86.759133
L128.269789 86.624446
" />
<path d="M128.269789 86.624446
L128.202446 86.422416
" />
<path d="M128.202446 86.422416
L127.798385 86.018355
" />
<path d="M127.798385 86.018355
L127.596354 85.951011
" />
<path d="M127.596354 85.951011
L127.461667 85.951011
" />
<path d="M127.461667 85.951011
L127.259637 86.018355
" />
<path d="M127.259637 86.018355
L127.057606 86.220385
" />
<path d="M127.057606 86.220385
L126.990263 86.422416
" />
<path d="M126.990263 86.422416
L126.990263 86.557103
" />
<path d="M126.990263 86.557103
L127.057606 86.759133
" />
<path d="M127.057606 86.759133
L127.461667 87.163194
" />
<path d="M127.461667 87.163194
L127.663698 87.230538
" />
<path d="M127.663698 87.230538
L127.798385 87.230538
" />
<path d="M127.798385 87.230538
L128.000415 87.163194
" />
<path d="M128.000415 87.163194
L128.202446 86.961164
" />
<path d="M126.316828 86.961164
L126.990263 88.173347
" />
<path d="M126.990263 88.173347
L126.047454 87.769286
" />
<path d="M126.047454 87.769286
L126.451515 88.712095
" />
<path d="M126.451515 88.712095
L125.239331 88.038660
" />
<path d="M125.643393 89.385530
L125.576049 89.587561
" />
<path d="M125.576049 89.587561
L125.306675 89.856935
" />
<path d="M125.306675 89.856935
L125.104645 89.924278
" />
<path d="M125.104645 89.924278
L124.902614 89.856935
" />
<path d="M124.902614 89.856935
L124.835271 89.789591
" />
<path d="M124.835271 89.789591
L124.767927 89.587561
" />
<path d="M124.767927 89.587561
L124.835271 89.385530
" />
<path d="M124.835271 89.385530
L125.037301 89.183500
" />
<path d="M125.037301 89.183500
L125.104645 88.981469
" />
<path d="M125.104645 88.981469
L125.037301 88.779439
" />
<path d="M125.037301 88.779439
L124.969958 88.712095
" />
<path d="M124.969958 88.712095
L124.767927 88.644752
" />
<path d="M124.767927 88.644752
L124.565897 88.712095
" />
<path d="M124.565897 88.712095
L124.363866 88.914126
" />
<path d="M124.363866 88.914126
L124.296523 89.116156
" />
<path d="M124.498553 90.665057
L123.084339 89.250843
" />
<path d="M123.825118 90.260996
L123.959805 91.203805
" />
<path d="M123.016996 90.260996
L124.094492 90.260996
" />
<path d="M123.353713 91.809897
L122.410904 90.867088
" />
<path d="M121.939499 90.395683
L122.074186 90.395683
" />
<path d="M122.074186 90.395683
L122.074186 90.530370
" />
<path d="M122.074186 90.530370
L121.939499 90.530370
" />
<path d="M121.939499 90.530370
L121.939499 90.395683
" />
<path d="M121.939499 90.395683
L122.074186 90.530370
" />
</g><g transform="rotate(-45.000000 135.246391 84.846391)">
<text x="135.246391" y="84.846391"
transform="scale(-1 1) translate(-270.492782 0)"
textLength="27.466670" font-size="2.666666" lengthAdjust="spacingAndGlyphs"
text-anchor="middle" opacity="0">Jakub Kamieniarz</text>
</g>
<g class="stroked-text"><desc>Jakub Kamieniarz</desc>
<path d="M142.331709 74.557083
L143.341862 75.567236
" />
<path d="M143.341862 75.567236
L143.611236 75.701923
" />
<path d="M143.611236 75.701923
L143.880610 75.701923
" />
<path d="M143.880610 75.701923
L144.149984 75.567236
" />
<path d="M144.149984 75.567236
L144.284671 75.432549
" />
<path d="M142.466396 77.250824
L141.725618 76.510045
" />
<path d="M141.725618 76.510045
L141.658274 76.308015
" />
<path d="M141.658274 76.308015
L141.725618 76.105984
" />
<path d="M141.725618 76.105984
L141.994992 75.836610
" />
<path d="M141.994992 75.836610
L142.197022 75.769267
" />
<path d="M142.399053 77.183480
L142.601083 77.116137
" />
<path d="M142.601083 77.116137
L142.937801 76.779419
" />
<path d="M142.937801 76.779419
L143.005144 76.577389
" />
<path d="M143.005144 76.577389
L142.937801 76.375358
" />
<path d="M142.937801 76.375358
L142.803114 76.240671
" />
<path d="M142.803114 76.240671
L142.601083 76.173328
" />
<path d="M142.601083 76.173328
L142.399053 76.240671
" />
<path d="M142.399053 76.240671
L142.062335 76.577389
" />
<path d="M142.062335 76.577389
L141.860305 76.644732
" />
<path d="M141.792961 77.924259
L140.378747 76.510045
" />
<path d="M141.119526 77.520198
L141.254213 78.463007
" />
<path d="M140.311404 77.520198
L141.388900 77.520198
" />
<path d="M139.099220 78.732381
L140.042030 79.675190
" />
<path d="M139.705312 78.126290
L140.446091 78.867068
" />
<path d="M140.446091 78.867068
L140.513434 79.069099
" />
<path d="M140.513434 79.069099
L140.446091 79.271129
" />
<path d="M140.446091 79.271129
L140.244060 79.473160
" />
<path d="M140.244060 79.473160
L140.042030 79.540503
" />
<path d="M140.042030 79.540503
L139.907343 79.540503
" />
<path d="M139.368594 80.348625
L137.954381 78.934412
" />
<path d="M138.493129 79.473160
L138.291098 79.540503
" />
<path d="M138.291098 79.540503
L138.021724 79.809877
" />
<path d="M138.021724 79.809877
L137.954381 80.011908
" />
<path d="M137.954381 80.011908
L137.954381 80.146595
" />
<path d="M137.954381 80.146595
L138.021724 80.348625
" />
<path d="M138.021724 80.348625
L138.425785 80.752686
" />
<path d="M138.425785 80.752686
L138.627816 80.820030
" />
<path d="M138.627816 80.820030
L138.762503 80.820030
" />
<path d="M138.762503 80.820030
L138.964533 80.752686
" />
<path d="M138.964533 80.752686
L139.233907 80.483312
" />
<path d="M139.233907 80.483312
L139.301251 80.281282
" />
<path d="M137.011571 82.705648
L135.597358 81.291435
" />
<path d="M136.203449 83.513770
L136.001419 82.099557
" />
<path d="M134.789236 82.099557
L136.405480 82.099557
" />
<path d="M134.991266 84.725954
L134.250488 83.985175
" />
<path d="M134.250488 83.985175
L134.183144 83.783145
" />
<path d="M134.183144 83.783145
L134.250488 83.581114
" />
<path d="M134.250488 83.581114
L134.519862 83.311740
" />
<path d="M134.519862 83.311740
L134.721892 83.244396
" />
<path d="M134.923923 84.658610
L135.125953 84.591267
" />
<path d="M135.125953 84.591267
L135.462671 84.254549
" />
<path d="M135.462671 84.254549
L135.530014 84.052519
" />
<path d="M135.530014 84.052519
L135.462671 83.850488
" />
<path d="M135.462671 83.850488
L135.327984 83.715801
" />
<path d="M135.327984 83.715801
L135.125953 83.648458
" />
<path d="M135.125953 83.648458
L134.923923 83.715801
" />
<path d="M134.923923 83.715801
L134.587205 84.052519
" />
<path d="M134.587205 84.052519
L134.385175 84.119862
" />
<path d="M134.317831 85.399389
L133.375022 84.456580
" />
<path d="M133.509709 84.591267
L133.375022 84.591267
" />
<path d="M133.375022 84.591267
L133.172991 84.658610
" />
<path d="M133.172991 84.658610
L132.970961 84.860641
" />
<path d="M132.970961 84.860641
L132.903617 85.062671
" />
<path d="M132.903617 85.062671
L132.970961 85.264702
" />
<path d="M132.970961 85.264702
L133.711740 86.005480
" />
<path d="M132.970961 85.264702
L132.768930 85.197358
" />
<path d="M132.768930 85.197358
L132.566900 85.264702
" />
<path d="M132.566900 85.264702
L132.364869 85.466732
" />
<path d="M132.364869 85.466732
L132.297526 85.668763
" />
<path d="M132.297526 85.668763
L132.364869 85.870793
" />
<path d="M132.364869 85.870793
L133.105648 86.611572
" />
<path d="M132.432213 87.285007
L131.489404 86.342198
" />
<path d="M131.017999 85.870793
L131.152686 85.870793
" />
<path d="M131.152686 85.870793
L131.152686 86.005480
" />
<path d="M131.152686 86.005480
L131.017999 86.005480
" />
<path d="M131.017999 86.005480
L131.017999 85.870793
" />
<path d="M131.017999 85.870793
L131.152686 86.005480
" />
<path d="M131.152686 88.429847
L131.354717 88.362503
" />
<path d="M131.354717 88.362503
L131.624091 88.093129
" />
<path d="M131.624091 88.093129
L131.691434 87.891099
" />
<path d="M131.691434 87.891099
L131.624091 87.689068
" />
<path d="M131.624091 87.689068
L131.085343 87.150320
" />
<path d="M131.085343 87.150320
L130.883312 87.082977
" />
<path d="M130.883312 87.082977
L130.681282 87.150320
" />
<path d="M130.681282 87.150320
L130.411908 87.419694
" />
<path d="M130.411908 87.419694
L130.344564 87.621725
" />
<path d="M130.344564 87.621725
L130.411908 87.823755
" />
<path d="M130.411908 87.823755
L130.546595 87.958442
" />
<path d="M130.546595 87.958442
L131.354717 87.419694
" />
<path d="M129.603785 88.227816
L130.546594 89.170625
" />
<path d="M129.738472 88.362503
L129.603785 88.362503
" />
<path d="M129.603785 88.362503
L129.401755 88.429847
" />
<path d="M129.401755 88.429847
L129.199724 88.631877
" />
<path d="M129.199724 88.631877
L129.132381 88.833908
" />
<path d="M129.132381 88.833908
L129.199724 89.035938
" />
<path d="M129.199724 89.035938
L129.940503 89.776717
" />
<path d="M129.267068 90.450152
L128.324259 89.507343
" />
<path d="M127.852854 89.035938
L127.987541 89.035938
" />
<path d="M127.987541 89.035938
L127.987541 89.170625
" />
<path d="M127.987541 89.170625
L127.852854 89.170625
" />
<path d="M127.852854 89.170625
L127.852854 89.035938
" />
<path d="M127.852854 89.035938
L127.987541 89.170625
" />
<path d="M127.987541 91.729679
L127.246763 90.988900
" />
<path d="M127.246763 90.988900
L127.179419 90.786870
" />
<path d="M127.179419 90.786870
L127.246763 90.584839
" />
<path d="M127.246763 90.584839
L127.516137 90.315465
" />
<path d="M127.516137 90.315465
L127.718167 90.248122
" />
<path d="M127.920198 91.662335
L128.122228 91.594992
" />
<path d="M128.122228 91.594992
L128.458946 91.258274
" />
<path d="M128.458946 91.258274
L128.526289 91.056244
" />
<path d="M128.526289 91.056244
L128.458946 90.854213
" />
<path d="M128.458946 90.854213
L128.324259 90.719526
" />
<path d="M128.324259 90.719526
L128.122228 90.652183
" />
<path d="M128.122228 90.652183
L127.920198 90.719526
" />
<path d="M127.920198 90.719526
L127.583480 91.056244
" />
<path d="M127.583480 91.056244
L127.381450 91.123587
" />
<path d="M127.314106 92.403114
L126.371297 91.460305
" />
<path d="M126.640671 91.729679
L126.438640 91.662335
" />
<path d="M126.438640 91.662335
L126.303953 91.662335
" />
<path d="M126.303953 91.662335
L126.101923 91.729679
" />
<path d="M126.101923 91.729679
L125.967236 91.864366
" />
<path d="M125.630519 92.201083
L124.889740 92.941862
" />
<path d="M124.889740 92.941862
L126.573328 93.143892
" />
<path d="M126.573328 93.143892
L125.832549 93.884671
" />
</g><g transform="rotate(-45.000000 137.523196 87.123196)">
<text x="137.523196" y="87.123196"
transform="scale(-1 1) translate(-275.046392 0)"
textLength="20.800002" font-size="2.666666" lengthAdjust="spacingAndGlyphs"
text-anchor="middle" opacity="0">Adam Detmer</text>
</g>
<g class="stroked-text"><desc>Adam Detmer</desc>
<path d="M143.733048 79.729659
L143.059613 80.403094
" />
<path d="M144.271796 79.999033
L142.386178 79.056224
" />
<path d="M142.386178 79.056224
L143.328987 80.941842
" />
<path d="M142.251491 82.019339
L140.837278 80.605125
" />
<path d="M142.184148 81.951995
L142.386178 81.884652
" />
<path d="M142.386178 81.884652
L142.655552 81.615278
" />
<path d="M142.655552 81.615278
L142.722896 81.413247
" />
<path d="M142.722896 81.413247
L142.722896 81.278560
" />
<path d="M142.722896 81.278560
L142.655552 81.076530
" />
<path d="M142.655552 81.076530
L142.251491 80.672469
" />
<path d="M142.251491 80.672469
L142.049461 80.605125
" />
<path d="M142.049461 80.605125
L141.914774 80.605125
" />
<path d="M141.914774 80.605125
L141.712743 80.672469
" />
<path d="M141.712743 80.672469
L141.443369 80.941843
" />
<path d="M141.443369 80.941843
L141.376026 81.143873
" />
<path d="M140.971964 83.298865
L140.231186 82.558087
" />
<path d="M140.231186 82.558087
L140.163842 82.356056
" />
<path d="M140.163842 82.356056
L140.231186 82.154026
" />
<path d="M140.231186 82.154026
L140.500560 81.884652
" />
<path d="M140.500560 81.884652
L140.702590 81.817308
" />
<path d="M140.904621 83.231522
L141.106651 83.164178
" />
<path d="M141.106651 83.164178
L141.443369 82.827461
" />
<path d="M141.443369 82.827461
L141.510712 82.625430
" />
<path d="M141.510712 82.625430
L141.443369 82.423400
" />
<path d="M141.443369 82.423400
L141.308682 82.288713
" />
<path d="M141.308682 82.288713
L141.106651 82.221369
" />
<path d="M141.106651 82.221369
L140.904621 82.288713
" />
<path d="M140.904621 82.288713
L140.567903 82.625430
" />
<path d="M140.567903 82.625430
L140.365873 82.692774
" />
<path d="M140.298529 83.972301
L139.355720 83.029491
" />
<path d="M139.490407 83.164178
L139.355720 83.164178
" />
<path d="M139.355720 83.164178
L139.153690 83.231522
" />
<path d="M139.153690 83.231522
L138.951659 83.433552
" />
<path d="M138.951659 83.433552
L138.884316 83.635583
" />
<path d="M138.884316 83.635583
L138.951659 83.837614
" />
<path d="M138.951659 83.837614
L139.692438 84.578392
" />
<path d="M138.951659 83.837614
L138.749629 83.770270
" />
<path d="M138.749629 83.770270
L138.547598 83.837614
" />
<path d="M138.547598 83.837614
L138.345568 84.039644
" />
<path d="M138.345568 84.039644
L138.278224 84.241675
" />
<path d="M138.278224 84.241675
L138.345568 84.443705
" />
<path d="M138.345568 84.443705
L139.086346 85.184484
" />
<path d="M137.335415 86.935415
L135.921201 85.521202
" />
<path d="M135.921201 85.521202
L135.584483 85.857919
" />
<path d="M135.584483 85.857919
L135.449796 86.127293
" />
<path d="M135.449796 86.127293
L135.449796 86.396667
" />
<path d="M135.449796 86.396667
L135.517140 86.598698
" />
<path d="M135.517140 86.598698
L135.719170 86.935415
" />
<path d="M135.719170 86.935415
L135.921201 87.137446
" />
<path d="M135.921201 87.137446
L136.257918 87.339476
" />
<path d="M136.257918 87.339476
L136.459949 87.406820
" />
<path d="M136.459949 87.406820
L136.729323 87.406820
" />
<path d="M136.729323 87.406820
L136.998697 87.272133
" />
<path d="M136.998697 87.272133
L137.335415 86.935415
" />
<path d="M135.315109 88.821033
L135.517140 88.753690
" />
<path d="M135.517140 88.753690
L135.786514 88.484316
" />
<path d="M135.786514 88.484316
L135.853857 88.282285
" />
<path d="M135.853857 88.282285
L135.786514 88.080255
" />
<path d="M135.786514 88.080255
L135.247766 87.541507
" />
<path d="M135.247766 87.541507
L135.045735 87.474163
" />
<path d="M135.045735 87.474163
L134.843705 87.541507
" />
<path d="M134.843705 87.541507
L134.574331 87.810881
" />
<path d="M134.574331 87.810881
L134.506987 88.012911
" />
<path d="M134.506987 88.012911
L134.574331 88.214942
" />
<path d="M134.574331 88.214942
L134.709018 88.349629
" />
<path d="M134.709018 88.349629
L135.517140 87.810881
" />
<path d="M133.968239 88.416972
L133.429491 88.955721
" />
<path d="M133.294804 88.147598
L134.506987 89.359782
" />
<path d="M134.506987 89.359782
L134.574331 89.561812
" />
<path d="M134.574331 89.561812
L134.506987 89.763843
" />
<path d="M134.506987 89.763843
L134.372300 89.898530
" />
<path d="M133.900896 90.369934
L132.958087 89.427125
" />
<path d="M133.092774 89.561812
L132.958087 89.561812
" />
<path d="M132.958087 89.561812
L132.756056 89.629155
" />
<path d="M132.756056 89.629155
L132.554026 89.831186
" />
<path d="M132.554026 89.831186
L132.486682 90.033216
" />
<path d="M132.486682 90.033216
L132.554026 90.235247
" />
<path d="M132.554026 90.235247
L133.294804 90.976025
" />
<path d="M132.554026 90.235247
L132.351995 90.167903
" />
<path d="M132.351995 90.167903
L132.149965 90.235247
" />
<path d="M132.149965 90.235247
L131.947934 90.437277
" />
<path d="M131.947934 90.437277
L131.880591 90.639308
" />
<path d="M131.880591 90.639308
L131.947934 90.841338
" />
<path d="M131.947934 90.841338
L132.688713 91.582117
" />
<path d="M131.409186 92.726957
L131.611216 92.659613
" />
<path d="M131.611216 92.659613
L131.880590 92.390239
" />
<path d="M131.880590 92.390239
L131.947934 92.188209
" />
<path d="M131.947934 92.188209
L131.880590 91.986178
" />
<path d="M131.880590 91.986178
L131.341842 91.447430
" />
<path d="M131.341842 91.447430
L131.139812 91.380087
" />
<path d="M131.139812 91.380087
L130.937781 91.447430
" />
<path d="M130.937781 91.447430
L130.668407 91.716804
" />
<path d="M130.668407 91.716804
L130.601064 91.918835
" />
<path d="M130.601064 91.918835
L130.668407 92.120865
" />
<path d="M130.668407 92.120865
L130.803094 92.255552
" />
<path d="M130.803094 92.255552
L131.611216 91.716804
" />
<path d="M130.803094 93.467736
L129.860285 92.524926
" />
<path d="M130.129659 92.794301
L129.927629 92.726957
" />
<path d="M129.927629 92.726957
L129.792942 92.726957
" />
<path d="M129.792942 92.726957
L129.590911 92.794301
" />
<path d="M129.590911 92.794301
L129.456224 92.928988
" />
</g><g transform="rotate(-45.000000 139.800001 89.400001)">
<text x="139.800001" y="89.400001"
transform="scale(-1 1) translate(-279.600002 0)"
textLength="18.704764" font-size="2.666666" lengthAdjust="spacingAndGlyphs"
text-anchor="middle" opacity="0">Jakub Buler</text>
</g>
<g class="stroked-text"><desc>Jakub Buler</desc>
<path d="M143.787518 82.208495
L144.797670 83.218647
" />
<path d="M144.797670 83.218647
L145.067044 83.353334
" />
<path d="M145.067044 83.353334
L145.336418 83.353334
" />
<path d="M145.336418 83.353334
L145.605792 83.218647
" />
<path d="M145.605792 83.218647
L145.740479 83.083960
" />
<path d="M143.922204 84.902235
L143.181426 84.161457
" />
<path d="M143.181426 84.161457
L143.114082 83.959426
" />
<path d="M143.114082 83.959426
L143.181426 83.757396
" />
<path d="M143.181426 83.757396
L143.450800 83.488022
" />
<path d="M143.450800 83.488022
L143.652830 83.420678
" />
<path d="M143.854861 84.834892
L144.056891 84.767548
" />
<path d="M144.056891 84.767548
L144.393609 84.430831
" />
<path d="M144.393609 84.430831
L144.460952 84.228800
" />
<path d="M144.460952 84.228800
L144.393609 84.026770
" />
<path d="M144.393609 84.026770
L144.258922 83.892083
" />
<path d="M144.258922 83.892083
L144.056891 83.824739
" />
<path d="M144.056891 83.824739
L143.854861 83.892083
" />
<path d="M143.854861 83.892083
L143.518143 84.228800
" />
<path d="M143.518143 84.228800
L143.316113 84.296144
" />
<path d="M143.248769 85.575670
L141.834556 84.161457
" />
<path d="M142.575334 85.171609
L142.710021 86.114418
" />
<path d="M141.767212 85.171609
L142.844708 85.171609
" />
<path d="M140.555029 86.383793
L141.497838 87.326602
" />
<path d="M141.161120 85.777701
L141.901899 86.518480
" />
<path d="M141.901899 86.518480
L141.969242 86.720510
" />
<path d="M141.969242 86.720510
L141.901899 86.922541
" />
<path d="M141.901899 86.922541
L141.699868 87.124571
" />
<path d="M141.699868 87.124571
L141.497838 87.191915
" />
<path d="M141.497838 87.191915
L141.363151 87.191915
" />
<path d="M140.824403 88.000037
L139.410189 86.585823
" />
<path d="M139.948937 87.124571
L139.746907 87.191915
" />
<path d="M139.746907 87.191915
L139.477533 87.461289
" />
<path d="M139.477533 87.461289
L139.410189 87.663319
" />
<path d="M139.410189 87.663319
L139.410189 87.798006
" />
<path d="M139.410189 87.798006
L139.477533 88.000037
" />
<path d="M139.477533 88.000037
L139.881594 88.404098
" />
<path d="M139.881594 88.404098
L140.083624 88.471441
" />
<path d="M140.083624 88.471441
L140.218311 88.471441
" />
<path d="M140.218311 88.471441
L140.420342 88.404098
" />
<path d="M140.420342 88.404098
L140.689716 88.134724
" />
<path d="M140.689716 88.134724
L140.757059 87.932693
" />
<path d="M137.255197 90.087686
L137.120510 90.357060
" />
<path d="M137.120510 90.357060
L137.120510 90.491747
" />
<path d="M137.120510 90.491747
L137.187853 90.693778
" />
<path d="M137.187853 90.693778
L137.389884 90.895808
" />
<path d="M137.389884 90.895808
L137.591914 90.963152
" />
<path d="M137.591914 90.963152
L137.726601 90.963152
" />
<path d="M137.726601 90.963152
L137.928632 90.895808
" />
<path d="M137.928632 90.895808
L138.467380 90.357060
" />
<path d="M138.467380 90.357060
L137.053166 88.942846
" />
<path d="M137.053166 88.942846
L136.581762 89.414251
" />
<path d="M136.581762 89.414251
L136.514418 89.616282
" />
<path d="M136.514418 89.616282
L136.514418 89.750969
" />
<path d="M136.514418 89.750969
L136.581762 89.952999
" />
<path d="M136.581762 89.952999
L136.716449 90.087686
" />
<path d="M136.716449 90.087686
L136.918479 90.155030
" />
<path d="M136.918479 90.155030
L137.053166 90.155030
" />
<path d="M137.053166 90.155030
L137.255197 90.087686
" />
<path d="M137.255197 90.087686
L137.726601 89.616282
" />
<path d="M135.504266 91.434556
L136.447075 92.377365
" />
<path d="M136.110357 90.828465
L136.851136 91.569243
" />
<path d="M136.851136 91.569243
L136.918479 91.771274
" />
<path d="M136.918479 91.771274
L136.851136 91.973304
" />
<path d="M136.851136 91.973304
L136.649105 92.175335
" />
<path d="M136.649105 92.175335
L136.447075 92.242678
" />
<path d="M136.447075 92.242678
L136.312388 92.242678
" />
<path d="M135.571609 93.252831
L135.638952 93.050800
" />
<path d="M135.638952 93.050800
L135.571609 92.848770
" />
<path d="M135.571609 92.848770
L134.359426 91.636587
" />
<path d="M134.426769 94.262983
L134.628800 94.195640
" />
<path d="M134.628800 94.195640
L134.898174 93.926266
" />
<path d="M134.898174 93.926266
L134.965517 93.724235
" />
<path d="M134.965517 93.724235
L134.898174 93.522205
" />
<path d="M134.898174 93.522205
L134.359426 92.983457
" />
<path d="M134.359426 92.983457
L134.157395 92.916113
" />
<path d="M134.157395 92.916113
L133.955365 92.983457
" />
<path d="M133.955365 92.983457
L133.685991 93.252831
" />
<path d="M133.685991 93.252831
L133.618647 93.454861
" />
<path d="M133.618647 93.454861
L133.685991 93.656892
" />
<path d="M133.685991 93.656892
L133.820678 93.791579
" />
<path d="M133.820678 93.791579
L134.628800 93.252831
" />
<path d="M133.820678 95.003762
L132.877869 94.060953
" />
<path d="M133.147243 94.330327
L132.945212 94.262984
" />
<path d="M132.945212 94.262984
L132.810525 94.262984
" />
<path d="M132.810525 94.262984
L132.608495 94.330327
" />
<path d="M132.608495 94.330327
L132.473808 94.465014
" />
</g></g>
<g style="fill:none; 
stroke:#FFFFFF; stroke-width:0.625000; stroke-opacity:1; 
stroke-linecap:round; stroke-linejoin:round;">
<g transform="rotate(-45.000000 80.153994 60.153994)">
<text x="80.153994" y="60.153994"
transform="scale(-1 1) translate(-160.307988 0)"
textLength="8.517857" font-size="3.333333" lengthAdjust="spacingAndGlyphs"
text-anchor="middle" opacity="0">WIIT</text>
</g>
<g class="stroked-text"><desc>WIIT</desc>
<path d="M80.419747 55.874062
L81.766617 58.062726
" />
<path d="M81.766617 58.062726
L80.167209 57.136752
" />
<path d="M80.167209 57.136752
L81.093182 58.736161
" />
<path d="M81.093182 58.736161
L78.904519 57.389291
" />
<path d="M79.998850 59.830493
L78.231083 58.062726
" />
<path d="M79.157057 60.672286
L77.389290 58.904519
" />
<path d="M76.800034 59.493775
L75.789882 60.503927
" />
<path d="M78.062725 61.766618
L76.294958 59.998851
" />
</g><g transform="rotate(-45.000000 83.000000 63.000000)">
<text x="83.000000" y="63.000000"
transform="scale(-1 1) translate(-166.000000 0)"
textLength="17.803570" font-size="3.333333" lengthAdjust="spacingAndGlyphs"
text-anchor="middle" opacity="0">PP 2024</text>
</g>
<g class="stroked-text"><desc>PP 2024</desc>
<path d="M88.148157 57.373198
L86.380390 55.605431
" />
<path d="M86.380390 55.605431
L85.706955 56.278866
" />
<path d="M85.706955 56.278866
L85.622776 56.531404
" />
<path d="M85.622776 56.531404
L85.622776 56.699763
" />
<path d="M85.622776 56.699763
L85.706955 56.952301
" />
<path d="M85.706955 56.952301
L85.959493 57.204839
" />
<path d="M85.959493 57.204839
L86.212032 57.289018
" />
<path d="M86.212032 57.289018
L86.380390 57.289018
" />
<path d="M86.380390 57.289018
L86.632928 57.204839
" />
<path d="M86.632928 57.204839
L87.306363 56.531404
" />
<path d="M86.380390 59.140965
L84.612623 57.373198
" />
<path d="M84.612623 57.373198
L83.939188 58.046633
" />
<path d="M83.939188 58.046633
L83.855009 58.299171
" />
<path d="M83.855009 58.299171
L83.855009 58.467530
" />
<path d="M83.855009 58.467530
L83.939188 58.720068
" />
<path d="M83.939188 58.720068
L84.191726 58.972606
" />
<path d="M84.191726 58.972606
L84.444265 59.056785
" />
<path d="M84.444265 59.056785
L84.612623 59.056785
" />
<path d="M84.612623 59.056785
L84.865161 58.972606
" />
<path d="M84.865161 58.972606
L85.538597 58.299171
" />
<path d="M81.750524 60.572014
L81.582166 60.572014
" />
<path d="M81.582166 60.572014
L81.329628 60.656194
" />
<path d="M81.329628 60.656194
L80.908731 61.077091
" />
<path d="M80.908731 61.077091
L80.824551 61.329629
" />
<path d="M80.824551 61.329629
L80.824551 61.497987
" />
<path d="M80.824551 61.497987
L80.908731 61.750526
" />
<path d="M80.908731 61.750526
L81.077089 61.918884
" />
<path d="M81.077089 61.918884
L81.413807 62.087243
" />
<path d="M81.413807 62.087243
L83.434112 62.087243
" />
<path d="M83.434112 62.087243
L82.339780 63.181575
" />
<path d="M79.477681 62.508140
L79.309323 62.676498
" />
<path d="M79.309323 62.676498
L79.225143 62.929037
" />
<path d="M79.225143 62.929037
L79.225143 63.097395
" />
<path d="M79.225143 63.097395
L79.309323 63.349933
" />
<path d="M79.309323 63.349933
L79.561861 63.770830
" />
<path d="M79.561861 63.770830
L79.982758 64.191727
" />
<path d="M79.982758 64.191727
L80.403655 64.444265
" />
<path d="M80.403655 64.444265
L80.656193 64.528445
" />
<path d="M80.656193 64.528445
L80.824552 64.528445
" />
<path d="M80.824552 64.528445
L81.077090 64.444265
" />
<path d="M81.077090 64.444265
L81.245448 64.275907
" />
<path d="M81.245448 64.275907
L81.329628 64.023369
" />
<path d="M81.329628 64.023369
L81.329628 63.855010
" />
<path d="M81.329628 63.855010
L81.245448 63.602472
" />
<path d="M81.245448 63.602472
L80.992910 63.181575
" />
<path d="M80.992910 63.181575
L80.572013 62.760678
" />
<path d="M80.572013 62.760678
L80.151116 62.508140
" />
<path d="M80.151116 62.508140
L79.898578 62.423960
" />
<path d="M79.898578 62.423960
L79.730220 62.423960
" />
<path d="M79.730220 62.423960
L79.477681 62.508140
" />
<path d="M78.383350 63.939189
L78.214991 63.939189
" />
<path d="M78.214991 63.939189
L77.962453 64.023368
" />
<path d="M77.962453 64.023368
L77.541556 64.444265
" />
<path d="M77.541556 64.444265
L77.457377 64.696803
" />
<path d="M77.457377 64.696803
L77.457377 64.865162
" />
<path d="M77.457377 64.865162
L77.541556 65.117700
" />
<path d="M77.541556 65.117700
L77.709915 65.286059
" />
<path d="M77.709915 65.286059
L78.046632 65.454418
" />
<path d="M78.046632 65.454418
L80.066937 65.454418
" />
<path d="M80.066937 65.454418
L78.972605 66.548750
" />
<path d="M76.278866 66.885467
L77.457377 68.063978
" />
<path d="M76.026327 65.791135
L77.709915 66.632929
" />
<path d="M77.709915 66.632929
L76.615583 67.727261
" />
</g><path style="fill:#FFFFFF; fill-opacity:1.000000; stroke:none;fill-rule:evenodd;"
d="M 143.200000,65.920000
144.900000,65.920000
144.900000,67.620000
143.200000,67.620000
Z" /> 
</g>
<g style="fill:#FFFFFF; fill-opacity:1.000000; stroke:none;">
<circle cx="141.510000" cy="66.770000" r="0.850000" /> 
<circle cx="138.970000" cy="66.770000" r="0.850000" /> 
<circle cx="136.430000" cy="66.770000" r="0.850000" /> 
<path style="fill:#FFFFFF; fill-opacity:1.000000; stroke:none;fill-rule:evenodd;"
d="M 95.030000,71.650000
93.330000,71.650000
93.330000,69.950000
95.030000,69.950000
Z" /> 
<circle cx="96.720000" cy="70.800000" r="0.850000" /> 
<circle cx="99.260000" cy="70.800000" r="0.850000" /> 
<circle cx="101.800000" cy="70.800000" r="0.850000" /> 
<circle cx="81.110000" cy="80.250000" r="0.800000" /> 
</g>
<g style="fill:#FFFFFF; fill-opacity:1.000000; stroke:none;">
<circle cx="81.110000" cy="90.410000" r="0.800000" /> 
<circle cx="102.750000" cy="90.000000" r="0.800000" /> 
</g>
<g style="fill:#FFFFFF; fill-opacity:1.000000; stroke:none;">
<circle cx="102.750000" cy="87.500000" r="0.800000" /> 
<path style="fill:#FFFFFF; fill-opacity:1.000000; stroke:none;fill-rule:evenodd;"
d="M 100.900000,55.550000
100.900000,53.850000
102.600000,53.850000
102.600000,55.550000
Z" /> 
</g>
<g style="fill:#FFFFFF; fill-opacity:1.000000; stroke:none;">
<circle cx="101.750000" cy="57.240000" r="0.850000" /> 
<circle cx="101.750000" cy="59.780000" r="0.850000" /> 
<circle cx="101.750000" cy="62.320000" r="0.850000" /> 
<circle cx="98.500000" cy="90.000000" r="0.800000" /> 
</g>
<g style="fill:#FFFFFF; fill-opacity:1.000000; stroke:none;">
<circle cx="98.500000" cy="87.500000" r="0.800000" /> 
</g>
<g style="fill:#FFFFFF; fill-opacity:1.000000; stroke:none;">
<circle cx="114.300000" cy="88.000000" r="0.750000" /> 
</g>
<g style="fill:#FFFFFF; fill-opacity:1.000000; stroke:none;">
<circle cx="109.420000" cy="88.000000" r="0.750000" /> 
</g>
<g style="fill:#FFFFFF; fill-opacity:1.000000; stroke:none;">
<circle cx="92.250000" cy="95.110000" r="1.000000" /> 
</g>
<g style="fill:#FFFFFF; fill-opacity:1.000000; stroke:none;">
<circle cx="85.750000" cy="95.110000" r="1.000000" /> 
</g>
<g style="fill:#FFFFFF; fill-opacity:1.000000; stroke:none;">
<circle cx="92.250000" cy="90.610000" r="1.000000" /> 
</g>
<g style="fill:#FFFFFF; fill-opacity:1.000000; stroke:none;">
<circle cx="85.750000" cy="90.610000" r="1.000000" /> 
<path style="fill:#FFFFFF; fill-opacity:1.000000; stroke:none;fill-rule:evenodd;"
d="M 95.030000,60.630000
93.330000,60.630000
93.330000,58.930000
95.030000,58.930000
Z" /> 
</g>
<g style="fill:#FFFFFF; fill-opacity:1.000000; stroke:none;">
<circle cx="96.720000" cy="59.780000" r="0.850000" /> 
<path style="fill:#FFFFFF; fill-opacity:1.000000; stroke:none;fill-rule:evenodd;"
d="M 89.850000,82.420000
88.250000,82.420000
88.250000,80.820000
89.850000,80.820000
Z" /> 
<circle cx="91.590000" cy="81.620000" r="0.800000" /> 
<circle cx="94.130000" cy="81.620000" r="0.800000" /> 
<circle cx="96.670000" cy="81.620000" r="0.800000" /> 
<circle cx="99.210000" cy="81.620000" r="0.800000" /> 
<circle cx="101.750000" cy="81.620000" r="0.800000" /> 
<circle cx="104.290000" cy="81.620000" r="0.800000" /> 
<circle cx="106.830000" cy="81.620000" r="0.800000" /> 
<circle cx="109.370000" cy="81.620000" r="0.800000" /> 
<circle cx="111.910000" cy="81.620000" r="0.800000" /> 
<circle cx="114.450000" cy="81.620000" r="0.800000" /> 
<circle cx="116.990000" cy="81.620000" r="0.800000" /> 
<circle cx="119.530000" cy="81.620000" r="0.800000" /> 
<circle cx="122.070000" cy="81.620000" r="0.800000" /> 
<circle cx="122.070000" cy="74.000000" r="0.800000" /> 
<circle cx="119.530000" cy="74.000000" r="0.800000" /> 
<circle cx="116.990000" cy="74.000000" r="0.800000" /> 
<circle cx="114.450000" cy="74.000000" r="0.800000" /> 
<circle cx="111.910000" cy="74.000000" r="0.800000" /> 
<circle cx="109.370000" cy="74.000000" r="0.800000" /> 
<circle cx="106.830000" cy="74.000000" r="0.800000" /> 
<circle cx="104.290000" cy="74.000000" r="0.800000" /> 
<circle cx="101.750000" cy="74.000000" r="0.800000" /> 
<circle cx="99.210000" cy="74.000000" r="0.800000" /> 
<circle cx="96.670000" cy="74.000000" r="0.800000" /> 
<circle cx="94.130000" cy="74.000000" r="0.800000" /> 
<circle cx="91.590000" cy="74.000000" r="0.800000" /> 
<circle cx="89.050000" cy="74.000000" r="0.800000" /> 
<path style="fill:#FFFFFF; fill-opacity:1.000000; stroke:none;fill-rule:evenodd;"
d="M 89.950000,85.850000
88.250000,85.850000
88.250000,84.150000
89.950000,84.150000
Z" /> 
<circle cx="91.640000" cy="85.000000" r="0.850000" /> 
<circle cx="94.180000" cy="85.000000" r="0.850000" /> 
<path style="fill:#FFFFFF; fill-opacity:1.000000; stroke:none;fill-rule:evenodd;"
d="M 124.400000,55.550000
124.400000,53.850000
126.100000,53.850000
126.100000,55.550000
Z" /> 
<circle cx="125.250000" cy="57.240000" r="0.850000" /> 
<circle cx="125.250000" cy="59.780000" r="0.850000" /> 
<circle cx="125.250000" cy="62.320000" r="0.850000" /> 
<path style="fill:#FFFFFF; fill-opacity:1.000000; stroke:none;fill-rule:evenodd;"
d="M 112.650000,55.550000
112.650000,53.850000
114.350000,53.850000
114.350000,55.550000
Z" /> 
<circle cx="113.500000" cy="57.240000" r="0.850000" /> 
<circle cx="113.500000" cy="59.780000" r="0.850000" /> 
<circle cx="113.500000" cy="62.320000" r="0.850000" /> 
<path style="fill:#FFFFFF; fill-opacity:1.000000; stroke:none;fill-rule:evenodd;"
d="M 136.150000,55.550000
136.150000,53.850000
137.850000,53.850000
137.850000,55.550000
Z" /> 
<circle cx="137.000000" cy="57.240000" r="0.850000" /> 
<circle cx="137.000000" cy="59.780000" r="0.850000" /> 
<circle cx="137.000000" cy="62.320000" r="0.850000" /> 
</g>
<g style="fill:none; 
stroke:#FFFFFF; stroke-width:1.000000; stroke-opacity:1; 
stroke-linecap:round; stroke-linejoin:round;">
<path d="M113.714213 91.785787
L112.585786 92.914214
" />
<path d="M113.464466 87.074466
L114.390000 88.000000
" />
<path d="M114.300000 88.000000
L114.300000 90.371573
" />
<path d="M99.914213 92.914213
L99.085786 92.085786
" />
<path d="M98.500000 90.671573
L98.500000 90.000000
" />
<path d="M111.171573 93.500000
L101.328427 93.500000
" />
<path d="M112.000000 81.620000
L112.000000 83.538932
" />
<path d="M114.390000 88.000000
L114.390000 88.378932
" />
<path d="M98.500000 90.671573 A2.000000 2.000000 0.0 0 0 99.085772 92.085800" />
<path d="M111.171573 93.500000 A2.000000 2.000000 0.0 0 0 112.585800 92.914228" />
<path d="M111.999977 83.538932 A5.000023 5.000023 0.0 0 0 113.464466 87.074466" />
<path d="M99.914199 92.914227 A2.000000 2.000000 0.0 0 0 101.328427 93.500000" />
<path d="M113.714213 91.785787 A1.999981 1.999981 0.0 0 0 114.299981 90.371573" />
<path d="M78.842659 93.749962
L78.171349 93.078651
" />
<path d="M76.090000 81.906854
L76.090000 89.340448
" />
<path d="M137.000000 54.700000
L137.000000 53.500000
" />
<path d="M101.340000 87.500000
L96.340000 87.500000
" />
<path d="M79.616911 94.524213
L77.046349 91.953651
" />
<path d="M78.171349 93.078651
L77.046349 91.953651
" />
<path d="M91.000000 65.340000
L91.000000 66.500000
" />
<path d="M139.014718 54.085786
L142.585534 57.656602
" />
<path d="M113.600000 53.500000
L113.600000 54.600000
" />
<path d="M94.180000 61.331573
L94.180000 59.500000
" />
<path d="M144.050000 61.192136
L144.050000 66.770000
" />
<path d="M94.180000 58.500000
L94.180000 59.500000
" />
<path d="M95.590000 89.078427
L95.590000 94.250000
" />
<path d="M93.901573 95.110000
L84.342136 95.110000
" />
<path d="M137.000000 53.500000
L137.600505 53.500000
" />
<path d="M101.800000 53.500000
L99.180000 53.500000
" />
<path d="M94.180000 59.780000
L94.180000 61.331573
" />
<path d="M103.425787 86.914213
L106.334214 84.005786
" />
<path d="M95.590000 94.250000
L95.315787 94.524213
" />
<path d="M101.800000 53.500000
L101.750000 53.550000
" />
<path d="M93.594213 62.745787
L92.045000 64.295000
" />
<path d="M85.750000 95.110000
L81.031125 95.110000
" />
<path d="M113.600000 54.600000
L113.500000 54.700000
" />
<path d="M104.380000 73.540000
L104.380000 74.302943
" />
<path d="M96.340000 87.500000
L96.175787 87.664213
" />
<path d="M113.600000 53.500000
L101.800000 53.500000
" />
<path d="M125.400000 53.500000
L113.600000 53.500000
" />
<path d="M125.250000 54.700000
L125.250000 53.650000
" />
<path d="M92.045000 64.295000
L86.920000 69.420000
" />
<path d="M125.250000 53.650000
L125.400000 53.500000
" />
<path d="M89.840000 66.500000
L91.000000 66.500000
" />
<path d="M102.835787 67.085787
L103.704214 67.954214
" />
<path d="M106.920000 82.591573
L106.920000 81.620000
" />
<path d="M101.750000 53.550000
L101.750000 54.700000
" />
<path d="M101.340000 87.500000
L102.011573 87.500000
" />
<path d="M94.180000 61.851573
L94.180000 59.780000
" />
<path d="M91.000000 66.500000
L101.421573 66.500000
" />
<path d="M137.000000 53.500000
L125.400000 53.500000
" />
<path d="M77.261573 79.078427
L86.920000 69.420000
" />
<path d="M94.180000 59.500000
L94.180000 61.851573
" />
<path d="M77.261573 92.168875
L78.171349 93.078651
" />
<path d="M104.290000 73.450000
L104.380000 73.540000
" />
<path d="M104.290000 69.368427
L104.290000 73.450000
" />
<path d="M86.920000 69.420000
L89.840000 66.500000
" />
<path d="M101.840000 87.500000
L101.340000 87.500000
" />
<path d="M79.616911 94.524213 A1.999982 1.999982 0.0 0 0 81.031125 95.109982" />
<path d="M77.261596 79.078450 A4.000000 4.000000 0.0 0 0 76.090000 81.906854" />
<path d="M106.334214 84.005786 A1.999981 1.999981 0.0 0 0 106.919981 82.591573" />
<path d="M99.180000 53.500000 A5.000000 5.000000 0.0 0 0 94.180000 58.500000" />
<path d="M102.835801 67.085773 A2.000000 2.000000 0.0 0 0 101.421573 66.500000" />
<path d="M144.049975 61.192136 A4.999975 4.999975 0.0 0 0 142.585534 57.656602" />
<path d="M139.014716 54.085788 A2.000000 2.000000 0.0 0 0 137.600505 53.500000" />
<path d="M93.901573 95.109981 A1.999981 1.999981 0.0 0 0 95.315787 94.524213" />
<path d="M93.594227 62.745801 A2.000000 2.000000 0.0 0 0 94.180000 61.331573" />
<path d="M104.289981 69.368427 A1.999981 1.999981 0.0 0 0 103.704214 67.954214" />
<path d="M76.090000 89.340448 A4.000000 4.000000 0.0 0 0 77.261597 92.168851" />
<path d="M96.175787 87.664213 A1.999981 1.999981 0.0 0 0 95.590019 89.078427" />
<path d="M102.011573 87.499981 A1.999981 1.999981 0.0 0 0 103.425787 86.914213" />
<path d="M108.974466 88.535534
L109.510000 88.000000
" />
<path d="M109.510000 88.000000
L109.510000 81.670000
" />
<path d="M109.510000 81.670000
L109.460000 81.620000
" />
<path d="M102.840000 90.000000
L105.438932 90.000000
" />
<path d="M105.438932 90.000023 A5.000023 5.000023 0.0 0 0 108.974466 88.535534" />
<path d="M106.920000 74.000000
L109.460000 74.000000
" />
<path d="M135.400000 57.240000
L137.076296 57.240000
" />
<path d="M113.500000 62.320000
L111.948427 62.320000
" />
<path d="M105.365534 65.935534
L101.750000 62.320000
" />
<path d="M105.840000 57.240000
L117.590000 57.240000
" />
<path d="M106.920000 74.000000
L106.920000 77.538881
" />
<path d="M106.334213 78.953095
L104.380000 80.907308
" />
<path d="M101.750000 62.320000
L99.220000 62.320000
" />
<path d="M125.340000 62.320000
L124.966346 62.320000
" />
<path d="M110.100000 61.300000
L106.625786 57.825786
" />
<path d="M96.720000 59.820000
L96.720000 59.740000
" />
<path d="M137.090000 57.240000
L137.339699 57.240000
" />
<path d="M136.520000 66.770000
L136.520000 62.890000
" />
<path d="M105.211573 57.240000
L104.600000 57.240000
" />
<path d="M106.920000 77.538881
L87.539546 77.538881
" />
<path d="M104.380000 80.907308
L104.380000 81.620000
" />
<path d="M101.840000 57.240000
L104.600000 57.240000
" />
<path d="M106.830000 74.000000
L106.830000 69.471068
" />
<path d="M99.220000 57.240000
L101.750000 57.240000
" />
<path d="M140.653806 59.939340
L140.653806 60.320000
" />
<path d="M137.000000 57.240000
L137.954466 57.240000
" />
<path d="M86.125332 78.124668
L84.585786 79.664214
" />
<path d="M117.590000 57.240000
L135.400000 57.240000
" />
<path d="M106.870000 73.950000
L106.920000 74.000000
" />
<path d="M135.400000 57.240000
L137.090000 57.240000
" />
<path d="M83.171573 80.250000
L81.110000 80.250000
" />
<path d="M123.552132 61.734213
L119.643705 57.825786
" />
<path d="M137.076296 57.240000
L137.116296 57.200000
" />
<path d="M110.534213 61.734213
L110.100000 61.300000
" />
<path d="M138.653806 62.320000
L137.000000 62.320000
" />
<path d="M107.307919 57.240000
L105.840000 57.240000
" />
<path d="M104.600000 57.240000
L105.840000 57.240000
" />
<path d="M118.229492 57.240000
L117.590000 57.240000
" />
<path d="M139.722233 57.972233
L139.921573 58.171573
" />
<path d="M136.520000 62.890000
L137.090000 62.320000
" />
<path d="M87.539546 77.538881 A2.000019 2.000019 0.0 0 0 86.125305 78.124641" />
<path d="M83.171573 80.249981 A1.999981 1.999981 0.0 0 0 84.585786 79.664214" />
<path d="M106.830023 69.471068 A5.000023 5.000023 0.0 0 0 105.365534 65.935534" />
<path d="M110.534213 61.734213 A1.999981 1.999981 0.0 0 0 111.948427 62.319981" />
<path d="M138.653806 62.320006 A2.000006 2.000006 0.0 0 0 140.653806 60.320000" />
<path d="M139.722250 57.972216 A2.500000 2.500000 0.0 0 0 137.954466 57.240000" />
<path d="M140.653806 59.939340 A2.500006 2.500006 0.0 0 0 139.921594 58.171552" />
<path d="M99.220000 57.240000 A2.500000 2.500000 0.0 0 0 96.720000 59.740000" />
<path d="M106.625786 57.825786 A1.999981 1.999981 0.0 0 0 105.211573 57.240019" />
<path d="M119.643705 57.825786 A1.999994 1.999994 0.0 0 0 118.229492 57.240006" />
<path d="M96.720000 59.820000 A2.500000 2.500000 0.0 0 0 99.220000 62.320000" />
<path d="M123.552109 61.734236 A2.000000 2.000000 0.0 0 0 124.966346 62.320000" />
<path d="M106.334223 78.953105 A2.000000 2.000000 0.0 0 0 106.920000 77.538881" />
<path d="M117.080000 74.000000
L117.080000 73.697057
" />
<path d="M101.920302 59.780000
L101.840000 59.780000
" />
<path d="M116.494213 72.282843
L105.455836 61.244466
" />
<path d="M117.080000 73.697057 A2.000000 2.000000 0.0 0 0 116.494192 72.282864" />
<path d="M105.455835 61.244467 A5.000000 5.000000 0.0 0 0 101.920302 59.780000" />
<path d="M119.034214 63.157479
L116.242521 60.365786
" />
<path d="M114.828308 59.780000
L113.590000 59.780000
" />
<path d="M119.620000 64.571692
L119.620000 74.000000
" />
<path d="M116.242521 60.365786 A2.000006 2.000006 0.0 0 0 114.828308 59.779994" />
<path d="M119.620006 64.571692 A2.000006 2.000006 0.0 0 0 119.034214 63.157479" />
<path d="M122.070000 72.684214
L122.070000 74.000000
" />
<path d="M126.000000 59.780000
L125.250000 59.780000
" />
<path d="M128.121320 65.390253
L122.948679 70.562894
" />
<path d="M129.000000 63.268932
L129.000000 62.780000
" />
<path d="M129.000000 62.780000 A3.000000 3.000000 0.0 0 0 126.000000 59.780000" />
<path d="M128.121320 65.390253 A3.000023 3.000023 0.0 0 0 129.000023 63.268932" />
<path d="M122.948672 70.562887 A3.000000 3.000000 0.0 0 0 122.070000 72.684214" />
<path d="M134.717438 59.781508
L134.848427 59.780000
" />
<path d="M132.600000 62.028427
L132.601489 61.897437
" />
<path d="M132.803735 61.142606
L132.934723 60.915723
" />
<path d="M132.600000 67.757864
L132.600000 62.028427
" />
<path d="M117.575787 79.902843
L118.204165 79.274465
" />
<path d="M132.703483 61.384645
L132.803735 61.142606
" />
<path d="M133.527891 60.274219
L133.735733 60.114739
" />
<path d="M132.934723 60.915723
L133.094204 60.707879
" />
<path d="M121.739699 77.809999
L123.750000 77.809999
" />
<path d="M133.434213 60.365787
L133.527891 60.274219
" />
<path d="M133.962614 59.983753
L134.204650 59.883501
" />
<path d="M134.457702 59.815700
L134.717438 59.781508
" />
<path d="M132.601489 61.897437
L132.635681 61.637698
" />
<path d="M116.990000 81.620000
L116.990000 81.317057
" />
<path d="M133.094204 60.707879
L133.185786 60.614214
" />
<path d="M133.735733 60.114739
L133.962614 59.983753
" />
<path d="M117.080000 81.317057
L117.080000 81.922943
" />
<path d="M133.185786 60.614214
L133.434213 60.365787
" />
<path d="M124.618933 77.809999
L123.750000 77.809999
" />
<path d="M132.635681 61.637698
L132.703483 61.384645
" />
<path d="M134.204650 59.883501
L134.457702 59.815700
" />
<path d="M129.671068 74.828932
L128.154467 76.345533
" />
<path d="M134.848427 59.780000
L137.090000 59.780000
" />
<path d="M121.739699 77.809999 A5.000001 5.000001 0.0 0 0 118.204165 79.274465" />
<path d="M129.671068 74.828932 A9.999975 9.999975 0.0 0 0 132.599975 67.757864" />
<path d="M117.575787 79.902843 A2.000030 2.000030 0.0 0 0 116.989970 81.317057" />
<path d="M124.618933 77.810023 A5.000023 5.000023 0.0 0 0 128.154467 76.345533" />
<path d="M101.840000 74.000000
L101.790000 73.950000
" />
<path d="M101.840000 74.000000
L101.840000 73.535534
" />
<path d="M101.750000 74.000000
L101.750000 70.850000
" />
<path d="M101.750000 70.850000
L101.800000 70.800000
" />
<path d="M99.250000 73.950000
L99.300000 74.000000
" />
<path d="M99.260000 73.950000
L99.210000 74.000000
" />
<path d="M99.260000 70.800000
L99.260000 73.950000
" />
<path d="M96.710000 73.950000
L96.760000 74.000000
" />
<path d="M96.720000 73.950000
L96.670000 74.000000
" />
<path d="M96.720000 70.800000
L96.720000 73.950000
" />
<path d="M94.170000 73.950000
L94.220000 74.000000
" />
<path d="M94.180000 73.950000
L94.130000 74.000000
" />
<path d="M94.180000 70.800000
L94.180000 73.950000
" />
<path d="M88.464213 87.895787
L85.750000 90.610000
" />
<path d="M89.140000 84.950000
L89.090000 85.000000
" />
<path d="M89.050000 81.620000
L89.050000 86.481573
" />
<path d="M87.625534 88.824466
L85.840000 90.610000
" />
<path d="M89.090000 85.000000
L89.090000 85.288932
" />
<path d="M92.340000 90.610000
L85.840000 90.610000
" />
<path d="M85.640000 90.410000
L85.840000 90.610000
" />
<path d="M81.200000 90.410000
L85.640000 90.410000
" />
<path d="M88.464227 87.895801 A2.000000 2.000000 0.0 0 0 89.050000 86.481573" />
<path d="M91.590000 84.950000
L91.640000 85.000000
" />
<path d="M91.590000 81.620000
L91.590000 84.950000
" />
<path d="M91.680000 84.950000
L91.630000 85.000000
" />
<path d="M94.130000 81.620000
L94.130000 84.950000
" />
<path d="M94.170000 81.670000
L94.220000 81.620000
" />
<path d="M94.130000 84.950000
L94.180000 85.000000
" />
</g>
<g style="fill:#000000; fill-opacity:1.000000; stroke:none;">
<circle cx="144.050000" cy="66.770000" r="0.175000" /> 
</g>
<g style="fill:#000000; fill-opacity:1.000000; stroke:none;">
<circle cx="141.510000" cy="66.770000" r="0.175000" /> 
</g>
<g style="fill:#000000; fill-opacity:1.000000; stroke:none;">
<circle cx="138.970000" cy="66.770000" r="0.175000" /> 
</g>
<g style="fill:#000000; fill-opacity:1.000000; stroke:none;">
<circle cx="136.430000" cy="66.770000" r="0.175000" /> 
</g>
<g style="fill:#000000; fill-opacity:1.000000; stroke:none;">
<circle cx="94.180000" cy="70.800000" r="0.175000" /> 
</g>
<g style="fill:#000000; fill-opacity:1.000000; stroke:none;">
<circle cx="96.720000" cy="70.800000" r="0.175000" /> 
</g>
<g style="fill:#000000; fill-opacity:1.000000; stroke:none;">
<circle cx="99.260000" cy="70.800000" r="0.175000" /> 
</g>
<g style="fill:#000000; fill-opacity:1.000000; stroke:none;">
<circle cx="101.800000" cy="70.800000" r="0.175000" /> 
</g>
<g style="fill:#000000; fill-opacity:1.000000; stroke:none;">
<circle cx="81.110000" cy="80.250000" r="0.175000" /> 
</g>
<g style="fill:#000000; fill-opacity:1.000000; stroke:none;">
<circle cx="81.110000" cy="90.410000" r="0.175000" /> 
</g>
<g style="fill:#000000; fill-opacity:1.000000; stroke:none;">
<circle cx="102.750000" cy="90.000000" r="0.175000" /> 
</g>
<g style="fill:#000000; fill-opacity:1.000000; stroke:none;">
<circle cx="102.750000" cy="87.500000" r="0.175000" /> 
</g>
<g style="fill:#000000; fill-opacity:1.000000; stroke:none;">
<circle cx="101.750000" cy="54.700000" r="0.175000" /> 
</g>
<g style="fill:#000000; fill-opacity:1.000000; stroke:none;">
<circle cx="101.750000" cy="57.240000" r="0.175000" /> 
</g>
<g style="fill:#000000; fill-opacity:1.000000; stroke:none;">
<circle cx="101.750000" cy="59.780000" r="0.175000" /> 
</g>
<g style="fill:#000000; fill-opacity:1.000000; stroke:none;">
<circle cx="101.750000" cy="62.320000" r="0.175000" /> 
</g>
<g style="fill:#000000; fill-opacity:1.000000; stroke:none;">
<circle cx="98.500000" cy="90.000000" r="0.175000" /> 
</g>
<g style="fill:#000000; fill-opacity:1.000000; stroke:none;">
<circle cx="98.500000" cy="87.500000" r="0.175000" /> 
</g>
<g style="fill:#000000; fill-opacity:1.000000; stroke:none;">
<circle cx="114.300000" cy="88.000000" r="0.175000" /> 
</g>
<g style="fill:#000000; fill-opacity:1.000000; stroke:none;">
<circle cx="109.420000" cy="88.000000" r="0.175000" /> 
</g>
<g style="fill:#000000; fill-opacity:1.000000; stroke:none;">
<circle cx="92.250000" cy="95.110000" r="0.175000" /> 
</g>
<g style="fill:#000000; fill-opacity:1.000000; stroke:none;">
<circle cx="85.750000" cy="95.110000" r="0.175000" /> 
</g>
<g style="fill:#000000; fill-opacity:1.000000; stroke:none;">
<circle cx="92.250000" cy="90.610000" r="0.175000" /> 
</g>
<g style="fill:#000000; fill-opacity:1.000000; stroke:none;">
<circle cx="85.750000" cy="90.610000" r="0.175000" /> 
</g>
<g style="fill:#000000; fill-opacity:1.000000; stroke:none;">
<circle cx="94.180000" cy="59.780000" r="0.175000" /> 
</g>
<g style="fill:#000000; fill-opacity:1.000000; stroke:none;">
<circle cx="96.720000" cy="59.780000" r="0.175000" /> 
</g>
<g style="fill:#000000; fill-opacity:1.000000; stroke:none;">
<circle cx="89.050000" cy="81.620000" r="0.175000" /> 
</g>
<g style="fill:#000000; fill-opacity:1.000000; stroke:none;">
<circle cx="91.590000" cy="81.620000" r="0.175000" /> 
</g>
<g style="fill:#000000; fill-opacity:1.000000; stroke:none;">
<circle cx="94.130000" cy="81.620000" r="0.175000" /> 
</g>
<g style="fill:#000000; fill-opacity:1.000000; stroke:none;">
<circle cx="96.670000" cy="81.620000" r="0.175000" /> 
</g>
<g style="fill:#000000; fill-opacity:1.000000; stroke:none;">
<circle cx="99.210000" cy="81.620000" r="0.175000" /> 
</g>
<g style="fill:#000000; fill-opacity:1.000000; stroke:none;">
<circle cx="101.750000" cy="81.620000" r="0.175000" /> 
</g>
<g style="fill:#000000; fill-opacity:1.000000; stroke:none;">
<circle cx="104.290000" cy="81.620000" r="0.175000" /> 
</g>
<g style="fill:#000000; fill-opacity:1.000000; stroke:none;">
<circle cx="106.830000" cy="81.620000" r="0.175000" /> 
</g>
<g style="fill:#000000; fill-opacity:1.000000; stroke:none;">
<circle cx="109.370000" cy="81.620000" r="0.175000" /> 
</g>
<g style="fill:#000000; fill-opacity:1.000000; stroke:none;">
<circle cx="111.910000" cy="81.620000" r="0.175000" /> 
</g>
<g style="fill:#000000; fill-opacity:1.000000; stroke:none;">
<circle cx="114.450000" cy="81.620000" r="0.175000" /> 
</g>
<g style="fill:#000000; fill-opacity:1.000000; stroke:none;">
<circle cx="116.990000" cy="81.620000" r="0.175000" /> 
</g>
<g style="fill:#000000; fill-opacity:1.000000; stroke:none;">
<circle cx="119.530000" cy="81.620000" r="0.175000" /> 
</g>
<g style="fill:#000000; fill-opacity:1.000000; stroke:none;">
<circle cx="122.070000" cy="81.620000" r="0.175000" /> 
</g>
<g style="fill:#000000; fill-opacity:1.000000; stroke:none;">
<circle cx="122.070000" cy="74.000000" r="0.175000" /> 
</g>
<g style="fill:#000000; fill-opacity:1.000000; stroke:none;">
<circle cx="119.530000" cy="74.000000" r="0.175000" /> 
</g>
<g style="fill:#000000; fill-opacity:1.000000; stroke:none;">
<circle cx="116.990000" cy="74.000000" r="0.175000" /> 
</g>
<g style="fill:#000000; fill-opacity:1.000000; stroke:none;">
<circle cx="114.450000" cy="74.000000" r="0.175000" /> 
</g>
<g style="fill:#000000; fill-opacity:1.000000; stroke:none;">
<circle cx="111.910000" cy="74.000000" r="0.175000" /> 
</g>
<g style="fill:#000000; fill-opacity:1.000000; stroke:none;">
<circle cx="109.370000" cy="74.000000" r="0.175000" /> 
</g>
<g style="fill:#000000; fill-opacity:1.000000; stroke:none;">
<circle cx="106.830000" cy="74.000000" r="0.175000" /> 
</g>
<g style="fill:#000000; fill-opacity:1.000000; stroke:none;">
<circle cx="104.290000" cy="74.000000" r="0.175000" /> 
</g>
<g style="fill:#000000; fill-opacity:1.000000; stroke:none;">
<circle cx="101.750000" cy="74.000000" r="0.175000" /> 
</g>
<g style="fill:#000000; fill-opacity:1.000000; stroke:none;">
<circle cx="99.210000" cy="74.000000" r="0.175000" /> 
</g>
<g style="fill:#000000; fill-opacity:1.000000; stroke:none;">
<circle cx="96.670000" cy="74.000000" r="0.175000" /> 
</g>
<g style="fill:#000000; fill-opacity:1.000000; stroke:none;">
<circle cx="94.130000" cy="74.000000" r="0.175000" /> 
</g>
<g style="fill:#000000; fill-opacity:1.000000; stroke:none;">
<circle cx="91.590000" cy="74.000000" r="0.175000" /> 
</g>
<g style="fill:#000000; fill-opacity:1.000000; stroke:none;">
<circle cx="89.050000" cy="74.000000" r="0.175000" /> 
</g>
<g style="fill:#000000; fill-opacity:1.000000; stroke:none;">
<circle cx="89.100000" cy="85.000000" r="0.175000" /> 
</g>
<g style="fill:#000000; fill-opacity:1.000000; stroke:none;">
<circle cx="91.640000" cy="85.000000" r="0.175000" /> 
</g>
<g style="fill:#000000; fill-opacity:1.000000; stroke:none;">
<circle cx="94.180000" cy="85.000000" r="0.175000" /> 
</g>
<g style="fill:#000000; fill-opacity:1.000000; stroke:none;">
<circle cx="125.250000" cy="54.700000" r="0.175000" /> 
</g>
<g style="fill:#000000; fill-opacity:1.000000; stroke:none;">
<circle cx="125.250000" cy="57.240000" r="0.175000" /> 
</g>
<g style="fill:#000000; fill-opacity:1.000000; stroke:none;">
<circle cx="125.250000" cy="59.780000" r="0.175000" /> 
</g>
<g style="fill:#000000; fill-opacity:1.000000; stroke:none;">
<circle cx="125.250000" cy="62.320000" r="0.175000" /> 
</g>
<g style="fill:#000000; fill-opacity:1.000000; stroke:none;">
<circle cx="113.500000" cy="54.700000" r="0.175000" /> 
</g>
<g style="fill:#000000; fill-opacity:1.000000; stroke:none;">
<circle cx="113.500000" cy="57.240000" r="0.175000" /> 
</g>
<g style="fill:#000000; fill-opacity:1.000000; stroke:none;">
<circle cx="113.500000" cy="59.780000" r="0.175000" /> 
</g>
<g style="fill:#000000; fill-opacity:1.000000; stroke:none;">
<circle cx="113.500000" cy="62.320000" r="0.175000" /> 
</g>
<g style="fill:#000000; fill-opacity:1.000000; stroke:none;">
<circle cx="137.000000" cy="54.700000" r="0.175000" /> 
</g>
<g style="fill:#000000; fill-opacity:1.000000; stroke:none;">
<circle cx="137.000000" cy="57.240000" r="0.175000" /> 
</g>
<g style="fill:#000000; fill-opacity:1.000000; stroke:none;">
<circle cx="137.000000" cy="59.780000" r="0.175000" /> 
</g>
<g style="fill:#000000; fill-opacity:1.000000; stroke:none;">
<circle cx="137.000000" cy="62.320000" r="0.175000" /> 
</g>
<g style="fill:#FFFFFF; fill-opacity:1.000000; stroke:none;">
<circle cx="74.000000" cy="96.000000" r="1.600000" /> 
<path style="fill:none; 
stroke:#FFFFFF; stroke-width:0.500000; stroke-opacity:1; 
stroke-linecap:round; stroke-linejoin:round;fill:none"
d="M 70.000000,50.000000
150.000000,50.000000
150.000000,100.000000
70.000000,100.000000
Z" /> 
</g>
<g style="fill:#FFFFFF; fill-opacity:1.000000; stroke:none;">
<circle cx="146.000000" cy="96.000000" r="1.600000" /> 
<circle cx="146.000000" cy="54.000000" r="1.600000" /> 
<circle cx="74.000000" cy="54.000000" r="1.600000" /> 
</g> 
</svg>
