%TF.GenerationSoftware,KiCad,Pcbnew,8.0.1*%
%TF.CreationDate,2024-04-07T11:58:20+02:00*%
%TF.ProjectId,RobotASK,526f626f-7441-4534-9b2e-6b696361645f,rev?*%
%TF.SameCoordinates,Original*%
%TF.FileFunction,Copper,L1,Top*%
%TF.FilePolarity,Positive*%
%FSLAX46Y46*%
G04 Gerber Fmt 4.6, Leading zero omitted, Abs format (unit mm)*
G04 Created by KiCad (PCBNEW 8.0.1) date 2024-04-07 11:58:20*
%MOMM*%
%LPD*%
G01*
G04 APERTURE LIST*
%TA.AperFunction,ComponentPad*%
%ADD10R,1.700000X1.700000*%
%TD*%
%TA.AperFunction,ComponentPad*%
%ADD11O,1.700000X1.700000*%
%TD*%
%TA.AperFunction,ComponentPad*%
%ADD12C,1.600000*%
%TD*%
%TA.AperFunction,ComponentPad*%
%ADD13O,1.600000X1.600000*%
%TD*%
%TA.AperFunction,ComponentPad*%
%ADD14C,1.500000*%
%TD*%
%TA.AperFunction,ComponentPad*%
%ADD15C,2.000000*%
%TD*%
%TA.AperFunction,ComponentPad*%
%ADD16R,1.600000X1.600000*%
%TD*%
G04 APERTURE END LIST*
D10*
%TO.P,J5,1,Pin_1*%
%TO.N,GND*%
X144050000Y-66770000D03*
D11*
%TO.P,J5,2,Pin_2*%
%TO.N,unconnected-(J5-Pin_2-Pad2)*%
X141510000Y-66770000D03*
%TO.P,J5,3,Pin_3*%
%TO.N,unconnected-(J5-Pin_3-Pad3)*%
X138970000Y-66770000D03*
%TO.P,J5,4,Pin_4*%
%TO.N,+5V*%
X136430000Y-66770000D03*
%TD*%
D10*
%TO.P,J6,1,Pin_1*%
%TO.N,PH3*%
X86380000Y-54500000D03*
D11*
%TO.P,J6,2,Pin_2*%
%TO.N,PH2*%
X88920000Y-54500000D03*
%TO.P,J6,3,Pin_3*%
%TO.N,PH1*%
X91460000Y-54500000D03*
%TO.P,J6,4,Pin_4*%
%TO.N,PH0*%
X94000000Y-54500000D03*
%TD*%
D12*
%TO.P,R9,1*%
%TO.N,+5V*%
X81110000Y-80250000D03*
D13*
%TO.P,R9,2*%
%TO.N,~RESET*%
X81110000Y-90410000D03*
%TD*%
D12*
%TO.P,C2,1*%
%TO.N,CRY1*%
X102750000Y-90000000D03*
%TO.P,C2,2*%
%TO.N,GND*%
X102750000Y-87500000D03*
%TD*%
D10*
%TO.P,J1,1,Pin_1*%
%TO.N,GND*%
X101750000Y-54700000D03*
D11*
%TO.P,J1,2,Pin_2*%
%TO.N,+5V*%
X101750000Y-57240000D03*
%TO.P,J1,3,Pin_3*%
%TO.N,SERV0*%
X101750000Y-59780000D03*
%TO.P,J1,4,Pin_4*%
%TO.N,+5V*%
X101750000Y-62320000D03*
%TD*%
D12*
%TO.P,C1,1*%
%TO.N,CRY2*%
X98500000Y-90000000D03*
%TO.P,C1,2*%
%TO.N,GND*%
X98500000Y-87500000D03*
%TD*%
D14*
%TO.P,Y1,1,1*%
%TO.N,CRY2*%
X114300000Y-88000000D03*
%TO.P,Y1,2,2*%
%TO.N,CRY1*%
X109420000Y-88000000D03*
%TD*%
D15*
%TO.P,SW2,1,1*%
%TO.N,GND*%
X92250000Y-95110000D03*
X85750000Y-95110000D03*
%TO.P,SW2,2,2*%
%TO.N,~RESET*%
X92250000Y-90610000D03*
X85750000Y-90610000D03*
%TD*%
D10*
%TO.P,J7,1,Pin_1*%
%TO.N,GND*%
X104240000Y-68500000D03*
D11*
%TO.P,J7,2,Pin_2*%
%TO.N,+5V*%
X106780000Y-68500000D03*
%TD*%
D16*
%TO.P,U1,1,~{RESET}/PC6*%
%TO.N,~RESET*%
X89050000Y-81620000D03*
D13*
%TO.P,U1,2,PD0*%
%TO.N,RX*%
X91590000Y-81620000D03*
%TO.P,U1,3,PD1*%
%TO.N,TX*%
X94130000Y-81620000D03*
%TO.P,U1,4,PD2*%
%TO.N,unconnected-(U1-PD2-Pad4)*%
X96670000Y-81620000D03*
%TO.P,U1,5,PD3*%
%TO.N,unconnected-(U1-PD3-Pad5)*%
X99210000Y-81620000D03*
%TO.P,U1,6,PD4*%
%TO.N,unconnected-(U1-PD4-Pad6)*%
X101750000Y-81620000D03*
%TO.P,U1,7,VCC*%
%TO.N,+5V*%
X104290000Y-81620000D03*
%TO.P,U1,8,GND*%
%TO.N,GND*%
X106830000Y-81620000D03*
%TO.P,U1,9,XTAL1/PB6*%
%TO.N,CRY1*%
X109370000Y-81620000D03*
%TO.P,U1,10,XTAL2/PB7*%
%TO.N,CRY2*%
X111910000Y-81620000D03*
%TO.P,U1,11,PD5*%
%TO.N,unconnected-(U1-PD5-Pad11)*%
X114450000Y-81620000D03*
%TO.P,U1,12,PD6*%
%TO.N,SERV3*%
X116990000Y-81620000D03*
%TO.P,U1,13,PD7*%
%TO.N,unconnected-(U1-PD7-Pad13)*%
X119530000Y-81620000D03*
%TO.P,U1,14,PB0*%
%TO.N,unconnected-(U1-PB0-Pad14)*%
X122070000Y-81620000D03*
%TO.P,U1,15,PB1*%
%TO.N,SERV2*%
X122070000Y-74000000D03*
%TO.P,U1,16,PB2*%
%TO.N,SERV1*%
X119530000Y-74000000D03*
%TO.P,U1,17,PB3*%
%TO.N,SERV0*%
X116990000Y-74000000D03*
%TO.P,U1,18,PB4*%
%TO.N,unconnected-(U1-PB4-Pad18)*%
X114450000Y-74000000D03*
%TO.P,U1,19,PB5*%
%TO.N,unconnected-(U1-PB5-Pad19)*%
X111910000Y-74000000D03*
%TO.P,U1,20,AVCC*%
%TO.N,+5V*%
X109370000Y-74000000D03*
%TO.P,U1,21,AREF*%
X106830000Y-74000000D03*
%TO.P,U1,22,GND*%
%TO.N,GND*%
X104290000Y-74000000D03*
%TO.P,U1,23,PC0*%
%TO.N,PH0*%
X101750000Y-74000000D03*
%TO.P,U1,24,PC1*%
%TO.N,PH1*%
X99210000Y-74000000D03*
%TO.P,U1,25,PC2*%
%TO.N,PH2*%
X96670000Y-74000000D03*
%TO.P,U1,26,PC3*%
%TO.N,PH3*%
X94130000Y-74000000D03*
%TO.P,U1,27,PC4*%
%TO.N,unconnected-(U1-PC4-Pad27)*%
X91590000Y-74000000D03*
%TO.P,U1,28,PC5*%
%TO.N,unconnected-(U1-PC5-Pad28)*%
X89050000Y-74000000D03*
%TD*%
D10*
%TO.P,J8,1,Pin_1*%
%TO.N,~RESET*%
X89000000Y-85000000D03*
D11*
%TO.P,J8,2,Pin_2*%
%TO.N,RX*%
X91540000Y-85000000D03*
%TO.P,J8,3,Pin_3*%
%TO.N,TX*%
X94080000Y-85000000D03*
%TD*%
D10*
%TO.P,J3,1,Pin_1*%
%TO.N,GND*%
X125250000Y-54700000D03*
D11*
%TO.P,J3,2,Pin_2*%
%TO.N,+5V*%
X125250000Y-57240000D03*
%TO.P,J3,3,Pin_3*%
%TO.N,SERV2*%
X125250000Y-59780000D03*
%TO.P,J3,4,Pin_4*%
%TO.N,+5V*%
X125250000Y-62320000D03*
%TD*%
D10*
%TO.P,J2,1,Pin_1*%
%TO.N,GND*%
X113500000Y-54700000D03*
D11*
%TO.P,J2,2,Pin_2*%
%TO.N,+5V*%
X113500000Y-57240000D03*
%TO.P,J2,3,Pin_3*%
%TO.N,SERV1*%
X113500000Y-59780000D03*
%TO.P,J2,4,Pin_4*%
%TO.N,+5V*%
X113500000Y-62320000D03*
%TD*%
D10*
%TO.P,J4,1,Pin_1*%
%TO.N,GND*%
X137000000Y-54700000D03*
D11*
%TO.P,J4,2,Pin_2*%
%TO.N,+5V*%
X137000000Y-57240000D03*
%TO.P,J4,3,Pin_3*%
%TO.N,SERV3*%
X137000000Y-59780000D03*
%TO.P,J4,4,Pin_4*%
%TO.N,+5V*%
X137000000Y-62320000D03*
%TD*%
M02*
