%TF.GenerationSoftware,KiCad,Pcbnew,8.0.1*%
%TF.CreationDate,2024-04-07T11:58:20+02:00*%
%TF.ProjectId,RobotASK,526f626f-7441-4534-9b2e-6b696361645f,rev?*%
%TF.SameCoordinates,Original*%
%TF.FileFunction,Copper,L2,Bot*%
%TF.FilePolarity,Positive*%
%FSLAX46Y46*%
G04 Gerber Fmt 4.6, Leading zero omitted, Abs format (unit mm)*
G04 Created by KiCad (PCBNEW 8.0.1) date 2024-04-07 11:58:20*
%MOMM*%
%LPD*%
G01*
G04 APERTURE LIST*
%ADD10C,0.150000*%
%TA.AperFunction,NonConductor*%
%ADD11C,0.150000*%
%TD*%
%TA.AperFunction,ComponentPad*%
%ADD12R,1.700000X1.700000*%
%TD*%
%TA.AperFunction,ComponentPad*%
%ADD13O,1.700000X1.700000*%
%TD*%
%TA.AperFunction,ComponentPad*%
%ADD14C,1.600000*%
%TD*%
%TA.AperFunction,ComponentPad*%
%ADD15O,1.600000X1.600000*%
%TD*%
%TA.AperFunction,ComponentPad*%
%ADD16C,1.500000*%
%TD*%
%TA.AperFunction,ComponentPad*%
%ADD17C,2.000000*%
%TD*%
%TA.AperFunction,ComponentPad*%
%ADD18R,1.600000X1.600000*%
%TD*%
%TA.AperFunction,Conductor*%
%ADD19C,1.000000*%
%TD*%
G04 APERTURE END LIST*
D10*
D11*
X146727258Y-84287774D02*
X145584401Y-84287774D01*
X146155830Y-86287774D02*
X146155830Y-84287774D01*
X144632020Y-86287774D02*
X144822496Y-86192536D01*
X144822496Y-86192536D02*
X144917734Y-86097297D01*
X144917734Y-86097297D02*
X145012972Y-85906821D01*
X145012972Y-85906821D02*
X145012972Y-85335393D01*
X145012972Y-85335393D02*
X144917734Y-85144916D01*
X144917734Y-85144916D02*
X144822496Y-85049678D01*
X144822496Y-85049678D02*
X144632020Y-84954440D01*
X144632020Y-84954440D02*
X144346305Y-84954440D01*
X144346305Y-84954440D02*
X144155829Y-85049678D01*
X144155829Y-85049678D02*
X144060591Y-85144916D01*
X144060591Y-85144916D02*
X143965353Y-85335393D01*
X143965353Y-85335393D02*
X143965353Y-85906821D01*
X143965353Y-85906821D02*
X144060591Y-86097297D01*
X144060591Y-86097297D02*
X144155829Y-86192536D01*
X144155829Y-86192536D02*
X144346305Y-86287774D01*
X144346305Y-86287774D02*
X144632020Y-86287774D01*
X143108210Y-86287774D02*
X143108210Y-84954440D01*
X143108210Y-85144916D02*
X143012972Y-85049678D01*
X143012972Y-85049678D02*
X142822496Y-84954440D01*
X142822496Y-84954440D02*
X142536781Y-84954440D01*
X142536781Y-84954440D02*
X142346305Y-85049678D01*
X142346305Y-85049678D02*
X142251067Y-85240155D01*
X142251067Y-85240155D02*
X142251067Y-86287774D01*
X142251067Y-85240155D02*
X142155829Y-85049678D01*
X142155829Y-85049678D02*
X141965353Y-84954440D01*
X141965353Y-84954440D02*
X141679639Y-84954440D01*
X141679639Y-84954440D02*
X141489162Y-85049678D01*
X141489162Y-85049678D02*
X141393924Y-85240155D01*
X141393924Y-85240155D02*
X141393924Y-86287774D01*
X139584400Y-86287774D02*
X139584400Y-85240155D01*
X139584400Y-85240155D02*
X139679638Y-85049678D01*
X139679638Y-85049678D02*
X139870114Y-84954440D01*
X139870114Y-84954440D02*
X140251067Y-84954440D01*
X140251067Y-84954440D02*
X140441543Y-85049678D01*
X139584400Y-86192536D02*
X139774876Y-86287774D01*
X139774876Y-86287774D02*
X140251067Y-86287774D01*
X140251067Y-86287774D02*
X140441543Y-86192536D01*
X140441543Y-86192536D02*
X140536781Y-86002059D01*
X140536781Y-86002059D02*
X140536781Y-85811583D01*
X140536781Y-85811583D02*
X140441543Y-85621107D01*
X140441543Y-85621107D02*
X140251067Y-85525869D01*
X140251067Y-85525869D02*
X139774876Y-85525869D01*
X139774876Y-85525869D02*
X139584400Y-85430631D01*
X138727257Y-86192536D02*
X138536781Y-86287774D01*
X138536781Y-86287774D02*
X138155829Y-86287774D01*
X138155829Y-86287774D02*
X137965352Y-86192536D01*
X137965352Y-86192536D02*
X137870114Y-86002059D01*
X137870114Y-86002059D02*
X137870114Y-85906821D01*
X137870114Y-85906821D02*
X137965352Y-85716345D01*
X137965352Y-85716345D02*
X138155829Y-85621107D01*
X138155829Y-85621107D02*
X138441543Y-85621107D01*
X138441543Y-85621107D02*
X138632019Y-85525869D01*
X138632019Y-85525869D02*
X138727257Y-85335393D01*
X138727257Y-85335393D02*
X138727257Y-85240155D01*
X138727257Y-85240155D02*
X138632019Y-85049678D01*
X138632019Y-85049678D02*
X138441543Y-84954440D01*
X138441543Y-84954440D02*
X138155829Y-84954440D01*
X138155829Y-84954440D02*
X137965352Y-85049678D01*
X137203447Y-84954440D02*
X136155828Y-84954440D01*
X136155828Y-84954440D02*
X137203447Y-86287774D01*
X137203447Y-86287774D02*
X136155828Y-86287774D01*
X133870113Y-86287774D02*
X133870113Y-84287774D01*
X133870113Y-84287774D02*
X133108208Y-84287774D01*
X133108208Y-84287774D02*
X132917732Y-84383012D01*
X132917732Y-84383012D02*
X132822494Y-84478250D01*
X132822494Y-84478250D02*
X132727256Y-84668726D01*
X132727256Y-84668726D02*
X132727256Y-84954440D01*
X132727256Y-84954440D02*
X132822494Y-85144916D01*
X132822494Y-85144916D02*
X132917732Y-85240155D01*
X132917732Y-85240155D02*
X133108208Y-85335393D01*
X133108208Y-85335393D02*
X133870113Y-85335393D01*
X131012970Y-86287774D02*
X131012970Y-85240155D01*
X131012970Y-85240155D02*
X131108208Y-85049678D01*
X131108208Y-85049678D02*
X131298684Y-84954440D01*
X131298684Y-84954440D02*
X131679637Y-84954440D01*
X131679637Y-84954440D02*
X131870113Y-85049678D01*
X131012970Y-86192536D02*
X131203446Y-86287774D01*
X131203446Y-86287774D02*
X131679637Y-86287774D01*
X131679637Y-86287774D02*
X131870113Y-86192536D01*
X131870113Y-86192536D02*
X131965351Y-86002059D01*
X131965351Y-86002059D02*
X131965351Y-85811583D01*
X131965351Y-85811583D02*
X131870113Y-85621107D01*
X131870113Y-85621107D02*
X131679637Y-85525869D01*
X131679637Y-85525869D02*
X131203446Y-85525869D01*
X131203446Y-85525869D02*
X131012970Y-85430631D01*
X130251065Y-84954440D02*
X129870113Y-86287774D01*
X129870113Y-86287774D02*
X129489160Y-85335393D01*
X129489160Y-85335393D02*
X129108208Y-86287774D01*
X129108208Y-86287774D02*
X128727256Y-84954440D01*
X127679637Y-86287774D02*
X127870113Y-86192536D01*
X127870113Y-86192536D02*
X127965351Y-86002059D01*
X127965351Y-86002059D02*
X127965351Y-84287774D01*
X128251065Y-85335393D02*
X127679637Y-84954440D01*
X126632018Y-86287774D02*
X126822494Y-86192536D01*
X126822494Y-86192536D02*
X126917732Y-86097297D01*
X126917732Y-86097297D02*
X127012970Y-85906821D01*
X127012970Y-85906821D02*
X127012970Y-85335393D01*
X127012970Y-85335393D02*
X126917732Y-85144916D01*
X126917732Y-85144916D02*
X126822494Y-85049678D01*
X126822494Y-85049678D02*
X126632018Y-84954440D01*
X126632018Y-84954440D02*
X126346303Y-84954440D01*
X126346303Y-84954440D02*
X126155827Y-85049678D01*
X126155827Y-85049678D02*
X126060589Y-85144916D01*
X126060589Y-85144916D02*
X125965351Y-85335393D01*
X125965351Y-85335393D02*
X125965351Y-85906821D01*
X125965351Y-85906821D02*
X126060589Y-86097297D01*
X126060589Y-86097297D02*
X126155827Y-86192536D01*
X126155827Y-86192536D02*
X126346303Y-86287774D01*
X126346303Y-86287774D02*
X126632018Y-86287774D01*
X125298684Y-84954440D02*
X124917732Y-86287774D01*
X124917732Y-86287774D02*
X124536779Y-85335393D01*
X124536779Y-85335393D02*
X124155827Y-86287774D01*
X124155827Y-86287774D02*
X123774875Y-84954440D01*
X123108208Y-86192536D02*
X122917732Y-86287774D01*
X122917732Y-86287774D02*
X122536780Y-86287774D01*
X122536780Y-86287774D02*
X122346303Y-86192536D01*
X122346303Y-86192536D02*
X122251065Y-86002059D01*
X122251065Y-86002059D02*
X122251065Y-85906821D01*
X122251065Y-85906821D02*
X122346303Y-85716345D01*
X122346303Y-85716345D02*
X122536780Y-85621107D01*
X122536780Y-85621107D02*
X122822494Y-85621107D01*
X122822494Y-85621107D02*
X123012970Y-85525869D01*
X123012970Y-85525869D02*
X123108208Y-85335393D01*
X123108208Y-85335393D02*
X123108208Y-85240155D01*
X123108208Y-85240155D02*
X123012970Y-85049678D01*
X123012970Y-85049678D02*
X122822494Y-84954440D01*
X122822494Y-84954440D02*
X122536780Y-84954440D01*
X122536780Y-84954440D02*
X122346303Y-85049678D01*
X121393922Y-86287774D02*
X121393922Y-84287774D01*
X121203446Y-85525869D02*
X120632017Y-86287774D01*
X120632017Y-84954440D02*
X121393922Y-85716345D01*
X119774874Y-86287774D02*
X119774874Y-84954440D01*
X119774874Y-84287774D02*
X119870112Y-84383012D01*
X119870112Y-84383012D02*
X119774874Y-84478250D01*
X119774874Y-84478250D02*
X119679636Y-84383012D01*
X119679636Y-84383012D02*
X119774874Y-84287774D01*
X119774874Y-84287774D02*
X119774874Y-84478250D01*
X144917734Y-87507662D02*
X144917734Y-88936233D01*
X144917734Y-88936233D02*
X145012973Y-89221947D01*
X145012973Y-89221947D02*
X145203449Y-89412424D01*
X145203449Y-89412424D02*
X145489163Y-89507662D01*
X145489163Y-89507662D02*
X145679639Y-89507662D01*
X143108210Y-89507662D02*
X143108210Y-88460043D01*
X143108210Y-88460043D02*
X143203448Y-88269566D01*
X143203448Y-88269566D02*
X143393924Y-88174328D01*
X143393924Y-88174328D02*
X143774877Y-88174328D01*
X143774877Y-88174328D02*
X143965353Y-88269566D01*
X143108210Y-89412424D02*
X143298686Y-89507662D01*
X143298686Y-89507662D02*
X143774877Y-89507662D01*
X143774877Y-89507662D02*
X143965353Y-89412424D01*
X143965353Y-89412424D02*
X144060591Y-89221947D01*
X144060591Y-89221947D02*
X144060591Y-89031471D01*
X144060591Y-89031471D02*
X143965353Y-88840995D01*
X143965353Y-88840995D02*
X143774877Y-88745757D01*
X143774877Y-88745757D02*
X143298686Y-88745757D01*
X143298686Y-88745757D02*
X143108210Y-88650519D01*
X142155829Y-89507662D02*
X142155829Y-87507662D01*
X141965353Y-88745757D02*
X141393924Y-89507662D01*
X141393924Y-88174328D02*
X142155829Y-88936233D01*
X139679638Y-88174328D02*
X139679638Y-89507662D01*
X140536781Y-88174328D02*
X140536781Y-89221947D01*
X140536781Y-89221947D02*
X140441543Y-89412424D01*
X140441543Y-89412424D02*
X140251067Y-89507662D01*
X140251067Y-89507662D02*
X139965352Y-89507662D01*
X139965352Y-89507662D02*
X139774876Y-89412424D01*
X139774876Y-89412424D02*
X139679638Y-89317185D01*
X138727257Y-89507662D02*
X138727257Y-87507662D01*
X138727257Y-88269566D02*
X138536781Y-88174328D01*
X138536781Y-88174328D02*
X138155828Y-88174328D01*
X138155828Y-88174328D02*
X137965352Y-88269566D01*
X137965352Y-88269566D02*
X137870114Y-88364804D01*
X137870114Y-88364804D02*
X137774876Y-88555281D01*
X137774876Y-88555281D02*
X137774876Y-89126709D01*
X137774876Y-89126709D02*
X137870114Y-89317185D01*
X137870114Y-89317185D02*
X137965352Y-89412424D01*
X137965352Y-89412424D02*
X138155828Y-89507662D01*
X138155828Y-89507662D02*
X138536781Y-89507662D01*
X138536781Y-89507662D02*
X138727257Y-89412424D01*
X135393923Y-89507662D02*
X135393923Y-87507662D01*
X134251066Y-89507662D02*
X135108209Y-88364804D01*
X134251066Y-87507662D02*
X135393923Y-88650519D01*
X132536780Y-89507662D02*
X132536780Y-88460043D01*
X132536780Y-88460043D02*
X132632018Y-88269566D01*
X132632018Y-88269566D02*
X132822494Y-88174328D01*
X132822494Y-88174328D02*
X133203447Y-88174328D01*
X133203447Y-88174328D02*
X133393923Y-88269566D01*
X132536780Y-89412424D02*
X132727256Y-89507662D01*
X132727256Y-89507662D02*
X133203447Y-89507662D01*
X133203447Y-89507662D02*
X133393923Y-89412424D01*
X133393923Y-89412424D02*
X133489161Y-89221947D01*
X133489161Y-89221947D02*
X133489161Y-89031471D01*
X133489161Y-89031471D02*
X133393923Y-88840995D01*
X133393923Y-88840995D02*
X133203447Y-88745757D01*
X133203447Y-88745757D02*
X132727256Y-88745757D01*
X132727256Y-88745757D02*
X132536780Y-88650519D01*
X131584399Y-89507662D02*
X131584399Y-88174328D01*
X131584399Y-88364804D02*
X131489161Y-88269566D01*
X131489161Y-88269566D02*
X131298685Y-88174328D01*
X131298685Y-88174328D02*
X131012970Y-88174328D01*
X131012970Y-88174328D02*
X130822494Y-88269566D01*
X130822494Y-88269566D02*
X130727256Y-88460043D01*
X130727256Y-88460043D02*
X130727256Y-89507662D01*
X130727256Y-88460043D02*
X130632018Y-88269566D01*
X130632018Y-88269566D02*
X130441542Y-88174328D01*
X130441542Y-88174328D02*
X130155828Y-88174328D01*
X130155828Y-88174328D02*
X129965351Y-88269566D01*
X129965351Y-88269566D02*
X129870113Y-88460043D01*
X129870113Y-88460043D02*
X129870113Y-89507662D01*
X128917732Y-89507662D02*
X128917732Y-88174328D01*
X128917732Y-87507662D02*
X129012970Y-87602900D01*
X129012970Y-87602900D02*
X128917732Y-87698138D01*
X128917732Y-87698138D02*
X128822494Y-87602900D01*
X128822494Y-87602900D02*
X128917732Y-87507662D01*
X128917732Y-87507662D02*
X128917732Y-87698138D01*
X127203446Y-89412424D02*
X127393922Y-89507662D01*
X127393922Y-89507662D02*
X127774875Y-89507662D01*
X127774875Y-89507662D02*
X127965351Y-89412424D01*
X127965351Y-89412424D02*
X128060589Y-89221947D01*
X128060589Y-89221947D02*
X128060589Y-88460043D01*
X128060589Y-88460043D02*
X127965351Y-88269566D01*
X127965351Y-88269566D02*
X127774875Y-88174328D01*
X127774875Y-88174328D02*
X127393922Y-88174328D01*
X127393922Y-88174328D02*
X127203446Y-88269566D01*
X127203446Y-88269566D02*
X127108208Y-88460043D01*
X127108208Y-88460043D02*
X127108208Y-88650519D01*
X127108208Y-88650519D02*
X128060589Y-88840995D01*
X126251065Y-88174328D02*
X126251065Y-89507662D01*
X126251065Y-88364804D02*
X126155827Y-88269566D01*
X126155827Y-88269566D02*
X125965351Y-88174328D01*
X125965351Y-88174328D02*
X125679636Y-88174328D01*
X125679636Y-88174328D02*
X125489160Y-88269566D01*
X125489160Y-88269566D02*
X125393922Y-88460043D01*
X125393922Y-88460043D02*
X125393922Y-89507662D01*
X124441541Y-89507662D02*
X124441541Y-88174328D01*
X124441541Y-87507662D02*
X124536779Y-87602900D01*
X124536779Y-87602900D02*
X124441541Y-87698138D01*
X124441541Y-87698138D02*
X124346303Y-87602900D01*
X124346303Y-87602900D02*
X124441541Y-87507662D01*
X124441541Y-87507662D02*
X124441541Y-87698138D01*
X122632017Y-89507662D02*
X122632017Y-88460043D01*
X122632017Y-88460043D02*
X122727255Y-88269566D01*
X122727255Y-88269566D02*
X122917731Y-88174328D01*
X122917731Y-88174328D02*
X123298684Y-88174328D01*
X123298684Y-88174328D02*
X123489160Y-88269566D01*
X122632017Y-89412424D02*
X122822493Y-89507662D01*
X122822493Y-89507662D02*
X123298684Y-89507662D01*
X123298684Y-89507662D02*
X123489160Y-89412424D01*
X123489160Y-89412424D02*
X123584398Y-89221947D01*
X123584398Y-89221947D02*
X123584398Y-89031471D01*
X123584398Y-89031471D02*
X123489160Y-88840995D01*
X123489160Y-88840995D02*
X123298684Y-88745757D01*
X123298684Y-88745757D02*
X122822493Y-88745757D01*
X122822493Y-88745757D02*
X122632017Y-88650519D01*
X121679636Y-89507662D02*
X121679636Y-88174328D01*
X121679636Y-88555281D02*
X121584398Y-88364804D01*
X121584398Y-88364804D02*
X121489160Y-88269566D01*
X121489160Y-88269566D02*
X121298684Y-88174328D01*
X121298684Y-88174328D02*
X121108207Y-88174328D01*
X120632017Y-88174328D02*
X119584398Y-88174328D01*
X119584398Y-88174328D02*
X120632017Y-89507662D01*
X120632017Y-89507662D02*
X119584398Y-89507662D01*
X138917733Y-92156121D02*
X137965352Y-92156121D01*
X139108209Y-92727550D02*
X138441543Y-90727550D01*
X138441543Y-90727550D02*
X137774876Y-92727550D01*
X136251066Y-92727550D02*
X136251066Y-90727550D01*
X136251066Y-92632312D02*
X136441542Y-92727550D01*
X136441542Y-92727550D02*
X136822495Y-92727550D01*
X136822495Y-92727550D02*
X137012971Y-92632312D01*
X137012971Y-92632312D02*
X137108209Y-92537073D01*
X137108209Y-92537073D02*
X137203447Y-92346597D01*
X137203447Y-92346597D02*
X137203447Y-91775169D01*
X137203447Y-91775169D02*
X137108209Y-91584692D01*
X137108209Y-91584692D02*
X137012971Y-91489454D01*
X137012971Y-91489454D02*
X136822495Y-91394216D01*
X136822495Y-91394216D02*
X136441542Y-91394216D01*
X136441542Y-91394216D02*
X136251066Y-91489454D01*
X134441542Y-92727550D02*
X134441542Y-91679931D01*
X134441542Y-91679931D02*
X134536780Y-91489454D01*
X134536780Y-91489454D02*
X134727256Y-91394216D01*
X134727256Y-91394216D02*
X135108209Y-91394216D01*
X135108209Y-91394216D02*
X135298685Y-91489454D01*
X134441542Y-92632312D02*
X134632018Y-92727550D01*
X134632018Y-92727550D02*
X135108209Y-92727550D01*
X135108209Y-92727550D02*
X135298685Y-92632312D01*
X135298685Y-92632312D02*
X135393923Y-92441835D01*
X135393923Y-92441835D02*
X135393923Y-92251359D01*
X135393923Y-92251359D02*
X135298685Y-92060883D01*
X135298685Y-92060883D02*
X135108209Y-91965645D01*
X135108209Y-91965645D02*
X134632018Y-91965645D01*
X134632018Y-91965645D02*
X134441542Y-91870407D01*
X133489161Y-92727550D02*
X133489161Y-91394216D01*
X133489161Y-91584692D02*
X133393923Y-91489454D01*
X133393923Y-91489454D02*
X133203447Y-91394216D01*
X133203447Y-91394216D02*
X132917732Y-91394216D01*
X132917732Y-91394216D02*
X132727256Y-91489454D01*
X132727256Y-91489454D02*
X132632018Y-91679931D01*
X132632018Y-91679931D02*
X132632018Y-92727550D01*
X132632018Y-91679931D02*
X132536780Y-91489454D01*
X132536780Y-91489454D02*
X132346304Y-91394216D01*
X132346304Y-91394216D02*
X132060590Y-91394216D01*
X132060590Y-91394216D02*
X131870113Y-91489454D01*
X131870113Y-91489454D02*
X131774875Y-91679931D01*
X131774875Y-91679931D02*
X131774875Y-92727550D01*
X129298684Y-92727550D02*
X129298684Y-90727550D01*
X129298684Y-90727550D02*
X128822494Y-90727550D01*
X128822494Y-90727550D02*
X128536779Y-90822788D01*
X128536779Y-90822788D02*
X128346303Y-91013264D01*
X128346303Y-91013264D02*
X128251065Y-91203740D01*
X128251065Y-91203740D02*
X128155827Y-91584692D01*
X128155827Y-91584692D02*
X128155827Y-91870407D01*
X128155827Y-91870407D02*
X128251065Y-92251359D01*
X128251065Y-92251359D02*
X128346303Y-92441835D01*
X128346303Y-92441835D02*
X128536779Y-92632312D01*
X128536779Y-92632312D02*
X128822494Y-92727550D01*
X128822494Y-92727550D02*
X129298684Y-92727550D01*
X126536779Y-92632312D02*
X126727255Y-92727550D01*
X126727255Y-92727550D02*
X127108208Y-92727550D01*
X127108208Y-92727550D02*
X127298684Y-92632312D01*
X127298684Y-92632312D02*
X127393922Y-92441835D01*
X127393922Y-92441835D02*
X127393922Y-91679931D01*
X127393922Y-91679931D02*
X127298684Y-91489454D01*
X127298684Y-91489454D02*
X127108208Y-91394216D01*
X127108208Y-91394216D02*
X126727255Y-91394216D01*
X126727255Y-91394216D02*
X126536779Y-91489454D01*
X126536779Y-91489454D02*
X126441541Y-91679931D01*
X126441541Y-91679931D02*
X126441541Y-91870407D01*
X126441541Y-91870407D02*
X127393922Y-92060883D01*
X125870112Y-91394216D02*
X125108208Y-91394216D01*
X125584398Y-90727550D02*
X125584398Y-92441835D01*
X125584398Y-92441835D02*
X125489160Y-92632312D01*
X125489160Y-92632312D02*
X125298684Y-92727550D01*
X125298684Y-92727550D02*
X125108208Y-92727550D01*
X124441541Y-92727550D02*
X124441541Y-91394216D01*
X124441541Y-91584692D02*
X124346303Y-91489454D01*
X124346303Y-91489454D02*
X124155827Y-91394216D01*
X124155827Y-91394216D02*
X123870112Y-91394216D01*
X123870112Y-91394216D02*
X123679636Y-91489454D01*
X123679636Y-91489454D02*
X123584398Y-91679931D01*
X123584398Y-91679931D02*
X123584398Y-92727550D01*
X123584398Y-91679931D02*
X123489160Y-91489454D01*
X123489160Y-91489454D02*
X123298684Y-91394216D01*
X123298684Y-91394216D02*
X123012970Y-91394216D01*
X123012970Y-91394216D02*
X122822493Y-91489454D01*
X122822493Y-91489454D02*
X122727255Y-91679931D01*
X122727255Y-91679931D02*
X122727255Y-92727550D01*
X121012969Y-92632312D02*
X121203445Y-92727550D01*
X121203445Y-92727550D02*
X121584398Y-92727550D01*
X121584398Y-92727550D02*
X121774874Y-92632312D01*
X121774874Y-92632312D02*
X121870112Y-92441835D01*
X121870112Y-92441835D02*
X121870112Y-91679931D01*
X121870112Y-91679931D02*
X121774874Y-91489454D01*
X121774874Y-91489454D02*
X121584398Y-91394216D01*
X121584398Y-91394216D02*
X121203445Y-91394216D01*
X121203445Y-91394216D02*
X121012969Y-91489454D01*
X121012969Y-91489454D02*
X120917731Y-91679931D01*
X120917731Y-91679931D02*
X120917731Y-91870407D01*
X120917731Y-91870407D02*
X121870112Y-92060883D01*
X120060588Y-92727550D02*
X120060588Y-91394216D01*
X120060588Y-91775169D02*
X119965350Y-91584692D01*
X119965350Y-91584692D02*
X119870112Y-91489454D01*
X119870112Y-91489454D02*
X119679636Y-91394216D01*
X119679636Y-91394216D02*
X119489159Y-91394216D01*
X136155828Y-93947438D02*
X136155828Y-95376009D01*
X136155828Y-95376009D02*
X136251067Y-95661723D01*
X136251067Y-95661723D02*
X136441543Y-95852200D01*
X136441543Y-95852200D02*
X136727257Y-95947438D01*
X136727257Y-95947438D02*
X136917733Y-95947438D01*
X134346304Y-95947438D02*
X134346304Y-94899819D01*
X134346304Y-94899819D02*
X134441542Y-94709342D01*
X134441542Y-94709342D02*
X134632018Y-94614104D01*
X134632018Y-94614104D02*
X135012971Y-94614104D01*
X135012971Y-94614104D02*
X135203447Y-94709342D01*
X134346304Y-95852200D02*
X134536780Y-95947438D01*
X134536780Y-95947438D02*
X135012971Y-95947438D01*
X135012971Y-95947438D02*
X135203447Y-95852200D01*
X135203447Y-95852200D02*
X135298685Y-95661723D01*
X135298685Y-95661723D02*
X135298685Y-95471247D01*
X135298685Y-95471247D02*
X135203447Y-95280771D01*
X135203447Y-95280771D02*
X135012971Y-95185533D01*
X135012971Y-95185533D02*
X134536780Y-95185533D01*
X134536780Y-95185533D02*
X134346304Y-95090295D01*
X133393923Y-95947438D02*
X133393923Y-93947438D01*
X133203447Y-95185533D02*
X132632018Y-95947438D01*
X132632018Y-94614104D02*
X133393923Y-95376009D01*
X130917732Y-94614104D02*
X130917732Y-95947438D01*
X131774875Y-94614104D02*
X131774875Y-95661723D01*
X131774875Y-95661723D02*
X131679637Y-95852200D01*
X131679637Y-95852200D02*
X131489161Y-95947438D01*
X131489161Y-95947438D02*
X131203446Y-95947438D01*
X131203446Y-95947438D02*
X131012970Y-95852200D01*
X131012970Y-95852200D02*
X130917732Y-95756961D01*
X129965351Y-95947438D02*
X129965351Y-93947438D01*
X129965351Y-94709342D02*
X129774875Y-94614104D01*
X129774875Y-94614104D02*
X129393922Y-94614104D01*
X129393922Y-94614104D02*
X129203446Y-94709342D01*
X129203446Y-94709342D02*
X129108208Y-94804580D01*
X129108208Y-94804580D02*
X129012970Y-94995057D01*
X129012970Y-94995057D02*
X129012970Y-95566485D01*
X129012970Y-95566485D02*
X129108208Y-95756961D01*
X129108208Y-95756961D02*
X129203446Y-95852200D01*
X129203446Y-95852200D02*
X129393922Y-95947438D01*
X129393922Y-95947438D02*
X129774875Y-95947438D01*
X129774875Y-95947438D02*
X129965351Y-95852200D01*
X125965350Y-94899819D02*
X125679636Y-94995057D01*
X125679636Y-94995057D02*
X125584398Y-95090295D01*
X125584398Y-95090295D02*
X125489160Y-95280771D01*
X125489160Y-95280771D02*
X125489160Y-95566485D01*
X125489160Y-95566485D02*
X125584398Y-95756961D01*
X125584398Y-95756961D02*
X125679636Y-95852200D01*
X125679636Y-95852200D02*
X125870112Y-95947438D01*
X125870112Y-95947438D02*
X126632017Y-95947438D01*
X126632017Y-95947438D02*
X126632017Y-93947438D01*
X126632017Y-93947438D02*
X125965350Y-93947438D01*
X125965350Y-93947438D02*
X125774874Y-94042676D01*
X125774874Y-94042676D02*
X125679636Y-94137914D01*
X125679636Y-94137914D02*
X125584398Y-94328390D01*
X125584398Y-94328390D02*
X125584398Y-94518866D01*
X125584398Y-94518866D02*
X125679636Y-94709342D01*
X125679636Y-94709342D02*
X125774874Y-94804580D01*
X125774874Y-94804580D02*
X125965350Y-94899819D01*
X125965350Y-94899819D02*
X126632017Y-94899819D01*
X123774874Y-94614104D02*
X123774874Y-95947438D01*
X124632017Y-94614104D02*
X124632017Y-95661723D01*
X124632017Y-95661723D02*
X124536779Y-95852200D01*
X124536779Y-95852200D02*
X124346303Y-95947438D01*
X124346303Y-95947438D02*
X124060588Y-95947438D01*
X124060588Y-95947438D02*
X123870112Y-95852200D01*
X123870112Y-95852200D02*
X123774874Y-95756961D01*
X122536779Y-95947438D02*
X122727255Y-95852200D01*
X122727255Y-95852200D02*
X122822493Y-95661723D01*
X122822493Y-95661723D02*
X122822493Y-93947438D01*
X121012969Y-95852200D02*
X121203445Y-95947438D01*
X121203445Y-95947438D02*
X121584398Y-95947438D01*
X121584398Y-95947438D02*
X121774874Y-95852200D01*
X121774874Y-95852200D02*
X121870112Y-95661723D01*
X121870112Y-95661723D02*
X121870112Y-94899819D01*
X121870112Y-94899819D02*
X121774874Y-94709342D01*
X121774874Y-94709342D02*
X121584398Y-94614104D01*
X121584398Y-94614104D02*
X121203445Y-94614104D01*
X121203445Y-94614104D02*
X121012969Y-94709342D01*
X121012969Y-94709342D02*
X120917731Y-94899819D01*
X120917731Y-94899819D02*
X120917731Y-95090295D01*
X120917731Y-95090295D02*
X121870112Y-95280771D01*
X120060588Y-95947438D02*
X120060588Y-94614104D01*
X120060588Y-94995057D02*
X119965350Y-94804580D01*
X119965350Y-94804580D02*
X119870112Y-94709342D01*
X119870112Y-94709342D02*
X119679636Y-94614104D01*
X119679636Y-94614104D02*
X119489159Y-94614104D01*
D10*
D11*
X72386247Y-60982269D02*
X74886247Y-61577507D01*
X74886247Y-61577507D02*
X73100533Y-62053698D01*
X73100533Y-62053698D02*
X74886247Y-62529888D01*
X74886247Y-62529888D02*
X72386247Y-63125127D01*
X74886247Y-64077508D02*
X72386247Y-64077508D01*
X74886247Y-65267984D02*
X72386247Y-65267984D01*
X72386247Y-66101317D02*
X72386247Y-67529888D01*
X74886247Y-66815602D02*
X72386247Y-66815602D01*
X74886247Y-70267984D02*
X72386247Y-70267984D01*
X72386247Y-70267984D02*
X72386247Y-71220365D01*
X72386247Y-71220365D02*
X72505295Y-71458460D01*
X72505295Y-71458460D02*
X72624342Y-71577507D01*
X72624342Y-71577507D02*
X72862438Y-71696555D01*
X72862438Y-71696555D02*
X73219580Y-71696555D01*
X73219580Y-71696555D02*
X73457676Y-71577507D01*
X73457676Y-71577507D02*
X73576723Y-71458460D01*
X73576723Y-71458460D02*
X73695771Y-71220365D01*
X73695771Y-71220365D02*
X73695771Y-70267984D01*
X74886247Y-72767984D02*
X72386247Y-72767984D01*
X72386247Y-72767984D02*
X72386247Y-73720365D01*
X72386247Y-73720365D02*
X72505295Y-73958460D01*
X72505295Y-73958460D02*
X72624342Y-74077507D01*
X72624342Y-74077507D02*
X72862438Y-74196555D01*
X72862438Y-74196555D02*
X73219580Y-74196555D01*
X73219580Y-74196555D02*
X73457676Y-74077507D01*
X73457676Y-74077507D02*
X73576723Y-73958460D01*
X73576723Y-73958460D02*
X73695771Y-73720365D01*
X73695771Y-73720365D02*
X73695771Y-72767984D01*
X72624342Y-77053698D02*
X72505295Y-77172746D01*
X72505295Y-77172746D02*
X72386247Y-77410841D01*
X72386247Y-77410841D02*
X72386247Y-78006079D01*
X72386247Y-78006079D02*
X72505295Y-78244174D01*
X72505295Y-78244174D02*
X72624342Y-78363222D01*
X72624342Y-78363222D02*
X72862438Y-78482269D01*
X72862438Y-78482269D02*
X73100533Y-78482269D01*
X73100533Y-78482269D02*
X73457676Y-78363222D01*
X73457676Y-78363222D02*
X74886247Y-76934650D01*
X74886247Y-76934650D02*
X74886247Y-78482269D01*
X72386247Y-80029888D02*
X72386247Y-80267983D01*
X72386247Y-80267983D02*
X72505295Y-80506079D01*
X72505295Y-80506079D02*
X72624342Y-80625126D01*
X72624342Y-80625126D02*
X72862438Y-80744174D01*
X72862438Y-80744174D02*
X73338628Y-80863221D01*
X73338628Y-80863221D02*
X73933866Y-80863221D01*
X73933866Y-80863221D02*
X74410057Y-80744174D01*
X74410057Y-80744174D02*
X74648152Y-80625126D01*
X74648152Y-80625126D02*
X74767200Y-80506079D01*
X74767200Y-80506079D02*
X74886247Y-80267983D01*
X74886247Y-80267983D02*
X74886247Y-80029888D01*
X74886247Y-80029888D02*
X74767200Y-79791793D01*
X74767200Y-79791793D02*
X74648152Y-79672745D01*
X74648152Y-79672745D02*
X74410057Y-79553698D01*
X74410057Y-79553698D02*
X73933866Y-79434650D01*
X73933866Y-79434650D02*
X73338628Y-79434650D01*
X73338628Y-79434650D02*
X72862438Y-79553698D01*
X72862438Y-79553698D02*
X72624342Y-79672745D01*
X72624342Y-79672745D02*
X72505295Y-79791793D01*
X72505295Y-79791793D02*
X72386247Y-80029888D01*
X72624342Y-81815602D02*
X72505295Y-81934650D01*
X72505295Y-81934650D02*
X72386247Y-82172745D01*
X72386247Y-82172745D02*
X72386247Y-82767983D01*
X72386247Y-82767983D02*
X72505295Y-83006078D01*
X72505295Y-83006078D02*
X72624342Y-83125126D01*
X72624342Y-83125126D02*
X72862438Y-83244173D01*
X72862438Y-83244173D02*
X73100533Y-83244173D01*
X73100533Y-83244173D02*
X73457676Y-83125126D01*
X73457676Y-83125126D02*
X74886247Y-81696554D01*
X74886247Y-81696554D02*
X74886247Y-83244173D01*
X73219580Y-85387030D02*
X74886247Y-85387030D01*
X72267200Y-84791792D02*
X74052914Y-84196554D01*
X74052914Y-84196554D02*
X74052914Y-85744173D01*
D12*
%TO.P,J5,1,Pin_1*%
%TO.N,GND*%
X144050000Y-66770000D03*
D13*
%TO.P,J5,2,Pin_2*%
%TO.N,unconnected-(J5-Pin_2-Pad2)*%
X141510000Y-66770000D03*
%TO.P,J5,3,Pin_3*%
%TO.N,unconnected-(J5-Pin_3-Pad3)*%
X138970000Y-66770000D03*
%TO.P,J5,4,Pin_4*%
%TO.N,+5V*%
X136430000Y-66770000D03*
%TD*%
D12*
%TO.P,J6,1,Pin_1*%
%TO.N,PH3*%
X86380000Y-54500000D03*
D13*
%TO.P,J6,2,Pin_2*%
%TO.N,PH2*%
X88920000Y-54500000D03*
%TO.P,J6,3,Pin_3*%
%TO.N,PH1*%
X91460000Y-54500000D03*
%TO.P,J6,4,Pin_4*%
%TO.N,PH0*%
X94000000Y-54500000D03*
%TD*%
D14*
%TO.P,R9,1*%
%TO.N,+5V*%
X81110000Y-80250000D03*
D15*
%TO.P,R9,2*%
%TO.N,~RESET*%
X81110000Y-90410000D03*
%TD*%
D14*
%TO.P,C2,1*%
%TO.N,CRY1*%
X102750000Y-90000000D03*
%TO.P,C2,2*%
%TO.N,GND*%
X102750000Y-87500000D03*
%TD*%
D12*
%TO.P,J1,1,Pin_1*%
%TO.N,GND*%
X101750000Y-54700000D03*
D13*
%TO.P,J1,2,Pin_2*%
%TO.N,+5V*%
X101750000Y-57240000D03*
%TO.P,J1,3,Pin_3*%
%TO.N,SERV0*%
X101750000Y-59780000D03*
%TO.P,J1,4,Pin_4*%
%TO.N,+5V*%
X101750000Y-62320000D03*
%TD*%
D14*
%TO.P,C1,1*%
%TO.N,CRY2*%
X98500000Y-90000000D03*
%TO.P,C1,2*%
%TO.N,GND*%
X98500000Y-87500000D03*
%TD*%
D16*
%TO.P,Y1,1,1*%
%TO.N,CRY2*%
X114300000Y-88000000D03*
%TO.P,Y1,2,2*%
%TO.N,CRY1*%
X109420000Y-88000000D03*
%TD*%
D17*
%TO.P,SW2,1,1*%
%TO.N,GND*%
X92250000Y-95110000D03*
X85750000Y-95110000D03*
%TO.P,SW2,2,2*%
%TO.N,~RESET*%
X92250000Y-90610000D03*
X85750000Y-90610000D03*
%TD*%
D12*
%TO.P,J7,1,Pin_1*%
%TO.N,GND*%
X104240000Y-68500000D03*
D13*
%TO.P,J7,2,Pin_2*%
%TO.N,+5V*%
X106780000Y-68500000D03*
%TD*%
D18*
%TO.P,U1,1,~{RESET}/PC6*%
%TO.N,~RESET*%
X89050000Y-81620000D03*
D15*
%TO.P,U1,2,PD0*%
%TO.N,RX*%
X91590000Y-81620000D03*
%TO.P,U1,3,PD1*%
%TO.N,TX*%
X94130000Y-81620000D03*
%TO.P,U1,4,PD2*%
%TO.N,unconnected-(U1-PD2-Pad4)*%
X96670000Y-81620000D03*
%TO.P,U1,5,PD3*%
%TO.N,unconnected-(U1-PD3-Pad5)*%
X99210000Y-81620000D03*
%TO.P,U1,6,PD4*%
%TO.N,unconnected-(U1-PD4-Pad6)*%
X101750000Y-81620000D03*
%TO.P,U1,7,VCC*%
%TO.N,+5V*%
X104290000Y-81620000D03*
%TO.P,U1,8,GND*%
%TO.N,GND*%
X106830000Y-81620000D03*
%TO.P,U1,9,XTAL1/PB6*%
%TO.N,CRY1*%
X109370000Y-81620000D03*
%TO.P,U1,10,XTAL2/PB7*%
%TO.N,CRY2*%
X111910000Y-81620000D03*
%TO.P,U1,11,PD5*%
%TO.N,unconnected-(U1-PD5-Pad11)*%
X114450000Y-81620000D03*
%TO.P,U1,12,PD6*%
%TO.N,SERV3*%
X116990000Y-81620000D03*
%TO.P,U1,13,PD7*%
%TO.N,unconnected-(U1-PD7-Pad13)*%
X119530000Y-81620000D03*
%TO.P,U1,14,PB0*%
%TO.N,unconnected-(U1-PB0-Pad14)*%
X122070000Y-81620000D03*
%TO.P,U1,15,PB1*%
%TO.N,SERV2*%
X122070000Y-74000000D03*
%TO.P,U1,16,PB2*%
%TO.N,SERV1*%
X119530000Y-74000000D03*
%TO.P,U1,17,PB3*%
%TO.N,SERV0*%
X116990000Y-74000000D03*
%TO.P,U1,18,PB4*%
%TO.N,unconnected-(U1-PB4-Pad18)*%
X114450000Y-74000000D03*
%TO.P,U1,19,PB5*%
%TO.N,unconnected-(U1-PB5-Pad19)*%
X111910000Y-74000000D03*
%TO.P,U1,20,AVCC*%
%TO.N,+5V*%
X109370000Y-74000000D03*
%TO.P,U1,21,AREF*%
X106830000Y-74000000D03*
%TO.P,U1,22,GND*%
%TO.N,GND*%
X104290000Y-74000000D03*
%TO.P,U1,23,PC0*%
%TO.N,PH0*%
X101750000Y-74000000D03*
%TO.P,U1,24,PC1*%
%TO.N,PH1*%
X99210000Y-74000000D03*
%TO.P,U1,25,PC2*%
%TO.N,PH2*%
X96670000Y-74000000D03*
%TO.P,U1,26,PC3*%
%TO.N,PH3*%
X94130000Y-74000000D03*
%TO.P,U1,27,PC4*%
%TO.N,unconnected-(U1-PC4-Pad27)*%
X91590000Y-74000000D03*
%TO.P,U1,28,PC5*%
%TO.N,unconnected-(U1-PC5-Pad28)*%
X89050000Y-74000000D03*
%TD*%
D12*
%TO.P,J8,1,Pin_1*%
%TO.N,~RESET*%
X89000000Y-85000000D03*
D13*
%TO.P,J8,2,Pin_2*%
%TO.N,RX*%
X91540000Y-85000000D03*
%TO.P,J8,3,Pin_3*%
%TO.N,TX*%
X94080000Y-85000000D03*
%TD*%
D12*
%TO.P,J3,1,Pin_1*%
%TO.N,GND*%
X125250000Y-54700000D03*
D13*
%TO.P,J3,2,Pin_2*%
%TO.N,+5V*%
X125250000Y-57240000D03*
%TO.P,J3,3,Pin_3*%
%TO.N,SERV2*%
X125250000Y-59780000D03*
%TO.P,J3,4,Pin_4*%
%TO.N,+5V*%
X125250000Y-62320000D03*
%TD*%
D12*
%TO.P,J2,1,Pin_1*%
%TO.N,GND*%
X113500000Y-54700000D03*
D13*
%TO.P,J2,2,Pin_2*%
%TO.N,+5V*%
X113500000Y-57240000D03*
%TO.P,J2,3,Pin_3*%
%TO.N,SERV1*%
X113500000Y-59780000D03*
%TO.P,J2,4,Pin_4*%
%TO.N,+5V*%
X113500000Y-62320000D03*
%TD*%
D12*
%TO.P,J4,1,Pin_1*%
%TO.N,GND*%
X137000000Y-54700000D03*
D13*
%TO.P,J4,2,Pin_2*%
%TO.N,+5V*%
X137000000Y-57240000D03*
%TO.P,J4,3,Pin_3*%
%TO.N,SERV3*%
X137000000Y-59780000D03*
%TO.P,J4,4,Pin_4*%
%TO.N,+5V*%
X137000000Y-62320000D03*
%TD*%
D19*
%TO.N,CRY2*%
X113464466Y-87074466D02*
X114390000Y-88000000D01*
X98590000Y-92000000D02*
X98625534Y-92035534D01*
X112925534Y-91914466D02*
X112804466Y-92035534D01*
X112000000Y-81620000D02*
X112000000Y-83538932D01*
X98590000Y-92000000D02*
X98590000Y-90000000D01*
X102161068Y-93500000D02*
X109268932Y-93500000D01*
X114390000Y-88000000D02*
X114390000Y-88378932D01*
X113464467Y-87074465D02*
G75*
G02*
X111999978Y-83538932I3535533J3535565D01*
G01*
X98625535Y-92035533D02*
G75*
G03*
X102161068Y-93500022I3535565J3535533D01*
G01*
X114390000Y-88378932D02*
G75*
G02*
X112925518Y-91914450I-5000000J32D01*
G01*
X109268932Y-93500000D02*
G75*
G03*
X112804450Y-92035518I-32J5000000D01*
G01*
%TO.N,GND*%
X96340000Y-87500000D02*
X98590000Y-87500000D01*
X104330000Y-70490000D02*
X102340000Y-68500000D01*
X104330000Y-70750000D02*
X104330000Y-72561068D01*
X77950000Y-89960505D02*
X77950000Y-79218427D01*
X104380000Y-74000000D02*
X104380000Y-72611068D01*
X80868427Y-76300000D02*
X102797156Y-76300000D01*
X139582893Y-54992893D02*
X140090000Y-55500000D01*
X96175787Y-87664213D02*
X96340000Y-87500000D01*
X104330000Y-68500000D02*
X104330000Y-70750000D01*
X137090000Y-54700000D02*
X101840000Y-54700000D01*
X104330000Y-68500000D02*
X102340000Y-68500000D01*
X101840000Y-54700000D02*
X99990000Y-54700000D01*
X101340000Y-87500000D02*
X98590000Y-87500000D01*
X104330000Y-70750000D02*
X104330000Y-70490000D01*
X78535787Y-77804213D02*
X79454214Y-76885786D01*
X104380000Y-73540000D02*
X104340000Y-73500000D01*
X99990000Y-54700000D02*
X98554466Y-56135534D01*
X102840000Y-87500000D02*
X106920000Y-83420000D01*
X104380000Y-74302943D02*
X104380000Y-74000000D01*
X103504263Y-76007107D02*
X103794213Y-75717157D01*
X85840000Y-95110000D02*
X84342136Y-95110000D01*
X144140000Y-62363709D02*
X144140000Y-66770000D01*
X140968680Y-57949748D02*
X143261321Y-60242389D01*
X102340000Y-68500000D02*
X98554466Y-64714466D01*
X92340000Y-95110000D02*
X85840000Y-95110000D01*
X104380000Y-74000000D02*
X104380000Y-73540000D01*
X80806602Y-93645534D02*
X78535786Y-91374718D01*
X140090000Y-55500000D02*
X140090000Y-55828427D01*
X95590000Y-94250000D02*
X95590000Y-89078427D01*
X137090000Y-54700000D02*
X138875786Y-54700000D01*
X95315787Y-94524213D02*
X95590000Y-94250000D01*
X106920000Y-83420000D02*
X106920000Y-81620000D01*
X101340000Y-87500000D02*
X102840000Y-87500000D01*
X104330000Y-72561068D02*
X104380000Y-72611068D01*
X92340000Y-95110000D02*
X93901573Y-95110000D01*
X97090000Y-59671068D02*
X97090000Y-61178932D01*
X101840000Y-87500000D02*
X101340000Y-87500000D01*
X143261320Y-60242390D02*
G75*
G02*
X144139993Y-62363709I-2121320J-2121310D01*
G01*
X140968680Y-57949748D02*
G75*
G02*
X140089981Y-55828427I2121320J2121348D01*
G01*
X98554467Y-64714465D02*
G75*
G02*
X97089978Y-61178932I3535533J3535565D01*
G01*
X78535786Y-91374718D02*
G75*
G02*
X77949997Y-89960505I1414214J1414218D01*
G01*
X139582893Y-54992893D02*
G75*
G03*
X138875786Y-54700010I-707093J-707107D01*
G01*
X93901573Y-95110000D02*
G75*
G03*
X95315801Y-94524227I27J2000000D01*
G01*
X97090000Y-59671068D02*
G75*
G02*
X98554482Y-56135550I5000000J-32D01*
G01*
X77950000Y-79218427D02*
G75*
G02*
X78535773Y-77804199I2000000J27D01*
G01*
X103794213Y-75717157D02*
G75*
G03*
X104380030Y-74302943I-1414213J1414257D01*
G01*
X84342136Y-95110000D02*
G75*
G02*
X80806584Y-93645552I-36J5000000D01*
G01*
X102797156Y-76300000D02*
G75*
G03*
X103504276Y-76007120I-56J1000200D01*
G01*
X79454215Y-76885787D02*
G75*
G02*
X80868427Y-76300020I1414185J-1414213D01*
G01*
X96175788Y-87664214D02*
G75*
G03*
X95590020Y-89078427I1414212J-1414186D01*
G01*
%TO.N,CRY1*%
X108974466Y-88535534D02*
X109510000Y-88000000D01*
X109510000Y-88000000D02*
X109510000Y-81670000D01*
X109510000Y-81670000D02*
X109460000Y-81620000D01*
X102840000Y-90000000D02*
X105438932Y-90000000D01*
X108974465Y-88535533D02*
G75*
G02*
X105438932Y-90000022I-3535565J3535533D01*
G01*
%TO.N,+5V*%
X106920000Y-74000000D02*
X109460000Y-74000000D01*
X101840000Y-62320000D02*
X100637919Y-62320000D01*
X106091573Y-78367308D02*
X106920000Y-77538881D01*
X117590000Y-57240000D02*
X137090000Y-57240000D01*
X105840000Y-57240000D02*
X117590000Y-57240000D01*
X106920000Y-74000000D02*
X106920000Y-77538881D01*
X106870000Y-68500000D02*
X106870000Y-67350000D01*
X106334213Y-78953095D02*
X104380000Y-80907308D01*
X83096653Y-79831774D02*
X82678427Y-80250000D01*
X112387919Y-62320000D02*
X107307919Y-57240000D01*
X125340000Y-62320000D02*
X124137919Y-62320000D01*
X137090000Y-57240000D02*
X138168126Y-57240000D01*
X136520000Y-66770000D02*
X136520000Y-62890000D01*
X104380000Y-80907308D02*
X104380000Y-81620000D01*
X99340000Y-58537919D02*
X100637919Y-57240000D01*
X139743806Y-58846194D02*
X139743806Y-60868275D01*
X138168126Y-57240000D02*
X139468680Y-58540554D01*
X82678427Y-80250000D02*
X81200000Y-80250000D01*
X106870000Y-67350000D02*
X101840000Y-62320000D01*
X86632187Y-78367308D02*
X106091573Y-78367308D01*
X139468680Y-58540554D02*
X139468680Y-58571068D01*
X100637919Y-62320000D02*
X99340000Y-61022081D01*
X139743806Y-60868275D02*
X138292081Y-62320000D01*
X101840000Y-57240000D02*
X105840000Y-57240000D01*
X139468680Y-58571068D02*
X139743806Y-58846194D01*
X106870000Y-68500000D02*
X106870000Y-73950000D01*
X106870000Y-73950000D02*
X106920000Y-74000000D01*
X124137919Y-62320000D02*
X119057919Y-57240000D01*
X107307919Y-57240000D02*
X105840000Y-57240000D01*
X119057919Y-57240000D02*
X117590000Y-57240000D01*
X99340000Y-61022081D02*
X99340000Y-58537919D01*
X100637919Y-57240000D02*
X101840000Y-57240000D01*
X136520000Y-62890000D02*
X137090000Y-62320000D01*
X113590000Y-62320000D02*
X112387919Y-62320000D01*
X138292081Y-62320000D02*
X137090000Y-62320000D01*
X83096653Y-79831774D02*
G75*
G02*
X86632187Y-78367297I3535547J-3535526D01*
G01*
X106920000Y-77538881D02*
G75*
G02*
X106334223Y-78953105I-2000000J-19D01*
G01*
%TO.N,SERV0*%
X117080000Y-74000000D02*
X117080000Y-73697057D01*
X101920302Y-59780000D02*
X101840000Y-59780000D01*
X116494213Y-72282843D02*
X105455836Y-61244466D01*
X117080000Y-73697057D02*
G75*
G03*
X116494192Y-72282864I-2000000J-43D01*
G01*
X101920302Y-59780000D02*
G75*
G02*
X105455835Y-61244467I-2J-5000000D01*
G01*
%TO.N,SERV1*%
X119034214Y-63157479D02*
X116242521Y-60365786D01*
X114828308Y-59780000D02*
X113590000Y-59780000D01*
X119620000Y-64571692D02*
X119620000Y-74000000D01*
X116242521Y-60365786D02*
G75*
G03*
X114828308Y-59779995I-1414221J-1414214D01*
G01*
X119034214Y-63157479D02*
G75*
G02*
X119620005Y-64571692I-1414214J-1414221D01*
G01*
%TO.N,SERV2*%
X127190000Y-61256346D02*
X127190000Y-66321573D01*
X122160000Y-73008427D02*
X122160000Y-74000000D01*
X126604213Y-67735787D02*
X122745786Y-71594214D01*
X126542081Y-59780000D02*
X125340000Y-59780000D01*
X126604213Y-59842132D02*
X126542081Y-59780000D01*
X126604213Y-59842132D02*
G75*
G02*
X127189967Y-61256346I-1414213J-1414168D01*
G01*
X126604212Y-67735786D02*
G75*
G03*
X127189980Y-66321573I-1414212J1414186D01*
G01*
X122160000Y-73008427D02*
G75*
G02*
X122745772Y-71594200I2000000J27D01*
G01*
%TO.N,SERV3*%
X121768932Y-78250000D02*
X121389698Y-78250000D01*
X117854164Y-79714466D02*
X117080000Y-80488630D01*
X128625534Y-73464466D02*
X125304466Y-76785534D01*
X137090000Y-59780000D02*
X135887919Y-59780000D01*
X117080000Y-80488630D02*
X117080000Y-81620000D01*
X117080000Y-81922943D02*
X117080000Y-81620000D01*
X130090000Y-68891627D02*
X130090000Y-69928932D01*
X135887919Y-59780000D02*
X132433146Y-63234773D01*
X125304465Y-76785533D02*
G75*
G02*
X121768932Y-78250022I-3535565J3535533D01*
G01*
X130090000Y-69928932D02*
G75*
G02*
X128625518Y-73464450I-5000000J32D01*
G01*
X117854164Y-79714466D02*
G75*
G02*
X121389698Y-78249999I3535536J-3535534D01*
G01*
X132433146Y-63234773D02*
G75*
G03*
X130090020Y-68891627I5656854J-5656827D01*
G01*
%TO.N,PH0*%
X101840000Y-74000000D02*
X101790000Y-73950000D01*
X101840000Y-74000000D02*
X101840000Y-73535534D01*
X94090000Y-63300252D02*
X94090000Y-54500000D01*
X101547107Y-72828427D02*
X95554466Y-66835786D01*
X95554466Y-66835786D02*
G75*
G02*
X94090034Y-63300252I3535534J3535486D01*
G01*
X101547107Y-72828427D02*
G75*
G02*
X101839976Y-73535534I-707107J-707073D01*
G01*
%TO.N,PH1*%
X99300000Y-72868630D02*
X93014466Y-66583096D01*
X99250000Y-73950000D02*
X99300000Y-74000000D01*
X99300000Y-74000000D02*
X99300000Y-72868630D01*
X91550000Y-63047562D02*
X91550000Y-54500000D01*
X91550000Y-63047562D02*
G75*
G03*
X93014447Y-66583115I5000000J-38D01*
G01*
%TO.N,PH2*%
X96760000Y-74000000D02*
X96760000Y-73282844D01*
X96710000Y-73950000D02*
X96760000Y-74000000D01*
X89010000Y-63047562D02*
X89010000Y-54500000D01*
X96467107Y-72575737D02*
X90474466Y-66583096D01*
X90474466Y-66583096D02*
G75*
G02*
X89010027Y-63047562I3535534J3535496D01*
G01*
X96467107Y-72575737D02*
G75*
G02*
X96759969Y-73282844I-707107J-707063D01*
G01*
%TO.N,PH3*%
X94220000Y-72868630D02*
X87934466Y-66583096D01*
X94170000Y-73950000D02*
X94220000Y-74000000D01*
X86470000Y-54500000D02*
X86470000Y-63047562D01*
X94220000Y-74000000D02*
X94220000Y-72868630D01*
X86470000Y-63047562D02*
G75*
G03*
X87934447Y-66583115I5000000J-38D01*
G01*
%TO.N,~RESET*%
X89140000Y-84950000D02*
X89090000Y-85000000D01*
X89140000Y-81620000D02*
X89140000Y-84950000D01*
X87625534Y-88824466D02*
X85840000Y-90610000D01*
X89090000Y-85000000D02*
X89090000Y-85288932D01*
X92340000Y-90610000D02*
X85840000Y-90610000D01*
X85640000Y-90410000D02*
X85840000Y-90610000D01*
X81200000Y-90410000D02*
X85640000Y-90410000D01*
X89090000Y-85288932D02*
G75*
G02*
X87625518Y-88824450I-5000000J32D01*
G01*
%TO.N,RX*%
X91680000Y-81620000D02*
X91680000Y-84950000D01*
X91680000Y-84950000D02*
X91630000Y-85000000D01*
%TO.N,TX*%
X94170000Y-81670000D02*
X94220000Y-81620000D01*
X94170000Y-85000000D02*
X94170000Y-81670000D01*
%TD*%
M02*
