<?xml version="1.0" standalone="no"?>
 <!DOCTYPE svg PUBLIC "-//W3C//DTD SVG 1.1//EN" 
 "http://www.w3.org/Graphics/SVG/1.1/DTD/svg11.dtd"> 
<svg
  xmlns:svg="http://www.w3.org/2000/svg"
  xmlns="http://www.w3.org/2000/svg"
  xmlns:xlink="http://www.w3.org/1999/xlink"
  version="1.1"
  width="297.002200mm" height="210.007200mm" viewBox="0.000000 0.000000 297.002200 210.007200">
<title>SVG Image created as Photoresistor-array-F_Cu.svg date 2024/04/25 13:44:58 </title>
  <desc>Image generated by PCBNEW </desc>
<g style="fill:#000000; fill-opacity:1.000000;stroke:#000000; stroke-opacity:1.000000;
stroke-linecap:round; stroke-linejoin:round;"
 transform="translate(0 0) scale(1 1)">
</g>
<g style="fill:none; 
stroke:#000000; stroke-width:0.500000; stroke-opacity:1; 
stroke-linecap:round; stroke-linejoin:round;">
<text x="121.002200" y="57.950280"
transform="scale(-1 1) translate(-242.004400 0)"
textLength="6.000000" font-size="3.333333" lengthAdjust="spacingAndGlyphs"
text-anchor="middle" opacity="0">PP</text>
<g class="stroked-text"><desc>PP</desc>
<path d="M122.906962 57.618327
L122.906962 55.118327
" />
<path d="M122.906962 55.118327
L121.954581 55.118327
" />
<path d="M121.954581 55.118327
L121.716486 55.237375
" />
<path d="M121.716486 55.237375
L121.597439 55.356422
" />
<path d="M121.597439 55.356422
L121.478391 55.594518
" />
<path d="M121.478391 55.594518
L121.478391 55.951660
" />
<path d="M121.478391 55.951660
L121.597439 56.189756
" />
<path d="M121.597439 56.189756
L121.716486 56.308803
" />
<path d="M121.716486 56.308803
L121.954581 56.427851
" />
<path d="M121.954581 56.427851
L122.906962 56.427851
" />
<path d="M120.406962 57.618327
L120.406962 55.118327
" />
<path d="M120.406962 55.118327
L119.454581 55.118327
" />
<path d="M119.454581 55.118327
L119.216486 55.237375
" />
<path d="M119.216486 55.237375
L119.097439 55.356422
" />
<path d="M119.097439 55.356422
L118.978391 55.594518
" />
<path d="M118.978391 55.594518
L118.978391 55.951660
" />
<path d="M118.978391 55.951660
L119.097439 56.189756
" />
<path d="M119.097439 56.189756
L119.216486 56.308803
" />
<path d="M119.216486 56.308803
L119.454581 56.427851
" />
<path d="M119.454581 56.427851
L120.406962 56.427851
" />
</g><text x="121.002200" y="61.975140"
transform="scale(-1 1) translate(-242.004400 0)"
textLength="8.142857" font-size="3.333333" lengthAdjust="spacingAndGlyphs"
text-anchor="middle" opacity="0">WIIT</text>
<g class="stroked-text"><desc>WIIT</desc>
<path d="M124.216486 59.143187
L123.621248 61.643187
" />
<path d="M123.621248 61.643187
L123.145057 59.857473
" />
<path d="M123.145057 59.857473
L122.668867 61.643187
" />
<path d="M122.668867 61.643187
L122.073628 59.143187
" />
<path d="M121.121247 61.643187
L121.121247 59.143187
" />
<path d="M119.930771 61.643187
L119.930771 59.143187
" />
<path d="M119.097438 59.143187
L117.668867 59.143187
" />
<path d="M118.383153 61.643187
L118.383153 59.143187
" />
</g><text x="121.002200" y="66.000000"
transform="scale(-1 1) translate(-242.004400 0)"
textLength="10.523808" font-size="3.333333" lengthAdjust="spacingAndGlyphs"
text-anchor="middle" opacity="0">2024</text>
<g class="stroked-text"><desc>2024</desc>
<path d="M125.287914 63.406142
L125.168866 63.287095
" />
<path d="M125.168866 63.287095
L124.930771 63.168047
" />
<path d="M124.930771 63.168047
L124.335533 63.168047
" />
<path d="M124.335533 63.168047
L124.097438 63.287095
" />
<path d="M124.097438 63.287095
L123.978390 63.406142
" />
<path d="M123.978390 63.406142
L123.859343 63.644238
" />
<path d="M123.859343 63.644238
L123.859343 63.882333
" />
<path d="M123.859343 63.882333
L123.978390 64.239476
" />
<path d="M123.978390 64.239476
L125.406962 65.668047
" />
<path d="M125.406962 65.668047
L123.859343 65.668047
" />
<path d="M122.311724 63.168047
L122.073629 63.168047
" />
<path d="M122.073629 63.168047
L121.835533 63.287095
" />
<path d="M121.835533 63.287095
L121.716486 63.406142
" />
<path d="M121.716486 63.406142
L121.597438 63.644238
" />
<path d="M121.597438 63.644238
L121.478391 64.120428
" />
<path d="M121.478391 64.120428
L121.478391 64.715666
" />
<path d="M121.478391 64.715666
L121.597438 65.191857
" />
<path d="M121.597438 65.191857
L121.716486 65.429952
" />
<path d="M121.716486 65.429952
L121.835533 65.549000
" />
<path d="M121.835533 65.549000
L122.073629 65.668047
" />
<path d="M122.073629 65.668047
L122.311724 65.668047
" />
<path d="M122.311724 65.668047
L122.549819 65.549000
" />
<path d="M122.549819 65.549000
L122.668867 65.429952
" />
<path d="M122.668867 65.429952
L122.787914 65.191857
" />
<path d="M122.787914 65.191857
L122.906962 64.715666
" />
<path d="M122.906962 64.715666
L122.906962 64.120428
" />
<path d="M122.906962 64.120428
L122.787914 63.644238
" />
<path d="M122.787914 63.644238
L122.668867 63.406142
" />
<path d="M122.668867 63.406142
L122.549819 63.287095
" />
<path d="M122.549819 63.287095
L122.311724 63.168047
" />
<path d="M120.526010 63.406142
L120.406962 63.287095
" />
<path d="M120.406962 63.287095
L120.168867 63.168047
" />
<path d="M120.168867 63.168047
L119.573629 63.168047
" />
<path d="M119.573629 63.168047
L119.335534 63.287095
" />
<path d="M119.335534 63.287095
L119.216486 63.406142
" />
<path d="M119.216486 63.406142
L119.097439 63.644238
" />
<path d="M119.097439 63.644238
L119.097439 63.882333
" />
<path d="M119.097439 63.882333
L119.216486 64.239476
" />
<path d="M119.216486 64.239476
L120.645058 65.668047
" />
<path d="M120.645058 65.668047
L119.097439 65.668047
" />
<path d="M116.954582 64.001380
L116.954582 65.668047
" />
<path d="M117.549820 63.049000
L118.145058 64.834714
" />
<path d="M118.145058 64.834714
L116.597439 64.834714
" />
</g></g>
<g style="fill:#000000; fill-opacity:1.000000; stroke:none;">
<circle cx="127.592200" cy="58.000000" r="0.850000" /> 
</g>
<g style="fill:#000000; fill-opacity:1.000000; stroke:none;">
<circle cx="137.752200" cy="58.000000" r="0.850000" /> 
</g>
<g style="fill:#000000; fill-opacity:1.000000; stroke:none;">
<circle cx="187.827200" cy="54.950000" r="0.850000" /> 
</g>
<g style="fill:#000000; fill-opacity:1.000000; stroke:none;">
<circle cx="187.827200" cy="51.550000" r="0.850000" /> 
</g>
<g style="fill:#000000; fill-opacity:1.000000; stroke:none;">
<circle cx="182.672200" cy="58.000000" r="0.850000" /> 
</g>
<g style="fill:#000000; fill-opacity:1.000000; stroke:none;">
<circle cx="192.832200" cy="58.000000" r="0.850000" /> 
</g>
<g style="fill:#000000; fill-opacity:1.000000; stroke:none;">
<circle cx="132.852200" cy="54.950000" r="0.850000" /> 
</g>
<g style="fill:#000000; fill-opacity:1.000000; stroke:none;">
<circle cx="132.852200" cy="51.550000" r="0.850000" /> 
</g>
<g style="fill:#000000; fill-opacity:1.000000; stroke:none;">
<circle cx="164.342200" cy="58.000000" r="0.850000" /> 
</g>
<g style="fill:#000000; fill-opacity:1.000000; stroke:none;">
<circle cx="174.502200" cy="58.000000" r="0.850000" /> 
</g>
<g style="fill:#000000; fill-opacity:1.000000; stroke:none;">
<circle cx="146.092200" cy="58.000000" r="0.850000" /> 
</g>
<g style="fill:#000000; fill-opacity:1.000000; stroke:none;">
<circle cx="156.252200" cy="58.000000" r="0.850000" /> 
</g>
<g style="fill:#000000; fill-opacity:1.000000; stroke:none;">
<circle cx="169.502200" cy="54.950000" r="0.850000" /> 
</g>
<g style="fill:#000000; fill-opacity:1.000000; stroke:none;">
<circle cx="169.502200" cy="51.550000" r="0.850000" /> 
</g>
<g style="fill:#000000; fill-opacity:1.000000; stroke:none;">
<circle cx="151.177200" cy="54.950000" r="0.850000" /> 
</g>
<g style="fill:#000000; fill-opacity:1.000000; stroke:none;">
<circle cx="151.177200" cy="51.550000" r="0.850000" /> 
<path style="fill:#000000; fill-opacity:1.000000; stroke:none;fill-rule:evenodd;"
d="M 209.542200,59.600000
211.242200,59.600000
211.242200,57.900000
209.542200,57.900000
Z" /> 
</g>
<g style="fill:#000000; fill-opacity:1.000000; stroke:none;">
<circle cx="212.932200" cy="58.750000" r="0.850000" /> 
<circle cx="215.472200" cy="58.750000" r="0.850000" /> 
<circle cx="218.012200" cy="58.750000" r="0.850000" /> 
<path style="fill:#000000; fill-opacity:1.000000; stroke:none;fill-rule:evenodd;"
d="M 209.332200,51.375000
209.332200,53.075000
211.032200,53.075000
211.032200,51.375000
Z" /> 
<circle cx="210.182200" cy="54.765000" r="0.850000" /> 
</g>
<g style="fill:none; 
stroke:#000000; stroke-width:1.000000; stroke-opacity:1; 
stroke-linecap:round; stroke-linejoin:round;">
<path d="M192.832200 58.000000
L208.813773 58.000000
" />
<path d="M210.227987 58.585787
L210.392200 58.750000
" />
<path d="M192.832200 58.000000
L191.705627 58.000000
" />
<path d="M190.291413 57.414213
L187.827200 54.950000
" />
<path d="M190.291413 57.414213 A1.999981 1.999981 0.0 0 0 191.705627 57.999981" />
<path d="M210.228001 58.585773 A2.000000 2.000000 0.0 0 0 208.813773 58.000000" />
<path d="M212.932200 60.000000
L212.559695 60.372505
" />
<path d="M174.502200 58.000000
L174.209054 58.000000
" />
<path d="M212.932200 58.750000
L212.932200 60.000000
" />
<path d="M176.874704 60.372504
L174.502200 58.000000
" />
<path d="M211.145482 60.958291
L178.288918 60.958291
" />
<path d="M171.380627 56.828427
L169.502200 54.950000
" />
<path d="M176.874704 60.372504 A1.999981 1.999981 0.0 0 0 178.288918 60.958281" />
<path d="M211.145482 60.958281 A1.999981 1.999981 0.0 0 0 212.559695 60.372505" />
<path d="M171.380627 56.828427 A4.000032 4.000032 0.0 0 0 174.209054 58.000032" />
<path d="M214.694628 62.307572
L214.886414 62.115786
" />
<path d="M156.173097 57.970897
L161.095558 62.893358
" />
<path d="M215.472200 60.701573
L215.472200 58.750000
" />
<path d="M155.402200 57.970897
L156.173097 57.970897
" />
<path d="M153.055627 56.828427
L151.177200 54.950000
" />
<path d="M162.509772 63.479145
L211.866201 63.479145
" />
<path d="M156.252200 58.000000
L155.884054 58.000000
" />
<path d="M211.866201 63.479145 A4.000045 4.000045 0.0 0 0 214.694637 62.307581" />
<path d="M161.095558 62.893358 A2.000052 2.000052 0.0 0 0 162.509772 63.479152" />
<path d="M153.055627 56.828427 A4.000032 4.000032 0.0 0 0 155.884054 58.000032" />
<path d="M214.886428 62.115800 A2.000000 2.000000 0.0 0 0 215.472200 60.701573" />
<path d="M218.002200 62.000000
L218.002200 61.810000
" />
<path d="M134.730627 56.828427
L132.852200 54.950000
" />
<path d="M218.012200 58.750000
L218.012200 61.800000
" />
<path d="M137.752200 58.000000
L145.166413 65.414213
" />
<path d="M218.002200 61.810000
L218.012200 61.800000
" />
<path d="M218.012200 61.800000
L218.012200 62.171573
" />
<path d="M146.580627 66.000000
L214.002200 66.000000
" />
<path d="M137.752200 58.000000
L137.559054 58.000000
" />
<path d="M134.730627 56.828427 A4.000032 4.000032 0.0 0 0 137.559054 58.000032" />
<path d="M145.166413 65.414213 A1.999981 1.999981 0.0 0 0 146.580627 65.999981" />
<path d="M214.002200 66.000000 A4.000000 4.000000 0.0 0 0 218.002200 62.000000" />
<path d="M151.202200 50.000000
L151.202200 51.525000
" />
<path d="M169.502200 50.100000
L169.602200 50.000000
" />
<path d="M133.816413 50.585787
L132.852200 51.550000
" />
<path d="M152.002200 50.000000
L151.202200 50.000000
" />
<path d="M207.002200 51.000000
L206.587986 50.585786
" />
<path d="M191.002200 50.000000
L187.802200 50.000000
" />
<path d="M207.641413 51.639213
L207.002200 51.000000
" />
<path d="M187.827200 50.025000
L187.802200 50.000000
" />
<path d="M187.802200 50.000000
L171.002200 50.000000
" />
<path d="M151.202200 51.525000
L151.177200 51.550000
" />
<path d="M205.173773 50.000000
L191.002200 50.000000
" />
<path d="M210.182200 52.225000
L209.055627 52.225000
" />
<path d="M151.202200 50.000000
L135.230627 50.000000
" />
<path d="M152.727200 50.000000
L153.002200 50.000000
" />
<path d="M169.602200 50.000000
L153.002200 50.000000
" />
<path d="M153.002200 50.000000
L152.002200 50.000000
" />
<path d="M171.002200 50.000000
L169.602200 50.000000
" />
<path d="M187.827200 51.550000
L187.827200 50.025000
" />
<path d="M169.502200 51.550000
L169.502200 50.100000
" />
<path d="M206.588000 50.585772 A2.000000 2.000000 0.0 0 0 205.173773 50.000000" />
<path d="M135.230627 50.000000 A2.000000 2.000000 0.0 0 0 133.816399 50.585773" />
<path d="M207.641413 51.639213 A1.999981 1.999981 0.0 0 0 209.055627 52.224981" />
</g>
<g style="fill:none; 
stroke:#000000; stroke-width:0.700000; stroke-opacity:1; 
stroke-linecap:round; stroke-linejoin:round;">
<path d="M190.402200 53.249999
L185.202200 53.249999
" />
</g>
<g style="fill:none; 
stroke:#000000; stroke-width:1.000000; stroke-opacity:1; 
stroke-linecap:round; stroke-linejoin:round;">
<path d="M146.092200 58.000000
L141.347200 53.255000
" />
<path d="M177.202200 53.249999
L185.202200 53.249999
" />
<path d="M127.592200 58.000000
L127.592200 56.688426
" />
<path d="M128.177987 55.274212
L129.616414 53.835785
" />
</g>
<g style="fill:none; 
stroke:#000000; stroke-width:0.700000; stroke-opacity:1; 
stroke-linecap:round; stroke-linejoin:round;">
<path d="M135.402200 53.249999
L131.030627 53.249999
" />
</g>
<g style="fill:none; 
stroke:#000000; stroke-width:1.000000; stroke-opacity:1; 
stroke-linecap:round; stroke-linejoin:round;">
<path d="M177.922199 53.249999
L177.202200 53.249999
" />
<path d="M172.002200 53.249999
L177.202200 53.249999
" />
<path d="M210.182200 54.765000
L197.195627 54.765000
" />
<path d="M141.347200 53.255000
L148.597199 53.255000
" />
<path d="M182.672200 58.000000
L177.922199 53.249999
" />
<path d="M164.342200 58.000000
L159.592199 53.249999
" />
<path d="M148.597199 53.255000
L148.602200 53.249999
" />
<path d="M159.592199 53.249999
L166.802200 53.249999
" />
<path d="M194.023772 53.249999
L190.402200 53.249999
" />
<path d="M159.592199 53.249999
L153.802200 53.249999
" />
</g>
<g style="fill:none; 
stroke:#000000; stroke-width:0.700000; stroke-opacity:1; 
stroke-linecap:round; stroke-linejoin:round;">
<path d="M153.802200 53.249999
L148.602200 53.249999
" />
</g>
<g style="fill:none; 
stroke:#000000; stroke-width:1.000000; stroke-opacity:1; 
stroke-linecap:round; stroke-linejoin:round;">
<path d="M195.781413 54.179213
L195.437985 53.835785
" />
<path d="M141.347200 53.255000
L135.407201 53.255000
" />
<path d="M135.407201 53.255000
L135.402200 53.249999
" />
</g>
<g style="fill:none; 
stroke:#000000; stroke-width:0.700000; stroke-opacity:1; 
stroke-linecap:round; stroke-linejoin:round;">
<path d="M172.002200 53.249999
L166.802200 53.249999
" />
</g>
<g style="fill:none; 
stroke:#000000; stroke-width:1.000000; stroke-opacity:1; 
stroke-linecap:round; stroke-linejoin:round;">
<path d="M128.177987 55.274212 A1.999982 1.999982 0.0 0 0 127.592218 56.688426" />
<path d="M195.781413 54.179213 A1.999981 1.999981 0.0 0 0 197.195627 54.764981" />
<path d="M195.437985 53.835785 A1.999981 1.999981 0.0 0 0 194.023772 53.250019" />
</g>
<g style="fill:none; 
stroke:#000000; stroke-width:0.700000; stroke-opacity:1; 
stroke-linecap:round; stroke-linejoin:round;">
<path d="M131.030627 53.249999 A2.000001 2.000001 0.0 0 0 129.616400 53.835771" />
<path style="fill:none; 
stroke:#000000; stroke-width:0.500000; stroke-opacity:1; 
stroke-linecap:round; stroke-linejoin:round;fill:none"
d="M 222.002200,46.000000
112.002200,46.000000
112.002200,71.000000
222.002200,71.000000
Z" /> 
</g>
<g style="fill:#000000; fill-opacity:1.000000; stroke:none;">
<circle cx="218.002200" cy="50.000000" r="1.550000" /> 
<circle cx="116.002200" cy="50.000000" r="1.550000" /> 
</g> 
</svg>
