<?xml version="1.0" standalone="no"?>
 <!DOCTYPE svg PUBLIC "-//W3C//DTD SVG 1.1//EN" 
 "http://www.w3.org/Graphics/SVG/1.1/DTD/svg11.dtd"> 
<svg
  xmlns:svg="http://www.w3.org/2000/svg"
  xmlns="http://www.w3.org/2000/svg"
  xmlns:xlink="http://www.w3.org/1999/xlink"
  version="1.1"
  width="297.002200mm" height="210.007200mm" viewBox="0.000000 0.000000 297.002200 210.007200">
<title>SVG Image created as Photoresistor-array-F_Cu.svg date 2024/04/25 23:58:20 </title>
  <desc>Image generated by PCBNEW </desc>
<g style="fill:#000000; fill-opacity:1.000000;stroke:#000000; stroke-opacity:1.000000;
stroke-linecap:round; stroke-linejoin:round;"
 transform="translate(0 0) scale(1 1)">
</g>
<g style="fill:none; 
stroke:#000000; stroke-width:0.500000; stroke-opacity:1; 
stroke-linecap:round; stroke-linejoin:round;">
<text x="176.000000" y="57.950280"
textLength="6.000000" font-size="3.333333" lengthAdjust="spacingAndGlyphs"
text-anchor="middle" opacity="0">PP</text>
<g class="stroked-text"><desc>PP</desc>
<path d="M174.095238 57.618327
L174.095238 55.118327
" />
<path d="M174.095238 55.118327
L175.047619 55.118327
" />
<path d="M175.047619 55.118327
L175.285714 55.237375
" />
<path d="M175.285714 55.237375
L175.404761 55.356422
" />
<path d="M175.404761 55.356422
L175.523809 55.594518
" />
<path d="M175.523809 55.594518
L175.523809 55.951660
" />
<path d="M175.523809 55.951660
L175.404761 56.189756
" />
<path d="M175.404761 56.189756
L175.285714 56.308803
" />
<path d="M175.285714 56.308803
L175.047619 56.427851
" />
<path d="M175.047619 56.427851
L174.095238 56.427851
" />
<path d="M176.595238 57.618327
L176.595238 55.118327
" />
<path d="M176.595238 55.118327
L177.547619 55.118327
" />
<path d="M177.547619 55.118327
L177.785714 55.237375
" />
<path d="M177.785714 55.237375
L177.904761 55.356422
" />
<path d="M177.904761 55.356422
L178.023809 55.594518
" />
<path d="M178.023809 55.594518
L178.023809 55.951660
" />
<path d="M178.023809 55.951660
L177.904761 56.189756
" />
<path d="M177.904761 56.189756
L177.785714 56.308803
" />
<path d="M177.785714 56.308803
L177.547619 56.427851
" />
<path d="M177.547619 56.427851
L176.595238 56.427851
" />
</g><text x="176.000000" y="61.975140"
textLength="8.142857" font-size="3.333333" lengthAdjust="spacingAndGlyphs"
text-anchor="middle" opacity="0">WIIT</text>
<g class="stroked-text"><desc>WIIT</desc>
<path d="M172.785714 59.143187
L173.380952 61.643187
" />
<path d="M173.380952 61.643187
L173.857143 59.857473
" />
<path d="M173.857143 59.857473
L174.333333 61.643187
" />
<path d="M174.333333 61.643187
L174.928572 59.143187
" />
<path d="M175.880953 61.643187
L175.880953 59.143187
" />
<path d="M177.071429 61.643187
L177.071429 59.143187
" />
<path d="M177.904762 59.143187
L179.333333 59.143187
" />
<path d="M178.619047 61.643187
L178.619047 59.143187
" />
</g><text x="176.000000" y="66.000000"
textLength="10.523808" font-size="3.333333" lengthAdjust="spacingAndGlyphs"
text-anchor="middle" opacity="0">2024</text>
<g class="stroked-text"><desc>2024</desc>
<path d="M171.714286 63.406142
L171.833334 63.287095
" />
<path d="M171.833334 63.287095
L172.071429 63.168047
" />
<path d="M172.071429 63.168047
L172.666667 63.168047
" />
<path d="M172.666667 63.168047
L172.904762 63.287095
" />
<path d="M172.904762 63.287095
L173.023810 63.406142
" />
<path d="M173.023810 63.406142
L173.142857 63.644238
" />
<path d="M173.142857 63.644238
L173.142857 63.882333
" />
<path d="M173.142857 63.882333
L173.023810 64.239476
" />
<path d="M173.023810 64.239476
L171.595238 65.668047
" />
<path d="M171.595238 65.668047
L173.142857 65.668047
" />
<path d="M174.690476 63.168047
L174.928571 63.168047
" />
<path d="M174.928571 63.168047
L175.166667 63.287095
" />
<path d="M175.166667 63.287095
L175.285714 63.406142
" />
<path d="M175.285714 63.406142
L175.404762 63.644238
" />
<path d="M175.404762 63.644238
L175.523809 64.120428
" />
<path d="M175.523809 64.120428
L175.523809 64.715666
" />
<path d="M175.523809 64.715666
L175.404762 65.191857
" />
<path d="M175.404762 65.191857
L175.285714 65.429952
" />
<path d="M175.285714 65.429952
L175.166667 65.549000
" />
<path d="M175.166667 65.549000
L174.928571 65.668047
" />
<path d="M174.928571 65.668047
L174.690476 65.668047
" />
<path d="M174.690476 65.668047
L174.452381 65.549000
" />
<path d="M174.452381 65.549000
L174.333333 65.429952
" />
<path d="M174.333333 65.429952
L174.214286 65.191857
" />
<path d="M174.214286 65.191857
L174.095238 64.715666
" />
<path d="M174.095238 64.715666
L174.095238 64.120428
" />
<path d="M174.095238 64.120428
L174.214286 63.644238
" />
<path d="M174.214286 63.644238
L174.333333 63.406142
" />
<path d="M174.333333 63.406142
L174.452381 63.287095
" />
<path d="M174.452381 63.287095
L174.690476 63.168047
" />
<path d="M176.476190 63.406142
L176.595238 63.287095
" />
<path d="M176.595238 63.287095
L176.833333 63.168047
" />
<path d="M176.833333 63.168047
L177.428571 63.168047
" />
<path d="M177.428571 63.168047
L177.666666 63.287095
" />
<path d="M177.666666 63.287095
L177.785714 63.406142
" />
<path d="M177.785714 63.406142
L177.904761 63.644238
" />
<path d="M177.904761 63.644238
L177.904761 63.882333
" />
<path d="M177.904761 63.882333
L177.785714 64.239476
" />
<path d="M177.785714 64.239476
L176.357142 65.668047
" />
<path d="M176.357142 65.668047
L177.904761 65.668047
" />
<path d="M180.047618 64.001380
L180.047618 65.668047
" />
<path d="M179.452380 63.049000
L178.857142 64.834714
" />
<path d="M178.857142 64.834714
L180.404761 64.834714
" />
</g></g>
<g style="fill:#000000; fill-opacity:1.000000; stroke:none;">
<circle cx="169.410000" cy="58.000000" r="0.850000" /> 
</g>
<g style="fill:#000000; fill-opacity:1.000000; stroke:none;">
<circle cx="159.250000" cy="58.000000" r="0.850000" /> 
</g>
<g style="fill:#000000; fill-opacity:1.000000; stroke:none;">
<circle cx="109.175000" cy="54.950000" r="0.850000" /> 
</g>
<g style="fill:#000000; fill-opacity:1.000000; stroke:none;">
<circle cx="109.175000" cy="51.550000" r="0.850000" /> 
</g>
<g style="fill:#000000; fill-opacity:1.000000; stroke:none;">
<circle cx="114.330000" cy="58.000000" r="0.850000" /> 
</g>
<g style="fill:#000000; fill-opacity:1.000000; stroke:none;">
<circle cx="104.170000" cy="58.000000" r="0.850000" /> 
</g>
<g style="fill:#000000; fill-opacity:1.000000; stroke:none;">
<circle cx="164.150000" cy="54.950000" r="0.850000" /> 
</g>
<g style="fill:#000000; fill-opacity:1.000000; stroke:none;">
<circle cx="164.150000" cy="51.550000" r="0.850000" /> 
</g>
<g style="fill:#000000; fill-opacity:1.000000; stroke:none;">
<circle cx="132.660000" cy="58.000000" r="0.850000" /> 
</g>
<g style="fill:#000000; fill-opacity:1.000000; stroke:none;">
<circle cx="122.500000" cy="58.000000" r="0.850000" /> 
</g>
<g style="fill:#000000; fill-opacity:1.000000; stroke:none;">
<circle cx="150.910000" cy="58.000000" r="0.850000" /> 
</g>
<g style="fill:#000000; fill-opacity:1.000000; stroke:none;">
<circle cx="140.750000" cy="58.000000" r="0.850000" /> 
</g>
<g style="fill:#000000; fill-opacity:1.000000; stroke:none;">
<circle cx="127.500000" cy="54.950000" r="0.850000" /> 
</g>
<g style="fill:#000000; fill-opacity:1.000000; stroke:none;">
<circle cx="127.500000" cy="51.550000" r="0.850000" /> 
</g>
<g style="fill:#000000; fill-opacity:1.000000; stroke:none;">
<circle cx="145.825000" cy="54.950000" r="0.850000" /> 
</g>
<g style="fill:#000000; fill-opacity:1.000000; stroke:none;">
<circle cx="145.825000" cy="51.550000" r="0.850000" /> 
<path style="fill:#000000; fill-opacity:1.000000; stroke:none;fill-rule:evenodd;"
d="M 87.460000,59.600000
85.760000,59.600000
85.760000,57.900000
87.460000,57.900000
Z" /> 
</g>
<g style="fill:#000000; fill-opacity:1.000000; stroke:none;">
<circle cx="84.070000" cy="58.750000" r="0.850000" /> 
<circle cx="81.530000" cy="58.750000" r="0.850000" /> 
<circle cx="78.990000" cy="58.750000" r="0.850000" /> 
<path style="fill:#000000; fill-opacity:1.000000; stroke:none;fill-rule:evenodd;"
d="M 87.670000,51.375000
87.670000,53.075000
85.970000,53.075000
85.970000,51.375000
Z" /> 
<circle cx="86.820000" cy="54.765000" r="0.850000" /> 
</g>
<g style="fill:none; 
stroke:#000000; stroke-width:1.000000; stroke-opacity:1; 
stroke-linecap:round; stroke-linejoin:round;">
<path d="M104.170000 58.000000
L88.188427 58.000000
" />
<path d="M86.774213 58.585787
L86.610000 58.750000
" />
<path d="M104.170000 58.000000
L105.296573 58.000000
" />
<path d="M106.710787 57.414213
L109.175000 54.950000
" />
<path d="M105.296573 57.999981 A1.999981 1.999981 0.0 0 0 106.710787 57.414213" />
<path d="M88.188427 58.000000 A2.000000 2.000000 0.0 0 0 86.774199 58.585773" />
<path d="M84.070000 60.000000
L84.442505 60.372505
" />
<path d="M122.500000 58.000000
L122.793146 58.000000
" />
<path d="M84.070000 58.750000
L84.070000 60.000000
" />
<path d="M120.127496 60.372504
L122.500000 58.000000
" />
<path d="M85.856718 60.958291
L118.713282 60.958291
" />
<path d="M125.621573 56.828427
L127.500000 54.950000
" />
<path d="M118.713282 60.958281 A1.999981 1.999981 0.0 0 0 120.127496 60.372504" />
<path d="M84.442505 60.372505 A1.999981 1.999981 0.0 0 0 85.856718 60.958281" />
<path d="M122.793146 58.000032 A4.000032 4.000032 0.0 0 0 125.621573 56.828427" />
<path d="M82.307572 62.307572
L82.115786 62.115786
" />
<path d="M140.829103 57.970897
L135.906642 62.893358
" />
<path d="M81.530000 60.701573
L81.530000 58.750000
" />
<path d="M141.600000 57.970897
L140.829103 57.970897
" />
<path d="M143.946573 56.828427
L145.825000 54.950000
" />
<path d="M134.492428 63.479145
L85.135999 63.479145
" />
<path d="M140.750000 58.000000
L141.118146 58.000000
" />
<path d="M82.307563 62.307581 A4.000045 4.000045 0.0 0 0 85.135999 63.479145" />
<path d="M134.492428 63.479152 A2.000052 2.000052 0.0 0 0 135.906642 62.893358" />
<path d="M141.118146 58.000032 A4.000032 4.000032 0.0 0 0 143.946573 56.828427" />
<path d="M81.530000 60.701573 A2.000000 2.000000 0.0 0 0 82.115772 62.115800" />
<path d="M79.000000 62.000000
L79.000000 61.810000
" />
<path d="M162.271573 56.828427
L164.150000 54.950000
" />
<path d="M78.990000 58.750000
L78.990000 61.800000
" />
<path d="M159.250000 58.000000
L151.835787 65.414213
" />
<path d="M79.000000 61.810000
L78.990000 61.800000
" />
<path d="M78.990000 61.800000
L78.990000 62.171573
" />
<path d="M150.421573 66.000000
L83.000000 66.000000
" />
<path d="M159.250000 58.000000
L159.443146 58.000000
" />
<path d="M159.443146 58.000032 A4.000032 4.000032 0.0 0 0 162.271573 56.828427" />
<path d="M150.421573 65.999981 A1.999981 1.999981 0.0 0 0 151.835787 65.414213" />
<path d="M79.000000 62.000000 A4.000000 4.000000 0.0 0 0 83.000000 66.000000" />
<path d="M145.800000 50.000000
L145.800000 51.525000
" />
<path d="M127.500000 50.100000
L127.400000 50.000000
" />
<path d="M163.185787 50.585787
L164.150000 51.550000
" />
<path d="M145.000000 50.000000
L145.800000 50.000000
" />
<path d="M90.000000 51.000000
L90.414214 50.585786
" />
<path d="M106.000000 50.000000
L109.200000 50.000000
" />
<path d="M89.360787 51.639213
L90.000000 51.000000
" />
<path d="M109.175000 50.025000
L109.200000 50.000000
" />
<path d="M109.200000 50.000000
L126.000000 50.000000
" />
<path d="M145.800000 51.525000
L145.825000 51.550000
" />
<path d="M91.828427 50.000000
L106.000000 50.000000
" />
<path d="M86.820000 52.225000
L87.946573 52.225000
" />
<path d="M145.800000 50.000000
L161.771573 50.000000
" />
<path d="M144.275000 50.000000
L144.000000 50.000000
" />
<path d="M127.400000 50.000000
L144.000000 50.000000
" />
<path d="M144.000000 50.000000
L145.000000 50.000000
" />
<path d="M126.000000 50.000000
L127.400000 50.000000
" />
<path d="M109.175000 51.550000
L109.175000 50.025000
" />
<path d="M127.500000 51.550000
L127.500000 50.100000
" />
<path d="M91.828427 50.000000 A2.000000 2.000000 0.0 0 0 90.414200 50.585772" />
<path d="M163.185801 50.585773 A2.000000 2.000000 0.0 0 0 161.771573 50.000000" />
<path d="M87.946573 52.224981 A1.999981 1.999981 0.0 0 0 89.360787 51.639213" />
</g>
<g style="fill:none; 
stroke:#000000; stroke-width:0.700000; stroke-opacity:1; 
stroke-linecap:round; stroke-linejoin:round;">
<path d="M106.600000 53.249999
L111.800000 53.249999
" />
</g>
<g style="fill:none; 
stroke:#000000; stroke-width:1.000000; stroke-opacity:1; 
stroke-linecap:round; stroke-linejoin:round;">
<path d="M150.910000 58.000000
L155.655000 53.255000
" />
<path d="M119.800000 53.249999
L111.800000 53.249999
" />
<path d="M169.410000 58.000000
L169.410000 56.688426
" />
<path d="M168.824213 55.274212
L167.385786 53.835785
" />
</g>
<g style="fill:none; 
stroke:#000000; stroke-width:0.700000; stroke-opacity:1; 
stroke-linecap:round; stroke-linejoin:round;">
<path d="M161.600000 53.249999
L165.971573 53.249999
" />
</g>
<g style="fill:none; 
stroke:#000000; stroke-width:1.000000; stroke-opacity:1; 
stroke-linecap:round; stroke-linejoin:round;">
<path d="M119.080001 53.249999
L119.800000 53.249999
" />
<path d="M125.000000 53.249999
L119.800000 53.249999
" />
<path d="M86.820000 54.765000
L99.806573 54.765000
" />
<path d="M155.655000 53.255000
L148.405001 53.255000
" />
<path d="M114.330000 58.000000
L119.080001 53.249999
" />
<path d="M132.660000 58.000000
L137.410001 53.249999
" />
<path d="M148.405001 53.255000
L148.400000 53.249999
" />
<path d="M137.410001 53.249999
L130.200000 53.249999
" />
<path d="M102.978428 53.249999
L106.600000 53.249999
" />
<path d="M137.410001 53.249999
L143.200000 53.249999
" />
</g>
<g style="fill:none; 
stroke:#000000; stroke-width:0.700000; stroke-opacity:1; 
stroke-linecap:round; stroke-linejoin:round;">
<path d="M143.200000 53.249999
L148.400000 53.249999
" />
</g>
<g style="fill:none; 
stroke:#000000; stroke-width:1.000000; stroke-opacity:1; 
stroke-linecap:round; stroke-linejoin:round;">
<path d="M101.220787 54.179213
L101.564215 53.835785
" />
<path d="M155.655000 53.255000
L161.594999 53.255000
" />
<path d="M161.594999 53.255000
L161.600000 53.249999
" />
</g>
<g style="fill:none; 
stroke:#000000; stroke-width:0.700000; stroke-opacity:1; 
stroke-linecap:round; stroke-linejoin:round;">
<path d="M125.000000 53.249999
L130.200000 53.249999
" />
</g>
<g style="fill:none; 
stroke:#000000; stroke-width:1.000000; stroke-opacity:1; 
stroke-linecap:round; stroke-linejoin:round;">
<path d="M169.409982 56.688426 A1.999982 1.999982 0.0 0 0 168.824213 55.274212" />
<path d="M99.806573 54.764981 A1.999981 1.999981 0.0 0 0 101.220787 54.179213" />
<path d="M102.978428 53.250019 A1.999981 1.999981 0.0 0 0 101.564215 53.835785" />
</g>
<g style="fill:none; 
stroke:#000000; stroke-width:0.700000; stroke-opacity:1; 
stroke-linecap:round; stroke-linejoin:round;">
<path d="M167.385800 53.835771 A2.000001 2.000001 0.0 0 0 165.971573 53.249999" />
<path style="fill:#000000; fill-opacity:1.000000; stroke:none;fill-rule:evenodd;"
d="M 161.644023,51.500501
161.653493,51.500500
161.653501,51.500502
161.759365,51.500500
161.783767,51.501698
161.844638,51.507693
161.892504,51.517213
161.939278,51.531401
161.984372,51.550080
162.027472,51.573117
162.068056,51.600234
162.115187,51.638912
162.133297,51.655324
162.267979,51.790006
162.321955,51.870788
162.335218,51.913146
162.369921,52.072671
162.369922,52.072676
162.369923,52.072678
162.462426,52.320689
162.589284,52.553011
162.747913,52.764915
162.935085,52.952087
163.035390,53.027174
163.066771,53.050666
163.131694,53.122943
163.164016,53.214564
163.158815,53.311580
163.116884,53.399221
163.066771,53.449334
162.935085,53.547913
162.747913,53.735085
162.613457,53.914698
162.589284,53.946989
162.589280,53.946995
162.462427,54.179308
162.462425,54.179312
162.369923,54.427323
162.369920,54.427332
162.335218,54.586852
162.296442,54.675934
162.267979,54.709991
161.297432,55.680538
161.297433,55.680539
161.294060,55.683912
161.294053,55.683918
161.257285,55.720687
161.215496,55.762477
161.205347,55.772072
161.011982,55.944876
160.990151,55.962285
160.784346,56.108314
160.760703,56.123170
160.539868,56.245224
160.514710,56.257340
160.286490,56.351874
160.191202,56.370829
160.095914,56.351876
160.071869,56.340372
160.020687,56.312425
159.949177,56.285753
159.772678,56.219923
159.570293,56.175897
159.514027,56.163657
159.250000,56.144773
158.985972,56.163657
158.873440,56.188137
158.727322,56.219923
158.659487,56.245224
158.479312,56.312425
158.479308,56.312427
158.246995,56.439280
158.246989,56.439284
158.035085,56.597913
157.847913,56.785085
157.712415,56.966090
157.689284,56.996989
157.689280,56.996995
157.562427,57.229308
157.562425,57.229312
157.469923,57.477323
157.469920,57.477331
157.435219,57.636850
157.396443,57.725931
157.367980,57.759990
150.783439,64.344533
150.765330,64.360945
150.718047,64.399748
150.677465,64.426864
150.634370,64.449899
150.589269,64.468580
150.542505,64.482765
150.494629,64.492287
150.459079,64.495788
150.433564,64.498301
150.409161,64.499499
150.313478,64.499498
150.303501,64.499498
150.303500,64.499498
150.294023,64.499498
150.293971,64.499500
137.023665,64.499500
136.928377,64.480546
136.847595,64.426570
136.793619,64.345788
136.774665,64.250500
136.793619,64.155212
136.847589,64.074436
136.875548,64.046476
136.884149,64.037876
136.884152,64.037875
136.920856,64.001171
136.967650,63.954378
137.051154,63.870875
137.051154,63.870874
137.061127,63.860902
137.061150,63.860875
141.053909,59.868116
141.134688,59.814143
141.177040,59.800881
141.272678,59.780077
141.520689,59.687574
141.753011,59.560716
141.859829,59.480751
141.947466,59.438822
141.970087,59.434154
142.192086,59.398992
142.192088,59.398991
142.192091,59.398991
142.612351,59.298091
142.612360,59.298088
142.612374,59.298085
143.023448,59.164514
143.386750,59.014026
143.422762,58.999109
143.422764,58.999107
143.422776,58.999103
143.807895,58.802870
144.176431,58.577027
144.526111,58.322964
144.854780,58.042250
144.897029,58.000000
149.554843,58.000000
149.575429,58.235308
149.575431,58.235319
149.636568,58.463489
149.736401,58.677581
149.736404,58.677586
149.795072,58.761372
149.795073,58.761372
150.427037,58.129408
150.444075,58.192993
150.509901,58.307007
150.602993,58.400099
150.717007,58.465925
150.780589,58.482962
150.148626,59.114925
150.148626,59.114926
150.232420,59.173599
150.446510,59.273431
150.674680,59.334568
150.674691,59.334570
150.909994,59.355157
150.910006,59.355157
151.145308,59.334570
151.145319,59.334568
151.373489,59.273431
151.587580,59.173598
151.671372,59.114926
151.039408,58.482962
151.102993,58.465925
151.217007,58.400099
151.310099,58.307007
151.375925,58.192993
151.392962,58.129408
152.024926,58.761372
152.083598,58.677580
152.183431,58.463489
152.244568,58.235319
152.244570,58.235308
152.265157,58.000000
152.265157,57.999994
152.244570,57.764691
152.244568,57.764680
152.183429,57.536505
152.083604,57.322430
152.083597,57.322419
152.024925,57.238626
151.392962,57.870589
151.375925,57.807007
151.310099,57.692993
151.217007,57.599901
151.102993,57.534075
151.039408,57.517037
151.671372,56.885073
151.671372,56.885072
151.587586,56.826404
151.587581,56.826401
151.373489,56.726568
151.145319,56.665431
151.145308,56.665429
150.910006,56.644843
150.909994,56.644843
150.674691,56.665429
150.674680,56.665431
150.446505,56.726570
150.232425,56.826397
150.232424,56.826398
150.148626,56.885072
150.780591,57.517037
150.717007,57.534075
150.602993,57.599901
150.509901,57.692993
150.444075,57.807007
150.427037,57.870591
149.795072,57.238626
149.736398,57.322424
149.736397,57.322425
149.636570,57.536505
149.575431,57.764680
149.575429,57.764691
149.554843,57.999994
149.554843,58.000000
144.897029,58.000000
145.007595,57.889432
145.044222,57.852805
146.065006,56.832019
146.145788,56.778043
146.188142,56.764781
146.347678,56.730077
146.595689,56.637574
146.828011,56.510716
147.039915,56.352087
147.227087,56.164915
147.385716,55.953011
147.512574,55.720689
147.605077,55.472678
147.661343,55.214026
147.680227,54.950000
147.661343,54.685974
147.605077,54.427322
147.512574,54.179311
147.385716,53.946989
147.227087,53.735085
147.039915,53.547913
146.908227,53.449332
146.843306,53.377057
146.810983,53.285437
146.816184,53.188421
146.858114,53.100780
146.908226,53.050667
147.039915,52.952087
147.227087,52.764915
147.385716,52.553011
147.512574,52.320689
147.605077,52.072678
147.661343,51.814026
147.667228,51.731732
147.692932,51.638043
147.752534,51.561318
147.836960,51.513242
147.915594,51.500500
161.643971,51.500500
Z" /> 
<path style="fill:#000000; fill-opacity:1.000000; stroke:none;fill-rule:evenodd;"
d="M 143.829694,51.519454
143.910476,51.573430
143.964452,51.654212
143.982771,51.731732
143.986939,51.790006
143.988657,51.814027
143.990907,51.824368
144.044923,52.072678
144.137426,52.320689
144.264284,52.553011
144.422913,52.764915
144.610085,52.952087
144.710390,53.027174
144.741771,53.050666
144.806694,53.122943
144.839016,53.214564
144.833815,53.311580
144.791884,53.399221
144.741771,53.449334
144.610085,53.547913
144.422913,53.735085
144.288457,53.914698
144.264284,53.946989
144.264280,53.946995
144.137427,54.179308
144.137425,54.179312
144.044923,54.427323
144.044920,54.427332
144.010218,54.586852
143.971442,54.675934
143.942979,54.709991
142.972432,55.680538
142.972433,55.680539
142.969060,55.683912
142.969053,55.683918
142.932285,55.720687
142.890496,55.762477
142.880347,55.772072
142.686982,55.944876
142.665151,55.962285
142.459346,56.108314
142.435703,56.123170
142.214868,56.245224
142.189710,56.257340
141.956588,56.353905
141.930231,56.363128
141.821318,56.394506
141.724507,56.402673
141.633053,56.373781
141.520687,56.312425
141.449177,56.285753
141.272678,56.219923
141.070293,56.175897
141.014027,56.163657
140.750000,56.144773
140.485972,56.163657
140.373440,56.188137
140.227322,56.219923
140.159487,56.245224
139.979312,56.312425
139.979308,56.312427
139.746995,56.439280
139.746989,56.439284
139.535085,56.597913
139.347913,56.785085
139.212415,56.966090
139.189284,56.996989
139.189280,56.996995
139.062427,57.229308
139.062425,57.229312
138.969922,57.477323
138.969921,57.477328
138.921318,57.700752
138.882542,57.789833
138.854079,57.823892
134.929139,61.748834
134.929136,61.748836
134.854275,61.823695
134.836172,61.840102
134.788893,61.878903
134.748306,61.906023
134.705201,61.929063
134.660102,61.947743
134.613325,61.961932
134.565462,61.971453
134.504645,61.977445
134.480230,61.978645
121.244520,61.978645
121.149232,61.959691
121.068450,61.905715
121.014474,61.824933
120.995520,61.729645
121.014474,61.634357
121.068444,61.553581
121.096403,61.525622
121.105003,61.517022
121.105006,61.517021
121.188506,61.433520
121.188507,61.433521
121.272011,61.350017
121.272013,61.350013
122.740009,59.882016
122.820788,59.828043
122.863142,59.814781
123.022678,59.780077
123.270689,59.687574
123.503011,59.560716
123.629957,59.465685
123.717596,59.423755
123.740218,59.419086
123.867086,59.398992
123.867088,59.398991
123.867091,59.398991
124.287351,59.298091
124.287360,59.298088
124.287374,59.298085
124.698448,59.164514
125.061750,59.014026
125.097762,58.999109
125.097764,58.999107
125.097776,58.999103
125.482895,58.802870
125.851431,58.577027
126.201111,58.322964
126.529780,58.042250
126.572029,58.000000
131.304843,58.000000
131.325429,58.235308
131.325431,58.235319
131.386568,58.463489
131.486401,58.677581
131.486404,58.677586
131.545072,58.761372
131.545073,58.761372
132.177037,58.129408
132.194075,58.192993
132.259901,58.307007
132.352993,58.400099
132.467007,58.465925
132.530589,58.482962
131.898626,59.114925
131.898626,59.114926
131.982420,59.173599
132.196510,59.273431
132.424680,59.334568
132.424691,59.334570
132.659994,59.355157
132.660006,59.355157
132.895308,59.334570
132.895319,59.334568
133.123489,59.273431
133.337580,59.173598
133.421372,59.114926
132.789408,58.482962
132.852993,58.465925
132.967007,58.400099
133.060099,58.307007
133.125925,58.192993
133.142962,58.129408
133.774926,58.761372
133.833598,58.677580
133.933431,58.463489
133.994568,58.235319
133.994570,58.235308
134.015157,58.000000
134.015157,57.999994
133.994570,57.764691
133.994568,57.764680
133.933429,57.536505
133.833604,57.322430
133.833597,57.322419
133.774925,57.238626
133.142962,57.870589
133.125925,57.807007
133.060099,57.692993
132.967007,57.599901
132.852993,57.534075
132.789408,57.517037
133.421372,56.885073
133.421372,56.885072
133.337586,56.826404
133.337581,56.826401
133.123489,56.726568
132.895319,56.665431
132.895308,56.665429
132.660006,56.644843
132.659994,56.644843
132.424691,56.665429
132.424680,56.665431
132.196505,56.726570
131.982425,56.826397
131.982424,56.826398
131.898626,56.885072
132.530591,57.517037
132.467007,57.534075
132.352993,57.599901
132.259901,57.692993
132.194075,57.807007
132.177037,57.870591
131.545072,57.238626
131.486398,57.322424
131.486397,57.322425
131.386570,57.536505
131.325431,57.764680
131.325429,57.764691
131.304843,57.999994
131.304843,58.000000
126.572029,58.000000
126.682595,57.889432
126.719222,57.852805
127.740006,56.832019
127.820788,56.778043
127.863142,56.764781
128.022678,56.730077
128.270689,56.637574
128.503011,56.510716
128.714915,56.352087
128.902087,56.164915
129.060716,55.953011
129.187574,55.720689
129.280077,55.472678
129.336343,55.214026
129.355227,54.950000
129.336343,54.685974
129.280077,54.427322
129.187574,54.179311
129.060716,53.946989
128.902087,53.735085
128.714915,53.547913
128.583227,53.449332
128.518306,53.377057
128.485983,53.285437
128.491184,53.188421
128.533114,53.100780
128.583226,53.050667
128.714915,52.952087
128.902087,52.764915
129.060716,52.553011
129.187574,52.320689
129.280077,52.072678
129.336343,51.814026
129.342228,51.731732
129.367932,51.638043
129.427534,51.561318
129.511960,51.513242
129.590594,51.500500
143.734406,51.500500
Z" /> 
<path style="fill:#000000; fill-opacity:1.000000; stroke:none;fill-rule:evenodd;"
d="M 125.504694,51.519454
125.585476,51.573430
125.639452,51.654212
125.657771,51.731732
125.661939,51.790006
125.663657,51.814027
125.665907,51.824368
125.719923,52.072678
125.812426,52.320689
125.939284,52.553011
126.097913,52.764915
126.285085,52.952087
126.385390,53.027174
126.416771,53.050666
126.481694,53.122943
126.514016,53.214564
126.508815,53.311580
126.466884,53.399221
126.416771,53.449334
126.285085,53.547913
126.097913,53.735085
125.963457,53.914698
125.939284,53.946989
125.939280,53.946995
125.812427,54.179308
125.812425,54.179312
125.719923,54.427323
125.719920,54.427332
125.685218,54.586852
125.646442,54.675934
125.617979,54.709991
124.647432,55.680538
124.647433,55.680539
124.644060,55.683912
124.644053,55.683918
124.607285,55.720687
124.565496,55.762477
124.555347,55.772072
124.361982,55.944876
124.340151,55.962285
124.134346,56.108314
124.110703,56.123170
123.889868,56.245224
123.864711,56.257340
123.654215,56.344533
123.633319,56.353189
123.631590,56.353905
123.605232,56.363128
123.545415,56.380362
123.448605,56.388529
123.357148,56.359636
123.270691,56.312427
123.270687,56.312425
123.199177,56.285753
123.022678,56.219923
122.820293,56.175897
122.764027,56.163657
122.500000,56.144773
122.235972,56.163657
122.123440,56.188137
121.977322,56.219923
121.909487,56.245224
121.729312,56.312425
121.729308,56.312427
121.496995,56.439280
121.496989,56.439284
121.285085,56.597913
121.097913,56.785085
120.962415,56.966090
120.939284,56.996989
120.939280,56.996995
120.812427,57.229308
120.812425,57.229312
120.719923,57.477323
120.719920,57.477332
120.685218,57.636852
120.646442,57.725934
120.617979,57.759991
119.149990,59.227982
119.149987,59.227985
119.075127,59.302843
119.057023,59.319252
119.009753,59.358045
118.969163,59.385165
118.926067,59.408199
118.880979,59.426875
118.834210,59.441063
118.786326,59.450587
118.725354,59.456591
118.700953,59.457790
118.584931,59.457790
118.584907,59.457791
115.333112,59.457791
115.237824,59.438837
115.157042,59.384861
115.103066,59.304079
115.084112,59.208791
115.085060,59.187089
115.091373,59.114927
114.459408,58.482962
114.522993,58.465925
114.637007,58.400099
114.730099,58.307007
114.795925,58.192993
114.812962,58.129408
115.444926,58.761372
115.503598,58.677580
115.603431,58.463489
115.664568,58.235319
115.664570,58.235308
115.685157,58.000000
115.685157,57.999994
115.664570,57.764691
115.664568,57.764680
115.603429,57.536505
115.503604,57.322430
115.503597,57.322419
115.444925,57.238626
114.812962,57.870589
114.795925,57.807007
114.730099,57.692993
114.637007,57.599901
114.522993,57.534075
114.459408,57.517037
115.091372,56.885073
115.091372,56.885072
115.007586,56.826404
115.007581,56.826401
114.793489,56.726568
114.565319,56.665431
114.565308,56.665429
114.330006,56.644843
114.329994,56.644843
114.094691,56.665429
114.094680,56.665431
113.866505,56.726570
113.652425,56.826397
113.652424,56.826398
113.568626,56.885072
114.200591,57.517037
114.137007,57.534075
114.022993,57.599901
113.929901,57.692993
113.864075,57.807007
113.847037,57.870591
113.215072,57.238626
113.156398,57.322424
113.156397,57.322425
113.056570,57.536505
112.995431,57.764680
112.995429,57.764691
112.974843,57.999994
112.974843,58.000000
112.995429,58.235308
112.995431,58.235319
113.056568,58.463489
113.156401,58.677581
113.156404,58.677586
113.215072,58.761372
113.215073,58.761372
113.847037,58.129408
113.864075,58.192993
113.929901,58.307007
114.022993,58.400099
114.137007,58.465925
114.200589,58.482962
113.568625,59.114926
113.574939,59.187089
113.564362,59.283667
113.517632,59.368845
113.441862,59.429657
113.348589,59.456843
113.326887,59.457791
107.243187,59.457791
107.147899,59.438837
107.067117,59.384861
107.013141,59.304079
106.994187,59.208791
107.013141,59.113503
107.067117,59.032721
107.104852,59.001754
107.108820,58.999103
107.384320,58.815024
107.650189,58.596835
107.679600,58.567424
107.679612,58.567413
107.688291,58.558733
107.688297,58.558730
107.771791,58.475236
107.855295,58.391734
107.855297,58.391730
107.865273,58.381755
107.865287,58.381739
109.415009,56.832016
109.495788,56.778043
109.538142,56.764781
109.697678,56.730077
109.945689,56.637574
110.178011,56.510716
110.389915,56.352087
110.577087,56.164915
110.735716,55.953011
110.862574,55.720689
110.955077,55.472678
111.011343,55.214026
111.030227,54.950000
111.011343,54.685974
110.955077,54.427322
110.862574,54.179311
110.735716,53.946989
110.577087,53.735085
110.389915,53.547913
110.258227,53.449332
110.193306,53.377057
110.160983,53.285437
110.166184,53.188421
110.208114,53.100780
110.258226,53.050667
110.389915,52.952087
110.577087,52.764915
110.735716,52.553011
110.862574,52.320689
110.955077,52.072678
111.011343,51.814026
111.017228,51.731732
111.042932,51.638043
111.102534,51.561318
111.186960,51.513242
111.265594,51.500500
125.409406,51.500500
Z" /> 
<path style="fill:#000000; fill-opacity:1.000000; stroke:none;fill-rule:evenodd;"
d="M 184.345788,46.519454
184.426570,46.573430
184.480546,46.654212
184.499500,46.749500
184.499500,70.250500
184.480546,70.345788
184.426570,70.426570
184.345788,70.480546
184.250500,70.499500
75.749500,70.499500
75.654212,70.480546
75.573430,70.426570
75.519454,70.345788
75.500500,70.250500
75.500500,58.750000
77.134773,58.750000
77.153657,59.014026
77.209923,59.272678
77.257035,59.398991
77.302425,59.520687
77.302427,59.520691
77.429280,59.753004
77.429285,59.753012
77.439834,59.767104
77.481765,59.854745
77.489500,59.916325
77.489500,62.289668
77.519826,62.481144
77.522040,62.499530
77.537073,62.680940
77.537075,62.680961
77.611963,63.129742
77.611965,63.129752
77.651300,63.285082
77.723665,63.570847
77.871396,64.001171
78.054176,64.417869
78.270738,64.818038
78.519596,65.198943
78.519601,65.198951
78.799060,65.558001
78.799064,65.558006
78.799067,65.558009
79.107234,65.892766
79.107246,65.892777
79.107248,65.892779
79.441993,66.200935
79.441998,66.200939
79.801048,66.480398
79.801052,66.480400
79.801054,66.480402
80.181969,66.729266
80.582134,66.945825
80.998815,67.128598
80.998822,67.128600
80.998828,67.128603
81.429152,67.276334
81.429160,67.276336
81.429166,67.276338
81.870248,67.388035
82.319047,67.462926
82.354672,67.465877
82.772475,67.500499
82.772496,67.500499
82.772498,67.500500
82.772499,67.500500
150.549282,67.500500
150.549728,67.500482
150.593521,67.500483
150.935803,67.466775
151.273132,67.399681
151.602260,67.299845
151.920018,67.168230
152.132390,67.054716
152.223325,67.006113
152.223328,67.006110
152.223345,67.006102
152.509320,66.815024
152.775189,66.596835
152.804600,66.567424
152.804612,66.567413
152.813291,66.558733
152.813297,66.558730
152.896791,66.475236
152.980295,66.391734
152.980297,66.391730
152.990273,66.381755
152.990286,66.381739
159.490009,59.882017
159.570789,59.828043
159.613140,59.814781
159.772678,59.780077
160.020689,59.687574
160.253011,59.560716
160.406798,59.445591
160.494432,59.403664
160.512301,59.399978
160.512295,59.399945
160.517010,59.399007
160.517066,59.398995
160.517086,59.398992
160.937374,59.298085
161.348448,59.164514
161.711750,59.014026
161.747762,58.999109
161.747764,58.999107
161.747776,58.999103
162.132895,58.802870
162.501431,58.577027
162.851111,58.322964
163.179780,58.042250
163.222029,58.000000
168.054843,58.000000
168.075429,58.235308
168.075431,58.235319
168.136568,58.463489
168.236401,58.677581
168.236404,58.677586
168.295072,58.761372
168.295073,58.761372
168.927037,58.129408
168.944075,58.192993
169.009901,58.307007
169.102993,58.400099
169.217007,58.465925
169.280590,58.482962
168.648626,59.114926
168.732420,59.173599
168.946510,59.273431
169.174680,59.334568
169.174691,59.334570
169.409994,59.355157
169.410006,59.355157
169.645308,59.334570
169.645319,59.334568
169.873492,59.273430
169.985505,59.221197
170.079875,59.198104
170.175899,59.212883
170.258959,59.263284
170.316408,59.341634
170.339501,59.436004
170.339738,59.446867
170.339738,66.926431
170.339739,66.926431
181.660260,66.926431
181.660261,66.926431
181.660261,53.859943
170.339738,53.859943
170.339738,53.859944
170.339738,56.553132
170.320784,56.648420
170.266808,56.729202
170.186026,56.783178
170.090738,56.802132
169.995450,56.783178
169.985506,56.778803
169.873489,56.726568
169.645319,56.665431
169.645308,56.665429
169.410006,56.644843
169.409994,56.644843
169.174691,56.665429
169.174680,56.665431
168.946505,56.726570
168.732425,56.826397
168.732424,56.826398
168.648626,56.885073
169.280589,57.517037
169.217007,57.534075
169.102993,57.599901
169.009901,57.692993
168.944075,57.807007
168.927037,57.870591
168.295072,57.238626
168.236398,57.322424
168.236397,57.322425
168.136570,57.536505
168.075431,57.764680
168.075429,57.764691
168.054843,57.999994
168.054843,58.000000
163.222029,58.000000
163.332595,57.889432
163.369222,57.852805
164.390006,56.832019
164.470788,56.778043
164.513142,56.764781
164.672678,56.730077
164.920689,56.637574
165.153011,56.510716
165.364915,56.352087
165.552087,56.164915
165.710716,55.953011
165.837574,55.720689
165.930077,55.472678
165.986343,55.214026
166.005227,54.950000
165.986343,54.685974
165.930077,54.427322
165.837574,54.179311
165.710716,53.946989
165.552087,53.735085
165.364915,53.547913
165.233227,53.449332
165.168306,53.377057
165.135983,53.285437
165.141184,53.188421
165.183114,53.100780
165.233226,53.050667
165.364915,52.952087
165.552087,52.764915
165.710716,52.553011
165.837574,52.320689
165.930077,52.072678
165.986343,51.814026
166.005227,51.550000
165.986343,51.285974
165.930077,51.027322
165.837574,50.779311
165.710716,50.546989
165.552087,50.335085
165.364915,50.147913
165.167326,50.000000
178.994390,50.000000
179.014804,50.285428
179.075631,50.565046
179.105373,50.644788
179.175631,50.833158
179.267801,51.001954
179.312774,51.084315
179.484261,51.313395
179.686605,51.515739
179.915685,51.687226
179.997199,51.731736
180.166841,51.824368
180.208703,51.839981
180.434954,51.924369
180.714572,51.985196
181.000000,52.005610
181.285428,51.985196
181.565046,51.924369
181.833161,51.824367
182.084315,51.687226
182.313395,51.515739
182.515739,51.313395
182.687226,51.084315
182.824367,50.833161
182.924369,50.565046
182.985196,50.285428
183.005610,50.000000
182.985196,49.714572
182.924369,49.434954
182.831136,49.184987
182.824368,49.166841
182.729933,48.993897
182.687226,48.915685
182.515739,48.686605
182.313395,48.484261
182.149661,48.361691
182.084317,48.312775
181.833158,48.175631
181.687970,48.121479
181.565046,48.075631
181.565047,48.075631
181.285428,48.014804
181.000000,47.994390
180.714571,48.014804
180.434954,48.075631
180.166841,48.175631
179.915682,48.312775
179.751951,48.435343
179.686605,48.484261
179.686604,48.484262
179.484262,48.686604
179.484260,48.686607
179.312775,48.915682
179.175631,49.166841
179.075631,49.434954
179.024940,49.667979
179.014804,49.714572
178.994390,50.000000
165.167326,50.000000
165.153011,49.989284
164.920689,49.862426
164.920687,49.862425
164.672676,49.769922
164.672671,49.769921
164.513146,49.735218
164.424065,49.696442
164.390006,49.667979
164.337578,49.615551
164.337554,49.615525
164.319735,49.597706
164.319678,49.597621
164.125205,49.403152
163.859347,49.184972
163.859343,49.184969
163.859332,49.184960
163.573356,48.993881
163.270027,48.831752
163.270024,48.831751
163.270019,48.831748
162.952277,48.700140
162.952272,48.700138
162.952267,48.700136
162.952264,48.700135
162.952248,48.700129
162.623129,48.600297
162.285815,48.533206
162.285805,48.533204
161.943522,48.499497
161.771553,48.499500
91.701346,48.499500
91.700887,48.499517
91.656474,48.499517
91.314196,48.533225
91.314188,48.533226
90.976881,48.600316
90.976867,48.600319
90.647745,48.700153
90.329990,48.831766
90.329989,48.831766
90.026658,48.993896
90.026649,48.993901
89.767824,49.166839
89.740686,49.184972
89.740665,49.184987
89.474824,49.403152
89.474804,49.403169
89.441591,49.436382
89.441575,49.436396
89.441576,49.436397
89.436704,49.441269
89.378473,49.499500
89.353211,49.524762
89.269706,49.608264
89.269701,49.608269
89.264835,49.613136
89.264828,49.613143
89.264827,49.613142
89.022493,49.855478
89.022493,49.855479
88.431038,50.446934
88.350256,50.500910
88.254968,50.519864
88.159680,50.500910
88.139683,50.491568
88.043053,50.441093
88.043052,50.441092
88.043049,50.441091
87.847418,50.385114
87.728037,50.374500
87.728035,50.374500
85.911968,50.374500
85.911956,50.374501
85.792585,50.385113
85.596954,50.441090
85.596946,50.441093
85.416597,50.535299
85.416592,50.535302
85.258893,50.663889
85.258889,50.663893
85.130302,50.821592
85.130299,50.821597
85.036093,51.001946
85.036090,51.001954
84.980115,51.197578
84.980114,51.197582
84.969500,51.316963
84.969500,53.133031
84.969501,53.133043
84.980113,53.252414
84.980113,53.252417
84.980114,53.252418
84.997043,53.311580
85.036090,53.448045
85.036093,53.448053
85.128355,53.624681
85.130302,53.628407
85.258891,53.786109
85.349443,53.859944
85.416592,53.914697
85.416596,53.914700
85.455172,53.934850
85.530856,53.995768
85.577467,54.081011
85.587909,54.177604
85.565559,54.260782
85.546570,54.301504
85.546566,54.301516
85.489363,54.514998
85.489364,54.515000
86.386988,54.515000
86.354075,54.572007
86.320000,54.699174
86.320000,54.830826
86.354075,54.957993
86.386988,55.015000
85.489364,55.015000
85.489363,55.015001
85.546566,55.228483
85.546566,55.228485
85.646399,55.442576
85.781889,55.636076
85.948923,55.803110
86.142423,55.938600
86.356511,56.038431
86.570000,56.095635
86.570000,55.198012
86.627007,55.230925
86.754174,55.265000
86.885826,55.265000
87.012993,55.230925
87.070000,55.198012
87.070000,56.095635
87.283488,56.038431
87.497576,55.938600
87.691076,55.803110
87.858110,55.636076
87.993600,55.442576
88.093433,55.228485
88.093433,55.228483
88.150636,55.015001
88.150636,55.015000
87.253012,55.015000
87.285925,54.957993
87.320000,54.830826
87.320000,54.699174
87.285925,54.572007
87.253012,54.515000
88.150636,54.515000
88.150636,54.514998
88.093433,54.301516
88.093433,54.301514
88.074441,54.260786
88.051349,54.166415
88.066129,54.070391
88.116530,53.987332
88.184827,53.934850
88.223407,53.914698
88.381109,53.786109
88.400906,53.761829
88.475808,53.699959
88.545309,53.674966
88.798132,53.624681
89.127260,53.524845
89.445018,53.393230
89.712989,53.250000
89.748325,53.231113
89.748328,53.231110
89.748345,53.231102
90.034320,53.040024
90.300189,52.821835
90.329600,52.792424
90.329612,52.792413
90.338291,52.783733
90.338297,52.783730
90.421791,52.700236
90.505295,52.616734
90.505296,52.616731
90.517019,52.605009
90.517032,52.604993
91.144518,51.977510
91.144518,51.977509
91.158702,51.963326
91.158713,51.963312
91.466566,51.655460
91.484652,51.639068
91.531955,51.600248
91.572527,51.573139
91.615640,51.550095
91.660723,51.531421
91.707499,51.517232
91.755358,51.507713
91.816454,51.501697
91.840835,51.500500
91.946499,51.500502
91.946506,51.500500
91.955976,51.500501
91.956029,51.500500
105.881908,51.500500
107.084406,51.500500
107.179694,51.519454
107.260476,51.573430
107.314452,51.654212
107.332771,51.731732
107.336939,51.790006
107.338657,51.814027
107.340907,51.824368
107.394923,52.072678
107.487426,52.320689
107.614284,52.553011
107.772913,52.764915
107.960085,52.952087
108.060390,53.027174
108.091771,53.050666
108.156694,53.122943
108.189016,53.214564
108.183815,53.311580
108.141884,53.399221
108.091771,53.449334
107.960085,53.547913
107.772913,53.735085
107.638457,53.914698
107.614284,53.946989
107.614280,53.946995
107.487427,54.179308
107.487425,54.179312
107.394923,54.427323
107.394920,54.427332
107.360218,54.586852
107.321442,54.675934
107.292979,54.709992
105.658439,56.344533
105.640330,56.360945
105.593047,56.399748
105.552465,56.426864
105.509370,56.449899
105.464269,56.468580
105.417505,56.482765
105.369633,56.492287
105.354667,56.493761
105.257980,56.484238
105.181044,56.445297
105.173015,56.439286
105.173004,56.439280
104.940691,56.312427
104.940687,56.312425
104.869177,56.285753
104.692678,56.219923
104.490293,56.175897
104.434027,56.163657
104.170000,56.144773
103.905972,56.163657
103.793440,56.188137
103.647322,56.219923
103.579487,56.245224
103.399312,56.312425
103.399308,56.312427
103.166995,56.439280
103.166987,56.439285
103.152896,56.449834
103.065255,56.491765
103.003675,56.499500
88.061346,56.499500
88.060887,56.499517
88.016472,56.499517
87.674197,56.533224
87.674187,56.533226
87.336880,56.600316
87.336866,56.600319
87.007744,56.700153
86.689989,56.831766
86.689986,56.831767
86.618267,56.870101
86.525295,56.898301
86.500894,56.899500
85.701968,56.899500
85.701956,56.899501
85.582585,56.910113
85.386954,56.966090
85.386946,56.966093
85.206596,57.060299
85.206593,57.060301
85.188024,57.075443
85.102196,57.120969
85.005479,57.130184
84.912597,57.101686
84.911340,57.101004
84.840691,57.062427
84.840687,57.062425
84.769177,57.035753
84.592678,56.969923
84.390293,56.925897
84.334027,56.913657
84.070000,56.894773
83.805972,56.913657
83.693440,56.938137
83.547322,56.969923
83.475810,56.996595
83.299312,57.062425
83.299308,57.062427
83.066995,57.189280
83.066989,57.189284
82.949218,57.277445
82.861579,57.319375
82.764564,57.324576
82.672943,57.292254
82.650785,57.277448
82.533011,57.189284
82.300689,57.062426
82.300687,57.062425
82.229177,57.035753
82.052678,56.969923
81.850293,56.925897
81.794027,56.913657
81.530000,56.894773
81.265972,56.913657
81.153440,56.938137
81.007322,56.969923
80.935810,56.996595
80.759312,57.062425
80.759308,57.062427
80.526995,57.189280
80.526989,57.189284
80.409218,57.277445
80.321579,57.319375
80.224564,57.324576
80.132943,57.292254
80.110785,57.277448
79.993011,57.189284
79.760689,57.062426
79.760687,57.062425
79.689177,57.035753
79.512678,56.969923
79.310293,56.925897
79.254027,56.913657
78.990000,56.894773
78.725972,56.913657
78.613440,56.938137
78.467322,56.969923
78.395810,56.996595
78.219312,57.062425
78.219308,57.062427
77.986995,57.189280
77.986989,57.189284
77.775085,57.347913
77.587913,57.535085
77.504549,57.646447
77.429284,57.746989
77.429280,57.746995
77.302427,57.979308
77.302425,57.979312
77.259169,58.095288
77.209923,58.227322
77.182463,58.353553
77.153657,58.485972
77.145727,58.596844
77.134773,58.750000
75.500500,58.750000
75.500500,50.000000
76.994390,50.000000
77.014804,50.285428
77.075631,50.565046
77.105373,50.644788
77.175631,50.833158
77.267801,51.001954
77.312774,51.084315
77.484261,51.313395
77.686605,51.515739
77.915685,51.687226
77.997199,51.731736
78.166841,51.824368
78.208703,51.839981
78.434954,51.924369
78.714572,51.985196
79.000000,52.005610
79.285428,51.985196
79.565046,51.924369
79.833161,51.824367
80.084315,51.687226
80.313395,51.515739
80.515739,51.313395
80.687226,51.084315
80.824367,50.833161
80.924369,50.565046
80.985196,50.285428
81.005610,50.000000
80.985196,49.714572
80.924369,49.434954
80.831136,49.184987
80.824368,49.166841
80.729933,48.993897
80.687226,48.915685
80.515739,48.686605
80.313395,48.484261
80.149661,48.361691
80.084317,48.312775
79.833158,48.175631
79.687970,48.121479
79.565046,48.075631
79.565047,48.075631
79.285428,48.014804
79.000000,47.994390
78.714571,48.014804
78.434954,48.075631
78.166841,48.175631
77.915682,48.312775
77.751951,48.435343
77.686605,48.484261
77.686604,48.484262
77.484262,48.686604
77.484260,48.686607
77.312775,48.915682
77.175631,49.166841
77.075631,49.434954
77.024940,49.667979
77.014804,49.714572
76.994390,50.000000
75.500500,50.000000
75.500500,46.749500
75.519454,46.654212
75.573430,46.573430
75.654212,46.519454
75.749500,46.500500
184.250500,46.500500
Z" /> 
</g>
<g style="fill:#FFFFFF; fill-opacity:1.000000; stroke:none;">
<circle cx="169.410000" cy="58.000000" r="0.175000" /> 
</g>
<g style="fill:#FFFFFF; fill-opacity:1.000000; stroke:none;">
<circle cx="159.250000" cy="58.000000" r="0.175000" /> 
</g>
<g style="fill:#FFFFFF; fill-opacity:1.000000; stroke:none;">
<circle cx="109.175000" cy="54.950000" r="0.175000" /> 
</g>
<g style="fill:#FFFFFF; fill-opacity:1.000000; stroke:none;">
<circle cx="109.175000" cy="51.550000" r="0.175000" /> 
</g>
<g style="fill:#FFFFFF; fill-opacity:1.000000; stroke:none;">
<circle cx="114.330000" cy="58.000000" r="0.175000" /> 
</g>
<g style="fill:#FFFFFF; fill-opacity:1.000000; stroke:none;">
<circle cx="104.170000" cy="58.000000" r="0.175000" /> 
</g>
<g style="fill:#FFFFFF; fill-opacity:1.000000; stroke:none;">
<circle cx="164.150000" cy="54.950000" r="0.175000" /> 
</g>
<g style="fill:#FFFFFF; fill-opacity:1.000000; stroke:none;">
<circle cx="164.150000" cy="51.550000" r="0.175000" /> 
</g>
<g style="fill:#FFFFFF; fill-opacity:1.000000; stroke:none;">
<circle cx="132.660000" cy="58.000000" r="0.175000" /> 
</g>
<g style="fill:#FFFFFF; fill-opacity:1.000000; stroke:none;">
<circle cx="122.500000" cy="58.000000" r="0.175000" /> 
</g>
<g style="fill:#FFFFFF; fill-opacity:1.000000; stroke:none;">
<circle cx="150.910000" cy="58.000000" r="0.175000" /> 
</g>
<g style="fill:#FFFFFF; fill-opacity:1.000000; stroke:none;">
<circle cx="140.750000" cy="58.000000" r="0.175000" /> 
</g>
<g style="fill:#FFFFFF; fill-opacity:1.000000; stroke:none;">
<circle cx="127.500000" cy="54.950000" r="0.175000" /> 
</g>
<g style="fill:#FFFFFF; fill-opacity:1.000000; stroke:none;">
<circle cx="127.500000" cy="51.550000" r="0.175000" /> 
</g>
<g style="fill:#FFFFFF; fill-opacity:1.000000; stroke:none;">
<circle cx="145.825000" cy="54.950000" r="0.175000" /> 
</g>
<g style="fill:#FFFFFF; fill-opacity:1.000000; stroke:none;">
<circle cx="145.825000" cy="51.550000" r="0.175000" /> 
</g>
<g style="fill:#FFFFFF; fill-opacity:1.000000; stroke:none;">
<circle cx="86.610000" cy="58.750000" r="0.175000" /> 
</g>
<g style="fill:#FFFFFF; fill-opacity:1.000000; stroke:none;">
<circle cx="84.070000" cy="58.750000" r="0.175000" /> 
</g>
<g style="fill:#FFFFFF; fill-opacity:1.000000; stroke:none;">
<circle cx="81.530000" cy="58.750000" r="0.175000" /> 
</g>
<g style="fill:#FFFFFF; fill-opacity:1.000000; stroke:none;">
<circle cx="78.990000" cy="58.750000" r="0.175000" /> 
</g>
<g style="fill:#FFFFFF; fill-opacity:1.000000; stroke:none;">
<circle cx="86.820000" cy="52.225000" r="0.175000" /> 
</g>
<g style="fill:#FFFFFF; fill-opacity:1.000000; stroke:none;">
<circle cx="86.820000" cy="54.765000" r="0.175000" /> 
<path style="fill:none; 
stroke:#000000; stroke-width:0.500000; stroke-opacity:1; 
stroke-linecap:round; stroke-linejoin:round;fill:none"
d="M 75.000000,46.000000
185.000000,46.000000
185.000000,71.000000
75.000000,71.000000
Z" /> 
</g>
<g style="fill:#000000; fill-opacity:1.000000; stroke:none;">
<circle cx="79.000000" cy="50.000000" r="1.550000" /> 
<circle cx="181.000000" cy="50.000000" r="1.550000" /> 
</g> 
</svg>
