<?xml version="1.0" standalone="no"?>
 <!DOCTYPE svg PUBLIC "-//W3C//DTD SVG 1.1//EN" 
 "http://www.w3.org/Graphics/SVG/1.1/DTD/svg11.dtd"> 
<svg
  xmlns:svg="http://www.w3.org/2000/svg"
  xmlns="http://www.w3.org/2000/svg"
  xmlns:xlink="http://www.w3.org/1999/xlink"
  version="1.1"
  width="297.002200mm" height="210.007200mm" viewBox="0.000000 0.000000 297.002200 210.007200">
<title>SVG Image created as Photoresistor-array-F_Cu.svg date 2024/04/17 14:07:25 </title>
  <desc>Image generated by PCBNEW </desc>
<g style="fill:#000000; fill-opacity:1.000000;stroke:#000000; stroke-opacity:1.000000;
stroke-linecap:round; stroke-linejoin:round;"
 transform="translate(0 0) scale(1 1)">
</g>
<g style="fill:#000000; fill-opacity:1.000000; 
stroke:#000000; stroke-width:0.021200; stroke-opacity:1; 
stroke-linecap:round; stroke-linejoin:round;">
<rect x="105.502200" y="38.250000" width="123.000000" height="47.500000" rx="0.000000" />
</g>
<g style="fill:none; 
stroke:#FFFFFF; stroke-width:0.500000; stroke-opacity:1; 
stroke-linecap:round; stroke-linejoin:round;">
<text x="121.002200" y="57.950280"
transform="scale(-1 1) translate(-242.004400 0)"
textLength="6.000000" font-size="3.333333" lengthAdjust="spacingAndGlyphs"
text-anchor="middle" opacity="0">PP</text>
<g class="stroked-text"><desc>PP</desc>
<path d="M122.906962 57.618327
L122.906962 55.118327
" />
<path d="M122.906962 55.118327
L121.954581 55.118327
" />
<path d="M121.954581 55.118327
L121.716486 55.237375
" />
<path d="M121.716486 55.237375
L121.597439 55.356422
" />
<path d="M121.597439 55.356422
L121.478391 55.594518
" />
<path d="M121.478391 55.594518
L121.478391 55.951660
" />
<path d="M121.478391 55.951660
L121.597439 56.189756
" />
<path d="M121.597439 56.189756
L121.716486 56.308803
" />
<path d="M121.716486 56.308803
L121.954581 56.427851
" />
<path d="M121.954581 56.427851
L122.906962 56.427851
" />
<path d="M120.406962 57.618327
L120.406962 55.118327
" />
<path d="M120.406962 55.118327
L119.454581 55.118327
" />
<path d="M119.454581 55.118327
L119.216486 55.237375
" />
<path d="M119.216486 55.237375
L119.097439 55.356422
" />
<path d="M119.097439 55.356422
L118.978391 55.594518
" />
<path d="M118.978391 55.594518
L118.978391 55.951660
" />
<path d="M118.978391 55.951660
L119.097439 56.189756
" />
<path d="M119.097439 56.189756
L119.216486 56.308803
" />
<path d="M119.216486 56.308803
L119.454581 56.427851
" />
<path d="M119.454581 56.427851
L120.406962 56.427851
" />
</g><text x="121.002200" y="61.975140"
transform="scale(-1 1) translate(-242.004400 0)"
textLength="8.142857" font-size="3.333333" lengthAdjust="spacingAndGlyphs"
text-anchor="middle" opacity="0">WIIT</text>
<g class="stroked-text"><desc>WIIT</desc>
<path d="M124.216486 59.143187
L123.621248 61.643187
" />
<path d="M123.621248 61.643187
L123.145057 59.857473
" />
<path d="M123.145057 59.857473
L122.668867 61.643187
" />
<path d="M122.668867 61.643187
L122.073628 59.143187
" />
<path d="M121.121247 61.643187
L121.121247 59.143187
" />
<path d="M119.930771 61.643187
L119.930771 59.143187
" />
<path d="M119.097438 59.143187
L117.668867 59.143187
" />
<path d="M118.383153 61.643187
L118.383153 59.143187
" />
</g><text x="121.002200" y="66.000000"
transform="scale(-1 1) translate(-242.004400 0)"
textLength="10.523808" font-size="3.333333" lengthAdjust="spacingAndGlyphs"
text-anchor="middle" opacity="0">2024</text>
<g class="stroked-text"><desc>2024</desc>
<path d="M125.287914 63.406142
L125.168866 63.287095
" />
<path d="M125.168866 63.287095
L124.930771 63.168047
" />
<path d="M124.930771 63.168047
L124.335533 63.168047
" />
<path d="M124.335533 63.168047
L124.097438 63.287095
" />
<path d="M124.097438 63.287095
L123.978390 63.406142
" />
<path d="M123.978390 63.406142
L123.859343 63.644238
" />
<path d="M123.859343 63.644238
L123.859343 63.882333
" />
<path d="M123.859343 63.882333
L123.978390 64.239476
" />
<path d="M123.978390 64.239476
L125.406962 65.668047
" />
<path d="M125.406962 65.668047
L123.859343 65.668047
" />
<path d="M122.311724 63.168047
L122.073629 63.168047
" />
<path d="M122.073629 63.168047
L121.835533 63.287095
" />
<path d="M121.835533 63.287095
L121.716486 63.406142
" />
<path d="M121.716486 63.406142
L121.597438 63.644238
" />
<path d="M121.597438 63.644238
L121.478391 64.120428
" />
<path d="M121.478391 64.120428
L121.478391 64.715666
" />
<path d="M121.478391 64.715666
L121.597438 65.191857
" />
<path d="M121.597438 65.191857
L121.716486 65.429952
" />
<path d="M121.716486 65.429952
L121.835533 65.549000
" />
<path d="M121.835533 65.549000
L122.073629 65.668047
" />
<path d="M122.073629 65.668047
L122.311724 65.668047
" />
<path d="M122.311724 65.668047
L122.549819 65.549000
" />
<path d="M122.549819 65.549000
L122.668867 65.429952
" />
<path d="M122.668867 65.429952
L122.787914 65.191857
" />
<path d="M122.787914 65.191857
L122.906962 64.715666
" />
<path d="M122.906962 64.715666
L122.906962 64.120428
" />
<path d="M122.906962 64.120428
L122.787914 63.644238
" />
<path d="M122.787914 63.644238
L122.668867 63.406142
" />
<path d="M122.668867 63.406142
L122.549819 63.287095
" />
<path d="M122.549819 63.287095
L122.311724 63.168047
" />
<path d="M120.526010 63.406142
L120.406962 63.287095
" />
<path d="M120.406962 63.287095
L120.168867 63.168047
" />
<path d="M120.168867 63.168047
L119.573629 63.168047
" />
<path d="M119.573629 63.168047
L119.335534 63.287095
" />
<path d="M119.335534 63.287095
L119.216486 63.406142
" />
<path d="M119.216486 63.406142
L119.097439 63.644238
" />
<path d="M119.097439 63.644238
L119.097439 63.882333
" />
<path d="M119.097439 63.882333
L119.216486 64.239476
" />
<path d="M119.216486 64.239476
L120.645058 65.668047
" />
<path d="M120.645058 65.668047
L119.097439 65.668047
" />
<path d="M116.954582 64.001380
L116.954582 65.668047
" />
<path d="M117.549820 63.049000
L118.145058 64.834714
" />
<path d="M118.145058 64.834714
L116.597439 64.834714
" />
</g></g>
<g style="fill:#FFFFFF; fill-opacity:1.000000; stroke:none;">
<circle cx="127.592200" cy="58.000000" r="0.800000" /> 
</g>
<g style="fill:#FFFFFF; fill-opacity:1.000000; stroke:none;">
<circle cx="137.752200" cy="58.000000" r="0.800000" /> 
<circle cx="187.827200" cy="54.950000" r="0.750000" /> 
</g>
<g style="fill:#FFFFFF; fill-opacity:1.000000; stroke:none;">
<circle cx="187.827200" cy="51.550000" r="0.750000" /> 
</g>
<g style="fill:#FFFFFF; fill-opacity:1.000000; stroke:none;">
<circle cx="182.672200" cy="58.000000" r="0.800000" /> 
</g>
<g style="fill:#FFFFFF; fill-opacity:1.000000; stroke:none;">
<circle cx="192.832200" cy="58.000000" r="0.800000" /> 
<circle cx="132.852200" cy="54.950000" r="0.750000" /> 
</g>
<g style="fill:#FFFFFF; fill-opacity:1.000000; stroke:none;">
<circle cx="132.852200" cy="51.550000" r="0.750000" /> 
</g>
<g style="fill:#FFFFFF; fill-opacity:1.000000; stroke:none;">
<circle cx="164.342200" cy="58.000000" r="0.800000" /> 
</g>
<g style="fill:#FFFFFF; fill-opacity:1.000000; stroke:none;">
<circle cx="174.502200" cy="58.000000" r="0.800000" /> 
<circle cx="146.092200" cy="58.000000" r="0.800000" /> 
</g>
<g style="fill:#FFFFFF; fill-opacity:1.000000; stroke:none;">
<circle cx="156.252200" cy="58.000000" r="0.800000" /> 
<circle cx="169.502200" cy="54.950000" r="0.750000" /> 
</g>
<g style="fill:#FFFFFF; fill-opacity:1.000000; stroke:none;">
<circle cx="169.502200" cy="51.550000" r="0.750000" /> 
</g>
<g style="fill:#FFFFFF; fill-opacity:1.000000; stroke:none;">
<circle cx="151.177200" cy="54.950000" r="0.750000" /> 
</g>
<g style="fill:#FFFFFF; fill-opacity:1.000000; stroke:none;">
<circle cx="151.177200" cy="51.550000" r="0.750000" /> 
<path style="fill:#FFFFFF; fill-opacity:1.000000; stroke:none;fill-rule:evenodd;"
d="M 209.542200,59.600000
211.242200,59.600000
211.242200,57.900000
209.542200,57.900000
Z" /> 
</g>
<g style="fill:#FFFFFF; fill-opacity:1.000000; stroke:none;">
<circle cx="212.932200" cy="58.750000" r="0.850000" /> 
<circle cx="215.472200" cy="58.750000" r="0.850000" /> 
<circle cx="218.012200" cy="58.750000" r="0.850000" /> 
<path style="fill:#FFFFFF; fill-opacity:1.000000; stroke:none;fill-rule:evenodd;"
d="M 209.332200,51.375000
209.332200,53.075000
211.032200,53.075000
211.032200,51.375000
Z" /> 
<circle cx="210.182200" cy="54.765000" r="0.850000" /> 
</g>
<g style="fill:none; 
stroke:#FFFFFF; stroke-width:0.700000; stroke-opacity:1; 
stroke-linecap:round; stroke-linejoin:round;">
<path d="M190.402200 53.249999
L185.202200 53.249999
" />
<path d="M172.002200 53.249999
L166.802200 53.249999
" />
<path d="M153.802200 53.249999
L148.602200 53.249999
" />
<path d="M135.402200 53.249999
L131.030627 53.249999
" />
</g>
<g style="fill:none; 
stroke:#FFFFFF; stroke-width:1.000000; stroke-opacity:1; 
stroke-linecap:round; stroke-linejoin:round;">
<path d="M192.832200 58.000000
L208.813773 58.000000
" />
<path d="M210.227987 58.585787
L210.392200 58.750000
" />
<path d="M192.832200 58.000000
L191.705627 58.000000
" />
<path d="M190.291413 57.414213
L187.827200 54.950000
" />
<path d="M190.291413 57.414213 A1.999981 1.999981 0.0 0 0 191.705627 57.999981" />
<path d="M210.228001 58.585773 A2.000000 2.000000 0.0 0 0 208.813773 58.000000" />
<path d="M212.932200 60.000000
L212.559695 60.372505
" />
<path d="M174.502200 58.000000
L174.209054 58.000000
" />
<path d="M212.932200 58.750000
L212.932200 60.000000
" />
<path d="M176.874704 60.372504
L174.502200 58.000000
" />
<path d="M211.145482 60.958291
L178.288918 60.958291
" />
<path d="M171.380627 56.828427
L169.502200 54.950000
" />
<path d="M176.874704 60.372504 A1.999981 1.999981 0.0 0 0 178.288918 60.958281" />
<path d="M211.145482 60.958281 A1.999981 1.999981 0.0 0 0 212.559695 60.372505" />
<path d="M171.380627 56.828427 A4.000032 4.000032 0.0 0 0 174.209054 58.000032" />
<path d="M214.694628 62.307572
L214.886414 62.115786
" />
<path d="M156.173097 57.970897
L161.095558 62.893358
" />
<path d="M215.472200 60.701573
L215.472200 58.750000
" />
<path d="M155.402200 57.970897
L156.173097 57.970897
" />
<path d="M153.055627 56.828427
L151.177200 54.950000
" />
<path d="M162.509772 63.479145
L211.866201 63.479145
" />
<path d="M156.252200 58.000000
L155.884054 58.000000
" />
<path d="M211.866201 63.479145 A4.000045 4.000045 0.0 0 0 214.694637 62.307581" />
<path d="M161.095558 62.893358 A2.000052 2.000052 0.0 0 0 162.509772 63.479152" />
<path d="M153.055627 56.828427 A4.000032 4.000032 0.0 0 0 155.884054 58.000032" />
<path d="M214.886428 62.115800 A2.000000 2.000000 0.0 0 0 215.472200 60.701573" />
<path d="M218.002200 62.000000
L218.002200 61.810000
" />
<path d="M134.730627 56.828427
L132.852200 54.950000
" />
<path d="M218.012200 58.750000
L218.012200 61.800000
" />
<path d="M137.752200 58.000000
L145.166413 65.414213
" />
<path d="M218.002200 61.810000
L218.012200 61.800000
" />
<path d="M218.012200 61.800000
L218.012200 62.171573
" />
<path d="M146.580627 66.000000
L214.002200 66.000000
" />
<path d="M137.752200 58.000000
L137.559054 58.000000
" />
<path d="M134.730627 56.828427 A4.000032 4.000032 0.0 0 0 137.559054 58.000032" />
<path d="M145.166413 65.414213 A1.999981 1.999981 0.0 0 0 146.580627 65.999981" />
<path d="M214.002200 66.000000 A4.000000 4.000000 0.0 0 0 218.002200 62.000000" />
<path d="M151.202200 50.000000
L151.202200 51.525000
" />
<path d="M169.502200 50.100000
L169.602200 50.000000
" />
<path d="M133.816413 50.585787
L132.852200 51.550000
" />
<path d="M152.002200 50.000000
L151.202200 50.000000
" />
<path d="M207.002200 51.000000
L206.587986 50.585786
" />
<path d="M191.002200 50.000000
L187.802200 50.000000
" />
<path d="M207.641413 51.639213
L207.002200 51.000000
" />
<path d="M187.827200 50.025000
L187.802200 50.000000
" />
<path d="M187.802200 50.000000
L171.002200 50.000000
" />
<path d="M151.202200 51.525000
L151.177200 51.550000
" />
<path d="M205.173773 50.000000
L191.002200 50.000000
" />
<path d="M210.182200 52.225000
L209.055627 52.225000
" />
<path d="M151.202200 50.000000
L135.230627 50.000000
" />
<path d="M152.727200 50.000000
L153.002200 50.000000
" />
<path d="M169.602200 50.000000
L153.002200 50.000000
" />
<path d="M153.002200 50.000000
L152.002200 50.000000
" />
<path d="M171.002200 50.000000
L169.602200 50.000000
" />
<path d="M187.827200 51.550000
L187.827200 50.025000
" />
<path d="M169.502200 51.550000
L169.502200 50.100000
" />
<path d="M206.588000 50.585772 A2.000000 2.000000 0.0 0 0 205.173773 50.000000" />
<path d="M135.230627 50.000000 A2.000000 2.000000 0.0 0 0 133.816399 50.585773" />
<path d="M207.641413 51.639213 A1.999981 1.999981 0.0 0 0 209.055627 52.224981" />
<path d="M146.092200 58.000000
L141.347200 53.255000
" />
<path d="M177.202200 53.249999
L185.202200 53.249999
" />
<path d="M127.592200 58.000000
L127.592200 56.688426
" />
<path d="M128.177987 55.274212
L129.616414 53.835785
" />
<path d="M177.922199 53.249999
L177.202200 53.249999
" />
<path d="M172.002200 53.249999
L177.202200 53.249999
" />
<path d="M210.182200 54.765000
L197.195627 54.765000
" />
<path d="M141.347200 53.255000
L148.597199 53.255000
" />
<path d="M182.672200 58.000000
L177.922199 53.249999
" />
<path d="M164.342200 58.000000
L159.592199 53.249999
" />
<path d="M148.597199 53.255000
L148.602200 53.249999
" />
<path d="M159.592199 53.249999
L166.802200 53.249999
" />
<path d="M194.023772 53.249999
L190.402200 53.249999
" />
<path d="M159.592199 53.249999
L153.802200 53.249999
" />
<path d="M195.781413 54.179213
L195.437985 53.835785
" />
<path d="M141.347200 53.255000
L135.407201 53.255000
" />
<path d="M135.407201 53.255000
L135.402200 53.249999
" />
<path d="M128.177987 55.274212 A1.999982 1.999982 0.0 0 0 127.592218 56.688426" />
<path d="M195.781413 54.179213 A1.999981 1.999981 0.0 0 0 197.195627 54.764981" />
<path d="M195.437985 53.835785 A1.999981 1.999981 0.0 0 0 194.023772 53.250019" />
</g>
<g style="fill:none; 
stroke:#FFFFFF; stroke-width:0.700000; stroke-opacity:1; 
stroke-linecap:round; stroke-linejoin:round;">
<path d="M131.030627 53.249999 A2.000001 2.000001 0.0 0 0 129.616400 53.835771" />
<path style="fill:#FFFFFF; fill-opacity:1.000000; stroke:none;fill-rule:evenodd;"
d="M 135.338372,51.300501
135.240385,51.300500
135.220885,51.301458
135.201432,51.303373
135.181700,51.305316
135.097705,51.333388
135.034207,51.395125
135.003784,51.478300
135.002200,51.503358
135.002200,55.178386
135.021907,55.264729
135.060486,55.319100
135.574025,55.832639
135.574033,55.832645
135.646274,55.904888
135.654385,55.912557
135.867617,56.103116
135.885064,56.117030
136.113727,56.279277
136.132622,56.291149
136.378019,56.426779
136.398125,56.436462
136.657149,56.543756
136.678213,56.551127
136.849119,56.600366
136.937543,56.605333
137.008190,56.578818
137.023335,56.569537
137.023339,56.569535
137.256086,56.473128
137.256088,56.473127
137.256089,56.473127
137.426634,56.432183
137.501051,56.414317
137.752200,56.394551
138.003350,56.414317
138.248315,56.473128
138.481062,56.569535
138.481063,56.569535
138.695862,56.701165
138.887425,56.864775
139.051035,57.056338
139.182665,57.271137
139.182665,57.271138
139.279073,57.503888
139.279074,57.503891
139.324040,57.691184
139.363359,57.770540
139.376827,57.785441
142.787587,61.196202
146.057741,64.466356
146.079084,64.487699
146.093554,64.500812
146.176848,64.569167
146.209283,64.590839
146.295641,64.636997
146.331683,64.651926
146.425392,64.680351
146.463653,64.687961
146.571086,64.698541
146.590589,64.699499
146.696579,64.699499
146.696603,64.699500
160.738652,64.699500
160.824995,64.679793
160.894236,64.624574
160.932663,64.544782
160.932663,64.456218
160.894236,64.376426
160.832462,64.324999
160.810930,64.313490
160.810921,64.313484
160.810912,64.313479
160.541319,64.133342
160.541320,64.133342
160.541298,64.133328
160.290623,63.927606
160.255290,63.892272
160.255271,63.892256
159.243866,62.880851
155.971844,59.608827
155.896858,59.561710
155.877594,59.556043
155.756089,59.526873
155.523341,59.430466
155.308541,59.298836
155.308529,59.298825
155.306039,59.297017
155.304500,59.296358
155.301874,59.294750
155.301638,59.295135
155.224606,59.262203
155.220275,59.261466
154.849164,59.202684
154.444158,59.105446
154.048030,58.976732
153.663222,58.817335
153.292106,58.628237
152.936970,58.410606
152.600005,58.165781
152.405904,58.000000
147.397166,58.000000
147.377342,58.226603
147.318467,58.446326
147.318465,58.446330
147.222338,58.652476
147.222337,58.652477
147.171226,58.725471
146.492200,58.046446
146.492200,58.052661
146.464941,58.154394
146.412280,58.245606
146.337806,58.320080
146.246594,58.372741
146.144861,58.400000
146.138647,58.400000
146.817674,59.079024
146.817673,59.079025
146.744684,59.130132
146.744677,59.130137
146.538531,59.226264
146.538527,59.226266
146.318803,59.285141
146.318806,59.285141
146.092200,59.304965
145.865597,59.285141
145.645874,59.226266
145.645870,59.226264
145.439722,59.130136
145.439717,59.130133
145.366729,59.079024
145.366728,59.079024
146.045752,58.400000
146.039539,58.400000
145.937806,58.372741
145.846594,58.320080
145.772120,58.245606
145.719459,58.154394
145.692200,58.052661
145.692200,58.046448
145.013176,58.725472
145.013176,58.725471
144.962067,58.652483
144.962064,58.652478
144.865936,58.446330
144.865934,58.446326
144.807059,58.226603
144.787235,58.000000
144.807059,57.773396
144.865934,57.553673
144.865936,57.553669
144.962063,57.347523
144.962068,57.347516
145.013175,57.274527
145.013176,57.274526
145.692200,57.953551
145.692200,57.947339
145.719459,57.845606
145.772120,57.754394
145.846594,57.679920
145.937806,57.627259
146.039539,57.600000
146.045752,57.600000
145.366729,56.920974
145.439723,56.869863
145.439724,56.869862
145.645870,56.773735
145.645874,56.773733
145.865598,56.714858
145.865595,56.714858
146.092200,56.695034
146.318804,56.714858
146.538527,56.773733
146.538530,56.773735
146.744682,56.869865
146.744686,56.869867
146.817673,56.920973
146.817673,56.920974
146.138647,57.600000
146.144861,57.600000
146.246594,57.627259
146.337806,57.679920
146.412280,57.754394
146.464941,57.845606
146.492200,57.947339
146.492200,57.953553
147.171226,57.274527
147.171227,57.274527
147.222333,57.347514
147.222335,57.347518
147.318465,57.553670
147.318467,57.553673
147.377342,57.773396
147.397166,58.000000
152.405904,58.000000
152.283286,57.895273
152.136027,57.748012
152.106763,57.718748
150.894974,56.506957
150.819988,56.459840
150.800718,56.454172
150.749425,56.441857
150.696588,56.429172
150.471111,56.335777
150.263021,56.208259
150.077441,56.049759
149.918941,55.864179
149.918941,55.864177
149.913863,55.858233
149.911835,55.859965
149.856295,55.811366
149.770942,55.787737
149.769544,55.787679
148.752200,55.750000
148.752200,51.499500
148.732493,51.413157
148.677274,51.343916
148.597482,51.305489
148.553200,51.300500
135.338378,51.300500
Z" /> 
<path style="fill:#FFFFFF; fill-opacity:1.000000; stroke:none;fill-rule:evenodd;"
d="M 153.663140,51.320207
153.593899,51.375426
153.555472,51.455218
153.550713,51.509056
153.747793,55.608303
153.771623,55.693600
153.805848,55.739460
153.899025,55.832638
153.899029,55.832642
153.971274,55.904888
153.979385,55.912557
154.192617,56.103116
154.210064,56.117030
154.438727,56.279277
154.457622,56.291149
154.703019,56.426779
154.723125,56.436462
154.982149,56.543756
155.003213,56.551127
155.272631,56.628748
155.294386,56.633714
155.318008,56.637728
155.406432,56.632764
155.455322,56.611215
155.523332,56.569538
155.523339,56.569535
155.756086,56.473128
155.756088,56.473127
155.756089,56.473127
155.926634,56.432183
156.001051,56.414317
156.252200,56.394551
156.503350,56.414317
156.748315,56.473128
156.981062,56.569535
156.981063,56.569535
157.195862,56.701165
157.387425,56.864775
157.551035,57.056338
157.682665,57.271137
157.682665,57.271138
157.779072,57.503885
157.779073,57.503888
157.779073,57.503889
157.837681,57.748013
157.839708,57.756455
157.842408,57.755806
157.869801,57.823933
157.892571,57.851184
162.008225,61.966839
162.022694,61.979954
162.106000,62.048322
162.138437,62.069995
162.224804,62.116159
162.260844,62.131088
162.354562,62.159518
162.392822,62.167128
162.500003,62.177686
162.519511,62.178645
176.517798,62.178645
176.604141,62.158938
176.673382,62.103719
176.711809,62.023927
176.711809,61.935363
176.673382,61.855571
176.611606,61.804143
176.590084,61.792639
176.590085,61.792639
176.590082,61.792638
176.320446,61.612475
176.069768,61.406750
176.036129,61.373109
176.036104,61.373088
176.027488,61.364471
176.027485,61.364470
175.955114,61.292099
175.878914,61.215900
175.878913,61.215897
175.867577,61.204562
175.867571,61.204554
174.287640,59.624623
174.212654,59.577506
174.193390,59.571839
174.006089,59.526873
173.773341,59.430466
173.773335,59.430462
173.773332,59.430461
173.558553,59.298844
173.558549,59.298840
173.558541,59.298836
173.550528,59.291991
173.472078,59.250899
173.452428,59.246759
173.174164,59.202684
172.769158,59.105446
172.373030,58.976732
171.988222,58.817335
171.617106,58.628237
171.261970,58.410606
170.925005,58.165781
170.730904,58.000000
165.647166,58.000000
165.627342,58.226603
165.568467,58.446326
165.568465,58.446330
165.472338,58.652476
165.472337,58.652477
165.421226,58.725471
164.742200,58.046446
164.742200,58.052661
164.714941,58.154394
164.662280,58.245606
164.587806,58.320080
164.496594,58.372741
164.394861,58.400000
164.388647,58.400000
165.067674,59.079024
165.067673,59.079025
164.994684,59.130132
164.994677,59.130137
164.788531,59.226264
164.788527,59.226266
164.568803,59.285141
164.568806,59.285141
164.342200,59.304965
164.115597,59.285141
163.895874,59.226266
163.895870,59.226264
163.689722,59.130136
163.689717,59.130133
163.616729,59.079024
163.616728,59.079024
164.295752,58.400000
164.289539,58.400000
164.187806,58.372741
164.096594,58.320080
164.022120,58.245606
163.969459,58.154394
163.942200,58.052661
163.942200,58.046448
163.263176,58.725472
163.263176,58.725471
163.212067,58.652483
163.212064,58.652478
163.115936,58.446330
163.115934,58.446326
163.057059,58.226603
163.037235,58.000000
163.057059,57.773396
163.115934,57.553673
163.115936,57.553669
163.212063,57.347523
163.212068,57.347516
163.263175,57.274527
163.263176,57.274526
163.942200,57.953551
163.942200,57.947339
163.969459,57.845606
164.022120,57.754394
164.096594,57.679920
164.187806,57.627259
164.289539,57.600000
164.295752,57.600000
163.616729,56.920974
163.689723,56.869863
163.689724,56.869862
163.895870,56.773735
163.895874,56.773733
164.115598,56.714858
164.115595,56.714858
164.342200,56.695034
164.568804,56.714858
164.788527,56.773733
164.788530,56.773735
164.994682,56.869865
164.994686,56.869867
165.067673,56.920973
165.067673,56.920974
164.388647,57.600000
164.394861,57.600000
164.496594,57.627259
164.587806,57.679920
164.662280,57.754394
164.714941,57.845606
164.742200,57.947339
164.742200,57.953553
165.421226,57.274527
165.421227,57.274527
165.472333,57.347514
165.472335,57.347518
165.568465,57.553670
165.568467,57.553673
165.627342,57.773396
165.647166,58.000000
170.730904,58.000000
170.608286,57.895273
170.461027,57.748012
170.431763,57.718748
169.219974,56.506957
169.144988,56.459840
169.125718,56.454172
169.074425,56.441857
169.021588,56.429172
168.796111,56.335777
168.588021,56.208259
168.464914,56.103116
168.400005,56.047679
168.321551,56.006589
168.270765,56.000000
166.752200,56.000000
166.752200,51.499500
166.732493,51.413157
166.677274,51.343916
166.597482,51.305489
166.553200,51.300500
153.749483,51.300500
Z" /> 
<path style="fill:#FFFFFF; fill-opacity:1.000000; stroke:none;fill-rule:evenodd;"
d="M 172.160494,51.320207
172.091253,51.375426
172.052826,51.455218
172.048043,51.508531
172.099389,52.638153
172.242049,55.776656
172.265657,55.862015
172.308240,55.916002
172.517617,56.103116
172.535064,56.117030
172.763727,56.279277
172.782622,56.291149
173.028019,56.426779
173.048125,56.436462
173.307149,56.543756
173.328213,56.551127
173.567139,56.619963
173.655563,56.624930
173.726207,56.598417
173.773340,56.569534
174.006086,56.473128
174.006088,56.473127
174.006089,56.473127
174.176634,56.432183
174.251051,56.414317
174.502200,56.394551
174.753350,56.414317
174.998315,56.473128
175.231062,56.569535
175.231063,56.569535
175.445862,56.701165
175.637425,56.864775
175.801035,57.056338
175.932665,57.271137
175.932665,57.271138
176.029073,57.503888
176.029074,57.503892
176.074040,57.691183
176.113360,57.770540
176.126827,57.785440
177.787375,59.445989
177.801845,59.459104
177.885140,59.527462
177.917577,59.549136
178.003941,59.595298
178.039982,59.610226
178.133685,59.638650
178.171948,59.646261
178.279292,59.656832
178.298795,59.657790
178.404876,59.657790
178.404900,59.657791
182.324789,59.657791
182.411132,59.638084
182.480373,59.582865
182.518800,59.503073
182.518800,59.414509
182.480373,59.334717
182.411132,59.279498
182.376295,59.266572
182.225874,59.226266
182.225870,59.226264
182.019722,59.130136
182.019717,59.130133
181.946729,59.079024
181.946728,59.079024
182.625752,58.400000
182.619539,58.400000
182.517806,58.372741
182.426594,58.320080
182.352120,58.245606
182.299459,58.154394
182.272200,58.052661
182.272200,58.046448
181.593176,58.725472
181.593176,58.725471
181.542067,58.652483
181.542064,58.652478
181.445936,58.446330
181.445934,58.446326
181.387059,58.226603
181.367235,58.000000
181.387059,57.773396
181.445934,57.553673
181.445936,57.553669
181.542063,57.347523
181.542068,57.347516
181.593175,57.274527
181.593176,57.274526
182.272200,57.953551
182.272200,57.947339
182.299459,57.845606
182.352120,57.754394
182.426594,57.679920
182.517806,57.627259
182.619539,57.600000
182.625752,57.600000
181.946729,56.920974
182.019723,56.869863
182.019724,56.869862
182.225870,56.773735
182.225874,56.773733
182.445598,56.714858
182.445595,56.714858
182.672200,56.695034
182.898804,56.714858
183.118527,56.773733
183.118530,56.773735
183.324682,56.869865
183.324686,56.869867
183.397673,56.920973
183.397673,56.920974
182.718647,57.600000
182.724861,57.600000
182.826594,57.627259
182.917806,57.679920
182.992280,57.754394
183.044941,57.845606
183.072200,57.947339
183.072200,57.953553
183.751226,57.274527
183.751227,57.274527
183.802333,57.347514
183.802335,57.347518
183.898465,57.553670
183.898467,57.553673
183.957342,57.773396
183.977166,58.000000
183.957342,58.226603
183.898467,58.446326
183.898465,58.446330
183.802338,58.652476
183.802337,58.652477
183.751226,58.725471
183.072200,58.046446
183.072200,58.052661
183.044941,58.154394
182.992280,58.245606
182.917806,58.320080
182.826594,58.372741
182.724861,58.400000
182.718647,58.400000
183.397674,59.079024
183.397673,59.079025
183.324684,59.130132
183.324677,59.130137
183.118531,59.226264
183.118527,59.226266
182.968105,59.266572
182.889805,59.307955
182.837215,59.379213
182.820750,59.466232
182.843672,59.551778
182.901441,59.618906
182.982615,59.654322
183.019611,59.657791
191.156386,59.657791
191.242729,59.638084
191.311970,59.582865
191.350397,59.503073
191.350397,59.414509
191.311970,59.334717
191.242729,59.279498
191.195206,59.263614
190.902731,59.205441
190.902731,59.205440
190.902721,59.205439
190.592397,59.111308
190.292794,58.987212
190.006798,58.834348
189.737162,58.654187
189.486483,58.448464
189.451172,58.413153
189.451121,58.413106
189.371831,58.333816
189.371829,58.333814
189.295629,58.257615
189.295628,58.257612
189.284292,58.246277
189.284286,58.246269
187.544974,56.506957
187.469988,56.459840
187.450718,56.454172
187.399425,56.441857
187.346588,56.429172
187.121111,56.335777
186.913021,56.208259
186.727441,56.049759
186.568941,55.864179
186.557203,55.845023
186.495287,55.781701
186.412027,55.751514
186.387527,55.750000
185.502200,55.750000
185.308585,51.490462
185.284977,51.405105
185.226672,51.338442
185.145216,51.303679
185.109790,51.300500
172.246837,51.300500
Z" /> 
<path style="fill:#FFFFFF; fill-opacity:1.000000; stroke:none;fill-rule:evenodd;"
d="M 112.615357,46.520207
112.546116,46.575426
112.507689,46.655218
112.502700,46.699500
112.502700,70.300500
112.522407,70.386843
112.577626,70.456084
112.657418,70.494511
112.701700,70.499500
221.302700,70.499500
221.389043,70.479793
221.458284,70.424574
221.496711,70.344782
221.501700,70.300500
221.501700,58.750000
219.667804,58.750000
219.647421,59.008995
219.586772,59.261614
219.507535,59.452908
219.487354,59.501628
219.351612,59.723140
219.351607,59.723148
219.350705,59.724389
219.350380,59.725150
219.347526,59.729807
219.348211,59.730226
219.315898,59.805826
219.312700,59.841357
219.312700,62.273924
219.283383,62.459031
219.281613,62.473727
219.266494,62.656177
219.266492,62.656193
219.215295,62.963005
219.194324,63.088674
219.173408,63.171269
219.104006,63.445334
219.086688,63.513718
218.944321,63.928421
218.768193,64.329952
218.768192,64.329954
218.559507,64.715571
218.319695,65.082628
218.319693,65.082631
218.050385,65.428638
217.753424,65.751224
217.430838,66.048185
217.084831,66.317493
216.717767,66.557309
216.332152,66.765993
215.930621,66.942121
215.515918,67.084488
215.090874,67.192124
214.658393,67.264292
214.658384,67.264292
214.658376,67.264294
214.352812,67.289613
214.221430,67.300500
146.470561,67.300500
146.470092,67.300481
146.418502,67.300482
146.095777,67.268700
145.777721,67.205439
145.467397,67.111308
145.167794,66.987212
144.881798,66.834348
144.612162,66.654187
144.361483,66.448464
144.326172,66.413153
144.326121,66.413106
144.246831,66.333816
144.246829,66.333814
144.170629,66.257615
144.170628,66.257612
144.159292,66.246277
144.159286,66.246269
137.537641,59.624623
137.462655,59.577506
137.443392,59.571839
137.256089,59.526873
137.023341,59.430466
136.808541,59.298836
136.777754,59.272540
136.699305,59.231451
136.679661,59.227313
136.524164,59.202684
136.119158,59.105446
135.723030,58.976732
135.338222,58.817335
134.967106,58.628237
134.611970,58.410606
134.275005,58.165781
134.080904,58.000000
128.897166,58.000000
128.877342,58.226603
128.818467,58.446326
128.818465,58.446330
128.722338,58.652476
128.722337,58.652477
128.671226,58.725471
127.992200,58.046446
127.992200,58.052661
127.964941,58.154394
127.912280,58.245606
127.837806,58.320080
127.746594,58.372741
127.644861,58.400000
127.638649,58.400000
128.317674,59.079024
128.317673,59.079025
128.244684,59.130132
128.244677,59.130137
128.038531,59.226264
128.038527,59.226266
127.818803,59.285141
127.818806,59.285141
127.592200,59.304965
127.365597,59.285141
127.145874,59.226266
127.145870,59.226264
126.939717,59.130134
126.939714,59.130132
126.775604,59.015221
126.693573,58.981840
126.605181,58.987356
126.527937,59.030678
126.477139,59.103225
126.462462,59.178232
126.462462,66.726431
115.541939,66.726431
115.541939,54.059943
126.462462,54.059943
126.462462,56.821767
126.482169,56.908110
126.537388,56.977351
126.617180,57.015778
126.705744,57.015778
126.775603,56.984778
126.939708,56.869871
126.939717,56.869865
127.145870,56.773735
127.145874,56.773733
127.365598,56.714858
127.365595,56.714858
127.592200,56.695034
127.818804,56.714858
128.038527,56.773733
128.038530,56.773735
128.244682,56.869865
128.244686,56.869867
128.317673,56.920973
128.317673,56.920974
127.638647,57.600000
127.644861,57.600000
127.746594,57.627259
127.837806,57.679920
127.912280,57.754394
127.964941,57.845606
127.992200,57.947339
127.992200,57.953553
128.671226,57.274527
128.671227,57.274527
128.722333,57.347514
128.722335,57.347518
128.818465,57.553670
128.818467,57.553673
128.877342,57.773396
128.897166,58.000000
134.080904,58.000000
133.958286,57.895273
133.811027,57.748012
133.781763,57.718748
132.569974,56.506957
132.494988,56.459840
132.475729,56.454174
132.371588,56.429172
132.245426,56.376914
132.158119,56.362079
132.152841,56.362446
130.502200,56.500000
130.252200,50.500000
131.620765,50.500000
131.707108,50.480293
131.750005,50.452321
131.938019,50.291742
132.146108,50.164224
132.146113,50.164221
132.371581,50.070830
132.371594,50.070826
132.475719,50.045827
132.555075,50.006507
132.562274,50.000000
118.007810,50.000000
117.987397,50.285427
117.926569,50.565048
117.826567,50.833161
117.689429,51.084311
117.689426,51.084315
117.517939,51.313395
117.517935,51.313399
117.517932,51.313403
117.315604,51.515731
117.315601,51.515733
117.315595,51.515739
117.086515,51.687226
117.086512,51.687228
116.975112,51.748057
116.835361,51.824367
116.567246,51.924369
116.287628,51.985196
116.287629,51.985196
116.268578,51.986558
116.002200,52.005610
115.716772,51.985196
115.437154,51.924369
115.169039,51.824367
114.917885,51.687226
114.688805,51.515739
114.486461,51.313395
114.314974,51.084315
114.177833,50.833161
114.077831,50.565046
114.017004,50.285428
113.996590,50.000000
114.017004,49.714572
114.077831,49.434954
114.177833,49.166839
114.314974,48.915685
114.486461,48.686605
114.486467,48.686599
114.486469,48.686596
114.688797,48.484268
114.688801,48.484265
114.688805,48.484261
114.917885,48.312774
114.917889,48.312771
115.169039,48.175633
115.437152,48.075631
115.716775,48.014803
115.716772,48.014803
116.002200,47.994390
116.287628,48.014803
116.567249,48.075631
116.835362,48.175633
117.086512,48.312771
117.315604,48.484268
117.517932,48.686596
117.517938,48.686603
117.517939,48.686605
117.551382,48.731280
117.689429,48.915688
117.826567,49.166838
117.926569,49.434951
117.987397,49.714572
118.007810,50.000000
132.562274,50.000000
132.569975,49.993040
132.813676,49.749339
132.813680,49.749334
132.838530,49.724484
132.838576,49.724411
133.011456,49.551534
133.011472,49.551519
133.262155,49.345793
133.531794,49.165631
133.817777,49.012774
133.817784,49.012771
133.817786,49.012770
134.052170,48.915688
134.117394,48.888672
134.427719,48.794540
134.745767,48.731281
134.745777,48.731279
135.068499,48.699498
135.068501,48.699498
135.230645,48.699500
205.283357,48.699500
205.283836,48.699518
205.335909,48.699518
205.658621,48.731299
205.658631,48.731301
205.976670,48.794558
205.976685,48.794562
206.286992,48.888688
206.287006,48.888693
206.586591,49.012780
206.586596,49.012783
206.586602,49.012786
206.586604,49.012787
206.639821,49.041230
206.872607,49.165653
207.142236,49.345811
207.142240,49.345814
207.392907,49.551526
207.392917,49.551535
207.431296,49.589912
207.431337,49.589951
207.532969,49.691583
207.532970,49.691582
207.586970,49.745583
207.987209,50.145823
207.987220,50.145832
207.987219,50.145833
207.994169,50.152782
207.994169,50.152783
208.522995,50.681610
208.554083,50.712698
208.568553,50.725812
208.584896,50.739224
208.664142,50.778764
208.752697,50.780005
208.819210,50.749114
208.820476,50.751130
208.829937,50.745185
208.829938,50.745184
208.982678,50.649211
208.982679,50.649210
208.982680,50.649210
209.152942,50.589633
209.152943,50.589632
209.152945,50.589632
209.287246,50.574500
211.077154,50.574500
211.211455,50.589632
211.211458,50.589632
211.211459,50.589633
211.381721,50.649210
211.381722,50.649210
211.534467,50.745187
211.662013,50.872733
211.757990,51.025478
211.757990,51.025479
211.817567,51.195741
211.817568,51.195745
211.832700,51.330046
211.832700,53.119954
211.817568,53.254255
211.817568,53.254257
211.817567,53.254258
211.757990,53.424520
211.757990,53.424521
211.754271,53.430439
211.662018,53.577259
211.662013,53.577266
211.534467,53.704812
211.534465,53.704813
211.534462,53.704816
211.401458,53.788388
211.338835,53.851012
211.309584,53.934606
211.319500,54.022612
211.344320,54.071025
211.355797,54.087416
211.355801,54.087422
211.455630,54.301504
211.455631,54.301507
211.512837,54.515000
210.615212,54.515000
210.648125,54.572007
210.682200,54.699174
210.682200,54.830826
210.648125,54.957993
210.615212,55.015000
211.512836,55.015000
211.455631,55.228492
211.455629,55.228495
211.355801,55.442578
211.355799,55.442582
211.220310,55.636079
211.053280,55.803109
210.859783,55.938598
210.859780,55.938600
210.645691,56.038430
210.432200,56.095634
210.432200,55.198012
210.375193,55.230925
210.248026,55.265000
210.116374,55.265000
209.989207,55.230925
209.932200,55.198012
209.932200,56.095634
209.718710,56.038430
209.504621,55.938600
209.504618,55.938598
209.311121,55.803109
209.144091,55.636079
209.008602,55.442582
209.008600,55.442578
208.908772,55.228495
208.908770,55.228492
208.851564,55.015000
209.749188,55.015000
209.716275,54.957993
209.682200,54.830826
209.682200,54.699174
209.716275,54.572007
209.749188,54.515000
208.851564,54.515000
208.908770,54.301507
208.908771,54.301504
209.008600,54.087422
209.020078,54.071030
209.053460,53.988999
209.047944,53.900607
209.004623,53.823362
208.962942,53.788388
208.829938,53.704816
208.702384,53.577262
208.702379,53.577253
208.695418,53.568526
208.692999,53.570455
208.644153,53.521581
208.575275,53.496129
208.575568,53.494653
208.252731,53.430441
208.252731,53.430440
208.252721,53.430439
207.942397,53.336308
207.642794,53.212212
207.356798,53.059348
207.087162,52.879187
206.836483,52.673464
206.801172,52.638153
206.801121,52.638106
206.721831,52.558816
206.721829,52.558814
206.645629,52.482615
206.645629,52.482613
206.631344,52.468329
206.631335,52.468317
206.154984,51.991968
206.154981,51.991966
205.675310,51.512293
205.660867,51.499203
205.577549,51.430827
205.545129,51.409165
205.458749,51.362995
205.422723,51.348074
205.329008,51.319647
205.290750,51.312038
205.205868,51.303679
205.183315,51.301458
205.163812,51.300500
205.066028,51.300501
205.066022,51.300500
191.104552,51.300500
190.144610,51.300500
190.058267,51.320207
189.989026,51.375426
189.950599,51.455218
189.945816,51.490460
189.904448,52.400564
189.787238,54.979181
189.803005,55.066330
189.845319,55.128931
191.189512,56.473127
191.189517,56.473132
191.204086,56.487700
191.218554,56.500812
191.301848,56.569167
191.334283,56.590839
191.420641,56.636997
191.456683,56.651926
191.550392,56.680351
191.588653,56.687961
191.696086,56.698541
191.715589,56.699499
191.821579,56.699499
191.821603,56.699500
191.835133,56.699500
191.921476,56.679793
191.939102,56.670179
192.103341,56.569534
192.269251,56.500812
192.336086,56.473128
192.336088,56.473127
192.336089,56.473127
192.506634,56.432183
192.581051,56.414317
192.832200,56.394551
193.083350,56.414317
193.328315,56.473128
193.561062,56.569535
193.561063,56.569535
193.672341,56.637728
193.725292,56.670175
193.809205,56.698486
193.829267,56.699500
208.923357,56.699500
208.923836,56.699518
208.975909,56.699518
209.298621,56.731299
209.298631,56.731301
209.616670,56.794558
209.616685,56.794562
209.927000,56.888690
210.141051,56.977351
210.226606,57.012788
210.226609,57.012789
210.226615,57.012792
210.344876,57.076003
210.430313,57.099324
210.438682,57.099500
211.287154,57.099500
211.421455,57.114632
211.421458,57.114632
211.421459,57.114633
211.591721,57.174210
211.591722,57.174210
211.744467,57.270187
211.744468,57.270187
211.802129,57.327849
211.877118,57.374967
211.965124,57.384883
212.046818,57.356810
212.180572,57.274846
212.204011,57.265137
212.420586,57.175428
212.673205,57.114779
212.932200,57.094396
213.191196,57.114779
213.443815,57.175428
213.683824,57.274844
213.683826,57.274845
213.683828,57.274846
213.749789,57.315266
213.905345,57.410590
214.072960,57.553748
214.151415,57.594838
214.239928,57.597818
214.320968,57.562099
214.331440,57.553748
214.499056,57.410590
214.586818,57.356810
214.720572,57.274846
214.744011,57.265137
214.960586,57.175428
215.213205,57.114779
215.472200,57.094396
215.731196,57.114779
215.983815,57.175428
216.223824,57.274844
216.223826,57.274845
216.223828,57.274846
216.289789,57.315266
216.445345,57.410590
216.612960,57.553748
216.691415,57.594838
216.779928,57.597818
216.860968,57.562099
216.871440,57.553748
217.039056,57.410590
217.126818,57.356810
217.260572,57.274846
217.284011,57.265137
217.500586,57.175428
217.753205,57.114779
218.012200,57.094396
218.271196,57.114779
218.523815,57.175428
218.763824,57.274844
218.763826,57.274845
218.763828,57.274846
218.850321,57.327849
218.985344,57.410590
219.182890,57.579310
219.351610,57.776856
219.487356,57.998376
219.586772,58.238385
219.647421,58.491004
219.667804,58.750000
221.501700,58.750000
221.501700,50.000000
220.007810,50.000000
219.987397,50.285427
219.926569,50.565048
219.826567,50.833161
219.689429,51.084311
219.689426,51.084315
219.517939,51.313395
219.517935,51.313399
219.517932,51.313403
219.315604,51.515731
219.315601,51.515733
219.315595,51.515739
219.086515,51.687226
219.086512,51.687228
218.975112,51.748057
218.835361,51.824367
218.567246,51.924369
218.287628,51.985196
218.287629,51.985196
218.268578,51.986558
218.002200,52.005610
217.716772,51.985196
217.437154,51.924369
217.169039,51.824367
216.917885,51.687226
216.688805,51.515739
216.486461,51.313395
216.314974,51.084315
216.177833,50.833161
216.077831,50.565046
216.017004,50.285428
215.996590,50.000000
216.017004,49.714572
216.077831,49.434954
216.177833,49.166839
216.314974,48.915685
216.486461,48.686605
216.486467,48.686599
216.486469,48.686596
216.688797,48.484268
216.688801,48.484265
216.688805,48.484261
216.917885,48.312774
216.917889,48.312771
217.169039,48.175633
217.437152,48.075631
217.716775,48.014803
217.716772,48.014803
218.002200,47.994390
218.287628,48.014803
218.567249,48.075631
218.835362,48.175633
219.086512,48.312771
219.315604,48.484268
219.517932,48.686596
219.517938,48.686603
219.517939,48.686605
219.551382,48.731280
219.689429,48.915688
219.826567,49.166838
219.926569,49.434951
219.987397,49.714572
220.007810,50.000000
221.501700,50.000000
221.501700,46.699500
221.481993,46.613157
221.426774,46.543916
221.346982,46.505489
221.302700,46.500500
112.701700,46.500500
Z" /> 
<path style="fill:none; 
stroke:#FFFFFF; stroke-width:0.200000; stroke-opacity:1; 
stroke-linecap:round; stroke-linejoin:round;fill:none"
d="M 222.002200,46.000000
112.002200,46.000000
112.002200,71.000000
222.002200,71.000000
Z" /> 
</g>
<g style="fill:#FFFFFF; fill-opacity:1.000000; stroke:none;">
<circle cx="218.002200" cy="50.000000" r="1.550000" /> 
<circle cx="116.002200" cy="50.000000" r="1.550000" /> 
</g> 
</svg>
