<?xml version="1.0" standalone="no"?>
 <!DOCTYPE svg PUBLIC "-//W3C//DTD SVG 1.1//EN" 
 "http://www.w3.org/Graphics/SVG/1.1/DTD/svg11.dtd"> 
<svg
  xmlns:svg="http://www.w3.org/2000/svg"
  xmlns="http://www.w3.org/2000/svg"
  xmlns:xlink="http://www.w3.org/1999/xlink"
  version="1.1"
  width="297.002200mm" height="210.007200mm" viewBox="0.000000 0.000000 297.002200 210.007200">
<title>SVG Image created as Photoresistor-array-F_Cu.svg date 2024/04/25 14:01:04 </title>
  <desc>Image generated by PCBNEW </desc>
<g style="fill:#000000; fill-opacity:1.000000;stroke:#000000; stroke-opacity:1.000000;
stroke-linecap:round; stroke-linejoin:round;"
 transform="translate(0 0) scale(1 1)">
</g>
<g style="fill:none; 
stroke:#000000; stroke-width:0.500000; stroke-opacity:1; 
stroke-linecap:round; stroke-linejoin:round;">
<text x="121.002200" y="57.950280"
transform="scale(-1 1) translate(-242.004400 0)"
textLength="6.000000" font-size="3.333333" lengthAdjust="spacingAndGlyphs"
text-anchor="middle" opacity="0">PP</text>
<g class="stroked-text"><desc>PP</desc>
<path d="M122.906962 57.618327
L122.906962 55.118327
" />
<path d="M122.906962 55.118327
L121.954581 55.118327
" />
<path d="M121.954581 55.118327
L121.716486 55.237375
" />
<path d="M121.716486 55.237375
L121.597439 55.356422
" />
<path d="M121.597439 55.356422
L121.478391 55.594518
" />
<path d="M121.478391 55.594518
L121.478391 55.951660
" />
<path d="M121.478391 55.951660
L121.597439 56.189756
" />
<path d="M121.597439 56.189756
L121.716486 56.308803
" />
<path d="M121.716486 56.308803
L121.954581 56.427851
" />
<path d="M121.954581 56.427851
L122.906962 56.427851
" />
<path d="M120.406962 57.618327
L120.406962 55.118327
" />
<path d="M120.406962 55.118327
L119.454581 55.118327
" />
<path d="M119.454581 55.118327
L119.216486 55.237375
" />
<path d="M119.216486 55.237375
L119.097439 55.356422
" />
<path d="M119.097439 55.356422
L118.978391 55.594518
" />
<path d="M118.978391 55.594518
L118.978391 55.951660
" />
<path d="M118.978391 55.951660
L119.097439 56.189756
" />
<path d="M119.097439 56.189756
L119.216486 56.308803
" />
<path d="M119.216486 56.308803
L119.454581 56.427851
" />
<path d="M119.454581 56.427851
L120.406962 56.427851
" />
</g><text x="121.002200" y="61.975140"
transform="scale(-1 1) translate(-242.004400 0)"
textLength="8.142857" font-size="3.333333" lengthAdjust="spacingAndGlyphs"
text-anchor="middle" opacity="0">WIIT</text>
<g class="stroked-text"><desc>WIIT</desc>
<path d="M124.216486 59.143187
L123.621248 61.643187
" />
<path d="M123.621248 61.643187
L123.145057 59.857473
" />
<path d="M123.145057 59.857473
L122.668867 61.643187
" />
<path d="M122.668867 61.643187
L122.073628 59.143187
" />
<path d="M121.121247 61.643187
L121.121247 59.143187
" />
<path d="M119.930771 61.643187
L119.930771 59.143187
" />
<path d="M119.097438 59.143187
L117.668867 59.143187
" />
<path d="M118.383153 61.643187
L118.383153 59.143187
" />
</g><text x="121.002200" y="66.000000"
transform="scale(-1 1) translate(-242.004400 0)"
textLength="10.523808" font-size="3.333333" lengthAdjust="spacingAndGlyphs"
text-anchor="middle" opacity="0">2024</text>
<g class="stroked-text"><desc>2024</desc>
<path d="M125.287914 63.406142
L125.168866 63.287095
" />
<path d="M125.168866 63.287095
L124.930771 63.168047
" />
<path d="M124.930771 63.168047
L124.335533 63.168047
" />
<path d="M124.335533 63.168047
L124.097438 63.287095
" />
<path d="M124.097438 63.287095
L123.978390 63.406142
" />
<path d="M123.978390 63.406142
L123.859343 63.644238
" />
<path d="M123.859343 63.644238
L123.859343 63.882333
" />
<path d="M123.859343 63.882333
L123.978390 64.239476
" />
<path d="M123.978390 64.239476
L125.406962 65.668047
" />
<path d="M125.406962 65.668047
L123.859343 65.668047
" />
<path d="M122.311724 63.168047
L122.073629 63.168047
" />
<path d="M122.073629 63.168047
L121.835533 63.287095
" />
<path d="M121.835533 63.287095
L121.716486 63.406142
" />
<path d="M121.716486 63.406142
L121.597438 63.644238
" />
<path d="M121.597438 63.644238
L121.478391 64.120428
" />
<path d="M121.478391 64.120428
L121.478391 64.715666
" />
<path d="M121.478391 64.715666
L121.597438 65.191857
" />
<path d="M121.597438 65.191857
L121.716486 65.429952
" />
<path d="M121.716486 65.429952
L121.835533 65.549000
" />
<path d="M121.835533 65.549000
L122.073629 65.668047
" />
<path d="M122.073629 65.668047
L122.311724 65.668047
" />
<path d="M122.311724 65.668047
L122.549819 65.549000
" />
<path d="M122.549819 65.549000
L122.668867 65.429952
" />
<path d="M122.668867 65.429952
L122.787914 65.191857
" />
<path d="M122.787914 65.191857
L122.906962 64.715666
" />
<path d="M122.906962 64.715666
L122.906962 64.120428
" />
<path d="M122.906962 64.120428
L122.787914 63.644238
" />
<path d="M122.787914 63.644238
L122.668867 63.406142
" />
<path d="M122.668867 63.406142
L122.549819 63.287095
" />
<path d="M122.549819 63.287095
L122.311724 63.168047
" />
<path d="M120.526010 63.406142
L120.406962 63.287095
" />
<path d="M120.406962 63.287095
L120.168867 63.168047
" />
<path d="M120.168867 63.168047
L119.573629 63.168047
" />
<path d="M119.573629 63.168047
L119.335534 63.287095
" />
<path d="M119.335534 63.287095
L119.216486 63.406142
" />
<path d="M119.216486 63.406142
L119.097439 63.644238
" />
<path d="M119.097439 63.644238
L119.097439 63.882333
" />
<path d="M119.097439 63.882333
L119.216486 64.239476
" />
<path d="M119.216486 64.239476
L120.645058 65.668047
" />
<path d="M120.645058 65.668047
L119.097439 65.668047
" />
<path d="M116.954582 64.001380
L116.954582 65.668047
" />
<path d="M117.549820 63.049000
L118.145058 64.834714
" />
<path d="M118.145058 64.834714
L116.597439 64.834714
" />
</g></g>
<g style="fill:#000000; fill-opacity:1.000000; stroke:none;">
<circle cx="127.592200" cy="58.000000" r="0.850000" /> 
</g>
<g style="fill:#000000; fill-opacity:1.000000; stroke:none;">
<circle cx="137.752200" cy="58.000000" r="0.850000" /> 
</g>
<g style="fill:#000000; fill-opacity:1.000000; stroke:none;">
<circle cx="187.827200" cy="54.950000" r="0.850000" /> 
</g>
<g style="fill:#000000; fill-opacity:1.000000; stroke:none;">
<circle cx="187.827200" cy="51.550000" r="0.850000" /> 
</g>
<g style="fill:#000000; fill-opacity:1.000000; stroke:none;">
<circle cx="182.672200" cy="58.000000" r="0.850000" /> 
</g>
<g style="fill:#000000; fill-opacity:1.000000; stroke:none;">
<circle cx="192.832200" cy="58.000000" r="0.850000" /> 
</g>
<g style="fill:#000000; fill-opacity:1.000000; stroke:none;">
<circle cx="132.852200" cy="54.950000" r="0.850000" /> 
</g>
<g style="fill:#000000; fill-opacity:1.000000; stroke:none;">
<circle cx="132.852200" cy="51.550000" r="0.850000" /> 
</g>
<g style="fill:#000000; fill-opacity:1.000000; stroke:none;">
<circle cx="164.342200" cy="58.000000" r="0.850000" /> 
</g>
<g style="fill:#000000; fill-opacity:1.000000; stroke:none;">
<circle cx="174.502200" cy="58.000000" r="0.850000" /> 
</g>
<g style="fill:#000000; fill-opacity:1.000000; stroke:none;">
<circle cx="146.092200" cy="58.000000" r="0.850000" /> 
</g>
<g style="fill:#000000; fill-opacity:1.000000; stroke:none;">
<circle cx="156.252200" cy="58.000000" r="0.850000" /> 
</g>
<g style="fill:#000000; fill-opacity:1.000000; stroke:none;">
<circle cx="169.502200" cy="54.950000" r="0.850000" /> 
</g>
<g style="fill:#000000; fill-opacity:1.000000; stroke:none;">
<circle cx="169.502200" cy="51.550000" r="0.850000" /> 
</g>
<g style="fill:#000000; fill-opacity:1.000000; stroke:none;">
<circle cx="151.177200" cy="54.950000" r="0.850000" /> 
</g>
<g style="fill:#000000; fill-opacity:1.000000; stroke:none;">
<circle cx="151.177200" cy="51.550000" r="0.850000" /> 
<path style="fill:#000000; fill-opacity:1.000000; stroke:none;fill-rule:evenodd;"
d="M 209.542200,59.600000
211.242200,59.600000
211.242200,57.900000
209.542200,57.900000
Z" /> 
</g>
<g style="fill:#000000; fill-opacity:1.000000; stroke:none;">
<circle cx="212.932200" cy="58.750000" r="0.850000" /> 
<circle cx="215.472200" cy="58.750000" r="0.850000" /> 
<circle cx="218.012200" cy="58.750000" r="0.850000" /> 
<path style="fill:#000000; fill-opacity:1.000000; stroke:none;fill-rule:evenodd;"
d="M 209.332200,51.375000
209.332200,53.075000
211.032200,53.075000
211.032200,51.375000
Z" /> 
<circle cx="210.182200" cy="54.765000" r="0.850000" /> 
</g>
<g style="fill:none; 
stroke:#000000; stroke-width:1.000000; stroke-opacity:1; 
stroke-linecap:round; stroke-linejoin:round;">
<path d="M192.832200 58.000000
L208.813773 58.000000
" />
<path d="M210.227987 58.585787
L210.392200 58.750000
" />
<path d="M192.832200 58.000000
L191.705627 58.000000
" />
<path d="M190.291413 57.414213
L187.827200 54.950000
" />
<path d="M190.291413 57.414213 A1.999981 1.999981 0.0 0 0 191.705627 57.999981" />
<path d="M210.228001 58.585773 A2.000000 2.000000 0.0 0 0 208.813773 58.000000" />
<path d="M212.932200 60.000000
L212.559695 60.372505
" />
<path d="M174.502200 58.000000
L174.209054 58.000000
" />
<path d="M212.932200 58.750000
L212.932200 60.000000
" />
<path d="M176.874704 60.372504
L174.502200 58.000000
" />
<path d="M211.145482 60.958291
L178.288918 60.958291
" />
<path d="M171.380627 56.828427
L169.502200 54.950000
" />
<path d="M176.874704 60.372504 A1.999981 1.999981 0.0 0 0 178.288918 60.958281" />
<path d="M211.145482 60.958281 A1.999981 1.999981 0.0 0 0 212.559695 60.372505" />
<path d="M171.380627 56.828427 A4.000032 4.000032 0.0 0 0 174.209054 58.000032" />
<path d="M214.694628 62.307572
L214.886414 62.115786
" />
<path d="M156.173097 57.970897
L161.095558 62.893358
" />
<path d="M215.472200 60.701573
L215.472200 58.750000
" />
<path d="M155.402200 57.970897
L156.173097 57.970897
" />
<path d="M153.055627 56.828427
L151.177200 54.950000
" />
<path d="M162.509772 63.479145
L211.866201 63.479145
" />
<path d="M156.252200 58.000000
L155.884054 58.000000
" />
<path d="M211.866201 63.479145 A4.000045 4.000045 0.0 0 0 214.694637 62.307581" />
<path d="M161.095558 62.893358 A2.000052 2.000052 0.0 0 0 162.509772 63.479152" />
<path d="M153.055627 56.828427 A4.000032 4.000032 0.0 0 0 155.884054 58.000032" />
<path d="M214.886428 62.115800 A2.000000 2.000000 0.0 0 0 215.472200 60.701573" />
<path d="M218.002200 62.000000
L218.002200 61.810000
" />
<path d="M134.730627 56.828427
L132.852200 54.950000
" />
<path d="M218.012200 58.750000
L218.012200 61.800000
" />
<path d="M137.752200 58.000000
L145.166413 65.414213
" />
<path d="M218.002200 61.810000
L218.012200 61.800000
" />
<path d="M218.012200 61.800000
L218.012200 62.171573
" />
<path d="M146.580627 66.000000
L214.002200 66.000000
" />
<path d="M137.752200 58.000000
L137.559054 58.000000
" />
<path d="M134.730627 56.828427 A4.000032 4.000032 0.0 0 0 137.559054 58.000032" />
<path d="M145.166413 65.414213 A1.999981 1.999981 0.0 0 0 146.580627 65.999981" />
<path d="M214.002200 66.000000 A4.000000 4.000000 0.0 0 0 218.002200 62.000000" />
<path d="M151.202200 50.000000
L151.202200 51.525000
" />
<path d="M169.502200 50.100000
L169.602200 50.000000
" />
<path d="M133.816413 50.585787
L132.852200 51.550000
" />
<path d="M152.002200 50.000000
L151.202200 50.000000
" />
<path d="M207.002200 51.000000
L206.587986 50.585786
" />
<path d="M191.002200 50.000000
L187.802200 50.000000
" />
<path d="M207.641413 51.639213
L207.002200 51.000000
" />
<path d="M187.827200 50.025000
L187.802200 50.000000
" />
<path d="M187.802200 50.000000
L171.002200 50.000000
" />
<path d="M151.202200 51.525000
L151.177200 51.550000
" />
<path d="M205.173773 50.000000
L191.002200 50.000000
" />
<path d="M210.182200 52.225000
L209.055627 52.225000
" />
<path d="M151.202200 50.000000
L135.230627 50.000000
" />
<path d="M152.727200 50.000000
L153.002200 50.000000
" />
<path d="M169.602200 50.000000
L153.002200 50.000000
" />
<path d="M153.002200 50.000000
L152.002200 50.000000
" />
<path d="M171.002200 50.000000
L169.602200 50.000000
" />
<path d="M187.827200 51.550000
L187.827200 50.025000
" />
<path d="M169.502200 51.550000
L169.502200 50.100000
" />
<path d="M206.588000 50.585772 A2.000000 2.000000 0.0 0 0 205.173773 50.000000" />
<path d="M135.230627 50.000000 A2.000000 2.000000 0.0 0 0 133.816399 50.585773" />
<path d="M207.641413 51.639213 A1.999981 1.999981 0.0 0 0 209.055627 52.224981" />
</g>
<g style="fill:none; 
stroke:#000000; stroke-width:0.700000; stroke-opacity:1; 
stroke-linecap:round; stroke-linejoin:round;">
<path d="M190.402200 53.249999
L185.202200 53.249999
" />
</g>
<g style="fill:none; 
stroke:#000000; stroke-width:1.000000; stroke-opacity:1; 
stroke-linecap:round; stroke-linejoin:round;">
<path d="M146.092200 58.000000
L141.347200 53.255000
" />
<path d="M177.202200 53.249999
L185.202200 53.249999
" />
<path d="M127.592200 58.000000
L127.592200 56.688426
" />
<path d="M128.177987 55.274212
L129.616414 53.835785
" />
</g>
<g style="fill:none; 
stroke:#000000; stroke-width:0.700000; stroke-opacity:1; 
stroke-linecap:round; stroke-linejoin:round;">
<path d="M135.402200 53.249999
L131.030627 53.249999
" />
</g>
<g style="fill:none; 
stroke:#000000; stroke-width:1.000000; stroke-opacity:1; 
stroke-linecap:round; stroke-linejoin:round;">
<path d="M177.922199 53.249999
L177.202200 53.249999
" />
<path d="M172.002200 53.249999
L177.202200 53.249999
" />
<path d="M210.182200 54.765000
L197.195627 54.765000
" />
<path d="M141.347200 53.255000
L148.597199 53.255000
" />
<path d="M182.672200 58.000000
L177.922199 53.249999
" />
<path d="M164.342200 58.000000
L159.592199 53.249999
" />
<path d="M148.597199 53.255000
L148.602200 53.249999
" />
<path d="M159.592199 53.249999
L166.802200 53.249999
" />
<path d="M194.023772 53.249999
L190.402200 53.249999
" />
<path d="M159.592199 53.249999
L153.802200 53.249999
" />
</g>
<g style="fill:none; 
stroke:#000000; stroke-width:0.700000; stroke-opacity:1; 
stroke-linecap:round; stroke-linejoin:round;">
<path d="M153.802200 53.249999
L148.602200 53.249999
" />
</g>
<g style="fill:none; 
stroke:#000000; stroke-width:1.000000; stroke-opacity:1; 
stroke-linecap:round; stroke-linejoin:round;">
<path d="M195.781413 54.179213
L195.437985 53.835785
" />
<path d="M141.347200 53.255000
L135.407201 53.255000
" />
<path d="M135.407201 53.255000
L135.402200 53.249999
" />
</g>
<g style="fill:none; 
stroke:#000000; stroke-width:0.700000; stroke-opacity:1; 
stroke-linecap:round; stroke-linejoin:round;">
<path d="M172.002200 53.249999
L166.802200 53.249999
" />
</g>
<g style="fill:none; 
stroke:#000000; stroke-width:1.000000; stroke-opacity:1; 
stroke-linecap:round; stroke-linejoin:round;">
<path d="M128.177987 55.274212 A1.999982 1.999982 0.0 0 0 127.592218 56.688426" />
<path d="M195.781413 54.179213 A1.999981 1.999981 0.0 0 0 197.195627 54.764981" />
<path d="M195.437985 53.835785 A1.999981 1.999981 0.0 0 0 194.023772 53.250019" />
</g>
<g style="fill:none; 
stroke:#000000; stroke-width:0.700000; stroke-opacity:1; 
stroke-linecap:round; stroke-linejoin:round;">
<path d="M131.030627 53.249999 A2.000001 2.000001 0.0 0 0 129.616400 53.835771" />
<path style="fill:#000000; fill-opacity:1.000000; stroke:none;fill-rule:evenodd;"
d="M 135.358177,51.500501
135.348707,51.500500
135.348699,51.500502
135.242835,51.500500
135.218433,51.501698
135.157562,51.507693
135.109696,51.517213
135.062922,51.531401
135.017828,51.550080
134.974728,51.573117
134.934144,51.600234
134.887013,51.638912
134.868903,51.655324
134.734221,51.790006
134.680245,51.870788
134.666982,51.913146
134.632279,52.072671
134.632278,52.072676
134.632277,52.072678
134.539774,52.320689
134.412916,52.553011
134.254287,52.764915
134.067115,52.952087
133.966810,53.027174
133.935429,53.050666
133.870506,53.122943
133.838184,53.214564
133.843385,53.311580
133.885316,53.399221
133.935429,53.449334
134.067115,53.547913
134.254287,53.735085
134.388743,53.914698
134.412916,53.946989
134.412920,53.946995
134.539773,54.179308
134.539775,54.179312
134.632277,54.427323
134.632280,54.427332
134.666982,54.586852
134.705758,54.675934
134.734221,54.709991
135.704768,55.680538
135.704767,55.680539
135.708140,55.683912
135.708147,55.683918
135.744915,55.720687
135.786704,55.762477
135.796853,55.772072
135.990218,55.944876
136.012049,55.962285
136.217854,56.108314
136.241497,56.123170
136.462332,56.245224
136.487490,56.257340
136.715710,56.351874
136.810998,56.370829
136.906286,56.351876
136.930331,56.340372
136.981513,56.312425
137.053023,56.285753
137.229522,56.219923
137.431907,56.175897
137.488173,56.163657
137.752200,56.144773
138.016228,56.163657
138.128760,56.188137
138.274878,56.219923
138.342713,56.245224
138.522888,56.312425
138.522892,56.312427
138.755205,56.439280
138.755211,56.439284
138.967115,56.597913
139.154287,56.785085
139.289785,56.966090
139.312916,56.996989
139.312920,56.996995
139.439773,57.229308
139.439775,57.229312
139.532277,57.477323
139.532280,57.477331
139.566981,57.636850
139.605757,57.725931
139.634220,57.759990
146.218761,64.344533
146.236870,64.360945
146.284153,64.399748
146.324735,64.426864
146.367830,64.449899
146.412931,64.468580
146.459695,64.482765
146.507571,64.492287
146.543121,64.495788
146.568636,64.498301
146.593039,64.499499
146.688722,64.499498
146.698699,64.499498
146.698700,64.499498
146.708177,64.499498
146.708229,64.499500
159.978535,64.499500
160.073823,64.480546
160.154605,64.426570
160.208581,64.345788
160.227535,64.250500
160.208581,64.155212
160.154611,64.074436
160.126652,64.046476
160.118051,64.037876
160.118048,64.037875
160.081344,64.001171
160.034550,63.954378
159.951046,63.870875
159.951046,63.870874
159.941073,63.860902
159.941050,63.860875
155.948291,59.868116
155.867512,59.814143
155.825160,59.800881
155.729522,59.780077
155.481511,59.687574
155.249189,59.560716
155.142371,59.480751
155.054734,59.438822
155.032113,59.434154
154.810114,59.398992
154.810112,59.398991
154.810109,59.398991
154.389849,59.298091
154.389840,59.298088
154.389826,59.298085
153.978752,59.164514
153.615450,59.014026
153.579438,58.999109
153.579436,58.999107
153.579424,58.999103
153.194305,58.802870
152.825769,58.577027
152.476089,58.322964
152.147420,58.042250
152.105171,58.000000
147.447357,58.000000
147.426771,58.235308
147.426769,58.235319
147.365632,58.463489
147.265799,58.677581
147.265796,58.677586
147.207128,58.761372
147.207127,58.761372
146.575163,58.129408
146.558125,58.192993
146.492299,58.307007
146.399207,58.400099
146.285193,58.465925
146.221611,58.482962
146.853574,59.114925
146.853574,59.114926
146.769780,59.173599
146.555690,59.273431
146.327520,59.334568
146.327509,59.334570
146.092206,59.355157
146.092194,59.355157
145.856892,59.334570
145.856881,59.334568
145.628711,59.273431
145.414620,59.173598
145.330828,59.114926
145.962792,58.482962
145.899207,58.465925
145.785193,58.400099
145.692101,58.307007
145.626275,58.192993
145.609238,58.129408
144.977274,58.761372
144.918602,58.677580
144.818769,58.463489
144.757632,58.235319
144.757630,58.235308
144.737043,58.000000
144.737043,57.999994
144.757630,57.764691
144.757632,57.764680
144.818771,57.536505
144.918596,57.322430
144.918603,57.322419
144.977275,57.238626
145.609238,57.870589
145.626275,57.807007
145.692101,57.692993
145.785193,57.599901
145.899207,57.534075
145.962792,57.517037
145.330828,56.885073
145.330828,56.885072
145.414614,56.826404
145.414619,56.826401
145.628711,56.726568
145.856881,56.665431
145.856892,56.665429
146.092194,56.644843
146.092206,56.644843
146.327509,56.665429
146.327520,56.665431
146.555695,56.726570
146.769775,56.826397
146.769776,56.826398
146.853574,56.885072
146.221609,57.517037
146.285193,57.534075
146.399207,57.599901
146.492299,57.692993
146.558125,57.807007
146.575163,57.870591
147.207128,57.238626
147.265802,57.322424
147.265803,57.322425
147.365630,57.536505
147.426769,57.764680
147.426771,57.764691
147.447357,57.999994
147.447357,58.000000
152.105171,58.000000
151.994605,57.889432
151.957978,57.852805
150.937194,56.832019
150.856412,56.778043
150.814058,56.764781
150.654522,56.730077
150.406511,56.637574
150.174189,56.510716
149.962285,56.352087
149.775113,56.164915
149.616484,55.953011
149.489626,55.720689
149.397123,55.472678
149.340857,55.214026
149.321973,54.950000
149.340857,54.685974
149.397123,54.427322
149.489626,54.179311
149.616484,53.946989
149.775113,53.735085
149.962285,53.547913
150.093973,53.449332
150.158894,53.377057
150.191217,53.285437
150.186016,53.188421
150.144086,53.100780
150.093974,53.050667
149.962285,52.952087
149.775113,52.764915
149.616484,52.553011
149.489626,52.320689
149.397123,52.072678
149.340857,51.814026
149.334972,51.731732
149.309268,51.638043
149.249666,51.561318
149.165240,51.513242
149.086606,51.500500
135.358229,51.500500
Z" /> 
<path style="fill:#000000; fill-opacity:1.000000; stroke:none;fill-rule:evenodd;"
d="M 153.172506,51.519454
153.091724,51.573430
153.037748,51.654212
153.019429,51.731732
153.015261,51.790006
153.013543,51.814027
153.011293,51.824368
152.957277,52.072678
152.864774,52.320689
152.737916,52.553011
152.579287,52.764915
152.392115,52.952087
152.291810,53.027174
152.260429,53.050666
152.195506,53.122943
152.163184,53.214564
152.168385,53.311580
152.210316,53.399221
152.260429,53.449334
152.392115,53.547913
152.579287,53.735085
152.713743,53.914698
152.737916,53.946989
152.737920,53.946995
152.864773,54.179308
152.864775,54.179312
152.957277,54.427323
152.957280,54.427332
152.991982,54.586852
153.030758,54.675934
153.059221,54.709991
154.029768,55.680538
154.029767,55.680539
154.033140,55.683912
154.033147,55.683918
154.069915,55.720687
154.111704,55.762477
154.121853,55.772072
154.315218,55.944876
154.337049,55.962285
154.542854,56.108314
154.566497,56.123170
154.787332,56.245224
154.812490,56.257340
155.045612,56.353905
155.071969,56.363128
155.180882,56.394506
155.277693,56.402673
155.369147,56.373781
155.481513,56.312425
155.553023,56.285753
155.729522,56.219923
155.931907,56.175897
155.988173,56.163657
156.252200,56.144773
156.516228,56.163657
156.628760,56.188137
156.774878,56.219923
156.842713,56.245224
157.022888,56.312425
157.022892,56.312427
157.255205,56.439280
157.255211,56.439284
157.467115,56.597913
157.654287,56.785085
157.789785,56.966090
157.812916,56.996989
157.812920,56.996995
157.939773,57.229308
157.939775,57.229312
158.032278,57.477323
158.032279,57.477328
158.080882,57.700752
158.119658,57.789833
158.148121,57.823892
162.073061,61.748834
162.073064,61.748836
162.147925,61.823695
162.166028,61.840102
162.213307,61.878903
162.253894,61.906023
162.296999,61.929063
162.342098,61.947743
162.388875,61.961932
162.436738,61.971453
162.497555,61.977445
162.521970,61.978645
175.757680,61.978645
175.852968,61.959691
175.933750,61.905715
175.987726,61.824933
176.006680,61.729645
175.987726,61.634357
175.933756,61.553581
175.905797,61.525622
175.897197,61.517022
175.897194,61.517021
175.813694,61.433520
175.813693,61.433521
175.730189,61.350017
175.730187,61.350013
174.262191,59.882016
174.181412,59.828043
174.139058,59.814781
173.979522,59.780077
173.731511,59.687574
173.499189,59.560716
173.372243,59.465685
173.284604,59.423755
173.261982,59.419086
173.135114,59.398992
173.135112,59.398991
173.135109,59.398991
172.714849,59.298091
172.714840,59.298088
172.714826,59.298085
172.303752,59.164514
171.940450,59.014026
171.904438,58.999109
171.904436,58.999107
171.904424,58.999103
171.519305,58.802870
171.150769,58.577027
170.801089,58.322964
170.472420,58.042250
170.430171,58.000000
165.697357,58.000000
165.676771,58.235308
165.676769,58.235319
165.615632,58.463489
165.515799,58.677581
165.515796,58.677586
165.457128,58.761372
165.457127,58.761372
164.825163,58.129408
164.808125,58.192993
164.742299,58.307007
164.649207,58.400099
164.535193,58.465925
164.471611,58.482962
165.103574,59.114925
165.103574,59.114926
165.019780,59.173599
164.805690,59.273431
164.577520,59.334568
164.577509,59.334570
164.342206,59.355157
164.342194,59.355157
164.106892,59.334570
164.106881,59.334568
163.878711,59.273431
163.664620,59.173598
163.580828,59.114926
164.212792,58.482962
164.149207,58.465925
164.035193,58.400099
163.942101,58.307007
163.876275,58.192993
163.859238,58.129408
163.227274,58.761372
163.168602,58.677580
163.068769,58.463489
163.007632,58.235319
163.007630,58.235308
162.987043,58.000000
162.987043,57.999994
163.007630,57.764691
163.007632,57.764680
163.068771,57.536505
163.168596,57.322430
163.168603,57.322419
163.227275,57.238626
163.859238,57.870589
163.876275,57.807007
163.942101,57.692993
164.035193,57.599901
164.149207,57.534075
164.212792,57.517037
163.580828,56.885073
163.580828,56.885072
163.664614,56.826404
163.664619,56.826401
163.878711,56.726568
164.106881,56.665431
164.106892,56.665429
164.342194,56.644843
164.342206,56.644843
164.577509,56.665429
164.577520,56.665431
164.805695,56.726570
165.019775,56.826397
165.019776,56.826398
165.103574,56.885072
164.471609,57.517037
164.535193,57.534075
164.649207,57.599901
164.742299,57.692993
164.808125,57.807007
164.825163,57.870591
165.457128,57.238626
165.515802,57.322424
165.515803,57.322425
165.615630,57.536505
165.676769,57.764680
165.676771,57.764691
165.697357,57.999994
165.697357,58.000000
170.430171,58.000000
170.319605,57.889432
170.282978,57.852805
169.262194,56.832019
169.181412,56.778043
169.139058,56.764781
168.979522,56.730077
168.731511,56.637574
168.499189,56.510716
168.287285,56.352087
168.100113,56.164915
167.941484,55.953011
167.814626,55.720689
167.722123,55.472678
167.665857,55.214026
167.646973,54.950000
167.665857,54.685974
167.722123,54.427322
167.814626,54.179311
167.941484,53.946989
168.100113,53.735085
168.287285,53.547913
168.418973,53.449332
168.483894,53.377057
168.516217,53.285437
168.511016,53.188421
168.469086,53.100780
168.418974,53.050667
168.287285,52.952087
168.100113,52.764915
167.941484,52.553011
167.814626,52.320689
167.722123,52.072678
167.665857,51.814026
167.659972,51.731732
167.634268,51.638043
167.574666,51.561318
167.490240,51.513242
167.411606,51.500500
153.267794,51.500500
Z" /> 
<path style="fill:#000000; fill-opacity:1.000000; stroke:none;fill-rule:evenodd;"
d="M 171.497506,51.519454
171.416724,51.573430
171.362748,51.654212
171.344429,51.731732
171.340261,51.790006
171.338543,51.814027
171.336293,51.824368
171.282277,52.072678
171.189774,52.320689
171.062916,52.553011
170.904287,52.764915
170.717115,52.952087
170.616810,53.027174
170.585429,53.050666
170.520506,53.122943
170.488184,53.214564
170.493385,53.311580
170.535316,53.399221
170.585429,53.449334
170.717115,53.547913
170.904287,53.735085
171.038743,53.914698
171.062916,53.946989
171.062920,53.946995
171.189773,54.179308
171.189775,54.179312
171.282277,54.427323
171.282280,54.427332
171.316982,54.586852
171.355758,54.675934
171.384221,54.709991
172.354768,55.680538
172.354767,55.680539
172.358140,55.683912
172.358147,55.683918
172.394915,55.720687
172.436704,55.762477
172.446853,55.772072
172.640218,55.944876
172.662049,55.962285
172.867854,56.108314
172.891497,56.123170
173.112332,56.245224
173.137489,56.257340
173.347985,56.344533
173.368881,56.353189
173.370610,56.353905
173.396968,56.363128
173.456785,56.380362
173.553595,56.388529
173.645052,56.359636
173.731509,56.312427
173.731513,56.312425
173.803023,56.285753
173.979522,56.219923
174.181907,56.175897
174.238173,56.163657
174.502200,56.144773
174.766228,56.163657
174.878760,56.188137
175.024878,56.219923
175.092713,56.245224
175.272888,56.312425
175.272892,56.312427
175.505205,56.439280
175.505211,56.439284
175.717115,56.597913
175.904287,56.785085
176.039785,56.966090
176.062916,56.996989
176.062920,56.996995
176.189773,57.229308
176.189775,57.229312
176.282277,57.477323
176.282280,57.477332
176.316982,57.636852
176.355758,57.725934
176.384221,57.759991
177.852210,59.227982
177.852213,59.227985
177.927073,59.302843
177.945177,59.319252
177.992447,59.358045
178.033037,59.385165
178.076133,59.408199
178.121221,59.426875
178.167990,59.441063
178.215874,59.450587
178.276846,59.456591
178.301247,59.457790
178.417269,59.457790
178.417293,59.457791
181.669088,59.457791
181.764376,59.438837
181.845158,59.384861
181.899134,59.304079
181.918088,59.208791
181.917140,59.187089
181.910827,59.114927
182.542792,58.482962
182.479207,58.465925
182.365193,58.400099
182.272101,58.307007
182.206275,58.192993
182.189238,58.129408
181.557274,58.761372
181.498602,58.677580
181.398769,58.463489
181.337632,58.235319
181.337630,58.235308
181.317043,58.000000
181.317043,57.999994
181.337630,57.764691
181.337632,57.764680
181.398771,57.536505
181.498596,57.322430
181.498603,57.322419
181.557275,57.238626
182.189238,57.870589
182.206275,57.807007
182.272101,57.692993
182.365193,57.599901
182.479207,57.534075
182.542792,57.517037
181.910828,56.885073
181.910828,56.885072
181.994614,56.826404
181.994619,56.826401
182.208711,56.726568
182.436881,56.665431
182.436892,56.665429
182.672194,56.644843
182.672206,56.644843
182.907509,56.665429
182.907520,56.665431
183.135695,56.726570
183.349775,56.826397
183.349776,56.826398
183.433574,56.885072
182.801609,57.517037
182.865193,57.534075
182.979207,57.599901
183.072299,57.692993
183.138125,57.807007
183.155163,57.870591
183.787128,57.238626
183.845802,57.322424
183.845803,57.322425
183.945630,57.536505
184.006769,57.764680
184.006771,57.764691
184.027357,57.999994
184.027357,58.000000
184.006771,58.235308
184.006769,58.235319
183.945632,58.463489
183.845799,58.677581
183.845796,58.677586
183.787128,58.761372
183.787127,58.761372
183.155163,58.129408
183.138125,58.192993
183.072299,58.307007
182.979207,58.400099
182.865193,58.465925
182.801611,58.482962
183.433575,59.114926
183.427261,59.187089
183.437838,59.283667
183.484568,59.368845
183.560338,59.429657
183.653611,59.456843
183.675313,59.457791
189.759013,59.457791
189.854301,59.438837
189.935083,59.384861
189.989059,59.304079
190.008013,59.208791
189.989059,59.113503
189.935083,59.032721
189.897348,59.001754
189.893380,58.999103
189.617880,58.815024
189.352011,58.596835
189.322600,58.567424
189.322588,58.567413
189.313909,58.558733
189.313903,58.558730
189.230409,58.475236
189.146905,58.391734
189.146903,58.391730
189.136927,58.381755
189.136913,58.381739
187.587191,56.832016
187.506412,56.778043
187.464058,56.764781
187.304522,56.730077
187.056511,56.637574
186.824189,56.510716
186.612285,56.352087
186.425113,56.164915
186.266484,55.953011
186.139626,55.720689
186.047123,55.472678
185.990857,55.214026
185.971973,54.950000
185.990857,54.685974
186.047123,54.427322
186.139626,54.179311
186.266484,53.946989
186.425113,53.735085
186.612285,53.547913
186.743973,53.449332
186.808894,53.377057
186.841217,53.285437
186.836016,53.188421
186.794086,53.100780
186.743974,53.050667
186.612285,52.952087
186.425113,52.764915
186.266484,52.553011
186.139626,52.320689
186.047123,52.072678
185.990857,51.814026
185.984972,51.731732
185.959268,51.638043
185.899666,51.561318
185.815240,51.513242
185.736606,51.500500
171.592794,51.500500
Z" /> 
<path style="fill:#000000; fill-opacity:1.000000; stroke:none;fill-rule:evenodd;"
d="M 112.656412,46.519454
112.575630,46.573430
112.521654,46.654212
112.502700,46.749500
112.502700,70.250500
112.521654,70.345788
112.575630,70.426570
112.656412,70.480546
112.751700,70.499500
221.252700,70.499500
221.347988,70.480546
221.428770,70.426570
221.482746,70.345788
221.501700,70.250500
221.501700,58.750000
219.867427,58.750000
219.848543,59.014026
219.792277,59.272678
219.745165,59.398991
219.699775,59.520687
219.699773,59.520691
219.572920,59.753004
219.572915,59.753012
219.562366,59.767104
219.520435,59.854745
219.512700,59.916325
219.512700,62.289668
219.482374,62.481144
219.480160,62.499530
219.465127,62.680940
219.465125,62.680961
219.390237,63.129742
219.390235,63.129752
219.350900,63.285082
219.278535,63.570847
219.130804,64.001171
218.948024,64.417869
218.731462,64.818038
218.482604,65.198943
218.482599,65.198951
218.203140,65.558001
218.203136,65.558006
218.203133,65.558009
217.894966,65.892766
217.894954,65.892777
217.894952,65.892779
217.560207,66.200935
217.560202,66.200939
217.201152,66.480398
217.201148,66.480400
217.201146,66.480402
216.820231,66.729266
216.420066,66.945825
216.003385,67.128598
216.003378,67.128600
216.003372,67.128603
215.573048,67.276334
215.573040,67.276336
215.573034,67.276338
215.131952,67.388035
214.683153,67.462926
214.647528,67.465877
214.229725,67.500499
214.229704,67.500499
214.229702,67.500500
214.229701,67.500500
146.452918,67.500500
146.452472,67.500482
146.408679,67.500483
146.066397,67.466775
145.729068,67.399681
145.399940,67.299845
145.082182,67.168230
144.869810,67.054716
144.778875,67.006113
144.778872,67.006110
144.778855,67.006102
144.492880,66.815024
144.227011,66.596835
144.197600,66.567424
144.197588,66.567413
144.188909,66.558733
144.188903,66.558730
144.105409,66.475236
144.021905,66.391734
144.021903,66.391730
144.011927,66.381755
144.011914,66.381739
137.512191,59.882017
137.431411,59.828043
137.389060,59.814781
137.229522,59.780077
136.981511,59.687574
136.749189,59.560716
136.595402,59.445591
136.507768,59.403664
136.489899,59.399978
136.489905,59.399945
136.485190,59.399007
136.485134,59.398995
136.485114,59.398992
136.064826,59.298085
135.653752,59.164514
135.290450,59.014026
135.254438,58.999109
135.254436,58.999107
135.254424,58.999103
134.869305,58.802870
134.500769,58.577027
134.151089,58.322964
133.822420,58.042250
133.780171,58.000000
128.947357,58.000000
128.926771,58.235308
128.926769,58.235319
128.865632,58.463489
128.765799,58.677581
128.765796,58.677586
128.707128,58.761372
128.707127,58.761372
128.075163,58.129408
128.058125,58.192993
127.992299,58.307007
127.899207,58.400099
127.785193,58.465925
127.721610,58.482962
128.353574,59.114926
128.269780,59.173599
128.055690,59.273431
127.827520,59.334568
127.827509,59.334570
127.592206,59.355157
127.592194,59.355157
127.356892,59.334570
127.356881,59.334568
127.128708,59.273430
127.016695,59.221197
126.922325,59.198104
126.826301,59.212883
126.743241,59.263284
126.685792,59.341634
126.662699,59.436004
126.662462,59.446867
126.662462,66.926431
126.662461,66.926431
115.341940,66.926431
115.341939,66.926431
115.341939,53.859943
126.662462,53.859943
126.662462,53.859944
126.662462,56.553132
126.681416,56.648420
126.735392,56.729202
126.816174,56.783178
126.911462,56.802132
127.006750,56.783178
127.016694,56.778803
127.128711,56.726568
127.356881,56.665431
127.356892,56.665429
127.592194,56.644843
127.592206,56.644843
127.827509,56.665429
127.827520,56.665431
128.055695,56.726570
128.269775,56.826397
128.269776,56.826398
128.353574,56.885073
127.721611,57.517037
127.785193,57.534075
127.899207,57.599901
127.992299,57.692993
128.058125,57.807007
128.075163,57.870591
128.707128,57.238626
128.765802,57.322424
128.765803,57.322425
128.865630,57.536505
128.926769,57.764680
128.926771,57.764691
128.947357,57.999994
128.947357,58.000000
133.780171,58.000000
133.669605,57.889432
133.632978,57.852805
132.612194,56.832019
132.531412,56.778043
132.489058,56.764781
132.329522,56.730077
132.081511,56.637574
131.849189,56.510716
131.637285,56.352087
131.450113,56.164915
131.291484,55.953011
131.164626,55.720689
131.072123,55.472678
131.015857,55.214026
130.996973,54.950000
131.015857,54.685974
131.072123,54.427322
131.164626,54.179311
131.291484,53.946989
131.450113,53.735085
131.637285,53.547913
131.768973,53.449332
131.833894,53.377057
131.866217,53.285437
131.861016,53.188421
131.819086,53.100780
131.768974,53.050667
131.637285,52.952087
131.450113,52.764915
131.291484,52.553011
131.164626,52.320689
131.072123,52.072678
131.015857,51.814026
130.996973,51.550000
131.015857,51.285974
131.072123,51.027322
131.164626,50.779311
131.291484,50.546989
131.450113,50.335085
131.637285,50.147913
131.834874,50.000000
118.007810,50.000000
117.987396,50.285428
117.926569,50.565046
117.896827,50.644788
117.826569,50.833158
117.734399,51.001954
117.689426,51.084315
117.517939,51.313395
117.315595,51.515739
117.086515,51.687226
117.005001,51.731736
116.835359,51.824368
116.793497,51.839981
116.567246,51.924369
116.287628,51.985196
116.002200,52.005610
115.716772,51.985196
115.437154,51.924369
115.169039,51.824367
114.917885,51.687226
114.688805,51.515739
114.486461,51.313395
114.314974,51.084315
114.177833,50.833161
114.077831,50.565046
114.017004,50.285428
113.996590,50.000000
114.017004,49.714572
114.077831,49.434954
114.171064,49.184987
114.177832,49.166841
114.272267,48.993897
114.314974,48.915685
114.486461,48.686605
114.688805,48.484261
114.852539,48.361691
114.917883,48.312775
115.169042,48.175631
115.314230,48.121479
115.437154,48.075631
115.437153,48.075631
115.716772,48.014804
116.002200,47.994390
116.287629,48.014804
116.567246,48.075631
116.835359,48.175631
117.086518,48.312775
117.250249,48.435343
117.315595,48.484261
117.315596,48.484262
117.517938,48.686604
117.517940,48.686607
117.689425,48.915682
117.826569,49.166841
117.926569,49.434954
117.977260,49.667979
117.987396,49.714572
118.007810,50.000000
131.834874,50.000000
131.849189,49.989284
132.081511,49.862426
132.081513,49.862425
132.329524,49.769922
132.329529,49.769921
132.489054,49.735218
132.578135,49.696442
132.612194,49.667979
132.664622,49.615551
132.664646,49.615525
132.682465,49.597706
132.682522,49.597621
132.876995,49.403152
133.142853,49.184972
133.142857,49.184969
133.142868,49.184960
133.428844,48.993881
133.732173,48.831752
133.732176,48.831751
133.732181,48.831748
134.049923,48.700140
134.049928,48.700138
134.049933,48.700136
134.049936,48.700135
134.049952,48.700129
134.379071,48.600297
134.716385,48.533206
134.716395,48.533204
135.058678,48.499497
135.230647,48.499500
205.300854,48.499500
205.301313,48.499517
205.345726,48.499517
205.688004,48.533225
205.688012,48.533226
206.025319,48.600316
206.025333,48.600319
206.354455,48.700153
206.672210,48.831766
206.672211,48.831766
206.975542,48.993896
206.975551,48.993901
207.234376,49.166839
207.261514,49.184972
207.261535,49.184987
207.527376,49.403152
207.527396,49.403169
207.560609,49.436382
207.560625,49.436396
207.560624,49.436397
207.565496,49.441269
207.623727,49.499500
207.648989,49.524762
207.732494,49.608264
207.732499,49.608269
207.737365,49.613136
207.737372,49.613143
207.737373,49.613142
207.979707,49.855478
207.979707,49.855479
208.571162,50.446934
208.651944,50.500910
208.747232,50.519864
208.842520,50.500910
208.862517,50.491568
208.959147,50.441093
208.959148,50.441092
208.959151,50.441091
209.154782,50.385114
209.274163,50.374500
209.274165,50.374500
211.090232,50.374500
211.090244,50.374501
211.209615,50.385113
211.405246,50.441090
211.405254,50.441093
211.585603,50.535299
211.585608,50.535302
211.743307,50.663889
211.743311,50.663893
211.871898,50.821592
211.871901,50.821597
211.966107,51.001946
211.966110,51.001954
212.022085,51.197578
212.022086,51.197582
212.032700,51.316963
212.032700,53.133031
212.032699,53.133043
212.022087,53.252414
212.022087,53.252417
212.022086,53.252418
212.005157,53.311580
211.966110,53.448045
211.966107,53.448053
211.873845,53.624681
211.871898,53.628407
211.743309,53.786109
211.652757,53.859944
211.585608,53.914697
211.585604,53.914700
211.547028,53.934850
211.471344,53.995768
211.424733,54.081011
211.414291,54.177604
211.436641,54.260782
211.455630,54.301504
211.455634,54.301516
211.512837,54.514998
211.512836,54.515000
210.615212,54.515000
210.648125,54.572007
210.682200,54.699174
210.682200,54.830826
210.648125,54.957993
210.615212,55.015000
211.512836,55.015000
211.512837,55.015001
211.455634,55.228483
211.455634,55.228485
211.355801,55.442576
211.220311,55.636076
211.053277,55.803110
210.859777,55.938600
210.645689,56.038431
210.432200,56.095635
210.432200,55.198012
210.375193,55.230925
210.248026,55.265000
210.116374,55.265000
209.989207,55.230925
209.932200,55.198012
209.932200,56.095635
209.718712,56.038431
209.504624,55.938600
209.311124,55.803110
209.144090,55.636076
209.008600,55.442576
208.908767,55.228485
208.908767,55.228483
208.851564,55.015001
208.851564,55.015000
209.749188,55.015000
209.716275,54.957993
209.682200,54.830826
209.682200,54.699174
209.716275,54.572007
209.749188,54.515000
208.851564,54.515000
208.851564,54.514998
208.908767,54.301516
208.908767,54.301514
208.927759,54.260786
208.950851,54.166415
208.936071,54.070391
208.885670,53.987332
208.817373,53.934850
208.778793,53.914698
208.621091,53.786109
208.601294,53.761829
208.526392,53.699959
208.456891,53.674966
208.204068,53.624681
207.874940,53.524845
207.557182,53.393230
207.289211,53.250000
207.253875,53.231113
207.253872,53.231110
207.253855,53.231102
206.967880,53.040024
206.702011,52.821835
206.672600,52.792424
206.672588,52.792413
206.663909,52.783733
206.663903,52.783730
206.580409,52.700236
206.496905,52.616734
206.496904,52.616731
206.485181,52.605009
206.485168,52.604993
205.857682,51.977510
205.857682,51.977509
205.843498,51.963326
205.843487,51.963312
205.535634,51.655460
205.517548,51.639068
205.470245,51.600248
205.429673,51.573139
205.386560,51.550095
205.341477,51.531421
205.294701,51.517232
205.246842,51.507713
205.185746,51.501697
205.161365,51.500500
205.055701,51.500502
205.055694,51.500500
205.046224,51.500501
205.046171,51.500500
191.120292,51.500500
189.917794,51.500500
189.822506,51.519454
189.741724,51.573430
189.687748,51.654212
189.669429,51.731732
189.665261,51.790006
189.663543,51.814027
189.661293,51.824368
189.607277,52.072678
189.514774,52.320689
189.387916,52.553011
189.229287,52.764915
189.042115,52.952087
188.941810,53.027174
188.910429,53.050666
188.845506,53.122943
188.813184,53.214564
188.818385,53.311580
188.860316,53.399221
188.910429,53.449334
189.042115,53.547913
189.229287,53.735085
189.363743,53.914698
189.387916,53.946989
189.387920,53.946995
189.514773,54.179308
189.514775,54.179312
189.607277,54.427323
189.607280,54.427332
189.641982,54.586852
189.680758,54.675934
189.709221,54.709992
191.343761,56.344533
191.361870,56.360945
191.409153,56.399748
191.449735,56.426864
191.492830,56.449899
191.537931,56.468580
191.584695,56.482765
191.632567,56.492287
191.647533,56.493761
191.744220,56.484238
191.821156,56.445297
191.829185,56.439286
191.829196,56.439280
192.061509,56.312427
192.061513,56.312425
192.133023,56.285753
192.309522,56.219923
192.511907,56.175897
192.568173,56.163657
192.832200,56.144773
193.096228,56.163657
193.208760,56.188137
193.354878,56.219923
193.422713,56.245224
193.602888,56.312425
193.602892,56.312427
193.835205,56.439280
193.835213,56.439285
193.849304,56.449834
193.936945,56.491765
193.998525,56.499500
208.940854,56.499500
208.941313,56.499517
208.985728,56.499517
209.328003,56.533224
209.328013,56.533226
209.665320,56.600316
209.665334,56.600319
209.994456,56.700153
210.312211,56.831766
210.312214,56.831767
210.383933,56.870101
210.476905,56.898301
210.501306,56.899500
211.300232,56.899500
211.300244,56.899501
211.419615,56.910113
211.615246,56.966090
211.615254,56.966093
211.795604,57.060299
211.795607,57.060301
211.814176,57.075443
211.900004,57.120969
211.996721,57.130184
212.089603,57.101686
212.090860,57.101004
212.161509,57.062427
212.161513,57.062425
212.233023,57.035753
212.409522,56.969923
212.611907,56.925897
212.668173,56.913657
212.932200,56.894773
213.196228,56.913657
213.308760,56.938137
213.454878,56.969923
213.526390,56.996595
213.702888,57.062425
213.702892,57.062427
213.935205,57.189280
213.935211,57.189284
214.052982,57.277445
214.140621,57.319375
214.237636,57.324576
214.329257,57.292254
214.351415,57.277448
214.469189,57.189284
214.701511,57.062426
214.701513,57.062425
214.773023,57.035753
214.949522,56.969923
215.151907,56.925897
215.208173,56.913657
215.472200,56.894773
215.736228,56.913657
215.848760,56.938137
215.994878,56.969923
216.066390,56.996595
216.242888,57.062425
216.242892,57.062427
216.475205,57.189280
216.475211,57.189284
216.592982,57.277445
216.680621,57.319375
216.777636,57.324576
216.869257,57.292254
216.891415,57.277448
217.009189,57.189284
217.241511,57.062426
217.241513,57.062425
217.313023,57.035753
217.489522,56.969923
217.691907,56.925897
217.748173,56.913657
218.012200,56.894773
218.276228,56.913657
218.388760,56.938137
218.534878,56.969923
218.606390,56.996595
218.782888,57.062425
218.782892,57.062427
219.015205,57.189280
219.015211,57.189284
219.227115,57.347913
219.414287,57.535085
219.497651,57.646447
219.572916,57.746989
219.572920,57.746995
219.699773,57.979308
219.699775,57.979312
219.743031,58.095288
219.792277,58.227322
219.819737,58.353553
219.848543,58.485972
219.856473,58.596844
219.867427,58.750000
221.501700,58.750000
221.501700,50.000000
220.007810,50.000000
219.987396,50.285428
219.926569,50.565046
219.896827,50.644788
219.826569,50.833158
219.734399,51.001954
219.689426,51.084315
219.517939,51.313395
219.315595,51.515739
219.086515,51.687226
219.005001,51.731736
218.835359,51.824368
218.793497,51.839981
218.567246,51.924369
218.287628,51.985196
218.002200,52.005610
217.716772,51.985196
217.437154,51.924369
217.169039,51.824367
216.917885,51.687226
216.688805,51.515739
216.486461,51.313395
216.314974,51.084315
216.177833,50.833161
216.077831,50.565046
216.017004,50.285428
215.996590,50.000000
216.017004,49.714572
216.077831,49.434954
216.171064,49.184987
216.177832,49.166841
216.272267,48.993897
216.314974,48.915685
216.486461,48.686605
216.688805,48.484261
216.852539,48.361691
216.917883,48.312775
217.169042,48.175631
217.314230,48.121479
217.437154,48.075631
217.437153,48.075631
217.716772,48.014804
218.002200,47.994390
218.287629,48.014804
218.567246,48.075631
218.835359,48.175631
219.086518,48.312775
219.250249,48.435343
219.315595,48.484261
219.315596,48.484262
219.517938,48.686604
219.517940,48.686607
219.689425,48.915682
219.826569,49.166841
219.926569,49.434954
219.977260,49.667979
219.987396,49.714572
220.007810,50.000000
221.501700,50.000000
221.501700,46.749500
221.482746,46.654212
221.428770,46.573430
221.347988,46.519454
221.252700,46.500500
112.751700,46.500500
Z" /> 
<path style="fill:none; 
stroke:#000000; stroke-width:0.500000; stroke-opacity:1; 
stroke-linecap:round; stroke-linejoin:round;fill:none"
d="M 222.002200,46.000000
112.002200,46.000000
112.002200,71.000000
222.002200,71.000000
Z" /> 
</g>
<g style="fill:#000000; fill-opacity:1.000000; stroke:none;">
<circle cx="218.002200" cy="50.000000" r="1.550000" /> 
<circle cx="116.002200" cy="50.000000" r="1.550000" /> 
</g> 
</svg>
