<?xml version="1.0" encoding="UTF-8" standalone="no"?>
<svg
   version="1.1"
   width="110.5mm"
   height="25.5mm"
   viewBox="0 0 110.5 25.5"
   id="svg181"
   sodipodi:docname="Photoresistor-array-F_Cu.svg"
   inkscape:export-filename="Photoresistor-array-F_Cu.png"
   inkscape:export-xdpi="400"
   inkscape:export-ydpi="400"
   inkscape:version="1.3.2 (091e20ef0f, 2023-11-25)"
   xmlns:inkscape="http://www.inkscape.org/namespaces/inkscape"
   xmlns:sodipodi="http://sodipodi.sourceforge.net/DTD/sodipodi-0.dtd"
   xmlns="http://www.w3.org/2000/svg"
   xmlns:svg="http://www.w3.org/2000/svg"
   xmlns:rdf="http://www.w3.org/1999/02/22-rdf-syntax-ns#"
   xmlns:cc="http://creativecommons.org/ns#"
   xmlns:dc="http://purl.org/dc/elements/1.1/">
  <defs
     id="defs181" />
  <sodipodi:namedview
     id="namedview181"
     pagecolor="#ffffff"
     bordercolor="#000000"
     borderopacity="0.25"
     inkscape:showpageshadow="2"
     inkscape:pageopacity="0.0"
     inkscape:pagecheckerboard="0"
     inkscape:deskcolor="#d1d1d1"
     inkscape:document-units="mm"
     inkscape:zoom="0.29041592"
     inkscape:cx="137.7335"
     inkscape:cy="223.81693"
     inkscape:window-width="1536"
     inkscape:window-height="900"
     inkscape:window-x="0"
     inkscape:window-y="0"
     inkscape:window-maximized="1"
     inkscape:current-layer="svg181"
     inkscape:export-bgcolor="#ffffffff" />
  <title
     id="title1">SVG Image created as Photoresistor-array-F_Cu.svg date 2024/04/25 14:01:04 </title>
  <desc
     id="desc1">Image generated by PCBNEW </desc>
  <g
     style="fill:#000000;fill-opacity:1;stroke:#000000;stroke-linecap:round;stroke-linejoin:round;stroke-opacity:1"
     id="g1"
     transform="translate(-111.7522,-45.75)" />
  <g
     style="fill:none;stroke:#000000;stroke-width:0.5;stroke-linecap:round;stroke-linejoin:round;stroke-opacity:1"
     id="g73"
     transform="translate(-111.7522,-45.75)">
    <text
       x="121.0022"
       y="57.950279"
       transform="matrix(-1,0,0,1,242.0044,0)"
       textLength="6"
       font-size="3.33333px"
       lengthAdjust="spacingAndGlyphs"
       text-anchor="middle"
       opacity="0"
       id="text1">PP</text>
    <g
       class="stroked-text"
       id="g21">
      <desc
         id="desc2">PP</desc>
      <path
         d="m 122.90696,57.618327 v -2.5"
         id="path2" />
      <path
         d="m 122.90696,55.118327 h -0.95238"
         id="path3" />
      <path
         d="m 121.95458,55.118327 -0.23809,0.119048"
         id="path4" />
      <path
         d="m 121.71649,55.237375 -0.11905,0.119047"
         id="path5" />
      <path
         d="m 121.59744,55.356422 -0.11905,0.238096"
         id="path6" />
      <path
         d="M 121.47839,55.594518 V 55.95166"
         id="path7" />
      <path
         d="m 121.47839,55.95166 0.11905,0.238096"
         id="path8" />
      <path
         d="m 121.59744,56.189756 0.11905,0.119047"
         id="path9" />
      <path
         d="m 121.71649,56.308803 0.23809,0.119048"
         id="path10" />
      <path
         d="m 121.95458,56.427851 h 0.95238"
         id="path11" />
      <path
         d="m 120.40696,57.618327 v -2.5"
         id="path12" />
      <path
         d="m 120.40696,55.118327 h -0.95238"
         id="path13" />
      <path
         d="m 119.45458,55.118327 -0.23809,0.119048"
         id="path14" />
      <path
         d="m 119.21649,55.237375 -0.11905,0.119047"
         id="path15" />
      <path
         d="m 119.09744,55.356422 -0.11905,0.238096"
         id="path16" />
      <path
         d="M 118.97839,55.594518 V 55.95166"
         id="path17" />
      <path
         d="m 118.97839,55.95166 0.11905,0.238096"
         id="path18" />
      <path
         d="m 119.09744,56.189756 0.11905,0.119047"
         id="path19" />
      <path
         d="m 119.21649,56.308803 0.23809,0.119048"
         id="path20" />
      <path
         d="m 119.45458,56.427851 h 0.95238"
         id="path21" />
    </g>
    <text
       x="121.0022"
       y="61.97514"
       transform="matrix(-1,0,0,1,242.0044,0)"
       textLength="8.1428566"
       font-size="3.33333px"
       lengthAdjust="spacingAndGlyphs"
       text-anchor="middle"
       opacity="0"
       id="text21">WIIT</text>
    <g
       class="stroked-text"
       id="g29">
      <desc
         id="desc21">WIIT</desc>
      <path
         d="m 124.21649,59.143187 -0.59524,2.5"
         id="path22" />
      <path
         d="m 123.62125,61.643187 -0.47619,-1.785714"
         id="path23" />
      <path
         d="m 123.14506,59.857473 -0.47619,1.785714"
         id="path24" />
      <path
         d="m 122.66887,61.643187 -0.59524,-2.5"
         id="path25" />
      <path
         d="m 121.12125,61.643187 v -2.5"
         id="path26" />
      <path
         d="m 119.93077,61.643187 v -2.5"
         id="path27" />
      <path
         d="m 119.09744,59.143187 h -1.42857"
         id="path28" />
      <path
         d="m 118.38315,61.643187 v -2.5"
         id="path29" />
    </g>
    <text
       x="121.0022"
       y="66"
       transform="matrix(-1,0,0,1,242.0044,0)"
       textLength="10.523808"
       font-size="3.33333px"
       lengthAdjust="spacingAndGlyphs"
       text-anchor="middle"
       opacity="0"
       id="text29">2024</text>
    <g
       class="stroked-text"
       id="g72">
      <desc
         id="desc29">2024</desc>
      <path
         d="m 125.28791,63.406142 -0.11904,-0.119047"
         id="path30" />
      <path
         d="m 125.16887,63.287095 -0.2381,-0.119048"
         id="path31" />
      <path
         d="m 124.93077,63.168047 h -0.59524"
         id="path32" />
      <path
         d="m 124.33553,63.168047 -0.23809,0.119048"
         id="path33" />
      <path
         d="m 124.09744,63.287095 -0.11905,0.119047"
         id="path34" />
      <path
         d="m 123.97839,63.406142 -0.11905,0.238096"
         id="path35" />
      <path
         d="m 123.85934,63.644238 v 0.238095"
         id="path36" />
      <path
         d="m 123.85934,63.882333 0.11905,0.357143"
         id="path37" />
      <path
         d="m 123.97839,64.239476 1.42857,1.428571"
         id="path38" />
      <path
         d="m 125.40696,65.668047 h -1.54762"
         id="path39" />
      <path
         d="m 122.31172,63.168047 h -0.23809"
         id="path40" />
      <path
         d="m 122.07363,63.168047 -0.2381,0.119048"
         id="path41" />
      <path
         d="m 121.83553,63.287095 -0.11904,0.119047"
         id="path42" />
      <path
         d="m 121.71649,63.406142 -0.11905,0.238096"
         id="path43" />
      <path
         d="m 121.59744,63.644238 -0.11905,0.47619"
         id="path44" />
      <path
         d="m 121.47839,64.120428 v 0.595238"
         id="path45" />
      <path
         d="m 121.47839,64.715666 0.11905,0.476191"
         id="path46" />
      <path
         d="m 121.59744,65.191857 0.11905,0.238095"
         id="path47" />
      <path
         d="M 121.71649,65.429952 121.83553,65.549"
         id="path48" />
      <path
         d="m 121.83553,65.549 0.2381,0.119047"
         id="path49" />
      <path
         d="m 122.07363,65.668047 h 0.23809"
         id="path50" />
      <path
         d="M 122.31172,65.668047 122.54982,65.549"
         id="path51" />
      <path
         d="m 122.54982,65.549 0.11905,-0.119048"
         id="path52" />
      <path
         d="m 122.66887,65.429952 0.11904,-0.238095"
         id="path53" />
      <path
         d="m 122.78791,65.191857 0.11905,-0.476191"
         id="path54" />
      <path
         d="M 122.90696,64.715666 V 64.120428"
         id="path55" />
      <path
         d="m 122.90696,64.120428 -0.11905,-0.47619"
         id="path56" />
      <path
         d="m 122.78791,63.644238 -0.11904,-0.238096"
         id="path57" />
      <path
         d="m 122.66887,63.406142 -0.11905,-0.119047"
         id="path58" />
      <path
         d="m 122.54982,63.287095 -0.2381,-0.119048"
         id="path59" />
      <path
         d="m 120.52601,63.406142 -0.11905,-0.119047"
         id="path60" />
      <path
         d="m 120.40696,63.287095 -0.23809,-0.119048"
         id="path61" />
      <path
         d="m 120.16887,63.168047 h -0.59524"
         id="path62" />
      <path
         d="m 119.57363,63.168047 -0.2381,0.119048"
         id="path63" />
      <path
         d="m 119.33553,63.287095 -0.11904,0.119047"
         id="path64" />
      <path
         d="m 119.21649,63.406142 -0.11905,0.238096"
         id="path65" />
      <path
         d="m 119.09744,63.644238 v 0.238095"
         id="path66" />
      <path
         d="m 119.09744,63.882333 0.11905,0.357143"
         id="path67" />
      <path
         d="m 119.21649,64.239476 1.42857,1.428571"
         id="path68" />
      <path
         d="m 120.64506,65.668047 h -1.54762"
         id="path69" />
      <path
         d="m 116.95458,64.00138 v 1.666667"
         id="path70" />
      <path
         d="m 117.54982,63.049 0.59524,1.785714"
         id="path71" />
      <path
         d="m 118.14506,64.834714 h -1.54762"
         id="path72" />
    </g>
  </g>
  <g
     style="fill:#000000;fill-opacity:1;stroke:none"
     id="g74"
     transform="translate(-111.7522,-45.75)">
    <circle
       cx="127.5922"
       cy="58"
       r="0.85000002"
       id="circle73" />
  </g>
  <g
     style="fill:#000000;fill-opacity:1;stroke:none"
     id="g75"
     transform="translate(-111.7522,-45.75)">
    <circle
       cx="137.7522"
       cy="58"
       r="0.85000002"
       id="circle74" />
  </g>
  <g
     style="fill:#000000;fill-opacity:1;stroke:none"
     id="g76"
     transform="translate(-111.7522,-45.75)">
    <circle
       cx="187.82719"
       cy="54.950001"
       r="0.85000002"
       id="circle75" />
  </g>
  <g
     style="fill:#000000;fill-opacity:1;stroke:none"
     id="g77"
     transform="translate(-111.7522,-45.75)">
    <circle
       cx="187.82719"
       cy="51.549999"
       r="0.85000002"
       id="circle76" />
  </g>
  <g
     style="fill:#000000;fill-opacity:1;stroke:none"
     id="g78"
     transform="translate(-111.7522,-45.75)">
    <circle
       cx="182.6722"
       cy="58"
       r="0.85000002"
       id="circle77" />
  </g>
  <g
     style="fill:#000000;fill-opacity:1;stroke:none"
     id="g79"
     transform="translate(-111.7522,-45.75)">
    <circle
       cx="192.8322"
       cy="58"
       r="0.85000002"
       id="circle78" />
  </g>
  <g
     style="fill:#000000;fill-opacity:1;stroke:none"
     id="g80"
     transform="translate(-111.7522,-45.75)">
    <circle
       cx="132.8522"
       cy="54.950001"
       r="0.85000002"
       id="circle79" />
  </g>
  <g
     style="fill:#000000;fill-opacity:1;stroke:none"
     id="g81"
     transform="translate(-111.7522,-45.75)">
    <circle
       cx="132.8522"
       cy="51.549999"
       r="0.85000002"
       id="circle80" />
  </g>
  <g
     style="fill:#000000;fill-opacity:1;stroke:none"
     id="g82"
     transform="translate(-111.7522,-45.75)">
    <circle
       cx="164.34219"
       cy="58"
       r="0.85000002"
       id="circle81" />
  </g>
  <g
     style="fill:#000000;fill-opacity:1;stroke:none"
     id="g83"
     transform="translate(-111.7522,-45.75)">
    <circle
       cx="174.5022"
       cy="58"
       r="0.85000002"
       id="circle82" />
  </g>
  <g
     style="fill:#000000;fill-opacity:1;stroke:none"
     id="g84"
     transform="translate(-111.7522,-45.75)">
    <circle
       cx="146.09219"
       cy="58"
       r="0.85000002"
       id="circle83" />
  </g>
  <g
     style="fill:#000000;fill-opacity:1;stroke:none"
     id="g85"
     transform="translate(-111.7522,-45.75)">
    <circle
       cx="156.2522"
       cy="58"
       r="0.85000002"
       id="circle84" />
  </g>
  <g
     style="fill:#000000;fill-opacity:1;stroke:none"
     id="g86"
     transform="translate(-111.7522,-45.75)">
    <circle
       cx="169.5022"
       cy="54.950001"
       r="0.85000002"
       id="circle85" />
  </g>
  <g
     style="fill:#000000;fill-opacity:1;stroke:none"
     id="g87"
     transform="translate(-111.7522,-45.75)">
    <circle
       cx="169.5022"
       cy="51.549999"
       r="0.85000002"
       id="circle86" />
  </g>
  <g
     style="fill:#000000;fill-opacity:1;stroke:none"
     id="g88"
     transform="translate(-111.7522,-45.75)">
    <circle
       cx="151.1772"
       cy="54.950001"
       r="0.85000002"
       id="circle87" />
  </g>
  <g
     style="fill:#000000;fill-opacity:1;stroke:none"
     id="g89"
     transform="translate(-111.7522,-45.75)">
    <circle
       cx="151.1772"
       cy="51.549999"
       r="0.85000002"
       id="circle88" />
    <path
       style="fill:#000000;fill-opacity:1;fill-rule:evenodd;stroke:none"
       d="m 209.5422,59.6 h 1.7 v -1.7 h -1.7 z"
       id="path88" />
  </g>
  <g
     style="fill:#000000;fill-opacity:1;stroke:none"
     id="g92"
     transform="translate(-111.7522,-45.75)">
    <circle
       cx="212.93221"
       cy="58.75"
       r="0.85000002"
       id="circle89" />
    <circle
       cx="215.4722"
       cy="58.75"
       r="0.85000002"
       id="circle90" />
    <circle
       cx="218.01221"
       cy="58.75"
       r="0.85000002"
       id="circle91" />
    <path
       style="fill:#000000;fill-opacity:1;fill-rule:evenodd;stroke:none"
       d="m 209.3322,51.375 v 1.7 h 1.7 v -1.7 z"
       id="path91" />
    <circle
       cx="210.18221"
       cy="54.764999"
       r="0.85000002"
       id="circle92" />
  </g>
  <g
     style="fill:none;stroke:#000000;stroke-width:1;stroke-linecap:round;stroke-linejoin:round;stroke-opacity:1"
     id="g150"
     transform="translate(-111.7522,-45.75)">
    <path
       d="m 192.8322,58 h 15.98157"
       id="path92" />
    <path
       d="M 210.22799,58.585787 210.3922,58.75"
       id="path93" />
    <path
       d="m 192.8322,58 h -1.12657"
       id="path94" />
    <path
       d="M 190.29141,57.414213 187.8272,54.95"
       id="path95" />
    <path
       d="m 190.29141,57.414213 a 1.999981,1.999981 0 0 0 1.41422,0.585768"
       id="path96" />
    <path
       d="M 210.228,58.585773 A 2,2 0 0 0 208.81377,58"
       id="path97" />
    <path
       d="m 212.9322,60 -0.37251,0.372505"
       id="path98" />
    <path
       d="m 174.5022,58 h -0.29315"
       id="path99" />
    <path
       d="M 212.9322,58.75 V 60"
       id="path100" />
    <path
       d="M 176.8747,60.372504 174.5022,58"
       id="path101" />
    <path
       d="M 211.14548,60.958291 H 178.28892"
       id="path102" />
    <path
       d="M 171.38063,56.828427 169.5022,54.95"
       id="path103" />
    <path
       d="m 176.8747,60.372504 a 1.999981,1.999981 0 0 0 1.41422,0.585777"
       id="path104" />
    <path
       d="m 211.14548,60.958281 a 1.999981,1.999981 0 0 0 1.41421,-0.585776"
       id="path105" />
    <path
       d="m 171.38063,56.828427 a 4.000032,4.000032 0 0 0 2.82842,1.171605"
       id="path106" />
    <path
       d="m 214.69463,62.307572 0.19178,-0.191786"
       id="path107" />
    <path
       d="m 156.1731,57.970897 4.92246,4.922461"
       id="path108" />
    <path
       d="M 215.4722,60.701573 V 58.75"
       id="path109" />
    <path
       d="m 155.4022,57.970897 h 0.7709"
       id="path110" />
    <path
       d="M 153.05563,56.828427 151.1772,54.95"
       id="path111" />
    <path
       d="M 162.50977,63.479145 H 211.8662"
       id="path112" />
    <path
       d="m 156.2522,58 h -0.36815"
       id="path113" />
    <path
       d="m 211.8662,63.479145 a 4.000045,4.000045 0 0 0 2.82844,-1.171564"
       id="path114" />
    <path
       d="m 161.09556,62.893358 a 2.000052,2.000052 0 0 0 1.41421,0.585794"
       id="path115" />
    <path
       d="m 153.05563,56.828427 a 4.000032,4.000032 0 0 0 2.82842,1.171605"
       id="path116" />
    <path
       d="m 214.88643,62.1158 a 2,2 0 0 0 0.58577,-1.414227"
       id="path117" />
    <path
       d="M 218.0022,62 V 61.81"
       id="path118" />
    <path
       d="M 134.73063,56.828427 132.8522,54.95"
       id="path119" />
    <path
       d="M 218.0122,58.75 V 61.8"
       id="path120" />
    <path
       d="m 137.7522,58 7.41421,7.414213"
       id="path121" />
    <path
       d="m 218.0022,61.81 0.01,-0.01"
       id="path122" />
    <path
       d="m 218.0122,61.8 v 0.371573"
       id="path123" />
    <path
       d="M 146.58063,66 H 214.0022"
       id="path124" />
    <path
       d="m 137.7522,58 h -0.19315"
       id="path125" />
    <path
       d="m 134.73063,56.828427 a 4.000032,4.000032 0 0 0 2.82842,1.171605"
       id="path126" />
    <path
       d="m 145.16641,65.414213 a 1.999981,1.999981 0 0 0 1.41422,0.585768"
       id="path127" />
    <path
       d="m 214.0022,66 a 4,4 0 0 0 4,-4"
       id="path128" />
    <path
       d="m 151.2022,50 v 1.525"
       id="path129" />
    <path
       d="m 169.5022,50.1 0.1,-0.1"
       id="path130" />
    <path
       d="M 133.81641,50.585787 132.8522,51.55"
       id="path131" />
    <path
       d="m 152.0022,50 h -0.8"
       id="path132" />
    <path
       d="m 207.0022,51 -0.41421,-0.414214"
       id="path133" />
    <path
       d="m 191.0022,50 h -3.2"
       id="path134" />
    <path
       d="M 207.64141,51.639213 207.0022,51"
       id="path135" />
    <path
       d="M 187.8272,50.025 187.8022,50"
       id="path136" />
    <path
       d="m 187.8022,50 h -16.8"
       id="path137" />
    <path
       d="m 151.2022,51.525 -0.025,0.025"
       id="path138" />
    <path
       d="M 205.17377,50 H 191.0022"
       id="path139" />
    <path
       d="m 210.1822,52.225 h -1.12657"
       id="path140" />
    <path
       d="M 151.2022,50 H 135.23063"
       id="path141" />
    <path
       d="m 152.7272,50 h 0.275"
       id="path142" />
    <path
       d="m 169.6022,50 h -16.6"
       id="path143" />
    <path
       d="m 153.0022,50 h -1"
       id="path144" />
    <path
       d="m 171.0022,50 h -1.4"
       id="path145" />
    <path
       d="M 187.8272,51.55 V 50.025"
       id="path146" />
    <path
       d="M 169.5022,51.55 V 50.1"
       id="path147" />
    <path
       d="M 206.588,50.585772 A 2,2 0 0 0 205.17377,50"
       id="path148" />
    <path
       d="m 135.23063,50 a 2,2 0 0 0 -1.41423,0.585773"
       id="path149" />
    <path
       d="m 207.64141,51.639213 a 1.999981,1.999981 0 0 0 1.41422,0.585768"
       id="path150" />
  </g>
  <g
     style="fill:none;stroke:#000000;stroke-width:0.7;stroke-linecap:round;stroke-linejoin:round;stroke-opacity:1"
     id="g151"
     transform="translate(-111.7522,-45.75)">
    <path
       d="m 190.4022,53.249999 h -5.2"
       id="path151" />
  </g>
  <g
     style="fill:none;stroke:#000000;stroke-width:1;stroke-linecap:round;stroke-linejoin:round;stroke-opacity:1"
     id="g155"
     transform="translate(-111.7522,-45.75)">
    <path
       d="m 146.0922,58 -4.745,-4.745"
       id="path152" />
    <path
       d="m 177.2022,53.249999 h 8"
       id="path153" />
    <path
       d="M 127.5922,58 V 56.688426"
       id="path154" />
    <path
       d="m 128.17799,55.274212 1.43842,-1.438427"
       id="path155" />
  </g>
  <g
     style="fill:none;stroke:#000000;stroke-width:0.7;stroke-linecap:round;stroke-linejoin:round;stroke-opacity:1"
     id="g156"
     transform="translate(-111.7522,-45.75)">
    <path
       d="m 135.4022,53.249999 h -4.37157"
       id="path156" />
  </g>
  <g
     style="fill:none;stroke:#000000;stroke-width:1;stroke-linecap:round;stroke-linejoin:round;stroke-opacity:1"
     id="g166"
     transform="translate(-111.7522,-45.75)">
    <path
       d="m 177.9222,53.249999 h -0.72"
       id="path157" />
    <path
       d="m 172.0022,53.249999 h 5.2"
       id="path158" />
    <path
       d="M 210.1822,54.765 H 197.19563"
       id="path159" />
    <path
       d="m 141.3472,53.255 h 7.25"
       id="path160" />
    <path
       d="m 182.6722,58 -4.75,-4.750001"
       id="path161" />
    <path
       d="m 164.3422,58 -4.75,-4.750001"
       id="path162" />
    <path
       d="m 148.5972,53.255 0.005,-0.005"
       id="path163" />
    <path
       d="m 159.5922,53.249999 h 7.21"
       id="path164" />
    <path
       d="M 194.02377,53.249999 H 190.4022"
       id="path165" />
    <path
       d="m 159.5922,53.249999 h -5.79"
       id="path166" />
  </g>
  <g
     style="fill:none;stroke:#000000;stroke-width:0.7;stroke-linecap:round;stroke-linejoin:round;stroke-opacity:1"
     id="g167"
     transform="translate(-111.7522,-45.75)">
    <path
       d="m 153.8022,53.249999 h -5.2"
       id="path167" />
  </g>
  <g
     style="fill:none;stroke:#000000;stroke-width:1;stroke-linecap:round;stroke-linejoin:round;stroke-opacity:1"
     id="g170"
     transform="translate(-111.7522,-45.75)">
    <path
       d="m 195.78141,54.179213 -0.34343,-0.343428"
       id="path168" />
    <path
       d="m 141.3472,53.255 h -5.94"
       id="path169" />
    <path
       d="m 135.4072,53.255 -0.005,-0.005"
       id="path170" />
  </g>
  <g
     style="fill:none;stroke:#000000;stroke-width:0.7;stroke-linecap:round;stroke-linejoin:round;stroke-opacity:1"
     id="g171"
     transform="translate(-111.7522,-45.75)">
    <path
       d="m 172.0022,53.249999 h -5.2"
       id="path171" />
  </g>
  <g
     style="fill:none;stroke:#000000;stroke-width:1;stroke-linecap:round;stroke-linejoin:round;stroke-opacity:1"
     id="g174"
     transform="translate(-111.7522,-45.75)">
    <path
       d="m 128.17799,55.274212 a 1.999982,1.999982 0 0 0 -0.58577,1.414214"
       id="path172" />
    <path
       d="m 195.78141,54.179213 a 1.999981,1.999981 0 0 0 1.41422,0.585768"
       id="path173" />
    <path
       d="m 195.43798,53.835785 a 1.999981,1.999981 0 0 0 -1.41421,-0.585766"
       id="path174" />
  </g>
  <g
     style="fill:none;stroke:#000000;stroke-width:0.7;stroke-linecap:round;stroke-linejoin:round;stroke-opacity:1"
     id="g180"
     transform="translate(-111.7522,-45.75)">
    <path
       d="m 131.03063,53.249999 a 2.000001,2.000001 0 0 0 -1.41423,0.585772"
       id="path175" />
    <path
       style="fill:#000000;fill-opacity:1;fill-rule:evenodd;stroke:none"
       d="m 135.35818,51.500501 -0.009,-10e-7 -1e-5,2e-6 -0.10586,-2e-6 -0.0244,0.0012 -0.0609,0.006 -0.0479,0.0095 -0.0468,0.01419 -0.0451,0.01868 -0.0431,0.02304 -0.0406,0.02712 -0.0471,0.03868 -0.0181,0.01641 -0.13468,0.134682 -0.054,0.08078 -0.0133,0.04236 -0.0347,0.159525 v 5e-6 2e-6 l -0.0925,0.248011 -0.12685,0.232322 -0.15863,0.211904 -0.18718,0.187172 -0.1003,0.07509 -0.0314,0.02349 -0.0649,0.07228 -0.0323,0.09162 0.005,0.09702 0.0419,0.08764 0.0501,0.05011 0.13168,0.09858 0.18718,0.187172 0.13445,0.179613 0.0242,0.03229 v 6e-6 l 0.12685,0.232313 v 4e-6 l 0.0925,0.248011 v 9e-6 l 0.0347,0.15952 0.0388,0.08908 0.0285,0.03406 0.97055,0.970547 v 1e-6 l 0.003,0.0034 1e-5,6e-6 0.0368,0.03677 0.0418,0.04179 0.0102,0.0096 0.19337,0.172804 0.0218,0.01741 0.2058,0.146029 0.0237,0.01486 0.22083,0.122054 0.0252,0.01212 0.22822,0.09453 0.0953,0.01895 0.0953,-0.01895 0.024,-0.0115 0.0512,-0.02795 0.0715,-0.02667 0.1765,-0.06583 0.20239,-0.04403 0.0563,-0.01224 0.26403,-0.01888 0.26403,0.01888 0.11253,0.02448 0.14612,0.03179 0.0678,0.0253 0.18018,0.0672 v 2e-6 l 0.23231,0.126853 1e-5,4e-6 0.2119,0.158629 0.18718,0.187172 0.13549,0.181005 0.0231,0.0309 v 6e-6 l 0.12685,0.232313 v 4e-6 l 0.0925,0.248011 v 8e-6 l 0.0347,0.159519 0.0388,0.08908 0.0285,0.03406 6.58454,6.584543 0.0181,0.01641 0.0473,0.0388 0.0406,0.02712 0.0431,0.02304 0.0451,0.01868 0.0468,0.01418 0.0479,0.0095 0.0356,0.0035 0.0255,0.0025 0.0244,0.0012 0.0957,-10e-7 h 0.01 v 0 h 0.009 l 5e-5,2e-6 h 13.2703 l 0.0953,-0.01895 0.0808,-0.05398 0.054,-0.08078 0.0189,-0.09529 -0.0189,-0.09529 -0.054,-0.08078 -0.028,-0.02796 -0.009,-0.0086 v -10e-7 l -0.0367,-0.0367 -0.0468,-0.04679 -0.0835,-0.0835 v -10e-7 l -0.01,-0.01 -2e-5,-2.7e-5 -3.99276,-3.992759 -0.0808,-0.05397 -0.0423,-0.01326 -0.0956,-0.0208 -0.24801,-0.0925 -0.23232,-0.126858 -0.10682,-0.07997 -0.0876,-0.04193 -0.0226,-0.0047 -0.222,-0.03516 v -1e-6 0 l -0.42026,-0.1009 -1e-5,-3e-6 -1e-5,-3e-6 -0.41108,-0.133571 -0.3633,-0.150488 -0.036,-0.01492 v -2e-6 l -2e-5,-4e-6 -0.38511,-0.196233 -0.36854,-0.225843 -0.34968,-0.254063 L 152.14742,58.04225 152.10517,58 h -4.65781 l -0.0206,0.235308 v 1.1e-5 l -0.0611,0.22817 -0.0998,0.214092 v 5e-6 l -0.0587,0.08379 v 0 l -0.63197,-0.631964 -0.017,0.06359 -0.0658,0.114014 -0.0931,0.09309 -0.11402,0.06583 -0.0636,0.01704 0.63196,0.631963 v 10e-7 l -0.0838,0.05867 -0.21409,0.09983 -0.22817,0.06114 -1e-5,2e-6 -0.2353,0.02059 h -2e-5 l -0.2353,-0.02059 -1e-5,-2e-6 -0.22817,-0.06114 -0.21409,-0.09983 -0.0838,-0.05867 0.63196,-0.631964 -0.0636,-0.01704 -0.11402,-0.06583 -0.0931,-0.09309 -0.0658,-0.114014 -0.017,-0.06359 -0.63197,0.631964 -0.0587,-0.08379 -0.0998,-0.214091 -0.0611,-0.22817 v -1.1e-5 L 144.73704,58 v -6e-6 l 0.0206,-0.235303 v -1.1e-5 l 0.0611,-0.228175 0.0998,-0.214075 v -1.1e-5 l 0.0587,-0.08379 0.63197,0.631963 0.017,-0.06358 0.0658,-0.114014 0.0931,-0.09309 0.11402,-0.06583 0.0636,-0.01704 -0.63196,-0.631964 v -1e-6 l 0.0838,-0.05867 1e-5,-3e-6 0.21409,-0.09983 0.22817,-0.06114 1e-5,-2e-6 0.2353,-0.02059 h 2e-5 l 0.2353,0.02059 1e-5,2e-6 0.22817,0.06114 0.21408,0.09983 1e-5,10e-7 0.0838,0.05867 -0.63196,0.631965 0.0636,0.01704 0.11402,0.06583 0.0931,0.09309 0.0658,0.114014 0.017,0.06358 0.63197,-0.631965 0.0587,0.0838 v 10e-7 l 0.0998,0.21408 0.0611,0.228175 v 1.1e-5 l 0.0206,0.235303 V 58 h 4.65781 l -0.11057,-0.110568 -0.0366,-0.03663 -1.02079,-1.020786 -0.0808,-0.05398 -0.0423,-0.01326 -0.15954,-0.0347 -0.24801,-0.0925 -0.23232,-0.126858 -0.21191,-0.158629 -0.18717,-0.187172 -0.15863,-0.211904 -0.12685,-0.232322 -0.0925,-0.248011 -0.0563,-0.258652 -0.0189,-0.264026 0.0189,-0.264026 0.0563,-0.258652 0.0925,-0.248011 0.12685,-0.232322 0.15863,-0.211904 0.18717,-0.187172 0.13169,-0.09858 0.0649,-0.07227 0.0323,-0.09162 -0.005,-0.09702 -0.0419,-0.08764 -0.0501,-0.05011 -0.13169,-0.09858 -0.18717,-0.187172 -0.15863,-0.211904 -0.12685,-0.232322 -0.0925,-0.248011 -0.0563,-0.258652 -0.006,-0.08229 -0.0257,-0.09369 -0.0596,-0.07673 -0.0844,-0.04808 -0.0786,-0.01274 h -13.72838 z"
       id="path176" />
    <path
       style="fill:#000000;fill-opacity:1;fill-rule:evenodd;stroke:none"
       d="m 153.17251,51.519454 -0.0808,0.05398 -0.054,0.08078 -0.0183,0.07752 -0.004,0.05827 -0.002,0.02402 -0.002,0.01034 -0.054,0.24831 -0.0925,0.248011 -0.12685,0.232322 -0.15863,0.211904 -0.18718,0.187172 -0.1003,0.07509 -0.0314,0.02349 -0.0649,0.07228 -0.0323,0.09162 0.005,0.09702 0.0419,0.08764 0.0501,0.05011 0.13168,0.09858 0.18718,0.187172 0.13445,0.179613 0.0242,0.03229 v 6e-6 l 0.12685,0.232313 v 4e-6 l 0.0925,0.248011 v 9e-6 l 0.0347,0.15952 0.0388,0.08908 0.0285,0.03406 0.97055,0.970547 v 1e-6 l 0.003,0.0034 1e-5,6e-6 0.0368,0.03677 0.0418,0.04179 0.0101,0.0096 0.19337,0.172804 0.0218,0.01741 0.2058,0.146029 0.0237,0.01486 0.22083,0.122054 0.0252,0.01212 0.23312,0.09656 0.0264,0.0092 0.10891,0.03138 0.0968,0.0082 0.0915,-0.02889 0.11236,-0.06136 0.0715,-0.02667 0.1765,-0.06583 0.20239,-0.04403 0.0563,-0.01224 0.26403,-0.01888 0.26403,0.01888 0.11253,0.02448 0.14612,0.03179 0.0678,0.0253 0.18018,0.0672 v 2e-6 l 0.23231,0.126853 1e-5,4e-6 0.2119,0.158629 0.18718,0.187172 0.13549,0.181005 0.0231,0.0309 v 6e-6 l 0.12685,0.232313 v 4e-6 l 0.0925,0.248011 v 5e-6 l 0.0486,0.223424 0.0388,0.08908 0.0285,0.03406 3.92494,3.924942 v 2e-6 l 0.0749,0.07486 0.0181,0.01641 0.0473,0.0388 0.0406,0.02712 0.0431,0.02304 0.0451,0.01868 0.0468,0.01419 0.0479,0.0095 0.0608,0.006 0.0244,0.0012 h 13.23571 l 0.0953,-0.01895 0.0808,-0.05398 0.054,-0.08078 0.0189,-0.09529 -0.0189,-0.09529 -0.054,-0.08078 -0.028,-0.02796 -0.009,-0.0086 -10e-6,-1e-6 -0.0835,-0.0835 v 10e-7 l -0.0835,-0.0835 v -4e-6 l -1.468,-1.467997 -0.0808,-0.05397 -0.0423,-0.01326 -0.15954,-0.0347 -0.24801,-0.0925 -0.23232,-0.126858 -0.12695,-0.09503 -0.0876,-0.04193 -0.0226,-0.0047 -0.12687,-0.02009 v -10e-7 0 l -0.42026,-0.1009 -1e-5,-3e-6 -1e-5,-3e-6 -0.41108,-0.133571 -0.3633,-0.150488 -0.036,-0.01492 v -2e-6 l -2e-5,-4e-6 -0.38512,-0.196233 -0.36853,-0.225843 -0.34968,-0.254063 -0.3282,-0.280734 L 170.43017,58 h -4.73281 l -0.0206,0.235308 v 1.1e-5 l -0.0611,0.22817 -0.0998,0.214092 v 5e-6 l -0.0587,0.08379 v 0 l -0.63197,-0.631964 -0.017,0.06359 -0.0658,0.114014 -0.0931,0.09309 -0.11402,0.06583 -0.0636,0.01704 0.63196,0.631963 v 10e-7 l -0.0838,0.05867 -0.21409,0.09983 -0.22817,0.06114 -1e-5,2e-6 -0.2353,0.02059 h -2e-5 l -0.2353,-0.02059 -1e-5,-2e-6 -0.22817,-0.06114 -0.21409,-0.09983 -0.0838,-0.05867 0.63196,-0.631964 -0.0636,-0.01704 -0.11402,-0.06583 -0.0931,-0.09309 -0.0658,-0.114014 -0.017,-0.06359 -0.63197,0.631964 -0.0587,-0.08379 -0.0998,-0.214091 -0.0611,-0.22817 v -1.1e-5 L 162.98704,58 v -6e-6 l 0.0206,-0.235303 v -1.1e-5 l 0.0611,-0.228175 0.0998,-0.214075 v -1.1e-5 l 0.0587,-0.08379 0.63197,0.631963 0.017,-0.06358 0.0658,-0.114014 0.0931,-0.09309 0.11402,-0.06583 0.0636,-0.01704 -0.63196,-0.631964 v -1e-6 l 0.0838,-0.05867 1e-5,-3e-6 0.21409,-0.09983 0.22817,-0.06114 1e-5,-2e-6 0.2353,-0.02059 h 2e-5 l 0.2353,0.02059 1e-5,2e-6 0.22817,0.06114 0.21408,0.09983 1e-5,10e-7 0.0838,0.05867 -0.63196,0.631965 0.0636,0.01704 0.11402,0.06583 0.0931,0.09309 0.0658,0.114014 0.017,0.06358 0.63197,-0.631965 0.0587,0.0838 v 10e-7 l 0.0998,0.21408 0.0611,0.228175 v 1.1e-5 l 0.0206,0.235303 V 58 h 4.73281 l -0.11057,-0.110568 -0.0366,-0.03663 -1.02079,-1.020786 -0.0808,-0.05398 -0.0423,-0.01326 -0.15954,-0.0347 -0.24801,-0.0925 -0.23232,-0.126858 -0.21191,-0.158629 -0.18717,-0.187172 -0.15863,-0.211904 -0.12685,-0.232322 -0.0925,-0.248011 -0.0563,-0.258652 -0.0189,-0.264026 0.0189,-0.264026 0.0563,-0.258652 0.0925,-0.248011 0.12685,-0.232322 0.15863,-0.211904 0.18717,-0.187172 0.13169,-0.09858 0.0649,-0.07227 0.0323,-0.09162 -0.005,-0.09702 -0.0419,-0.08764 -0.0501,-0.05011 -0.13169,-0.09858 -0.18717,-0.187172 -0.15863,-0.211904 -0.12685,-0.232322 -0.0925,-0.248011 -0.0563,-0.258652 -0.006,-0.08229 -0.0257,-0.09369 -0.0596,-0.07673 -0.0844,-0.04808 -0.0786,-0.01274 h -14.14382 z"
       id="path177" />
    <path
       style="fill:#000000;fill-opacity:1;fill-rule:evenodd;stroke:none"
       d="m 171.49751,51.519454 -0.0808,0.05398 -0.054,0.08078 -0.0183,0.07752 -0.004,0.05827 -0.002,0.02402 -0.002,0.01034 -0.054,0.24831 -0.0925,0.248011 -0.12685,0.232322 -0.15863,0.211904 -0.18718,0.187172 -0.1003,0.07509 -0.0314,0.02349 -0.0649,0.07228 -0.0323,0.09162 0.005,0.09702 0.0419,0.08764 0.0501,0.05011 0.13168,0.09858 0.18718,0.187172 0.13445,0.179613 0.0242,0.03229 v 6e-6 l 0.12685,0.232313 v 4e-6 l 0.0925,0.248011 v 9e-6 l 0.0347,0.15952 0.0388,0.08908 0.0285,0.03406 0.97055,0.970547 v 1e-6 l 0.003,0.0034 10e-6,6e-6 0.0368,0.03677 0.0418,0.04179 0.0102,0.0096 0.19337,0.172804 0.0218,0.01741 0.2058,0.146029 0.0237,0.01486 0.22083,0.122054 0.0252,0.01212 0.21049,0.08719 0.0209,0.0087 0.002,7.16e-4 0.0264,0.0092 0.0598,0.01723 0.0968,0.0082 0.0915,-0.02889 0.0865,-0.04721 v -2e-6 l 0.0715,-0.02667 0.1765,-0.06583 0.20239,-0.04403 0.0563,-0.01224 0.26403,-0.01888 0.26403,0.01888 0.11253,0.02448 0.14612,0.03179 0.0678,0.0253 0.18018,0.0672 v 2e-6 l 0.23231,0.126853 1e-5,4e-6 0.2119,0.158629 0.18718,0.187172 0.13549,0.181005 0.0231,0.0309 v 6e-6 l 0.12685,0.232313 v 4e-6 l 0.0925,0.248011 v 9e-6 l 0.0347,0.15952 0.0388,0.08908 0.0285,0.03406 1.46799,1.467991 v 3e-6 l 0.0749,0.07486 0.0181,0.01641 0.0473,0.03879 0.0406,0.02712 0.0431,0.02303 0.0451,0.01868 0.0468,0.01419 0.0479,0.0095 0.061,0.006 0.0244,0.0012 h 0.11602 l 2e-5,10e-7 h 3.2518 l 0.0953,-0.01895 0.0808,-0.05398 0.054,-0.08078 0.019,-0.09529 -9.5e-4,-0.0217 -0.006,-0.07216 0.63196,-0.631965 -0.0636,-0.01704 -0.11402,-0.06583 -0.0931,-0.09309 -0.0658,-0.114014 -0.017,-0.06359 -0.63197,0.631964 -0.0587,-0.08379 -0.0998,-0.214091 -0.0611,-0.22817 v -1.1e-5 L 181.31704,58 v -6e-6 l 0.0206,-0.235303 v -1.1e-5 l 0.0611,-0.228175 0.0998,-0.214075 v -1.1e-5 l 0.0587,-0.08379 0.63197,0.631963 0.017,-0.06358 0.0658,-0.114014 0.0931,-0.09309 0.11402,-0.06583 0.0636,-0.01704 -0.63196,-0.631964 v -1e-6 l 0.0838,-0.05867 1e-5,-3e-6 0.21409,-0.09983 0.22817,-0.06114 1e-5,-2e-6 0.2353,-0.02059 h 2e-5 l 0.2353,0.02059 1e-5,2e-6 0.22817,0.06114 0.21408,0.09983 1e-5,10e-7 0.0838,0.05867 -0.63196,0.631965 0.0636,0.01704 0.11402,0.06583 0.0931,0.09309 0.0658,0.114014 0.017,0.06358 0.63197,-0.631965 0.0587,0.0838 v 10e-7 l 0.0998,0.21408 0.0611,0.228175 v 1.1e-5 l 0.0206,0.235303 V 58 l -0.0206,0.235308 v 1.1e-5 l -0.0611,0.22817 -0.0998,0.214092 v 5e-6 l -0.0587,0.08379 v 0 l -0.63197,-0.631964 -0.017,0.06359 -0.0658,0.114014 -0.0931,0.09309 -0.11402,0.06583 -0.0636,0.01704 0.63196,0.631964 -0.006,0.07216 0.0106,0.09658 0.0467,0.08518 0.0758,0.06081 0.0933,0.02719 0.0217,9.48e-4 h 6.0837 l 0.0953,-0.01895 0.0808,-0.05398 0.054,-0.08078 0.019,-0.09529 -0.019,-0.09529 -0.054,-0.08078 -0.0377,-0.03097 -0.004,-0.0027 -0.2755,-0.184079 -0.26587,-0.218189 -0.0294,-0.02941 -1e-5,-1.1e-5 -0.009,-0.0087 -1e-5,-3e-6 -0.0835,-0.08349 -0.0835,-0.0835 v -4e-6 l -0.01,-0.01 -2e-5,-1.6e-5 -1.54972,-1.549723 -0.0808,-0.05397 -0.0423,-0.01326 -0.15954,-0.0347 -0.24801,-0.0925 -0.23232,-0.126858 -0.2119,-0.158629 -0.18718,-0.187172 -0.15863,-0.211904 -0.12685,-0.232322 -0.0925,-0.248011 -0.0563,-0.258652 -0.0189,-0.264026 0.0189,-0.264026 0.0563,-0.258652 0.0925,-0.248011 0.12685,-0.232322 0.15863,-0.211904 0.18718,-0.187172 0.13168,-0.09858 0.0649,-0.07227 0.0323,-0.09162 -0.005,-0.09702 -0.0419,-0.08764 -0.0501,-0.05011 -0.13168,-0.09858 -0.18718,-0.187172 -0.15863,-0.211904 -0.12685,-0.232322 -0.0925,-0.248011 -0.0563,-0.258652 -0.006,-0.08229 -0.0257,-0.09369 -0.0596,-0.07673 -0.0844,-0.04808 -0.0786,-0.01274 h -14.14382 z"
       id="path178" />
    <path
       style="fill:#000000;fill-opacity:1;fill-rule:evenodd;stroke:none"
       d="m 112.65641,46.519454 -0.0808,0.05398 -0.054,0.08078 -0.0189,0.09529 v 23.501 l 0.0189,0.09529 0.054,0.08078 0.0808,0.05398 0.0953,0.01895 h 108.501 l 0.0953,-0.01895 0.0808,-0.05398 0.054,-0.08078 0.0189,-0.09529 V 58.75 h -1.63427 l -0.0189,0.264026 -0.0563,0.258652 -0.0471,0.126313 -0.0454,0.121696 v 4e-6 l -0.12685,0.232313 -1e-5,8e-6 -0.0105,0.01409 -0.0419,0.08764 -0.008,0.06158 v 2.373343 l -0.0303,0.191476 -0.002,0.01839 -0.015,0.18141 -1e-5,2.1e-5 -0.0749,0.448781 -10e-6,1e-5 -0.0393,0.15533 -0.0724,0.285765 -0.14773,0.430324 -0.18278,0.416698 -0.21656,0.400169 -0.24886,0.380905 v 8e-6 l -0.27946,0.35905 v 5e-6 l -1e-5,3e-6 -0.30816,0.334757 -2e-5,1.1e-5 v 2e-6 l -0.33474,0.308156 -1e-5,4e-6 -0.35905,0.279459 v 2e-6 2e-6 l -0.38092,0.248864 -0.40016,0.216559 -0.41669,0.182773 v 2e-6 l -1e-5,3e-6 -0.43032,0.147731 -1e-5,2e-6 -1e-5,2e-6 -0.44108,0.111697 -0.4488,0.07489 -0.0356,0.003 -0.41781,0.03462 h -2e-5 v 10e-7 0 h -67.77678 l -4.5e-4,-1.8e-5 -0.0438,10e-7 -0.34228,-0.03371 -0.33733,-0.06709 -0.32913,-0.09984 -0.31776,-0.131615 -0.21237,-0.113514 -0.0909,-0.0486 v -3e-6 l -2e-5,-8e-6 -0.28597,-0.191078 -0.26587,-0.218189 -0.0294,-0.02941 -1e-5,-1.1e-5 -0.009,-0.0087 -1e-5,-3e-6 -0.0835,-0.08349 -0.0835,-0.0835 v -4e-6 l -0.01,-0.01 -2e-5,-1.6e-5 -6.49972,-6.499722 -0.0808,-0.05397 -0.0423,-0.01326 -0.15954,-0.0347 -0.24801,-0.0925 -0.23232,-0.126858 -0.15379,-0.115125 -0.0876,-0.04193 -0.0179,-0.0037 v -3.3e-5 l -0.005,-9.38e-4 -6e-5,-1.2e-5 -2e-5,-3e-6 -0.42028,-0.100907 -0.41108,-0.133571 -0.3633,-0.150488 -0.036,-0.01492 v -2e-6 l -2e-5,-4e-6 -0.38512,-0.196233 -0.36853,-0.225843 -0.34968,-0.254063 L 133.82242,58.04225 133.78017,58 h -4.83281 l -0.0206,0.235308 v 1.1e-5 l -0.0611,0.22817 -0.0998,0.214092 v 5e-6 l -0.0587,0.08379 v 0 l -0.63197,-0.631964 -0.017,0.06359 -0.0658,0.114014 -0.0931,0.09309 -0.11402,0.06583 -0.0636,0.01704 0.63196,0.631964 -0.0838,0.05867 -0.21409,0.09983 -0.22817,0.06114 -10e-6,2e-6 -0.2353,0.02059 h -2e-5 l -0.2353,-0.02059 -10e-6,-2e-6 -0.22817,-0.06114 -0.11201,-0.05223 -0.0944,-0.02309 -0.096,0.01478 -0.0831,0.0504 -0.0575,0.07835 -0.0231,0.09437 -2.4e-4,0.01086 v 7.479564 0 h -11.32052 v 0 -13.066501 h 11.32052 v 10e-7 2.693188 l 0.019,0.09529 0.054,0.08078 0.0808,0.05398 0.0953,0.01895 0.0953,-0.01895 0.01,-0.0044 0.11202,-0.05224 0.22817,-0.06114 1e-5,-2e-6 0.2353,-0.02059 h 2e-5 l 0.2353,0.02059 1e-5,2e-6 0.22817,0.06114 0.21408,0.09983 1e-5,10e-7 0.0838,0.05868 -0.63196,0.631964 0.0636,0.01704 0.11402,0.06583 0.0931,0.09309 0.0658,0.114014 0.017,0.06358 0.63197,-0.631965 0.0587,0.0838 v 10e-7 l 0.0998,0.21408 0.0611,0.228175 v 1.1e-5 l 0.0206,0.235303 V 58 h 4.83281 l -0.11057,-0.110568 -0.0366,-0.03663 -1.02079,-1.020786 -0.0808,-0.05398 -0.0423,-0.01326 -0.15954,-0.0347 -0.24801,-0.0925 -0.23232,-0.126858 -0.21191,-0.158629 -0.18717,-0.187172 -0.15863,-0.211904 -0.12685,-0.232322 -0.0925,-0.248011 -0.0563,-0.258652 -0.0189,-0.264026 0.0189,-0.264026 0.0563,-0.258652 0.0925,-0.248011 0.12685,-0.232322 0.15863,-0.211904 0.18717,-0.187172 0.13169,-0.09858 0.0649,-0.07227 0.0323,-0.09162 -0.005,-0.09702 -0.0419,-0.08764 -0.0501,-0.05011 -0.13169,-0.09858 -0.18717,-0.187172 -0.15863,-0.211904 -0.12685,-0.232322 -0.0925,-0.248011 -0.0563,-0.258652 -0.0189,-0.264026 0.0189,-0.264026 0.0563,-0.258652 0.0925,-0.248011 0.12685,-0.232322 0.15863,-0.211904 0.18717,-0.187172 L 131.83487,50 h -13.82706 l -0.0204,0.285428 -0.0608,0.279618 -0.0297,0.07974 -0.0703,0.18837 -0.0922,0.168796 -0.045,0.08236 -0.17149,0.22908 -0.20234,0.202344 -0.22908,0.171487 -0.0815,0.04451 -0.16964,0.09263 -0.0419,0.01561 -0.22625,0.08439 -0.27962,0.06083 -0.28543,0.02041 -0.28543,-0.02041 -0.27962,-0.06083 -0.26811,-0.100002 -0.25116,-0.137141 -0.22907,-0.171487 -0.20235,-0.202344 -0.17149,-0.22908 -0.13714,-0.251154 -0.1,-0.268115 L 114.017,50.285428 113.99659,50 l 0.0204,-0.285428 0.0608,-0.279618 0.0932,-0.249967 0.007,-0.01815 0.0944,-0.172944 0.0427,-0.07821 0.17149,-0.22908 0.20235,-0.202344 0.16373,-0.12257 0.0653,-0.04892 0.25116,-0.137144 0.14519,-0.05415 0.12292,-0.04585 v 0 l 0.27962,-0.06083 0.28543,-0.02041 0.28543,0.02041 0.27962,0.06083 0.26811,0.1 0.25116,0.137144 0.16373,0.122568 0.0654,0.04892 v 10e-7 l 0.20234,0.202342 v 3e-6 l 0.17149,0.229075 0.13714,0.251159 0.1,0.268113 0.0507,0.233025 0.0101,0.04659 L 118.00781,50 h 13.82706 l 0.0143,-0.01072 0.23232,-0.126858 v -1e-6 l 0.24801,-0.0925 1e-5,-10e-7 0.15952,-0.0347 0.0891,-0.03878 0.0341,-0.02846 0.0524,-0.05243 3e-5,-2.6e-5 0.0178,-0.01782 6e-5,-8.5e-5 0.19447,-0.194469 0.26586,-0.21818 1e-5,-3e-6 10e-6,-9e-6 0.28597,-0.191079 0.30333,-0.162129 1e-5,-10e-7 v -3e-6 l 0.31774,-0.131608 1e-5,-2e-6 v -2e-6 l 1e-5,-10e-7 1e-5,-6e-6 0.32912,-0.09983 0.33731,-0.06709 1e-5,-2e-6 0.34229,-0.03371 0.17197,3e-6 h 70.0702 l 4.6e-4,1.7e-5 h 0.0444 l 0.34227,0.03371 1e-5,10e-7 0.33731,0.06709 1e-5,3e-6 0.32912,0.09983 0.31776,0.131613 v 0 l 0.30333,0.16213 1e-5,5e-6 0.25883,0.172938 0.0271,0.01813 2e-5,1.5e-5 0.26585,0.218165 2e-5,1.7e-5 0.0332,0.03321 1e-5,1.4e-5 v 1e-6 l 0.005,0.0049 0.0582,0.05823 0.0253,0.02526 0.0835,0.0835 1e-5,5e-6 0.005,0.0049 1e-5,7e-6 v -10e-7 l 0.24234,0.242336 v 10e-7 l 0.59145,0.591455 0.0808,0.05398 0.0953,0.01895 0.0953,-0.01895 0.02,-0.0093 0.0966,-0.05047 v -10e-7 -1e-6 l 0.19563,-0.05598 0.11938,-0.01061 v 0 h 1.81607 l 1e-5,1e-6 0.11938,0.01061 0.19563,0.05598 v 3e-6 l 0.18035,0.09421 10e-6,3e-6 0.1577,0.128587 v 4e-6 l 0.12859,0.157699 v 5e-6 l 0.0942,0.180349 v 8e-6 l 0.056,0.195624 1e-5,4e-6 0.0106,0.119381 v 1.816068 1.2e-5 l -0.0106,0.119371 v 3e-6 1e-6 l -0.0169,0.05916 -0.0391,0.136465 v 8e-6 l -0.0923,0.176628 -0.002,0.0037 -0.12859,0.157702 -0.0906,0.07383 -0.0671,0.05475 -10e-6,3e-6 -0.0386,0.02015 -0.0757,0.06092 -0.0466,0.08524 -0.0104,0.09659 0.0224,0.08318 0.019,0.04072 v 1.2e-5 l 0.0572,0.213482 v 2e-6 h -0.89763 l 0.0329,0.05701 0.0341,0.127167 v 0.131652 l -0.0341,0.127167 -0.0329,0.05701 h 0.89763 v 1e-6 l -0.0572,0.213482 v 2e-6 l -0.0998,0.214091 -0.13549,0.1935 -0.16703,0.167034 -0.1935,0.13549 -0.21409,0.09983 -0.21349,0.0572 v -0.897623 l -0.057,0.03291 -0.12716,0.03408 h -0.13166 l -0.12716,-0.03408 -0.057,-0.03291 v 0.897623 l -0.21349,-0.0572 -0.21409,-0.09983 -0.1935,-0.13549 -0.16703,-0.167034 -0.13549,-0.1935 -0.0998,-0.214091 v -2e-6 l -0.0572,-0.213482 v -1e-6 h 0.89763 l -0.0329,-0.05701 -0.0341,-0.127167 V 54.69924 l 0.0341,-0.127167 0.0329,-0.05701 h -0.89763 v -2e-6 l 0.0572,-0.213482 v -2e-6 l 0.019,-0.04073 0.0231,-0.09437 -0.0148,-0.09602 -0.0504,-0.08306 -0.0683,-0.05248 -0.0386,-0.02015 -0.1577,-0.128589 -0.0198,-0.02428 -0.0749,-0.06187 -0.0695,-0.02499 -0.25282,-0.05028 -0.32913,-0.09984 -0.31776,-0.131615 -0.26797,-0.14323 -0.0353,-0.01889 v -3e-6 l -2e-5,-8e-6 -0.28597,-0.191078 -0.26587,-0.218189 -0.0294,-0.02941 -1e-5,-1.1e-5 -0.009,-0.0087 -1e-5,-3e-6 -0.0835,-0.08349 -0.0835,-0.0835 v -3e-6 l -0.0117,-0.01172 -10e-6,-1.6e-5 -0.62749,-0.627483 v -1e-6 l -0.0142,-0.01418 -1e-5,-1.4e-5 -0.30786,-0.307852 -0.0181,-0.01639 -0.0473,-0.03882 -0.0406,-0.02711 -0.0431,-0.02304 -0.0451,-0.01867 -0.0468,-0.01419 -0.0479,-0.0095 -0.0611,-0.006 -0.0244,-0.0012 -0.10566,2e-6 -1e-5,-2e-6 -0.009,10e-7 -5e-5,-10e-7 h -13.92588 -1.2025 l -0.0953,0.01895 -0.0808,0.05398 -0.054,0.08078 -0.0183,0.07752 -0.004,0.05827 -0.002,0.02402 -0.002,0.01034 -0.054,0.24831 -0.0925,0.248011 -0.12685,0.232322 -0.15863,0.211904 -0.18718,0.187172 -0.1003,0.07509 -0.0314,0.02349 -0.0649,0.07228 -0.0323,0.09162 0.005,0.09702 0.0419,0.08764 0.0501,0.05011 0.13168,0.09858 0.18718,0.187172 0.13445,0.179613 0.0242,0.03229 v 6e-6 l 0.12685,0.232313 v 4e-6 l 0.0925,0.248011 v 9e-6 l 0.0347,0.15952 0.0388,0.08908 0.0285,0.03406 1.63454,1.634541 0.0181,0.01641 0.0473,0.0388 0.0406,0.02712 0.0431,0.02304 0.0451,0.01868 0.0468,0.01418 0.0479,0.0095 0.015,0.0015 0.0967,-0.0095 0.0769,-0.03894 0.008,-0.006 2e-5,-6e-6 0.23231,-0.126853 v -2e-6 l 0.0715,-0.02667 0.1765,-0.06583 0.20239,-0.04403 0.0563,-0.01224 0.26403,-0.01888 0.26403,0.01888 0.11253,0.02448 0.14612,0.03179 0.0678,0.0253 0.18018,0.0672 v 2e-6 l 0.23231,0.126853 1e-5,5e-6 0.0141,0.01055 0.0876,0.04193 0.0616,0.0077 h 14.94233 l 4.6e-4,1.7e-5 h 0.0444 l 0.34227,0.03371 1e-5,2e-6 0.33731,0.06709 1e-5,3e-6 0.32913,0.09983 0.31775,0.131613 v 10e-7 l 0.0717,0.03833 0.093,0.0282 0.0244,0.0012 h 0.79892 l 1e-5,1e-6 0.11937,0.01061 0.19564,0.05598 v 3e-6 l 0.18035,0.09421 1e-5,2e-6 0.0186,0.01514 0.0858,0.04553 0.0967,0.0092 0.0929,-0.0285 0.001,-6.82e-4 0.0707,-0.03858 v -2e-6 l 0.0715,-0.02667 0.1765,-0.06583 0.20239,-0.04403 0.0563,-0.01224 0.26403,-0.01888 0.26403,0.01888 0.11253,0.02448 0.14612,0.03179 0.0715,0.02667 0.1765,0.06583 v 2e-6 l 0.23231,0.126853 1e-5,4e-6 0.11777,0.08816 0.0876,0.04193 0.097,0.0052 0.0916,-0.03232 0.0221,-0.01481 0.11778,-0.08816 0.23232,-0.126858 v -1e-6 l 0.0715,-0.02667 0.1765,-0.06583 0.20239,-0.04403 0.0563,-0.01224 0.26403,-0.01888 0.26403,0.01888 0.11253,0.02448 0.14612,0.03179 0.0715,0.02667 0.1765,0.06583 v 2e-6 l 0.23231,0.126853 1e-5,4e-6 0.11777,0.08816 0.0876,0.04193 0.097,0.0052 0.0916,-0.03232 0.0222,-0.01481 0.11778,-0.08816 0.23232,-0.126858 v -1e-6 l 0.0715,-0.02667 0.1765,-0.06583 0.20239,-0.04403 0.0563,-0.01224 0.26403,-0.01888 0.26403,0.01888 0.11253,0.02448 0.14612,0.03179 0.0715,0.02667 0.1765,0.06583 v 2e-6 l 0.23231,0.126853 1e-5,4e-6 0.2119,0.158629 0.18718,0.187172 0.0834,0.111362 0.0753,0.100542 v 6e-6 l 0.12685,0.232313 v 4e-6 l 0.0433,0.115976 0.0493,0.132034 0.0275,0.126231 0.0288,0.132419 0.008,0.110872 0.011,0.153156 h 1.63427 V 50 h -1.49389 l -0.0204,0.285428 -0.0608,0.279618 -0.0297,0.07974 -0.0703,0.18837 -0.0922,0.168796 -0.045,0.08236 -0.17149,0.22908 -0.20235,0.202344 -0.22908,0.171487 -0.0815,0.04451 -0.16964,0.09263 -0.0419,0.01561 -0.22625,0.08439 -0.27962,0.06083 -0.28543,0.02041 -0.28543,-0.02041 -0.27962,-0.06083 -0.26811,-0.100002 -0.25116,-0.137141 -0.22908,-0.171487 -0.20234,-0.202344 -0.17149,-0.22908 -0.13714,-0.251154 -0.1,-0.268115 L 216.017,50.285428 215.99659,50 l 0.0204,-0.285428 0.0608,-0.279618 0.0932,-0.249967 0.007,-0.01815 0.0944,-0.172944 0.0427,-0.07821 0.17149,-0.22908 0.20234,-0.202344 0.16374,-0.12257 0.0653,-0.04892 0.25116,-0.137144 0.14519,-0.05415 0.12292,-0.04585 v 0 l 0.27962,-0.06083 0.28543,-0.02041 0.28543,0.02041 0.27962,0.06083 0.26811,0.1 0.25116,0.137144 0.16373,0.122568 0.0653,0.04892 1e-5,10e-7 0.20234,0.202342 v 3e-6 l 0.17148,0.229075 0.13715,0.251159 0.1,0.268113 0.0507,0.233025 0.0101,0.04659 L 220.00781,50 h 1.49389 v -3.2505 l -0.0189,-0.09529 -0.054,-0.08078 -0.0808,-0.05398 -0.0953,-0.01895 h -108.501 z"
       id="path179" />
    <path
       style="fill:none;stroke:#000000;stroke-width:0.5;stroke-linecap:round;stroke-linejoin:round;stroke-opacity:1"
       d="m 222.0022,46 h -110 v 25 h 110 z"
       id="path180" />
  </g>
  <g
     style="fill:#000000;fill-opacity:1;stroke:none"
     id="g181"
     transform="translate(-111.7522,-45.75)">
    <circle
       cx="218.0022"
       cy="50"
       r="1.55"
       id="circle180" />
    <circle
       cx="116.0022"
       cy="50"
       r="1.55"
       id="circle181" />
  </g>
  <metadata
     id="metadata181">
    <rdf:RDF>
      <cc:Work
         rdf:about="">
        <dc:title>SVG Image created as Photoresistor-array-F_Cu.svg date 2024/04/25 14:01:04 </dc:title>
      </cc:Work>
    </rdf:RDF>
  </metadata>
</svg>
