<?xml version="1.0" standalone="no"?>
 <!DOCTYPE svg PUBLIC "-//W3C//DTD SVG 1.1//EN" 
 "http://www.w3.org/Graphics/SVG/1.1/DTD/svg11.dtd"> 
<svg
  xmlns:svg="http://www.w3.org/2000/svg"
  xmlns="http://www.w3.org/2000/svg"
  xmlns:xlink="http://www.w3.org/1999/xlink"
  version="1.1"
  width="297.002200mm" height="210.007200mm" viewBox="0.000000 0.000000 297.002200 210.007200">
<title>SVG Image created as RobotASK-B_Cu.svg date 2024/04/25 14:08:06 </title>
  <desc>Image generated by PCBNEW </desc>
<g style="fill:#000000; fill-opacity:1.000000;stroke:#000000; stroke-opacity:1.000000;
stroke-linecap:round; stroke-linejoin:round;"
 transform="translate(0 0) scale(1 1)">
</g>
<g style="fill:none; 
stroke:#000000; stroke-width:0.400000; stroke-opacity:1; 
stroke-linecap:round; stroke-linejoin:round;">
<g transform="rotate(-45.000000 132.969586 82.569586)">
<text x="132.969586" y="82.569586"
transform="scale(-1 1) translate(-265.939172 0)"
textLength="28.419051" font-size="2.666666" lengthAdjust="spacingAndGlyphs"
text-anchor="middle" opacity="0">Tomasz Pawłowski</text>
</g>
<g class="stroked-text"><desc>Tomasz Pawłowski</desc>
<path d="M140.997713 71.337470
L140.189591 72.145592
" />
<path d="M142.007866 73.155744
L140.593652 71.741531
" />
<path d="M140.930369 74.233241
L140.997713 74.031210
" />
<path d="M140.997713 74.031210
L140.997713 73.896523
" />
<path d="M140.997713 73.896523
L140.930369 73.694492
" />
<path d="M140.930369 73.694492
L140.526308 73.290431
" />
<path d="M140.526308 73.290431
L140.324278 73.223088
" />
<path d="M140.324278 73.223088
L140.189591 73.223088
" />
<path d="M140.189591 73.223088
L139.987560 73.290431
" />
<path d="M139.987560 73.290431
L139.785530 73.492462
" />
<path d="M139.785530 73.492462
L139.718186 73.694492
" />
<path d="M139.718186 73.694492
L139.718186 73.829179
" />
<path d="M139.718186 73.829179
L139.785530 74.031210
" />
<path d="M139.785530 74.031210
L140.189591 74.435271
" />
<path d="M140.189591 74.435271
L140.391621 74.502615
" />
<path d="M140.391621 74.502615
L140.526308 74.502615
" />
<path d="M140.526308 74.502615
L140.728339 74.435271
" />
<path d="M140.728339 74.435271
L140.930369 74.233241
" />
<path d="M139.852873 75.310737
L138.910064 74.367928
" />
<path d="M139.044751 74.502615
L138.910064 74.502615
" />
<path d="M138.910064 74.502615
L138.708034 74.569958
" />
<path d="M138.708034 74.569958
L138.506003 74.771989
" />
<path d="M138.506003 74.771989
L138.438659 74.974019
" />
<path d="M138.438659 74.974019
L138.506003 75.176050
" />
<path d="M138.506003 75.176050
L139.246782 75.916828
" />
<path d="M138.506003 75.176050
L138.303972 75.108706
" />
<path d="M138.303972 75.108706
L138.101942 75.176050
" />
<path d="M138.101942 75.176050
L137.899911 75.378080
" />
<path d="M137.899911 75.378080
L137.832568 75.580111
" />
<path d="M137.832568 75.580111
L137.899911 75.782141
" />
<path d="M137.899911 75.782141
L138.640690 76.522920
" />
<path d="M137.361163 77.802447
L136.620385 77.061668
" />
<path d="M136.620385 77.061668
L136.553041 76.859637
" />
<path d="M136.553041 76.859637
L136.620385 76.657607
" />
<path d="M136.620385 76.657607
L136.889759 76.388233
" />
<path d="M136.889759 76.388233
L137.091789 76.320889
" />
<path d="M137.293820 77.735103
L137.495850 77.667760
" />
<path d="M137.495850 77.667760
L137.832568 77.331042
" />
<path d="M137.832568 77.331042
L137.899911 77.129012
" />
<path d="M137.899911 77.129012
L137.832568 76.926981
" />
<path d="M137.832568 76.926981
L137.697881 76.792294
" />
<path d="M137.697881 76.792294
L137.495850 76.724950
" />
<path d="M137.495850 76.724950
L137.293820 76.792294
" />
<path d="M137.293820 76.792294
L136.957102 77.129012
" />
<path d="M136.957102 77.129012
L136.755072 77.196355
" />
<path d="M136.687728 78.341195
L136.620385 78.543225
" />
<path d="M136.620385 78.543225
L136.351011 78.812599
" />
<path d="M136.351011 78.812599
L136.148980 78.879943
" />
<path d="M136.148980 78.879943
L135.946950 78.812599
" />
<path d="M135.946950 78.812599
L135.879606 78.745256
" />
<path d="M135.879606 78.745256
L135.812263 78.543225
" />
<path d="M135.812263 78.543225
L135.879606 78.341195
" />
<path d="M135.879606 78.341195
L136.081637 78.139164
" />
<path d="M136.081637 78.139164
L136.148980 77.937134
" />
<path d="M136.148980 77.937134
L136.081637 77.735103
" />
<path d="M136.081637 77.735103
L136.014293 77.667760
" />
<path d="M136.014293 77.667760
L135.812263 77.600416
" />
<path d="M135.812263 77.600416
L135.610232 77.667760
" />
<path d="M135.610232 77.667760
L135.408201 77.869790
" />
<path d="M135.408201 77.869790
L135.340858 78.071821
" />
<path d="M134.734766 78.543225
L133.993988 79.284004
" />
<path d="M133.993988 79.284004
L135.677575 79.486035
" />
<path d="M135.677575 79.486035
L134.936797 80.226813
" />
<path d="M133.320552 81.843058
L131.906338 80.428844
" />
<path d="M131.906338 80.428844
L131.367590 80.967592
" />
<path d="M131.367590 80.967592
L131.300247 81.169623
" />
<path d="M131.300247 81.169623
L131.300247 81.304310
" />
<path d="M131.300247 81.304310
L131.367590 81.506340
" />
<path d="M131.367590 81.506340
L131.569621 81.708371
" />
<path d="M131.569621 81.708371
L131.771651 81.775714
" />
<path d="M131.771651 81.775714
L131.906338 81.775714
" />
<path d="M131.906338 81.775714
L132.108369 81.708371
" />
<path d="M132.108369 81.708371
L132.647117 81.169623
" />
<path d="M131.300247 83.863363
L130.559468 83.122584
" />
<path d="M130.559468 83.122584
L130.492125 82.920554
" />
<path d="M130.492125 82.920554
L130.559468 82.718523
" />
<path d="M130.559468 82.718523
L130.828842 82.449149
" />
<path d="M130.828842 82.449149
L131.030873 82.381806
" />
<path d="M131.232903 83.796019
L131.434934 83.728676
" />
<path d="M131.434934 83.728676
L131.771651 83.391958
" />
<path d="M131.771651 83.391958
L131.838995 83.189928
" />
<path d="M131.838995 83.189928
L131.771651 82.987897
" />
<path d="M131.771651 82.987897
L131.636964 82.853210
" />
<path d="M131.636964 82.853210
L131.434934 82.785867
" />
<path d="M131.434934 82.785867
L131.232903 82.853210
" />
<path d="M131.232903 82.853210
L130.896186 83.189928
" />
<path d="M130.896186 83.189928
L130.694155 83.257271
" />
<path d="M129.818690 83.459302
L130.492125 84.671485
" />
<path d="M130.492125 84.671485
L129.549316 84.267424
" />
<path d="M129.549316 84.267424
L129.953377 85.210233
" />
<path d="M129.953377 85.210233
L128.741194 84.536798
" />
<path d="M128.943224 86.220385
L129.010568 86.018355
" />
<path d="M129.010568 86.018355
L128.943224 85.816324
" />
<path d="M128.943224 85.816324
L127.731041 84.604141
" />
<path d="M128.673850 85.142889
L128.000415 85.277576
" />
<path d="M128.202446 86.961164
L128.269789 86.759133
" />
<path d="M128.269789 86.759133
L128.269789 86.624446
" />
<path d="M128.269789 86.624446
L128.202446 86.422416
" />
<path d="M128.202446 86.422416
L127.798385 86.018355
" />
<path d="M127.798385 86.018355
L127.596354 85.951011
" />
<path d="M127.596354 85.951011
L127.461667 85.951011
" />
<path d="M127.461667 85.951011
L127.259637 86.018355
" />
<path d="M127.259637 86.018355
L127.057606 86.220385
" />
<path d="M127.057606 86.220385
L126.990263 86.422416
" />
<path d="M126.990263 86.422416
L126.990263 86.557103
" />
<path d="M126.990263 86.557103
L127.057606 86.759133
" />
<path d="M127.057606 86.759133
L127.461667 87.163194
" />
<path d="M127.461667 87.163194
L127.663698 87.230538
" />
<path d="M127.663698 87.230538
L127.798385 87.230538
" />
<path d="M127.798385 87.230538
L128.000415 87.163194
" />
<path d="M128.000415 87.163194
L128.202446 86.961164
" />
<path d="M126.316828 86.961164
L126.990263 88.173347
" />
<path d="M126.990263 88.173347
L126.047454 87.769286
" />
<path d="M126.047454 87.769286
L126.451515 88.712095
" />
<path d="M126.451515 88.712095
L125.239331 88.038660
" />
<path d="M125.643393 89.385530
L125.576049 89.587561
" />
<path d="M125.576049 89.587561
L125.306675 89.856935
" />
<path d="M125.306675 89.856935
L125.104645 89.924278
" />
<path d="M125.104645 89.924278
L124.902614 89.856935
" />
<path d="M124.902614 89.856935
L124.835271 89.789591
" />
<path d="M124.835271 89.789591
L124.767927 89.587561
" />
<path d="M124.767927 89.587561
L124.835271 89.385530
" />
<path d="M124.835271 89.385530
L125.037301 89.183500
" />
<path d="M125.037301 89.183500
L125.104645 88.981469
" />
<path d="M125.104645 88.981469
L125.037301 88.779439
" />
<path d="M125.037301 88.779439
L124.969958 88.712095
" />
<path d="M124.969958 88.712095
L124.767927 88.644752
" />
<path d="M124.767927 88.644752
L124.565897 88.712095
" />
<path d="M124.565897 88.712095
L124.363866 88.914126
" />
<path d="M124.363866 88.914126
L124.296523 89.116156
" />
<path d="M124.498553 90.665057
L123.084339 89.250843
" />
<path d="M123.825118 90.260996
L123.959805 91.203805
" />
<path d="M123.016996 90.260996
L124.094492 90.260996
" />
<path d="M123.353713 91.809897
L122.410904 90.867088
" />
<path d="M121.939499 90.395683
L122.074186 90.395683
" />
<path d="M122.074186 90.395683
L122.074186 90.530370
" />
<path d="M122.074186 90.530370
L121.939499 90.530370
" />
<path d="M121.939499 90.530370
L121.939499 90.395683
" />
<path d="M121.939499 90.395683
L122.074186 90.530370
" />
</g><g transform="rotate(-45.000000 135.246391 84.846391)">
<text x="135.246391" y="84.846391"
transform="scale(-1 1) translate(-270.492782 0)"
textLength="27.466670" font-size="2.666666" lengthAdjust="spacingAndGlyphs"
text-anchor="middle" opacity="0">Jakub Kamieniarz</text>
</g>
<g class="stroked-text"><desc>Jakub Kamieniarz</desc>
<path d="M142.331709 74.557083
L143.341862 75.567236
" />
<path d="M143.341862 75.567236
L143.611236 75.701923
" />
<path d="M143.611236 75.701923
L143.880610 75.701923
" />
<path d="M143.880610 75.701923
L144.149984 75.567236
" />
<path d="M144.149984 75.567236
L144.284671 75.432549
" />
<path d="M142.466396 77.250824
L141.725618 76.510045
" />
<path d="M141.725618 76.510045
L141.658274 76.308015
" />
<path d="M141.658274 76.308015
L141.725618 76.105984
" />
<path d="M141.725618 76.105984
L141.994992 75.836610
" />
<path d="M141.994992 75.836610
L142.197022 75.769267
" />
<path d="M142.399053 77.183480
L142.601083 77.116137
" />
<path d="M142.601083 77.116137
L142.937801 76.779419
" />
<path d="M142.937801 76.779419
L143.005144 76.577389
" />
<path d="M143.005144 76.577389
L142.937801 76.375358
" />
<path d="M142.937801 76.375358
L142.803114 76.240671
" />
<path d="M142.803114 76.240671
L142.601083 76.173328
" />
<path d="M142.601083 76.173328
L142.399053 76.240671
" />
<path d="M142.399053 76.240671
L142.062335 76.577389
" />
<path d="M142.062335 76.577389
L141.860305 76.644732
" />
<path d="M141.792961 77.924259
L140.378747 76.510045
" />
<path d="M141.119526 77.520198
L141.254213 78.463007
" />
<path d="M140.311404 77.520198
L141.388900 77.520198
" />
<path d="M139.099220 78.732381
L140.042030 79.675190
" />
<path d="M139.705312 78.126290
L140.446091 78.867068
" />
<path d="M140.446091 78.867068
L140.513434 79.069099
" />
<path d="M140.513434 79.069099
L140.446091 79.271129
" />
<path d="M140.446091 79.271129
L140.244060 79.473160
" />
<path d="M140.244060 79.473160
L140.042030 79.540503
" />
<path d="M140.042030 79.540503
L139.907343 79.540503
" />
<path d="M139.368594 80.348625
L137.954381 78.934412
" />
<path d="M138.493129 79.473160
L138.291098 79.540503
" />
<path d="M138.291098 79.540503
L138.021724 79.809877
" />
<path d="M138.021724 79.809877
L137.954381 80.011908
" />
<path d="M137.954381 80.011908
L137.954381 80.146595
" />
<path d="M137.954381 80.146595
L138.021724 80.348625
" />
<path d="M138.021724 80.348625
L138.425785 80.752686
" />
<path d="M138.425785 80.752686
L138.627816 80.820030
" />
<path d="M138.627816 80.820030
L138.762503 80.820030
" />
<path d="M138.762503 80.820030
L138.964533 80.752686
" />
<path d="M138.964533 80.752686
L139.233907 80.483312
" />
<path d="M139.233907 80.483312
L139.301251 80.281282
" />
<path d="M137.011571 82.705648
L135.597358 81.291435
" />
<path d="M136.203449 83.513770
L136.001419 82.099557
" />
<path d="M134.789236 82.099557
L136.405480 82.099557
" />
<path d="M134.991266 84.725954
L134.250488 83.985175
" />
<path d="M134.250488 83.985175
L134.183144 83.783145
" />
<path d="M134.183144 83.783145
L134.250488 83.581114
" />
<path d="M134.250488 83.581114
L134.519862 83.311740
" />
<path d="M134.519862 83.311740
L134.721892 83.244396
" />
<path d="M134.923923 84.658610
L135.125953 84.591267
" />
<path d="M135.125953 84.591267
L135.462671 84.254549
" />
<path d="M135.462671 84.254549
L135.530014 84.052519
" />
<path d="M135.530014 84.052519
L135.462671 83.850488
" />
<path d="M135.462671 83.850488
L135.327984 83.715801
" />
<path d="M135.327984 83.715801
L135.125953 83.648458
" />
<path d="M135.125953 83.648458
L134.923923 83.715801
" />
<path d="M134.923923 83.715801
L134.587205 84.052519
" />
<path d="M134.587205 84.052519
L134.385175 84.119862
" />
<path d="M134.317831 85.399389
L133.375022 84.456580
" />
<path d="M133.509709 84.591267
L133.375022 84.591267
" />
<path d="M133.375022 84.591267
L133.172991 84.658610
" />
<path d="M133.172991 84.658610
L132.970961 84.860641
" />
<path d="M132.970961 84.860641
L132.903617 85.062671
" />
<path d="M132.903617 85.062671
L132.970961 85.264702
" />
<path d="M132.970961 85.264702
L133.711740 86.005480
" />
<path d="M132.970961 85.264702
L132.768930 85.197358
" />
<path d="M132.768930 85.197358
L132.566900 85.264702
" />
<path d="M132.566900 85.264702
L132.364869 85.466732
" />
<path d="M132.364869 85.466732
L132.297526 85.668763
" />
<path d="M132.297526 85.668763
L132.364869 85.870793
" />
<path d="M132.364869 85.870793
L133.105648 86.611572
" />
<path d="M132.432213 87.285007
L131.489404 86.342198
" />
<path d="M131.017999 85.870793
L131.152686 85.870793
" />
<path d="M131.152686 85.870793
L131.152686 86.005480
" />
<path d="M131.152686 86.005480
L131.017999 86.005480
" />
<path d="M131.017999 86.005480
L131.017999 85.870793
" />
<path d="M131.017999 85.870793
L131.152686 86.005480
" />
<path d="M131.152686 88.429847
L131.354717 88.362503
" />
<path d="M131.354717 88.362503
L131.624091 88.093129
" />
<path d="M131.624091 88.093129
L131.691434 87.891099
" />
<path d="M131.691434 87.891099
L131.624091 87.689068
" />
<path d="M131.624091 87.689068
L131.085343 87.150320
" />
<path d="M131.085343 87.150320
L130.883312 87.082977
" />
<path d="M130.883312 87.082977
L130.681282 87.150320
" />
<path d="M130.681282 87.150320
L130.411908 87.419694
" />
<path d="M130.411908 87.419694
L130.344564 87.621725
" />
<path d="M130.344564 87.621725
L130.411908 87.823755
" />
<path d="M130.411908 87.823755
L130.546595 87.958442
" />
<path d="M130.546595 87.958442
L131.354717 87.419694
" />
<path d="M129.603785 88.227816
L130.546594 89.170625
" />
<path d="M129.738472 88.362503
L129.603785 88.362503
" />
<path d="M129.603785 88.362503
L129.401755 88.429847
" />
<path d="M129.401755 88.429847
L129.199724 88.631877
" />
<path d="M129.199724 88.631877
L129.132381 88.833908
" />
<path d="M129.132381 88.833908
L129.199724 89.035938
" />
<path d="M129.199724 89.035938
L129.940503 89.776717
" />
<path d="M129.267068 90.450152
L128.324259 89.507343
" />
<path d="M127.852854 89.035938
L127.987541 89.035938
" />
<path d="M127.987541 89.035938
L127.987541 89.170625
" />
<path d="M127.987541 89.170625
L127.852854 89.170625
" />
<path d="M127.852854 89.170625
L127.852854 89.035938
" />
<path d="M127.852854 89.035938
L127.987541 89.170625
" />
<path d="M127.987541 91.729679
L127.246763 90.988900
" />
<path d="M127.246763 90.988900
L127.179419 90.786870
" />
<path d="M127.179419 90.786870
L127.246763 90.584839
" />
<path d="M127.246763 90.584839
L127.516137 90.315465
" />
<path d="M127.516137 90.315465
L127.718167 90.248122
" />
<path d="M127.920198 91.662335
L128.122228 91.594992
" />
<path d="M128.122228 91.594992
L128.458946 91.258274
" />
<path d="M128.458946 91.258274
L128.526289 91.056244
" />
<path d="M128.526289 91.056244
L128.458946 90.854213
" />
<path d="M128.458946 90.854213
L128.324259 90.719526
" />
<path d="M128.324259 90.719526
L128.122228 90.652183
" />
<path d="M128.122228 90.652183
L127.920198 90.719526
" />
<path d="M127.920198 90.719526
L127.583480 91.056244
" />
<path d="M127.583480 91.056244
L127.381450 91.123587
" />
<path d="M127.314106 92.403114
L126.371297 91.460305
" />
<path d="M126.640671 91.729679
L126.438640 91.662335
" />
<path d="M126.438640 91.662335
L126.303953 91.662335
" />
<path d="M126.303953 91.662335
L126.101923 91.729679
" />
<path d="M126.101923 91.729679
L125.967236 91.864366
" />
<path d="M125.630519 92.201083
L124.889740 92.941862
" />
<path d="M124.889740 92.941862
L126.573328 93.143892
" />
<path d="M126.573328 93.143892
L125.832549 93.884671
" />
</g><g transform="rotate(-45.000000 137.523196 87.123196)">
<text x="137.523196" y="87.123196"
transform="scale(-1 1) translate(-275.046392 0)"
textLength="20.800002" font-size="2.666666" lengthAdjust="spacingAndGlyphs"
text-anchor="middle" opacity="0">Adam Detmer</text>
</g>
<g class="stroked-text"><desc>Adam Detmer</desc>
<path d="M143.733048 79.729659
L143.059613 80.403094
" />
<path d="M144.271796 79.999033
L142.386178 79.056224
" />
<path d="M142.386178 79.056224
L143.328987 80.941842
" />
<path d="M142.251491 82.019339
L140.837278 80.605125
" />
<path d="M142.184148 81.951995
L142.386178 81.884652
" />
<path d="M142.386178 81.884652
L142.655552 81.615278
" />
<path d="M142.655552 81.615278
L142.722896 81.413247
" />
<path d="M142.722896 81.413247
L142.722896 81.278560
" />
<path d="M142.722896 81.278560
L142.655552 81.076530
" />
<path d="M142.655552 81.076530
L142.251491 80.672469
" />
<path d="M142.251491 80.672469
L142.049461 80.605125
" />
<path d="M142.049461 80.605125
L141.914774 80.605125
" />
<path d="M141.914774 80.605125
L141.712743 80.672469
" />
<path d="M141.712743 80.672469
L141.443369 80.941843
" />
<path d="M141.443369 80.941843
L141.376026 81.143873
" />
<path d="M140.971964 83.298865
L140.231186 82.558087
" />
<path d="M140.231186 82.558087
L140.163842 82.356056
" />
<path d="M140.163842 82.356056
L140.231186 82.154026
" />
<path d="M140.231186 82.154026
L140.500560 81.884652
" />
<path d="M140.500560 81.884652
L140.702590 81.817308
" />
<path d="M140.904621 83.231522
L141.106651 83.164178
" />
<path d="M141.106651 83.164178
L141.443369 82.827461
" />
<path d="M141.443369 82.827461
L141.510712 82.625430
" />
<path d="M141.510712 82.625430
L141.443369 82.423400
" />
<path d="M141.443369 82.423400
L141.308682 82.288713
" />
<path d="M141.308682 82.288713
L141.106651 82.221369
" />
<path d="M141.106651 82.221369
L140.904621 82.288713
" />
<path d="M140.904621 82.288713
L140.567903 82.625430
" />
<path d="M140.567903 82.625430
L140.365873 82.692774
" />
<path d="M140.298529 83.972301
L139.355720 83.029491
" />
<path d="M139.490407 83.164178
L139.355720 83.164178
" />
<path d="M139.355720 83.164178
L139.153690 83.231522
" />
<path d="M139.153690 83.231522
L138.951659 83.433552
" />
<path d="M138.951659 83.433552
L138.884316 83.635583
" />
<path d="M138.884316 83.635583
L138.951659 83.837614
" />
<path d="M138.951659 83.837614
L139.692438 84.578392
" />
<path d="M138.951659 83.837614
L138.749629 83.770270
" />
<path d="M138.749629 83.770270
L138.547598 83.837614
" />
<path d="M138.547598 83.837614
L138.345568 84.039644
" />
<path d="M138.345568 84.039644
L138.278224 84.241675
" />
<path d="M138.278224 84.241675
L138.345568 84.443705
" />
<path d="M138.345568 84.443705
L139.086346 85.184484
" />
<path d="M137.335415 86.935415
L135.921201 85.521202
" />
<path d="M135.921201 85.521202
L135.584483 85.857919
" />
<path d="M135.584483 85.857919
L135.449796 86.127293
" />
<path d="M135.449796 86.127293
L135.449796 86.396667
" />
<path d="M135.449796 86.396667
L135.517140 86.598698
" />
<path d="M135.517140 86.598698
L135.719170 86.935415
" />
<path d="M135.719170 86.935415
L135.921201 87.137446
" />
<path d="M135.921201 87.137446
L136.257918 87.339476
" />
<path d="M136.257918 87.339476
L136.459949 87.406820
" />
<path d="M136.459949 87.406820
L136.729323 87.406820
" />
<path d="M136.729323 87.406820
L136.998697 87.272133
" />
<path d="M136.998697 87.272133
L137.335415 86.935415
" />
<path d="M135.315109 88.821033
L135.517140 88.753690
" />
<path d="M135.517140 88.753690
L135.786514 88.484316
" />
<path d="M135.786514 88.484316
L135.853857 88.282285
" />
<path d="M135.853857 88.282285
L135.786514 88.080255
" />
<path d="M135.786514 88.080255
L135.247766 87.541507
" />
<path d="M135.247766 87.541507
L135.045735 87.474163
" />
<path d="M135.045735 87.474163
L134.843705 87.541507
" />
<path d="M134.843705 87.541507
L134.574331 87.810881
" />
<path d="M134.574331 87.810881
L134.506987 88.012911
" />
<path d="M134.506987 88.012911
L134.574331 88.214942
" />
<path d="M134.574331 88.214942
L134.709018 88.349629
" />
<path d="M134.709018 88.349629
L135.517140 87.810881
" />
<path d="M133.968239 88.416972
L133.429491 88.955721
" />
<path d="M133.294804 88.147598
L134.506987 89.359782
" />
<path d="M134.506987 89.359782
L134.574331 89.561812
" />
<path d="M134.574331 89.561812
L134.506987 89.763843
" />
<path d="M134.506987 89.763843
L134.372300 89.898530
" />
<path d="M133.900896 90.369934
L132.958087 89.427125
" />
<path d="M133.092774 89.561812
L132.958087 89.561812
" />
<path d="M132.958087 89.561812
L132.756056 89.629155
" />
<path d="M132.756056 89.629155
L132.554026 89.831186
" />
<path d="M132.554026 89.831186
L132.486682 90.033216
" />
<path d="M132.486682 90.033216
L132.554026 90.235247
" />
<path d="M132.554026 90.235247
L133.294804 90.976025
" />
<path d="M132.554026 90.235247
L132.351995 90.167903
" />
<path d="M132.351995 90.167903
L132.149965 90.235247
" />
<path d="M132.149965 90.235247
L131.947934 90.437277
" />
<path d="M131.947934 90.437277
L131.880591 90.639308
" />
<path d="M131.880591 90.639308
L131.947934 90.841338
" />
<path d="M131.947934 90.841338
L132.688713 91.582117
" />
<path d="M131.409186 92.726957
L131.611216 92.659613
" />
<path d="M131.611216 92.659613
L131.880590 92.390239
" />
<path d="M131.880590 92.390239
L131.947934 92.188209
" />
<path d="M131.947934 92.188209
L131.880590 91.986178
" />
<path d="M131.880590 91.986178
L131.341842 91.447430
" />
<path d="M131.341842 91.447430
L131.139812 91.380087
" />
<path d="M131.139812 91.380087
L130.937781 91.447430
" />
<path d="M130.937781 91.447430
L130.668407 91.716804
" />
<path d="M130.668407 91.716804
L130.601064 91.918835
" />
<path d="M130.601064 91.918835
L130.668407 92.120865
" />
<path d="M130.668407 92.120865
L130.803094 92.255552
" />
<path d="M130.803094 92.255552
L131.611216 91.716804
" />
<path d="M130.803094 93.467736
L129.860285 92.524926
" />
<path d="M130.129659 92.794301
L129.927629 92.726957
" />
<path d="M129.927629 92.726957
L129.792942 92.726957
" />
<path d="M129.792942 92.726957
L129.590911 92.794301
" />
<path d="M129.590911 92.794301
L129.456224 92.928988
" />
</g><g transform="rotate(-45.000000 139.800001 89.400001)">
<text x="139.800001" y="89.400001"
transform="scale(-1 1) translate(-279.600002 0)"
textLength="18.704764" font-size="2.666666" lengthAdjust="spacingAndGlyphs"
text-anchor="middle" opacity="0">Jakub Buler</text>
</g>
<g class="stroked-text"><desc>Jakub Buler</desc>
<path d="M143.787518 82.208495
L144.797670 83.218647
" />
<path d="M144.797670 83.218647
L145.067044 83.353334
" />
<path d="M145.067044 83.353334
L145.336418 83.353334
" />
<path d="M145.336418 83.353334
L145.605792 83.218647
" />
<path d="M145.605792 83.218647
L145.740479 83.083960
" />
<path d="M143.922204 84.902235
L143.181426 84.161457
" />
<path d="M143.181426 84.161457
L143.114082 83.959426
" />
<path d="M143.114082 83.959426
L143.181426 83.757396
" />
<path d="M143.181426 83.757396
L143.450800 83.488022
" />
<path d="M143.450800 83.488022
L143.652830 83.420678
" />
<path d="M143.854861 84.834892
L144.056891 84.767548
" />
<path d="M144.056891 84.767548
L144.393609 84.430831
" />
<path d="M144.393609 84.430831
L144.460952 84.228800
" />
<path d="M144.460952 84.228800
L144.393609 84.026770
" />
<path d="M144.393609 84.026770
L144.258922 83.892083
" />
<path d="M144.258922 83.892083
L144.056891 83.824739
" />
<path d="M144.056891 83.824739
L143.854861 83.892083
" />
<path d="M143.854861 83.892083
L143.518143 84.228800
" />
<path d="M143.518143 84.228800
L143.316113 84.296144
" />
<path d="M143.248769 85.575670
L141.834556 84.161457
" />
<path d="M142.575334 85.171609
L142.710021 86.114418
" />
<path d="M141.767212 85.171609
L142.844708 85.171609
" />
<path d="M140.555029 86.383793
L141.497838 87.326602
" />
<path d="M141.161120 85.777701
L141.901899 86.518480
" />
<path d="M141.901899 86.518480
L141.969242 86.720510
" />
<path d="M141.969242 86.720510
L141.901899 86.922541
" />
<path d="M141.901899 86.922541
L141.699868 87.124571
" />
<path d="M141.699868 87.124571
L141.497838 87.191915
" />
<path d="M141.497838 87.191915
L141.363151 87.191915
" />
<path d="M140.824403 88.000037
L139.410189 86.585823
" />
<path d="M139.948937 87.124571
L139.746907 87.191915
" />
<path d="M139.746907 87.191915
L139.477533 87.461289
" />
<path d="M139.477533 87.461289
L139.410189 87.663319
" />
<path d="M139.410189 87.663319
L139.410189 87.798006
" />
<path d="M139.410189 87.798006
L139.477533 88.000037
" />
<path d="M139.477533 88.000037
L139.881594 88.404098
" />
<path d="M139.881594 88.404098
L140.083624 88.471441
" />
<path d="M140.083624 88.471441
L140.218311 88.471441
" />
<path d="M140.218311 88.471441
L140.420342 88.404098
" />
<path d="M140.420342 88.404098
L140.689716 88.134724
" />
<path d="M140.689716 88.134724
L140.757059 87.932693
" />
<path d="M137.255197 90.087686
L137.120510 90.357060
" />
<path d="M137.120510 90.357060
L137.120510 90.491747
" />
<path d="M137.120510 90.491747
L137.187853 90.693778
" />
<path d="M137.187853 90.693778
L137.389884 90.895808
" />
<path d="M137.389884 90.895808
L137.591914 90.963152
" />
<path d="M137.591914 90.963152
L137.726601 90.963152
" />
<path d="M137.726601 90.963152
L137.928632 90.895808
" />
<path d="M137.928632 90.895808
L138.467380 90.357060
" />
<path d="M138.467380 90.357060
L137.053166 88.942846
" />
<path d="M137.053166 88.942846
L136.581762 89.414251
" />
<path d="M136.581762 89.414251
L136.514418 89.616282
" />
<path d="M136.514418 89.616282
L136.514418 89.750969
" />
<path d="M136.514418 89.750969
L136.581762 89.952999
" />
<path d="M136.581762 89.952999
L136.716449 90.087686
" />
<path d="M136.716449 90.087686
L136.918479 90.155030
" />
<path d="M136.918479 90.155030
L137.053166 90.155030
" />
<path d="M137.053166 90.155030
L137.255197 90.087686
" />
<path d="M137.255197 90.087686
L137.726601 89.616282
" />
<path d="M135.504266 91.434556
L136.447075 92.377365
" />
<path d="M136.110357 90.828465
L136.851136 91.569243
" />
<path d="M136.851136 91.569243
L136.918479 91.771274
" />
<path d="M136.918479 91.771274
L136.851136 91.973304
" />
<path d="M136.851136 91.973304
L136.649105 92.175335
" />
<path d="M136.649105 92.175335
L136.447075 92.242678
" />
<path d="M136.447075 92.242678
L136.312388 92.242678
" />
<path d="M135.571609 93.252831
L135.638952 93.050800
" />
<path d="M135.638952 93.050800
L135.571609 92.848770
" />
<path d="M135.571609 92.848770
L134.359426 91.636587
" />
<path d="M134.426769 94.262983
L134.628800 94.195640
" />
<path d="M134.628800 94.195640
L134.898174 93.926266
" />
<path d="M134.898174 93.926266
L134.965517 93.724235
" />
<path d="M134.965517 93.724235
L134.898174 93.522205
" />
<path d="M134.898174 93.522205
L134.359426 92.983457
" />
<path d="M134.359426 92.983457
L134.157395 92.916113
" />
<path d="M134.157395 92.916113
L133.955365 92.983457
" />
<path d="M133.955365 92.983457
L133.685991 93.252831
" />
<path d="M133.685991 93.252831
L133.618647 93.454861
" />
<path d="M133.618647 93.454861
L133.685991 93.656892
" />
<path d="M133.685991 93.656892
L133.820678 93.791579
" />
<path d="M133.820678 93.791579
L134.628800 93.252831
" />
<path d="M133.820678 95.003762
L132.877869 94.060953
" />
<path d="M133.147243 94.330327
L132.945212 94.262984
" />
<path d="M132.945212 94.262984
L132.810525 94.262984
" />
<path d="M132.810525 94.262984
L132.608495 94.330327
" />
<path d="M132.608495 94.330327
L132.473808 94.465014
" />
</g></g>
<g style="fill:none; 
stroke:#000000; stroke-width:0.625000; stroke-opacity:1; 
stroke-linecap:round; stroke-linejoin:round;">
<g transform="rotate(-45.000000 80.153994 60.153994)">
<text x="80.153994" y="60.153994"
transform="scale(-1 1) translate(-160.307988 0)"
textLength="8.517857" font-size="3.333333" lengthAdjust="spacingAndGlyphs"
text-anchor="middle" opacity="0">WIIT</text>
</g>
<g class="stroked-text"><desc>WIIT</desc>
<path d="M80.419747 55.874062
L81.766617 58.062726
" />
<path d="M81.766617 58.062726
L80.167209 57.136752
" />
<path d="M80.167209 57.136752
L81.093182 58.736161
" />
<path d="M81.093182 58.736161
L78.904519 57.389291
" />
<path d="M79.998850 59.830493
L78.231083 58.062726
" />
<path d="M79.157057 60.672286
L77.389290 58.904519
" />
<path d="M76.800034 59.493775
L75.789882 60.503927
" />
<path d="M78.062725 61.766618
L76.294958 59.998851
" />
</g><g transform="rotate(-45.000000 83.000000 63.000000)">
<text x="83.000000" y="63.000000"
transform="scale(-1 1) translate(-166.000000 0)"
textLength="17.803570" font-size="3.333333" lengthAdjust="spacingAndGlyphs"
text-anchor="middle" opacity="0">PP 2024</text>
</g>
<g class="stroked-text"><desc>PP 2024</desc>
<path d="M88.148157 57.373198
L86.380390 55.605431
" />
<path d="M86.380390 55.605431
L85.706955 56.278866
" />
<path d="M85.706955 56.278866
L85.622776 56.531404
" />
<path d="M85.622776 56.531404
L85.622776 56.699763
" />
<path d="M85.622776 56.699763
L85.706955 56.952301
" />
<path d="M85.706955 56.952301
L85.959493 57.204839
" />
<path d="M85.959493 57.204839
L86.212032 57.289018
" />
<path d="M86.212032 57.289018
L86.380390 57.289018
" />
<path d="M86.380390 57.289018
L86.632928 57.204839
" />
<path d="M86.632928 57.204839
L87.306363 56.531404
" />
<path d="M86.380390 59.140965
L84.612623 57.373198
" />
<path d="M84.612623 57.373198
L83.939188 58.046633
" />
<path d="M83.939188 58.046633
L83.855009 58.299171
" />
<path d="M83.855009 58.299171
L83.855009 58.467530
" />
<path d="M83.855009 58.467530
L83.939188 58.720068
" />
<path d="M83.939188 58.720068
L84.191726 58.972606
" />
<path d="M84.191726 58.972606
L84.444265 59.056785
" />
<path d="M84.444265 59.056785
L84.612623 59.056785
" />
<path d="M84.612623 59.056785
L84.865161 58.972606
" />
<path d="M84.865161 58.972606
L85.538597 58.299171
" />
<path d="M81.750524 60.572014
L81.582166 60.572014
" />
<path d="M81.582166 60.572014
L81.329628 60.656194
" />
<path d="M81.329628 60.656194
L80.908731 61.077091
" />
<path d="M80.908731 61.077091
L80.824551 61.329629
" />
<path d="M80.824551 61.329629
L80.824551 61.497987
" />
<path d="M80.824551 61.497987
L80.908731 61.750526
" />
<path d="M80.908731 61.750526
L81.077089 61.918884
" />
<path d="M81.077089 61.918884
L81.413807 62.087243
" />
<path d="M81.413807 62.087243
L83.434112 62.087243
" />
<path d="M83.434112 62.087243
L82.339780 63.181575
" />
<path d="M79.477681 62.508140
L79.309323 62.676498
" />
<path d="M79.309323 62.676498
L79.225143 62.929037
" />
<path d="M79.225143 62.929037
L79.225143 63.097395
" />
<path d="M79.225143 63.097395
L79.309323 63.349933
" />
<path d="M79.309323 63.349933
L79.561861 63.770830
" />
<path d="M79.561861 63.770830
L79.982758 64.191727
" />
<path d="M79.982758 64.191727
L80.403655 64.444265
" />
<path d="M80.403655 64.444265
L80.656193 64.528445
" />
<path d="M80.656193 64.528445
L80.824552 64.528445
" />
<path d="M80.824552 64.528445
L81.077090 64.444265
" />
<path d="M81.077090 64.444265
L81.245448 64.275907
" />
<path d="M81.245448 64.275907
L81.329628 64.023369
" />
<path d="M81.329628 64.023369
L81.329628 63.855010
" />
<path d="M81.329628 63.855010
L81.245448 63.602472
" />
<path d="M81.245448 63.602472
L80.992910 63.181575
" />
<path d="M80.992910 63.181575
L80.572013 62.760678
" />
<path d="M80.572013 62.760678
L80.151116 62.508140
" />
<path d="M80.151116 62.508140
L79.898578 62.423960
" />
<path d="M79.898578 62.423960
L79.730220 62.423960
" />
<path d="M79.730220 62.423960
L79.477681 62.508140
" />
<path d="M78.383350 63.939189
L78.214991 63.939189
" />
<path d="M78.214991 63.939189
L77.962453 64.023368
" />
<path d="M77.962453 64.023368
L77.541556 64.444265
" />
<path d="M77.541556 64.444265
L77.457377 64.696803
" />
<path d="M77.457377 64.696803
L77.457377 64.865162
" />
<path d="M77.457377 64.865162
L77.541556 65.117700
" />
<path d="M77.541556 65.117700
L77.709915 65.286059
" />
<path d="M77.709915 65.286059
L78.046632 65.454418
" />
<path d="M78.046632 65.454418
L80.066937 65.454418
" />
<path d="M80.066937 65.454418
L78.972605 66.548750
" />
<path d="M76.278866 66.885467
L77.457377 68.063978
" />
<path d="M76.026327 65.791135
L77.709915 66.632929
" />
<path d="M77.709915 66.632929
L76.615583 67.727261
" />
</g><path style="fill:#000000; fill-opacity:1.000000; stroke:none;fill-rule:evenodd;"
d="M 143.200000,65.920000
144.900000,65.920000
144.900000,67.620000
143.200000,67.620000
Z" /> 
</g>
<g style="fill:#000000; fill-opacity:1.000000; stroke:none;">
<circle cx="141.510000" cy="66.770000" r="0.850000" /> 
<circle cx="138.970000" cy="66.770000" r="0.850000" /> 
<circle cx="136.430000" cy="66.770000" r="0.850000" /> 
<path style="fill:#000000; fill-opacity:1.000000; stroke:none;fill-rule:evenodd;"
d="M 95.030000,71.650000
93.330000,71.650000
93.330000,69.950000
95.030000,69.950000
Z" /> 
<circle cx="96.720000" cy="70.800000" r="0.850000" /> 
<circle cx="99.260000" cy="70.800000" r="0.850000" /> 
<circle cx="101.800000" cy="70.800000" r="0.850000" /> 
<circle cx="81.110000" cy="80.250000" r="0.800000" /> 
</g>
<g style="fill:#000000; fill-opacity:1.000000; stroke:none;">
<circle cx="81.110000" cy="90.410000" r="0.800000" /> 
<circle cx="102.750000" cy="90.000000" r="0.800000" /> 
</g>
<g style="fill:#000000; fill-opacity:1.000000; stroke:none;">
<circle cx="102.750000" cy="87.500000" r="0.800000" /> 
<path style="fill:#000000; fill-opacity:1.000000; stroke:none;fill-rule:evenodd;"
d="M 100.900000,55.550000
100.900000,53.850000
102.600000,53.850000
102.600000,55.550000
Z" /> 
</g>
<g style="fill:#000000; fill-opacity:1.000000; stroke:none;">
<circle cx="101.750000" cy="57.240000" r="0.850000" /> 
<circle cx="101.750000" cy="59.780000" r="0.850000" /> 
<circle cx="101.750000" cy="62.320000" r="0.850000" /> 
<circle cx="98.500000" cy="90.000000" r="0.800000" /> 
</g>
<g style="fill:#000000; fill-opacity:1.000000; stroke:none;">
<circle cx="98.500000" cy="87.500000" r="0.800000" /> 
</g>
<g style="fill:#000000; fill-opacity:1.000000; stroke:none;">
<circle cx="114.300000" cy="88.000000" r="0.750000" /> 
</g>
<g style="fill:#000000; fill-opacity:1.000000; stroke:none;">
<circle cx="109.420000" cy="88.000000" r="0.750000" /> 
</g>
<g style="fill:#000000; fill-opacity:1.000000; stroke:none;">
<circle cx="92.250000" cy="95.110000" r="1.000000" /> 
</g>
<g style="fill:#000000; fill-opacity:1.000000; stroke:none;">
<circle cx="85.750000" cy="95.110000" r="1.000000" /> 
</g>
<g style="fill:#000000; fill-opacity:1.000000; stroke:none;">
<circle cx="92.250000" cy="90.610000" r="1.000000" /> 
</g>
<g style="fill:#000000; fill-opacity:1.000000; stroke:none;">
<circle cx="85.750000" cy="90.610000" r="1.000000" /> 
<path style="fill:#000000; fill-opacity:1.000000; stroke:none;fill-rule:evenodd;"
d="M 95.030000,60.630000
93.330000,60.630000
93.330000,58.930000
95.030000,58.930000
Z" /> 
</g>
<g style="fill:#000000; fill-opacity:1.000000; stroke:none;">
<circle cx="96.720000" cy="59.780000" r="0.850000" /> 
<path style="fill:#000000; fill-opacity:1.000000; stroke:none;fill-rule:evenodd;"
d="M 89.850000,82.420000
88.250000,82.420000
88.250000,80.820000
89.850000,80.820000
Z" /> 
<circle cx="91.590000" cy="81.620000" r="0.800000" /> 
<circle cx="94.130000" cy="81.620000" r="0.800000" /> 
<circle cx="96.670000" cy="81.620000" r="0.800000" /> 
<circle cx="99.210000" cy="81.620000" r="0.800000" /> 
<circle cx="101.750000" cy="81.620000" r="0.800000" /> 
<circle cx="104.290000" cy="81.620000" r="0.800000" /> 
<circle cx="106.830000" cy="81.620000" r="0.800000" /> 
<circle cx="109.370000" cy="81.620000" r="0.800000" /> 
<circle cx="111.910000" cy="81.620000" r="0.800000" /> 
<circle cx="114.450000" cy="81.620000" r="0.800000" /> 
<circle cx="116.990000" cy="81.620000" r="0.800000" /> 
<circle cx="119.530000" cy="81.620000" r="0.800000" /> 
<circle cx="122.070000" cy="81.620000" r="0.800000" /> 
<circle cx="122.070000" cy="74.000000" r="0.800000" /> 
<circle cx="119.530000" cy="74.000000" r="0.800000" /> 
<circle cx="116.990000" cy="74.000000" r="0.800000" /> 
<circle cx="114.450000" cy="74.000000" r="0.800000" /> 
<circle cx="111.910000" cy="74.000000" r="0.800000" /> 
<circle cx="109.370000" cy="74.000000" r="0.800000" /> 
<circle cx="106.830000" cy="74.000000" r="0.800000" /> 
<circle cx="104.290000" cy="74.000000" r="0.800000" /> 
<circle cx="101.750000" cy="74.000000" r="0.800000" /> 
<circle cx="99.210000" cy="74.000000" r="0.800000" /> 
<circle cx="96.670000" cy="74.000000" r="0.800000" /> 
<circle cx="94.130000" cy="74.000000" r="0.800000" /> 
<circle cx="91.590000" cy="74.000000" r="0.800000" /> 
<circle cx="89.050000" cy="74.000000" r="0.800000" /> 
<path style="fill:#000000; fill-opacity:1.000000; stroke:none;fill-rule:evenodd;"
d="M 89.950000,85.850000
88.250000,85.850000
88.250000,84.150000
89.950000,84.150000
Z" /> 
<circle cx="91.640000" cy="85.000000" r="0.850000" /> 
<circle cx="94.180000" cy="85.000000" r="0.850000" /> 
<path style="fill:#000000; fill-opacity:1.000000; stroke:none;fill-rule:evenodd;"
d="M 124.400000,55.550000
124.400000,53.850000
126.100000,53.850000
126.100000,55.550000
Z" /> 
<circle cx="125.250000" cy="57.240000" r="0.850000" /> 
<circle cx="125.250000" cy="59.780000" r="0.850000" /> 
<circle cx="125.250000" cy="62.320000" r="0.850000" /> 
<path style="fill:#000000; fill-opacity:1.000000; stroke:none;fill-rule:evenodd;"
d="M 112.650000,55.550000
112.650000,53.850000
114.350000,53.850000
114.350000,55.550000
Z" /> 
<circle cx="113.500000" cy="57.240000" r="0.850000" /> 
<circle cx="113.500000" cy="59.780000" r="0.850000" /> 
<circle cx="113.500000" cy="62.320000" r="0.850000" /> 
<path style="fill:#000000; fill-opacity:1.000000; stroke:none;fill-rule:evenodd;"
d="M 136.150000,55.550000
136.150000,53.850000
137.850000,53.850000
137.850000,55.550000
Z" /> 
<circle cx="137.000000" cy="57.240000" r="0.850000" /> 
<circle cx="137.000000" cy="59.780000" r="0.850000" /> 
<circle cx="137.000000" cy="62.320000" r="0.850000" /> 
</g>
<g style="fill:none; 
stroke:#000000; stroke-width:1.000000; stroke-opacity:1; 
stroke-linecap:round; stroke-linejoin:round;">
<path d="M113.714213 91.785787
L112.585786 92.914214
" />
<path d="M113.464466 87.074466
L114.390000 88.000000
" />
<path d="M114.300000 88.000000
L114.300000 90.371573
" />
<path d="M99.914213 92.914213
L99.085786 92.085786
" />
<path d="M98.500000 90.671573
L98.500000 90.000000
" />
<path d="M111.171573 93.500000
L101.328427 93.500000
" />
<path d="M112.000000 81.620000
L112.000000 83.538932
" />
<path d="M114.390000 88.000000
L114.390000 88.378932
" />
<path d="M98.500000 90.671573 A2.000000 2.000000 0.0 0 0 99.085772 92.085800" />
<path d="M111.171573 93.500000 A2.000000 2.000000 0.0 0 0 112.585800 92.914228" />
<path d="M111.999977 83.538932 A5.000023 5.000023 0.0 0 0 113.464466 87.074466" />
<path d="M99.914199 92.914227 A2.000000 2.000000 0.0 0 0 101.328427 93.500000" />
<path d="M113.714213 91.785787 A1.999981 1.999981 0.0 0 0 114.299981 90.371573" />
<path d="M78.842659 93.749962
L78.171349 93.078651
" />
<path d="M76.090000 81.906854
L76.090000 89.340448
" />
<path d="M137.000000 54.700000
L137.000000 53.500000
" />
<path d="M101.340000 87.500000
L96.340000 87.500000
" />
<path d="M79.616911 94.524213
L77.046349 91.953651
" />
<path d="M78.171349 93.078651
L77.046349 91.953651
" />
<path d="M91.000000 65.340000
L91.000000 66.500000
" />
<path d="M139.014718 54.085786
L142.585534 57.656602
" />
<path d="M113.600000 53.500000
L113.600000 54.600000
" />
<path d="M94.180000 61.331573
L94.180000 59.500000
" />
<path d="M144.050000 61.192136
L144.050000 66.770000
" />
<path d="M94.180000 58.500000
L94.180000 59.500000
" />
<path d="M95.590000 89.078427
L95.590000 94.250000
" />
<path d="M93.901573 95.110000
L84.342136 95.110000
" />
<path d="M137.000000 53.500000
L137.600505 53.500000
" />
<path d="M101.800000 53.500000
L99.180000 53.500000
" />
<path d="M94.180000 59.780000
L94.180000 61.331573
" />
<path d="M103.425787 86.914213
L106.334214 84.005786
" />
<path d="M95.590000 94.250000
L95.315787 94.524213
" />
<path d="M101.800000 53.500000
L101.750000 53.550000
" />
<path d="M93.594213 62.745787
L92.045000 64.295000
" />
<path d="M85.750000 95.110000
L81.031125 95.110000
" />
<path d="M113.600000 54.600000
L113.500000 54.700000
" />
<path d="M104.380000 73.540000
L104.380000 74.302943
" />
<path d="M96.340000 87.500000
L96.175787 87.664213
" />
<path d="M113.600000 53.500000
L101.800000 53.500000
" />
<path d="M125.400000 53.500000
L113.600000 53.500000
" />
<path d="M125.250000 54.700000
L125.250000 53.650000
" />
<path d="M92.045000 64.295000
L86.920000 69.420000
" />
<path d="M125.250000 53.650000
L125.400000 53.500000
" />
<path d="M89.840000 66.500000
L91.000000 66.500000
" />
<path d="M102.835787 67.085787
L103.704214 67.954214
" />
<path d="M106.920000 82.591573
L106.920000 81.620000
" />
<path d="M101.750000 53.550000
L101.750000 54.700000
" />
<path d="M101.340000 87.500000
L102.011573 87.500000
" />
<path d="M94.180000 61.851573
L94.180000 59.780000
" />
<path d="M91.000000 66.500000
L101.421573 66.500000
" />
<path d="M137.000000 53.500000
L125.400000 53.500000
" />
<path d="M77.261573 79.078427
L86.920000 69.420000
" />
<path d="M94.180000 59.500000
L94.180000 61.851573
" />
<path d="M77.261573 92.168875
L78.171349 93.078651
" />
<path d="M104.290000 73.450000
L104.380000 73.540000
" />
<path d="M104.290000 69.368427
L104.290000 73.450000
" />
<path d="M86.920000 69.420000
L89.840000 66.500000
" />
<path d="M101.840000 87.500000
L101.340000 87.500000
" />
<path d="M79.616911 94.524213 A1.999982 1.999982 0.0 0 0 81.031125 95.109982" />
<path d="M77.261596 79.078450 A4.000000 4.000000 0.0 0 0 76.090000 81.906854" />
<path d="M106.334214 84.005786 A1.999981 1.999981 0.0 0 0 106.919981 82.591573" />
<path d="M99.180000 53.500000 A5.000000 5.000000 0.0 0 0 94.180000 58.500000" />
<path d="M102.835801 67.085773 A2.000000 2.000000 0.0 0 0 101.421573 66.500000" />
<path d="M144.049975 61.192136 A4.999975 4.999975 0.0 0 0 142.585534 57.656602" />
<path d="M139.014716 54.085788 A2.000000 2.000000 0.0 0 0 137.600505 53.500000" />
<path d="M93.901573 95.109981 A1.999981 1.999981 0.0 0 0 95.315787 94.524213" />
<path d="M93.594227 62.745801 A2.000000 2.000000 0.0 0 0 94.180000 61.331573" />
<path d="M104.289981 69.368427 A1.999981 1.999981 0.0 0 0 103.704214 67.954214" />
<path d="M76.090000 89.340448 A4.000000 4.000000 0.0 0 0 77.261597 92.168851" />
<path d="M96.175787 87.664213 A1.999981 1.999981 0.0 0 0 95.590019 89.078427" />
<path d="M102.011573 87.499981 A1.999981 1.999981 0.0 0 0 103.425787 86.914213" />
<path d="M108.974466 88.535534
L109.510000 88.000000
" />
<path d="M109.510000 88.000000
L109.510000 81.670000
" />
<path d="M109.510000 81.670000
L109.460000 81.620000
" />
<path d="M102.840000 90.000000
L105.438932 90.000000
" />
<path d="M105.438932 90.000023 A5.000023 5.000023 0.0 0 0 108.974466 88.535534" />
<path d="M106.920000 74.000000
L109.460000 74.000000
" />
<path d="M135.400000 57.240000
L137.076296 57.240000
" />
<path d="M113.500000 62.320000
L111.948427 62.320000
" />
<path d="M105.365534 65.935534
L101.750000 62.320000
" />
<path d="M105.840000 57.240000
L117.590000 57.240000
" />
<path d="M106.920000 74.000000
L106.920000 77.538881
" />
<path d="M106.334213 78.953095
L104.380000 80.907308
" />
<path d="M101.750000 62.320000
L99.220000 62.320000
" />
<path d="M125.340000 62.320000
L124.966346 62.320000
" />
<path d="M110.100000 61.300000
L106.625786 57.825786
" />
<path d="M96.720000 59.820000
L96.720000 59.740000
" />
<path d="M137.090000 57.240000
L137.339699 57.240000
" />
<path d="M136.520000 66.770000
L136.520000 62.890000
" />
<path d="M105.211573 57.240000
L104.600000 57.240000
" />
<path d="M106.920000 77.538881
L87.539546 77.538881
" />
<path d="M104.380000 80.907308
L104.380000 81.620000
" />
<path d="M101.840000 57.240000
L104.600000 57.240000
" />
<path d="M106.830000 74.000000
L106.830000 69.471068
" />
<path d="M99.220000 57.240000
L101.750000 57.240000
" />
<path d="M140.653806 59.939340
L140.653806 60.320000
" />
<path d="M137.000000 57.240000
L137.954466 57.240000
" />
<path d="M86.125332 78.124668
L84.585786 79.664214
" />
<path d="M117.590000 57.240000
L135.400000 57.240000
" />
<path d="M106.870000 73.950000
L106.920000 74.000000
" />
<path d="M135.400000 57.240000
L137.090000 57.240000
" />
<path d="M83.171573 80.250000
L81.110000 80.250000
" />
<path d="M123.552132 61.734213
L119.643705 57.825786
" />
<path d="M137.076296 57.240000
L137.116296 57.200000
" />
<path d="M110.534213 61.734213
L110.100000 61.300000
" />
<path d="M138.653806 62.320000
L137.000000 62.320000
" />
<path d="M107.307919 57.240000
L105.840000 57.240000
" />
<path d="M104.600000 57.240000
L105.840000 57.240000
" />
<path d="M118.229492 57.240000
L117.590000 57.240000
" />
<path d="M139.722233 57.972233
L139.921573 58.171573
" />
<path d="M136.520000 62.890000
L137.090000 62.320000
" />
<path d="M87.539546 77.538881 A2.000019 2.000019 0.0 0 0 86.125305 78.124641" />
<path d="M83.171573 80.249981 A1.999981 1.999981 0.0 0 0 84.585786 79.664214" />
<path d="M106.830023 69.471068 A5.000023 5.000023 0.0 0 0 105.365534 65.935534" />
<path d="M110.534213 61.734213 A1.999981 1.999981 0.0 0 0 111.948427 62.319981" />
<path d="M138.653806 62.320006 A2.000006 2.000006 0.0 0 0 140.653806 60.320000" />
<path d="M139.722250 57.972216 A2.500000 2.500000 0.0 0 0 137.954466 57.240000" />
<path d="M140.653806 59.939340 A2.500006 2.500006 0.0 0 0 139.921594 58.171552" />
<path d="M99.220000 57.240000 A2.500000 2.500000 0.0 0 0 96.720000 59.740000" />
<path d="M106.625786 57.825786 A1.999981 1.999981 0.0 0 0 105.211573 57.240019" />
<path d="M119.643705 57.825786 A1.999994 1.999994 0.0 0 0 118.229492 57.240006" />
<path d="M96.720000 59.820000 A2.500000 2.500000 0.0 0 0 99.220000 62.320000" />
<path d="M123.552109 61.734236 A2.000000 2.000000 0.0 0 0 124.966346 62.320000" />
<path d="M106.334223 78.953105 A2.000000 2.000000 0.0 0 0 106.920000 77.538881" />
<path d="M117.080000 74.000000
L117.080000 73.697057
" />
<path d="M101.920302 59.780000
L101.840000 59.780000
" />
<path d="M116.494213 72.282843
L105.455836 61.244466
" />
<path d="M117.080000 73.697057 A2.000000 2.000000 0.0 0 0 116.494192 72.282864" />
<path d="M105.455835 61.244467 A5.000000 5.000000 0.0 0 0 101.920302 59.780000" />
<path d="M119.034214 63.157479
L116.242521 60.365786
" />
<path d="M114.828308 59.780000
L113.590000 59.780000
" />
<path d="M119.620000 64.571692
L119.620000 74.000000
" />
<path d="M116.242521 60.365786 A2.000006 2.000006 0.0 0 0 114.828308 59.779994" />
<path d="M119.620006 64.571692 A2.000006 2.000006 0.0 0 0 119.034214 63.157479" />
<path d="M122.070000 72.684214
L122.070000 74.000000
" />
<path d="M126.000000 59.780000
L125.250000 59.780000
" />
<path d="M128.121320 65.390253
L122.948679 70.562894
" />
<path d="M129.000000 63.268932
L129.000000 62.780000
" />
<path d="M129.000000 62.780000 A3.000000 3.000000 0.0 0 0 126.000000 59.780000" />
<path d="M128.121320 65.390253 A3.000023 3.000023 0.0 0 0 129.000023 63.268932" />
<path d="M122.948672 70.562887 A3.000000 3.000000 0.0 0 0 122.070000 72.684214" />
<path d="M134.717438 59.781508
L134.848427 59.780000
" />
<path d="M132.600000 62.028427
L132.601489 61.897437
" />
<path d="M132.803735 61.142606
L132.934723 60.915723
" />
<path d="M132.600000 67.757864
L132.600000 62.028427
" />
<path d="M117.575787 79.902843
L118.204165 79.274465
" />
<path d="M132.703483 61.384645
L132.803735 61.142606
" />
<path d="M133.527891 60.274219
L133.735733 60.114739
" />
<path d="M132.934723 60.915723
L133.094204 60.707879
" />
<path d="M121.739699 77.809999
L123.750000 77.809999
" />
<path d="M133.434213 60.365787
L133.527891 60.274219
" />
<path d="M133.962614 59.983753
L134.204650 59.883501
" />
<path d="M134.457702 59.815700
L134.717438 59.781508
" />
<path d="M132.601489 61.897437
L132.635681 61.637698
" />
<path d="M116.990000 81.620000
L116.990000 81.317057
" />
<path d="M133.094204 60.707879
L133.185786 60.614214
" />
<path d="M133.735733 60.114739
L133.962614 59.983753
" />
<path d="M117.080000 81.317057
L117.080000 81.922943
" />
<path d="M133.185786 60.614214
L133.434213 60.365787
" />
<path d="M124.618933 77.809999
L123.750000 77.809999
" />
<path d="M132.635681 61.637698
L132.703483 61.384645
" />
<path d="M134.204650 59.883501
L134.457702 59.815700
" />
<path d="M129.671068 74.828932
L128.154467 76.345533
" />
<path d="M134.848427 59.780000
L137.090000 59.780000
" />
<path d="M121.739699 77.809999 A5.000001 5.000001 0.0 0 0 118.204165 79.274465" />
<path d="M129.671068 74.828932 A9.999975 9.999975 0.0 0 0 132.599975 67.757864" />
<path d="M117.575787 79.902843 A2.000030 2.000030 0.0 0 0 116.989970 81.317057" />
<path d="M124.618933 77.810023 A5.000023 5.000023 0.0 0 0 128.154467 76.345533" />
<path d="M101.840000 74.000000
L101.790000 73.950000
" />
<path d="M101.840000 74.000000
L101.840000 73.535534
" />
<path d="M101.750000 74.000000
L101.750000 70.850000
" />
<path d="M101.750000 70.850000
L101.800000 70.800000
" />
<path d="M99.250000 73.950000
L99.300000 74.000000
" />
<path d="M99.260000 73.950000
L99.210000 74.000000
" />
<path d="M99.260000 70.800000
L99.260000 73.950000
" />
<path d="M96.710000 73.950000
L96.760000 74.000000
" />
<path d="M96.720000 73.950000
L96.670000 74.000000
" />
<path d="M96.720000 70.800000
L96.720000 73.950000
" />
<path d="M94.170000 73.950000
L94.220000 74.000000
" />
<path d="M94.180000 73.950000
L94.130000 74.000000
" />
<path d="M94.180000 70.800000
L94.180000 73.950000
" />
<path d="M88.464213 87.895787
L85.750000 90.610000
" />
<path d="M89.140000 84.950000
L89.090000 85.000000
" />
<path d="M89.050000 81.620000
L89.050000 86.481573
" />
<path d="M87.625534 88.824466
L85.840000 90.610000
" />
<path d="M89.090000 85.000000
L89.090000 85.288932
" />
<path d="M92.340000 90.610000
L85.840000 90.610000
" />
<path d="M85.640000 90.410000
L85.840000 90.610000
" />
<path d="M81.200000 90.410000
L85.640000 90.410000
" />
<path d="M88.464227 87.895801 A2.000000 2.000000 0.0 0 0 89.050000 86.481573" />
<path d="M91.590000 84.950000
L91.640000 85.000000
" />
<path d="M91.590000 81.620000
L91.590000 84.950000
" />
<path d="M91.680000 84.950000
L91.630000 85.000000
" />
<path d="M94.130000 81.620000
L94.130000 84.950000
" />
<path d="M94.170000 81.670000
L94.220000 81.620000
" />
<path d="M94.130000 84.950000
L94.180000 85.000000
" />
<path style="fill:#000000; fill-opacity:1.000000; stroke:none;fill-rule:evenodd;"
d="M 100.547623,53.019454
100.628405,53.073430
100.682381,53.154212
100.701335,53.249500
100.682381,53.344788
100.628405,53.425570
100.601557,53.448833
100.542816,53.492806
100.542810,53.492812
100.456646,53.607912
100.406403,53.742621
100.406401,53.742628
100.400000,53.802167
100.400000,54.449999
100.400001,54.450000
101.316988,54.450000
101.284075,54.507007
101.250000,54.634174
101.250000,54.765826
101.284075,54.892993
101.316988,54.950000
100.400001,54.950000
100.400000,54.950001
100.400000,55.490500
100.381046,55.585788
100.327070,55.666570
100.246288,55.720546
100.151000,55.739500
99.035039,55.739500
98.666713,55.773631
98.303108,55.841601
97.947314,55.942833
97.602373,56.076464
97.271258,56.241341
96.956767,56.436064
96.956760,56.436069
96.661568,56.658988
96.661550,56.659003
96.388211,56.908184
96.388184,56.908211
96.139003,57.181550
96.138988,57.181568
95.916069,57.476760
95.916064,57.476767
95.721341,57.791258
95.556467,58.122368
95.556453,58.122398
95.486079,58.304054
95.433982,58.386061
95.354469,58.441888
95.259644,58.463038
95.166882,58.447406
95.137383,58.436404
95.137371,58.436401
95.077832,58.430000
94.430001,58.430000
94.430000,58.430001
94.430000,59.346988
94.372993,59.314075
94.245826,59.280000
94.114174,59.280000
93.987007,59.314075
93.930000,59.346988
93.930000,58.430001
93.929999,58.430000
93.282167,58.430000
93.222628,58.436401
93.222621,58.436403
93.087912,58.486646
92.972812,58.572810
92.972810,58.572812
92.886646,58.687912
92.836403,58.822621
92.836401,58.822628
92.830000,58.882167
92.830000,59.529999
92.830001,59.530000
93.746988,59.530000
93.714075,59.587007
93.680000,59.714174
93.680000,59.845826
93.714075,59.972993
93.746988,60.030000
92.830001,60.030000
92.830000,60.030001
92.830000,60.677832
92.836401,60.737371
92.836403,60.737378
92.886646,60.872087
92.972810,60.987187
92.972812,60.987189
93.087912,61.073353
93.222621,61.123596
93.222628,61.123598
93.282167,61.129999
93.282175,61.130000
93.929999,61.130000
93.930000,61.129999
93.930000,60.213012
93.987007,60.245925
94.114174,60.280000
94.245826,60.280000
94.372993,60.245925
94.430000,60.213012
94.430000,61.129999
94.430001,61.130000
95.077825,61.130000
95.077832,61.129999
95.137371,61.123598
95.137376,61.123597
95.166873,61.112595
95.262776,61.097052
95.357328,61.119393
95.436132,61.176217
95.486079,61.255944
95.518861,61.340562
95.556458,61.437612
95.556463,61.437623
95.556467,61.437631
95.721341,61.768741
95.916064,62.083232
95.916069,62.083239
96.138988,62.378431
96.139003,62.378449
96.388184,62.651788
96.388211,62.651815
96.661550,62.900996
96.661559,62.901004
96.661564,62.901008
96.912744,63.090691
96.956760,63.123930
96.956767,63.123935
97.271258,63.318658
97.602373,63.483535
97.602377,63.483536
97.602388,63.483542
97.947318,63.617168
98.303105,63.718398
98.666715,63.786369
99.035046,63.820500
99.101908,63.820500
100.583675,63.820500
100.678963,63.839454
100.732895,63.870165
100.746989,63.880716
100.979311,64.007574
101.227322,64.100077
101.386852,64.134780
101.475932,64.173555
101.509992,64.202019
104.216140,66.908167
104.216149,66.908177
104.300212,66.992240
104.308638,67.001091
104.526941,67.241949
104.542443,67.260838
104.732446,67.517026
104.746022,67.537343
104.910006,67.810931
104.921525,67.832481
105.057903,68.120824
105.067249,68.143388
105.134277,68.330715
105.174708,68.443708
105.181801,68.467092
105.259302,68.776486
105.264070,68.800452
105.310874,69.115967
105.313269,69.140284
105.329200,69.464523
105.329500,69.476743
105.329500,72.662534
105.310546,72.757822
105.256570,72.838604
105.175788,72.892580
105.080500,72.911534
104.985212,72.892580
104.952331,72.874542
104.951894,72.875300
104.942484,72.869867
104.736318,72.773730
104.540000,72.721126
104.540000,73.684314
104.535606,73.679920
104.444394,73.627259
104.342661,73.600000
104.237339,73.600000
104.135606,73.627259
104.044394,73.679920
104.040000,73.684314
104.040000,72.721127
104.039999,72.721126
103.843681,72.773730
103.637515,72.869867
103.628106,72.875300
103.626936,72.873273
103.553383,72.905634
103.456252,72.907749
103.365704,72.872533
103.295525,72.805346
103.256400,72.716417
103.250500,72.662534
103.250500,72.033117
103.269454,71.937829
103.300166,71.883896
103.342445,71.827418
103.360716,71.803011
103.487574,71.570689
103.580077,71.322678
103.636343,71.064026
103.655227,70.800000
103.636343,70.535974
103.580077,70.277322
103.487574,70.029311
103.360716,69.796989
103.202087,69.585085
103.014915,69.397913
102.803011,69.239284
102.802291,69.238891
102.570691,69.112427
102.570687,69.112425
102.499177,69.085753
102.322678,69.019923
102.120293,68.975897
102.064027,68.963657
101.800000,68.944773
101.535972,68.963657
101.423440,68.988137
101.277322,69.019923
101.205810,69.046595
101.029312,69.112425
101.029308,69.112427
100.796995,69.239280
100.796989,69.239284
100.679218,69.327445
100.591579,69.369375
100.494564,69.374576
100.402943,69.342254
100.380785,69.327448
100.263011,69.239284
100.262291,69.238891
100.030691,69.112427
100.030687,69.112425
99.959177,69.085753
99.782678,69.019923
99.580293,68.975897
99.524027,68.963657
99.260000,68.944773
98.995972,68.963657
98.883440,68.988137
98.737322,69.019923
98.665810,69.046595
98.489312,69.112425
98.489308,69.112427
98.256995,69.239280
98.256989,69.239284
98.139218,69.327445
98.051579,69.369375
97.954564,69.374576
97.862943,69.342254
97.840785,69.327448
97.723011,69.239284
97.722291,69.238891
97.490691,69.112427
97.490687,69.112425
97.419177,69.085753
97.242678,69.019923
97.040293,68.975897
96.984027,68.963657
96.720000,68.944773
96.455972,68.963657
96.343440,68.988137
96.197322,69.019923
96.125810,69.046595
95.949312,69.112425
95.949308,69.112427
95.878660,69.151004
95.785943,69.180035
95.689175,69.171376
95.603087,69.126343
95.601973,69.125440
95.583413,69.110306
95.583402,69.110299
95.403053,69.016093
95.403052,69.016092
95.403049,69.016091
95.207418,68.960114
95.088037,68.949500
95.088035,68.949500
93.271968,68.949500
93.271956,68.949501
93.152585,68.960113
92.956954,69.016090
92.956946,69.016093
92.776597,69.110299
92.776592,69.110302
92.618893,69.238889
92.618889,69.238893
92.490302,69.396592
92.490299,69.396597
92.396093,69.576946
92.396090,69.576954
92.340115,69.772578
92.340114,69.772582
92.329500,69.891963
92.329500,71.708031
92.329501,71.708043
92.340113,71.827416
92.376780,71.955561
92.384770,72.052387
92.355099,72.144900
92.292283,72.219016
92.205885,72.263452
92.109059,72.271442
92.063994,72.261997
91.991775,72.239720
91.858350,72.219610
91.724929,72.199500
91.455071,72.199500
91.254938,72.229665
91.188227,72.239720
90.930353,72.319264
90.687223,72.436350
90.460266,72.591087
90.370858,72.629104
90.273708,72.630012
90.183605,72.593673
90.179733,72.591086
89.952778,72.436350
89.952773,72.436348
89.709649,72.319265
89.709644,72.319263
89.709641,72.319262
89.451772,72.239720
89.184929,72.199500
88.915071,72.199500
88.714938,72.229665
88.648227,72.239720
88.390353,72.319264
88.147227,72.436348
87.924257,72.588366
87.726437,72.771916
87.558189,72.982892
87.558188,72.982892
87.423257,73.216601
87.423256,73.216604
87.324667,73.467801
87.324663,73.467812
87.264616,73.730899
87.244451,74.000000
87.264616,74.269100
87.324663,74.532187
87.324667,74.532198
87.423256,74.783395
87.423257,74.783398
87.558188,75.017107
87.711499,75.209351
87.726439,75.228085
87.924259,75.411635
88.147226,75.563651
88.150108,75.565039
88.151685,75.566225
88.155292,75.568308
88.155037,75.568748
88.227736,75.623458
88.277099,75.707138
88.290681,75.803339
88.266416,75.897415
88.207996,75.975044
88.124316,76.024407
88.042073,76.038381
87.412202,76.038381
87.411283,76.038416
87.367613,76.038416
87.025336,76.072118
86.890030,76.099029
86.688005,76.139210
86.358877,76.239042
86.358874,76.239043
86.358868,76.239045
86.041125,76.370650
86.041109,76.370658
85.737803,76.532768
85.737795,76.532773
85.451810,76.723853
85.451807,76.723855
85.185963,76.942017
85.185938,76.942040
85.154096,76.973880
85.154054,76.973919
85.064341,77.063631
85.064340,77.063632
84.975605,77.152363
84.975557,77.152414
83.533439,78.594533
83.515330,78.610945
83.468047,78.649748
83.427465,78.676864
83.384370,78.699899
83.339269,78.718580
83.292505,78.732765
83.244629,78.742287
83.209079,78.745788
83.183564,78.748301
83.159161,78.749499
83.063478,78.749498
83.053501,78.749498
83.053500,78.749498
83.044023,78.749498
83.043971,78.749500
82.182207,78.749500
82.086919,78.730546
82.041939,78.706233
82.012772,78.686347
81.769649,78.569265
81.769644,78.569263
81.769641,78.569262
81.511772,78.489720
81.244929,78.449500
80.975071,78.449500
80.774938,78.479665
80.708227,78.489720
80.450353,78.569264
80.207227,78.686348
79.984257,78.838366
79.786437,79.021916
79.618189,79.232892
79.618188,79.232892
79.483257,79.466601
79.483256,79.466604
79.384667,79.717801
79.384663,79.717812
79.324616,79.980899
79.304451,80.250000
79.324616,80.519100
79.384663,80.782187
79.384667,80.782198
79.483256,81.033395
79.483257,81.033398
79.618188,81.267107
79.776487,81.465606
79.786439,81.478085
79.984259,81.661635
80.207226,81.813651
80.450359,81.930738
80.708228,82.010280
80.975071,82.050500
80.975074,82.050500
81.244926,82.050500
81.244929,82.050500
81.511772,82.010280
81.769641,81.930738
82.012775,81.813651
82.041939,81.793766
82.131347,81.755750
82.182207,81.750500
83.299282,81.750500
83.299728,81.750482
83.343521,81.750483
83.685802,81.716775
84.023131,81.649681
84.352259,81.549845
84.670017,81.418230
84.973344,81.256103
85.259319,81.065025
85.525188,80.846837
85.549089,80.822934
85.549103,80.822923
85.563294,80.808731
85.563296,80.808731
85.646789,80.725238
85.730294,80.641736
85.730294,80.641734
85.736508,80.635522
85.736546,80.635480
87.171460,79.200567
87.177664,79.194362
87.195759,79.177961
87.243068,79.139137
87.283631,79.112036
87.326746,79.088992
87.371828,79.070319
87.418602,79.056132
87.466466,79.046612
87.527745,79.040578
87.552134,79.039381
87.657603,79.039384
87.657610,79.039382
87.667313,79.039383
87.667390,79.039381
103.524760,79.039381
103.620048,79.058335
103.700830,79.112311
103.754806,79.193093
103.773760,79.288381
103.754806,79.383669
103.700830,79.464450
103.235483,79.929797
103.123010,80.084602
103.051667,80.150550
102.960517,80.184177
102.863437,80.180362
102.781299,80.143975
102.652778,80.056350
102.652773,80.056348
102.409649,79.939265
102.409644,79.939263
102.409641,79.939262
102.151772,79.859720
101.884929,79.819500
101.615071,79.819500
101.414938,79.849665
101.348227,79.859720
101.090353,79.939264
100.847223,80.056350
100.620266,80.211087
100.530858,80.249104
100.433708,80.250012
100.343605,80.213673
100.339733,80.211086
100.112778,80.056350
100.112773,80.056348
99.869649,79.939265
99.869644,79.939263
99.869641,79.939262
99.611772,79.859720
99.344929,79.819500
99.075071,79.819500
98.874938,79.849665
98.808227,79.859720
98.550353,79.939264
98.307223,80.056350
98.080266,80.211087
97.990858,80.249104
97.893708,80.250012
97.803605,80.213673
97.799733,80.211086
97.572778,80.056350
97.572773,80.056348
97.329649,79.939265
97.329644,79.939263
97.329641,79.939262
97.071772,79.859720
96.804929,79.819500
96.535071,79.819500
96.334938,79.849665
96.268227,79.859720
96.010353,79.939264
95.767223,80.056350
95.540266,80.211087
95.450858,80.249104
95.353708,80.250012
95.263605,80.213673
95.259733,80.211086
95.032778,80.056350
95.032773,80.056348
94.789649,79.939265
94.789644,79.939263
94.789641,79.939262
94.531772,79.859720
94.264929,79.819500
93.995071,79.819500
93.794938,79.849665
93.728227,79.859720
93.470353,79.939264
93.227223,80.056350
93.000266,80.211087
92.910858,80.249104
92.813708,80.250012
92.723605,80.213673
92.719733,80.211086
92.492778,80.056350
92.492773,80.056348
92.249649,79.939265
92.249644,79.939263
92.249641,79.939262
91.991772,79.859720
91.724929,79.819500
91.455071,79.819500
91.254938,79.849665
91.188227,79.859720
91.081925,79.892510
90.930359,79.939262
90.930357,79.939262
90.930350,79.939265
90.710093,80.045336
90.616018,80.069603
90.519817,80.056022
90.444702,80.013974
90.403407,79.980302
90.403402,79.980299
90.223053,79.886093
90.223052,79.886092
90.223049,79.886091
90.027418,79.830114
89.908037,79.819500
89.908035,79.819500
88.191968,79.819500
88.191956,79.819501
88.072585,79.830113
87.876954,79.886090
87.876946,79.886093
87.696597,79.980299
87.696592,79.980302
87.538893,80.108889
87.538889,80.108893
87.410302,80.266592
87.410299,80.266597
87.316093,80.446946
87.316090,80.446954
87.260115,80.642578
87.260114,80.642582
87.249500,80.761963
87.249500,82.478031
87.249501,82.478043
87.260113,82.597414
87.260113,82.597417
87.260114,82.597418
87.303812,82.750134
87.316090,82.793045
87.316093,82.793053
87.371367,82.898871
87.410302,82.973407
87.457782,83.031637
87.493479,83.075415
87.539006,83.161243
87.549500,83.232769
87.549500,83.337230
87.530546,83.432518
87.493479,83.494583
87.410306,83.596586
87.410299,83.596597
87.316093,83.776946
87.316090,83.776954
87.260115,83.972578
87.260114,83.972582
87.249500,84.091963
87.249500,85.908031
87.249501,85.908043
87.260113,86.027414
87.316090,86.223045
87.316093,86.223053
87.410299,86.403402
87.410306,86.403412
87.453597,86.456505
87.499124,86.542332
87.508340,86.639049
87.480215,86.731239
87.476879,86.737480
87.449762,86.778062
87.411092,86.825182
87.394682,86.843289
85.690284,88.547687
85.609502,88.601663
85.531980,88.619982
85.464576,88.624803
85.184954,88.685631
84.916840,88.785632
84.916836,88.785634
84.745773,88.879042
84.653057,88.908073
84.626440,88.909500
82.182207,88.909500
82.086919,88.890546
82.041939,88.866233
82.033530,88.860500
82.012775,88.846349
82.012774,88.846348
82.012772,88.846347
81.769649,88.729265
81.769644,88.729263
81.769641,88.729262
81.511772,88.649720
81.244929,88.609500
80.975071,88.609500
80.774938,88.639665
80.708227,88.649720
80.450353,88.729264
80.207227,88.846348
79.984257,88.998366
79.786437,89.181916
79.618189,89.392892
79.618188,89.392892
79.483257,89.626601
79.483256,89.626604
79.384667,89.877801
79.384663,89.877812
79.324616,90.140899
79.304451,90.410000
79.324616,90.679100
79.384663,90.942187
79.384667,90.942198
79.433961,91.067796
79.483257,91.193398
79.546305,91.302602
79.618188,91.427107
79.786437,91.638083
79.786439,91.638085
79.984259,91.821635
80.207226,91.973651
80.450359,92.090738
80.708228,92.170280
80.975071,92.210500
80.975074,92.210500
81.244926,92.210500
81.244929,92.210500
81.511772,92.170280
81.769641,92.090738
82.012775,91.973651
82.041939,91.953766
82.131347,91.915750
82.182207,91.910500
84.118227,91.910500
84.213515,91.929454
84.294293,91.983427
84.436605,92.125739
84.665685,92.297226
84.862494,92.404692
84.916841,92.434368
84.958703,92.449981
85.184954,92.534369
85.464572,92.595196
85.750000,92.615610
86.035428,92.595196
86.315046,92.534369
86.583161,92.434367
86.834315,92.297226
87.017407,92.160164
87.105046,92.118235
87.166626,92.110500
90.833374,92.110500
90.928662,92.129454
90.982591,92.160163
91.165685,92.297226
91.362494,92.404692
91.416841,92.434368
91.458703,92.449981
91.684954,92.534369
91.964572,92.595196
92.250000,92.615610
92.535428,92.595196
92.815046,92.534369
93.083161,92.434367
93.334315,92.297226
93.563395,92.125739
93.765739,91.923395
93.937226,91.694315
94.074367,91.443161
94.174369,91.175046
94.235196,90.895428
94.255610,90.610000
94.235196,90.324572
94.174369,90.044954
94.074367,89.776839
93.937226,89.525685
93.933139,89.520226
93.893903,89.467812
93.765739,89.296605
93.563395,89.094261
93.379775,88.956805
93.334317,88.922775
93.083158,88.785631
92.932025,88.729262
92.815046,88.685631
92.815047,88.685631
92.535428,88.624804
92.250000,88.604390
91.964571,88.624804
91.684954,88.685631
91.416841,88.785631
91.165681,88.922776
91.077411,88.988855
90.982592,89.059835
90.894954,89.101765
90.833374,89.109500
89.948204,89.109500
89.852916,89.090546
89.772134,89.036570
89.718158,88.955788
89.699204,88.860500
89.718158,88.765212
89.755723,88.702538
89.769598,88.685631
89.865040,88.569332
90.056119,88.283356
90.218248,87.980027
90.349864,87.662267
90.449700,87.333137
90.461583,87.273397
90.516793,86.995815
90.516795,86.995805
90.526858,86.893623
90.555059,86.800651
90.616693,86.725548
90.702375,86.679749
90.799062,86.670225
90.861676,86.684725
90.869303,86.687569
90.869311,86.687574
91.117322,86.780077
91.375974,86.836343
91.640000,86.855227
91.904026,86.836343
92.162678,86.780077
92.410689,86.687574
92.643011,86.560716
92.760783,86.472552
92.848419,86.430624
92.945435,86.425423
93.037056,86.457745
93.059206,86.472545
93.176989,86.560716
93.409311,86.687574
93.657322,86.780077
93.915974,86.836343
94.180000,86.855227
94.444026,86.836343
94.702678,86.780077
94.950689,86.687574
95.183011,86.560716
95.394915,86.402087
95.582087,86.214915
95.740716,86.003011
95.867574,85.770689
95.960077,85.522678
96.016343,85.264026
96.035227,85.000000
96.016343,84.735974
95.960077,84.477322
95.867574,84.229311
95.740716,83.996989
95.740715,83.996988
95.740712,83.996982
95.680165,83.916101
95.638234,83.828460
95.630500,83.766882
95.630500,83.514089
95.649454,83.418801
95.703430,83.338019
95.784212,83.284043
95.879500,83.265089
95.974788,83.284043
95.987539,83.289748
96.010359,83.300738
96.268228,83.380280
96.535071,83.420500
96.535074,83.420500
96.804926,83.420500
96.804929,83.420500
97.071772,83.380280
97.329641,83.300738
97.572775,83.183651
97.795741,83.031635
97.795742,83.031633
97.799733,83.028913
97.889140,82.990896
97.986291,82.989987
98.076394,83.026325
98.080267,83.028913
98.307222,83.183649
98.307225,83.183650
98.307226,83.183651
98.550359,83.300738
98.808228,83.380280
99.075071,83.420500
99.075074,83.420500
99.344926,83.420500
99.344929,83.420500
99.611772,83.380280
99.869641,83.300738
100.112775,83.183651
100.335741,83.031635
100.335742,83.031633
100.339733,83.028913
100.429140,82.990896
100.526291,82.989987
100.616394,83.026325
100.620267,83.028913
100.847222,83.183649
100.847225,83.183650
100.847226,83.183651
101.090359,83.300738
101.348228,83.380280
101.615071,83.420500
101.615074,83.420500
101.884926,83.420500
101.884929,83.420500
102.151772,83.380280
102.409641,83.300738
102.652775,83.183651
102.875741,83.031635
102.875742,83.031633
102.879733,83.028913
102.969140,82.990896
103.066291,82.989987
103.156394,83.026325
103.160267,83.028913
103.387222,83.183649
103.387225,83.183650
103.387226,83.183651
103.630359,83.300738
103.888228,83.380280
104.155071,83.420500
104.155074,83.420500
104.424926,83.420500
104.424929,83.420500
104.691772,83.380280
104.949641,83.300738
105.192775,83.183651
105.415741,83.031635
105.613561,82.848085
105.719898,82.714742
105.794128,82.652062
105.886695,82.622558
105.983506,82.630723
106.057394,82.666023
106.177516,82.750133
106.383676,82.846267
106.579999,82.898871
106.580000,82.898871
106.580000,81.935686
106.584394,81.940080
106.675606,81.992741
106.777339,82.020000
106.882661,82.020000
106.984394,81.992741
107.075606,81.940080
107.080000,81.935686
107.080000,82.898871
107.276323,82.846267
107.482481,82.750134
107.602603,82.666023
107.691530,82.626894
107.788662,82.624774
107.879211,82.659986
107.940099,82.714740
107.955174,82.733643
107.999768,82.819959
108.009500,82.888894
108.009500,86.875834
107.990546,86.971122
107.973514,87.002637
107.974272,87.003075
107.838436,87.238348
107.838428,87.238364
107.742579,87.482586
107.718945,87.586131
107.679261,87.674812
107.624518,87.730719
107.392973,87.902446
107.372656,87.916022
107.099068,88.080006
107.077518,88.091525
106.789185,88.227899
106.766609,88.237250
106.466291,88.344708
106.442907,88.351801
106.133513,88.429302
106.109547,88.434070
105.794032,88.480874
105.769715,88.483269
105.482330,88.497389
105.445474,88.499200
105.433257,88.499500
104.109169,88.499500
104.013881,88.480546
103.933099,88.426570
103.879123,88.345788
103.860169,88.250500
103.879123,88.155212
103.883498,88.145268
103.976267,87.946323
104.035140,87.726603
104.035140,87.726602
104.054965,87.500000
104.035140,87.273397
104.035140,87.273396
103.976267,87.053676
103.880132,86.847515
103.829024,86.774527
103.150000,87.453551
103.150000,87.447339
103.122741,87.345606
103.070080,87.254394
102.995606,87.179920
102.904394,87.127259
102.802661,87.100000
102.796446,87.100000
103.475471,86.420974
103.475471,86.420972
103.402488,86.369869
103.402486,86.369867
103.196323,86.273732
102.976603,86.214859
102.750000,86.195034
102.523397,86.214859
102.523396,86.214859
102.303676,86.273732
102.097514,86.369867
102.097510,86.369870
102.024527,86.420972
102.024527,86.420973
102.703554,87.100000
102.697339,87.100000
102.595606,87.127259
102.504394,87.179920
102.429920,87.254394
102.377259,87.345606
102.350000,87.447339
102.350000,87.453554
101.670973,86.774527
101.670972,86.774527
101.619870,86.847510
101.619867,86.847514
101.523732,87.053676
101.464859,87.273396
101.464859,87.273397
101.445034,87.500000
101.464859,87.726602
101.464859,87.726603
101.523732,87.946323
101.619865,88.152480
101.683259,88.243016
101.722388,88.331943
101.724507,88.429075
101.689295,88.519625
101.630413,88.581133
101.631546,88.582553
101.624265,88.588358
101.426437,88.771916
101.258189,88.982892
101.258188,88.982892
101.123257,89.216601
101.123256,89.216604
101.024667,89.467801
101.024663,89.467812
100.964616,89.730899
100.944451,90.000000
100.964616,90.269100
101.024663,90.532187
101.024667,90.532198
101.062060,90.627473
101.123257,90.783398
101.214939,90.942198
101.258188,91.017107
101.426437,91.228083
101.624261,91.411637
101.819527,91.544767
101.887580,91.614105
101.923919,91.704208
101.923011,91.801359
101.884993,91.890767
101.815655,91.958820
101.725552,91.995159
101.679260,91.999500
101.456029,91.999500
101.455976,91.999498
101.446499,91.999498
101.436558,91.999498
101.340636,91.999499
101.316231,91.998300
101.255364,91.992306
101.207489,91.982784
101.160725,91.968599
101.115629,91.949921
101.115588,91.949899
101.072523,91.926881
101.031938,91.899763
100.984820,91.861095
100.966712,91.844684
100.179643,91.057615
100.125667,90.976833
100.106713,90.881545
100.123926,90.790574
100.126741,90.783401
100.126743,90.783398
100.225334,90.532195
100.285383,90.269103
100.305549,90.000000
100.285383,89.730897
100.225334,89.467805
100.126743,89.216602
99.991815,88.982898
99.991813,88.982895
99.991811,88.982892
99.823562,88.771916
99.625734,88.588358
99.618454,88.582553
99.619862,88.580787
99.562399,88.522247
99.526053,88.432147
99.526955,88.334996
99.564965,88.245585
99.566741,88.243015
99.630134,88.152481
99.726267,87.946323
99.785140,87.726603
99.785140,87.726602
99.804965,87.500000
99.785140,87.273397
99.785140,87.273396
99.726267,87.053676
99.630132,86.847515
99.579024,86.774527
98.900000,87.453551
98.900000,87.447339
98.872741,87.345606
98.820080,87.254394
98.745606,87.179920
98.654394,87.127259
98.552661,87.100000
98.546446,87.100000
99.225471,86.420974
99.225471,86.420972
99.152488,86.369869
99.152486,86.369867
98.946323,86.273732
98.726603,86.214859
98.500000,86.195034
98.273397,86.214859
98.273396,86.214859
98.053676,86.273732
97.847514,86.369867
97.847510,86.369870
97.774527,86.420972
97.774527,86.420973
98.453554,87.100000
98.447339,87.100000
98.345606,87.127259
98.254394,87.179920
98.179920,87.254394
98.127259,87.345606
98.100000,87.447339
98.100000,87.453554
97.420973,86.774527
97.420972,86.774527
97.369870,86.847510
97.369867,86.847514
97.273732,87.053676
97.214859,87.273396
97.214859,87.273397
97.195034,87.500000
97.214859,87.726602
97.214859,87.726603
97.273732,87.946323
97.369865,88.152480
97.433259,88.243016
97.472388,88.331943
97.474507,88.429075
97.439295,88.519625
97.380413,88.581133
97.381546,88.582553
97.374265,88.588358
97.176437,88.771916
97.008189,88.982892
97.008188,88.982892
96.873257,89.216601
96.873256,89.216604
96.774667,89.467801
96.774663,89.467812
96.714616,89.730899
96.694451,90.000000
96.714616,90.269100
96.774663,90.532187
96.774667,90.532198
96.812060,90.627473
96.853590,90.733289
96.873256,90.783395
96.873260,90.783404
96.991454,90.988124
97.022683,91.080123
97.023614,91.088217
97.033225,91.185806
97.033226,91.185811
97.100316,91.523118
97.100319,91.523132
97.197809,91.844528
97.200155,91.852259
97.212489,91.882038
97.331766,92.170009
97.331766,92.170010
97.333558,92.173363
97.493897,92.473344
97.684975,92.759319
97.684984,92.759330
97.684987,92.759334
97.816622,92.919735
97.903163,93.025188
97.903173,93.025198
97.932570,93.054596
97.932575,93.054601
97.941267,93.063293
97.941269,93.063296
98.024762,93.146789
98.024765,93.146792
98.115932,93.237963
98.115978,93.238005
98.769701,93.891729
98.769705,93.891734
98.782167,93.904196
98.782224,93.904281
98.869750,93.991805
98.974797,94.096850
99.240668,94.315040
99.526644,94.506119
99.829973,94.668248
100.147733,94.799864
100.147743,94.799867
100.147751,94.799870
100.415678,94.881140
100.476800,94.899681
100.476870,94.899702
100.808184,94.965599
100.814194,94.966795
101.156478,95.000503
101.328447,95.000500
111.171553,95.000500
111.289665,95.000500
111.299282,95.000500
111.299728,95.000482
111.343521,95.000483
111.685802,94.966775
112.023131,94.899681
112.352259,94.799845
112.670017,94.668230
112.973344,94.506103
113.259319,94.315025
113.525188,94.096837
113.549090,94.072933
113.549103,94.072923
113.563293,94.058732
113.563296,94.058731
113.648622,93.973404
113.730294,93.891736
113.730300,93.891726
113.736527,93.885501
113.736542,93.885484
114.673848,92.948177
114.673854,92.948173
114.691731,92.930295
114.691734,92.930295
114.702295,92.919733
114.702380,92.919676
114.775250,92.846805
114.896850,92.725203
115.115040,92.459332
115.306119,92.173356
115.468248,91.870027
115.599864,91.552267
115.603813,91.539250
115.645654,91.401310
115.699700,91.223137
115.709266,91.175046
115.766793,90.885815
115.766795,90.885805
115.776173,90.790574
115.800503,90.543522
115.800500,90.371553
115.800500,90.320185
115.800500,88.968776
115.819454,88.873488
115.833860,88.844275
115.881568,88.761643
115.904765,88.702538
115.977420,88.517416
116.035802,88.261630
116.055408,88.000000
116.035802,87.738370
115.977420,87.482586
115.881571,87.238364
115.881569,87.238361
115.881568,87.238357
115.881563,87.238348
115.750387,87.011144
115.586805,86.806019
115.586794,86.806008
115.394479,86.627567
115.177707,86.479773
115.177702,86.479771
114.941329,86.365939
114.941324,86.365937
114.908708,86.355876
114.823241,86.309676
114.806037,86.294010
114.608981,86.096954
114.608980,86.096952
114.529787,86.017758
114.521362,86.008909
114.485998,85.969891
114.303056,85.768047
114.287556,85.749161
114.097553,85.492973
114.083977,85.472656
113.919993,85.199068
113.908474,85.177518
113.824513,85.000000
113.772092,84.889165
113.762754,84.866621
113.655286,84.566275
113.648201,84.542919
113.570695,84.233505
113.565931,84.209559
113.519124,83.894022
113.516731,83.869725
113.501571,83.561167
113.515826,83.465063
113.565774,83.381730
113.643809,83.323855
113.738052,83.300248
113.823661,83.311010
114.048228,83.380280
114.315071,83.420500
114.315074,83.420500
114.584926,83.420500
114.584929,83.420500
114.851772,83.380280
115.109641,83.300738
115.352775,83.183651
115.575741,83.031635
115.575742,83.031633
115.579733,83.028913
115.669140,82.990896
115.766291,82.989987
115.856394,83.026325
115.860267,83.028913
116.087222,83.183649
116.087225,83.183650
116.087226,83.183651
116.330359,83.300738
116.588228,83.380280
116.855071,83.420500
116.923729,83.420500
116.952150,83.422736
116.952155,83.422676
116.961901,83.423443
116.961908,83.423443
117.198088,83.423443
117.198092,83.423443
117.431368,83.386496
117.655992,83.313511
117.866433,83.206286
117.967934,83.132539
117.973930,83.128319
118.115741,83.031635
118.115743,83.031632
118.119734,83.028912
118.209143,82.990895
118.306293,82.989987
118.396396,83.026326
118.400267,83.028913
118.627222,83.183649
118.627225,83.183650
118.627226,83.183651
118.870359,83.300738
119.128228,83.380280
119.395071,83.420500
119.395074,83.420500
119.664926,83.420500
119.664929,83.420500
119.931772,83.380280
120.189641,83.300738
120.432775,83.183651
120.655741,83.031635
120.655742,83.031633
120.659733,83.028913
120.749140,82.990896
120.846291,82.989987
120.936394,83.026325
120.940267,83.028913
121.167222,83.183649
121.167225,83.183650
121.167226,83.183651
121.410359,83.300738
121.668228,83.380280
121.935071,83.420500
121.935074,83.420500
122.204926,83.420500
122.204929,83.420500
122.471772,83.380280
122.729641,83.300738
122.972775,83.183651
123.195741,83.031635
123.393561,82.848085
123.561815,82.637102
123.696743,82.403398
123.795334,82.152195
123.855383,81.889103
123.875549,81.620000
123.855383,81.350897
123.795334,81.087805
123.696743,80.836602
123.561815,80.602898
123.561813,80.602895
123.561811,80.602892
123.393562,80.391916
123.195738,80.208362
122.972778,80.056350
122.972773,80.056348
122.729649,79.939265
122.729644,79.939263
122.729641,79.939262
122.471772,79.859720
122.204929,79.819500
121.935071,79.819500
121.734938,79.849665
121.668227,79.859720
121.410353,79.939264
121.167223,80.056350
120.940266,80.211087
120.850858,80.249104
120.753708,80.250012
120.663605,80.213673
120.659733,80.211086
120.432778,80.056350
120.384538,80.033119
120.306910,79.974697
120.257549,79.891016
120.243968,79.794815
120.268235,79.700740
120.326657,79.623112
120.386140,79.583674
120.389488,79.582090
120.411999,79.572768
120.712349,79.465300
120.735690,79.458219
121.045135,79.380708
121.069062,79.375948
121.384603,79.329142
121.408894,79.326750
121.718676,79.311531
121.733593,79.310799
121.745810,79.310499
121.857791,79.310499
123.631908,79.310499
124.500845,79.310499
124.500851,79.310500
124.515776,79.310499
124.515887,79.310521
124.618943,79.310521
124.618943,79.310522
124.851109,79.310521
125.314258,79.277393
125.314262,79.277392
125.314267,79.277392
125.544061,79.244351
125.773864,79.211309
126.227584,79.112605
126.227591,79.112602
126.227595,79.112602
126.673094,78.981789
126.673096,78.981787
126.673107,78.981785
126.903604,78.895812
127.108135,78.819526
127.108143,78.819522
127.108163,78.819515
127.530533,78.626621
127.938067,78.404088
128.328687,78.153049
128.700403,77.874783
129.051320,77.570708
129.142558,77.479468
129.142562,77.479466
129.215486,77.406542
129.298989,77.323038
129.298988,77.323038
129.898176,76.723850
130.659136,75.962891
130.659247,75.962816
130.732102,75.889961
130.960266,75.661796
131.390290,75.180597
131.792655,74.676044
132.166097,74.149723
132.509441,73.603291
132.821606,73.038468
133.101609,72.457030
133.348571,71.860807
133.561714,71.251674
133.740367,70.631549
133.883968,70.002382
133.992065,69.366153
134.064319,68.724863
134.100501,68.080532
134.100500,67.757859
134.100500,67.639767
134.100500,67.083059
134.119454,66.987771
134.173430,66.906989
134.254212,66.853013
134.349500,66.834059
134.444788,66.853013
134.525570,66.906989
134.579546,66.987771
134.592810,67.030130
134.593656,67.034022
134.593657,67.034026
134.649923,67.292678
134.715753,67.469177
134.742425,67.540687
134.742427,67.540691
134.844362,67.727371
134.869284,67.773011
135.027913,67.984915
135.215085,68.172087
135.426989,68.330716
135.659311,68.457574
135.907322,68.550077
136.165974,68.606343
136.430000,68.625227
136.694026,68.606343
136.952678,68.550077
137.200689,68.457574
137.433011,68.330716
137.550783,68.242552
137.638419,68.200624
137.735435,68.195423
137.827056,68.227745
137.849206,68.242545
137.966989,68.330716
138.199311,68.457574
138.447322,68.550077
138.705974,68.606343
138.970000,68.625227
139.234026,68.606343
139.492678,68.550077
139.740689,68.457574
139.973011,68.330716
140.090783,68.242552
140.178419,68.200624
140.275435,68.195423
140.367056,68.227745
140.389206,68.242545
140.506989,68.330716
140.739311,68.457574
140.987322,68.550077
141.245974,68.606343
141.510000,68.625227
141.774026,68.606343
142.032678,68.550077
142.280689,68.457574
142.513011,68.330716
142.724915,68.172087
142.754250,68.142752
142.835031,68.088774
142.930319,68.069819
143.017337,68.085518
143.092618,68.113596
143.092628,68.113598
143.152167,68.119999
143.152175,68.120000
143.799999,68.120000
143.800000,68.119999
143.800000,67.203012
143.857007,67.235925
143.984174,67.270000
144.115826,67.270000
144.242993,67.235925
144.300000,67.203012
144.300000,68.119999
144.300001,68.120000
144.947825,68.120000
144.947832,68.119999
145.007371,68.113598
145.007378,68.113596
145.142087,68.063353
145.257187,67.977189
145.257189,67.977187
145.343353,67.862087
145.393596,67.727378
145.393598,67.727371
145.399999,67.667832
145.400000,67.667825
145.400000,67.020001
145.399999,67.020000
144.483012,67.020000
144.515925,66.962993
144.550000,66.835826
144.550000,66.704174
144.515925,66.577007
144.483012,66.520000
145.399999,66.520000
145.400000,66.519999
145.400000,65.872175
145.399999,65.872167
145.393598,65.812628
145.393596,65.812621
145.343353,65.677912
145.257189,65.562812
145.257187,65.562810
145.142087,65.476646
145.007378,65.426403
145.007371,65.426401
144.947832,65.420000
144.300001,65.420000
144.300000,65.420001
144.300000,66.336988
144.242993,66.304075
144.115826,66.270000
143.984174,66.270000
143.857007,66.304075
143.800000,66.336988
143.800000,65.420001
143.799999,65.420000
143.152167,65.420000
143.092628,65.426401
143.092618,65.426403
143.017337,65.454482
142.921433,65.470022
142.826883,65.447679
142.754255,65.397253
142.724915,65.367913
142.513011,65.209284
142.280689,65.082426
142.280687,65.082425
142.165149,65.039332
142.032678,64.989923
141.830293,64.945897
141.774027,64.933657
141.510000,64.914773
141.245972,64.933657
141.133440,64.958137
140.987322,64.989923
140.979464,64.992854
140.739312,65.082425
140.739308,65.082427
140.506995,65.209280
140.506989,65.209284
140.389218,65.297445
140.301579,65.339375
140.204564,65.344576
140.112943,65.312254
140.090785,65.297448
139.973011,65.209284
139.740689,65.082426
139.740687,65.082425
139.625149,65.039332
139.492678,64.989923
139.290293,64.945897
139.234027,64.933657
138.970000,64.914773
138.705972,64.933657
138.506773,64.976990
138.447322,64.989923
138.447321,64.989923
138.447318,64.989924
138.356515,65.023792
138.260611,65.039332
138.166061,65.016989
138.087257,64.960163
138.036199,64.877506
138.020500,64.790491
138.020500,64.069500
138.039454,63.974212
138.093430,63.893430
138.174212,63.839454
138.269500,63.820500
138.535713,63.820500
138.535719,63.820501
138.550660,63.820500
138.550686,63.820506
138.653811,63.820506
138.825778,63.820506
138.825779,63.820506
139.168060,63.786793
139.505388,63.719694
139.834515,63.619853
140.152271,63.488233
140.455596,63.326102
140.741569,63.135020
141.007436,62.916828
141.250635,62.673628
141.468826,62.407761
141.659907,62.121787
141.663752,62.114595
141.722308,62.005044
141.822038,61.818462
141.953657,61.500705
142.053496,61.171578
142.120595,60.834249
142.154306,60.491969
142.154306,60.320000
142.154306,60.201908
142.154306,59.821248
142.154306,59.811827
142.154278,59.811116
142.154279,59.764699
142.123838,59.416697
142.063183,59.072673
141.972774,58.735244
141.853301,58.406979
141.846351,58.392075
141.705672,58.090376
141.705671,58.090374
141.672536,58.032981
141.531011,57.787845
141.330647,57.501687
141.330646,57.501686
141.330642,57.501680
141.106113,57.234089
141.106110,57.234086
141.074793,57.202768
141.074771,57.202744
141.013482,57.141454
141.013479,57.141452
141.013477,57.141450
140.982601,57.110573
140.899098,57.027068
140.899097,57.027067
140.892222,57.020192
140.892182,57.020155
140.874018,57.001991
140.874013,57.001985
140.866743,56.994715
140.866741,56.994712
140.854623,56.982594
140.854554,56.982491
140.659748,56.787689
140.392137,56.563141
140.105983,56.362777
139.803437,56.188107
139.486840,56.040480
139.158581,55.921008
138.821155,55.830598
138.738908,55.816097
138.555763,55.783806
138.465215,55.748595
138.395033,55.681412
138.355903,55.592486
138.350000,55.538589
138.350000,54.950001
138.349999,54.950000
137.433012,54.950000
137.465925,54.892993
137.500000,54.765826
137.500000,54.634174
137.465925,54.507007
137.433012,54.450000
138.349999,54.450000
138.350000,54.449999
138.350000,53.802175
138.349999,53.802167
138.343598,53.742628
138.343596,53.742621
138.293353,53.607912
138.207189,53.492812
138.207183,53.492806
138.148443,53.448833
138.083520,53.376555
138.051199,53.284934
138.056400,53.187918
138.098332,53.100278
138.170610,53.035355
138.262231,53.003034
138.297665,53.000500
141.309204,53.000500
141.404492,53.019454
141.485274,53.073430
141.539250,53.154212
141.558204,53.249500
141.555816,53.283901
141.513911,53.584305
141.513911,53.584310
141.494693,53.999993
141.494693,54.000006
141.513911,54.415689
141.513911,54.415694
141.571403,54.827845
141.571405,54.827854
141.666678,55.232931
141.798921,55.627493
141.798925,55.627502
141.798926,55.627505
141.938157,55.942832
141.967018,56.008194
142.169505,56.371730
142.169520,56.371754
142.366291,56.659003
142.404687,56.715054
142.404692,56.715060
142.663773,57.027060
142.670538,57.035206
142.964794,57.329462
143.284946,57.595313
143.284958,57.595321
143.628245,57.830479
143.628269,57.830494
143.934865,58.001266
143.991812,58.032985
144.372495,58.201074
144.372503,58.201076
144.372506,58.201078
144.513425,58.248309
144.767064,58.333320
145.172152,58.428596
145.584303,58.486088
145.757510,58.494095
145.999993,58.505307
146.000000,58.505307
146.000007,58.505307
146.193991,58.496338
146.415697,58.486088
146.716099,58.444184
146.813092,58.449791
146.900556,58.492090
146.965175,58.564639
146.997112,58.656395
146.999500,58.690796
146.999500,75.033281
146.980546,75.128569
146.926570,75.209351
146.845788,75.263327
146.750500,75.282281
146.655212,75.263327
146.574430,75.209351
140.996085,69.631006
120.165692,90.461399
126.278723,96.574430
126.332699,96.655212
126.351653,96.750500
126.332699,96.845788
126.278723,96.926570
126.197941,96.980546
126.102653,96.999500
92.857908,96.999500
92.762620,96.980546
92.681838,96.926570
92.627862,96.845788
92.608908,96.750500
92.627862,96.655212
92.681838,96.574430
92.762620,96.520454
92.777058,96.514991
92.854607,96.488368
93.073230,96.370055
93.073238,96.370050
93.120056,96.333610
92.420233,95.633787
92.462292,95.622518
92.587708,95.550110
92.690110,95.447708
92.762518,95.322292
92.773787,95.280233
93.473435,95.979881
93.573731,95.826368
93.673586,95.598722
93.673589,95.598714
93.734610,95.357748
93.734612,95.357741
93.755140,95.110000
93.734612,94.862258
93.734610,94.862251
93.673589,94.621285
93.673586,94.621277
93.573730,94.393628
93.473435,94.240117
92.773787,94.939764
92.762518,94.897708
92.690110,94.772292
92.587708,94.669890
92.462292,94.597482
92.420232,94.586212
93.120056,93.886388
93.073241,93.849951
93.073230,93.849944
92.854607,93.731631
92.619490,93.650916
92.619487,93.650915
92.374294,93.610000
92.125706,93.610000
91.880512,93.650915
91.880509,93.650916
91.645392,93.731631
91.426768,93.849944
91.426758,93.849951
91.379941,93.886388
92.079765,94.586212
92.037708,94.597482
91.912292,94.669890
91.809890,94.772292
91.737482,94.897708
91.726212,94.939766
91.026563,94.240117
90.926268,94.393630
90.926268,94.393631
90.826413,94.621277
90.826410,94.621285
90.765389,94.862251
90.765387,94.862258
90.744859,95.110000
90.765387,95.357741
90.765389,95.357748
90.826410,95.598714
90.826413,95.598722
90.926266,95.826364
91.026564,95.979881
91.726212,95.280233
91.737482,95.322292
91.809890,95.447708
91.912292,95.550110
92.037708,95.622518
92.079764,95.633787
91.379942,96.333610
91.426766,96.370054
91.426770,96.370057
91.645388,96.488366
91.645390,96.488367
91.722942,96.514991
91.806913,96.563858
91.865791,96.641140
91.890613,96.735071
91.877601,96.831350
91.828734,96.915321
91.751452,96.974199
91.657521,96.999021
91.642092,96.999500
86.357908,96.999500
86.262620,96.980546
86.181838,96.926570
86.127862,96.845788
86.108908,96.750500
86.127862,96.655212
86.181838,96.574430
86.262620,96.520454
86.277058,96.514991
86.354607,96.488368
86.573230,96.370055
86.573238,96.370050
86.620056,96.333610
85.920233,95.633787
85.962292,95.622518
86.087708,95.550110
86.190110,95.447708
86.262518,95.322292
86.273787,95.280233
86.973435,95.979881
87.073731,95.826368
87.173586,95.598722
87.173589,95.598714
87.234610,95.357748
87.234612,95.357741
87.255140,95.110000
87.234612,94.862258
87.234610,94.862251
87.173589,94.621285
87.173586,94.621277
87.073730,94.393628
86.973435,94.240117
86.273787,94.939764
86.262518,94.897708
86.190110,94.772292
86.087708,94.669890
85.962292,94.597482
85.920232,94.586212
86.620056,93.886388
86.573241,93.849951
86.573230,93.849944
86.354607,93.731631
86.119490,93.650916
86.119487,93.650915
85.874294,93.610000
85.625706,93.610000
85.380512,93.650915
85.380509,93.650916
85.145392,93.731631
84.926768,93.849944
84.926758,93.849951
84.879941,93.886388
85.579765,94.586212
85.537708,94.597482
85.412292,94.669890
85.309890,94.772292
85.237482,94.897708
85.226212,94.939766
84.526563,94.240117
84.426268,94.393630
84.426268,94.393631
84.326413,94.621277
84.326410,94.621285
84.265389,94.862251
84.265387,94.862258
84.244859,95.110000
84.265387,95.357741
84.265389,95.357748
84.326410,95.598714
84.326413,95.598722
84.426266,95.826364
84.526564,95.979881
85.226212,95.280233
85.237482,95.322292
85.309890,95.447708
85.412292,95.550110
85.537708,95.622518
85.579764,95.633787
84.879942,96.333610
84.926766,96.370054
84.926770,96.370057
85.145388,96.488366
85.145390,96.488367
85.222942,96.514991
85.306913,96.563858
85.365791,96.641140
85.390613,96.735071
85.377601,96.831350
85.328734,96.915321
85.251452,96.974199
85.157521,96.999021
85.142092,96.999500
78.690796,96.999500
78.595508,96.980546
78.514726,96.926570
78.460750,96.845788
78.441796,96.750500
78.444184,96.716099
78.463946,96.574430
78.486088,96.415697
78.505307,96.000000
78.486088,95.584303
78.428596,95.172152
78.333320,94.767064
78.201074,94.372495
78.032985,93.991812
77.843108,93.650916
77.830494,93.628269
77.830479,93.628245
77.595321,93.284958
77.595313,93.284946
77.329462,92.964794
77.035206,92.670538
76.797734,92.473344
76.715060,92.404692
76.715054,92.404687
76.715041,92.404678
76.371754,92.169520
76.371730,92.169505
76.008194,91.967018
76.008191,91.967016
76.008188,91.967015
75.627505,91.798926
75.627502,91.798925
75.627493,91.798921
75.232931,91.666678
74.827854,91.571405
74.827845,91.571403
74.415691,91.513911
74.000007,91.494693
73.999993,91.494693
73.584310,91.513911
73.584305,91.513911
73.370363,91.543755
73.283900,91.555815
73.186908,91.550209
73.099444,91.507910
73.034825,91.435361
73.002888,91.343605
73.000500,91.309204
73.000500,66.577252
73.019454,66.481964
73.073430,66.401182
73.154212,66.347206
73.249500,66.328252
73.344788,66.347206
73.425566,66.401179
77.206178,70.181791
90.013431,57.374538
86.064463,53.425570
86.010487,53.344788
85.991533,53.249500
86.010487,53.154212
86.064463,53.073430
86.145245,53.019454
86.240533,53.000500
100.452335,53.000500
Z" /> 
<path style="fill:#000000; fill-opacity:1.000000; stroke:none;fill-rule:evenodd;"
d="M 104.540000,75.278871
104.736323,75.226267
104.942480,75.130134
105.027679,75.070478
105.116606,75.031349
105.213738,75.029230
105.304287,75.064442
105.374469,75.131626
105.413598,75.220553
105.419500,75.274447
105.419500,75.789381
105.400546,75.884669
105.346570,75.965451
105.265788,76.019427
105.170500,76.038381
102.757928,76.038381
102.662640,76.019427
102.581858,75.965451
102.527882,75.884669
102.508928,75.789381
102.527882,75.694093
102.581858,75.613311
102.644876,75.568598
102.644709,75.568308
102.647802,75.566522
102.649892,75.565039
102.652775,75.563651
102.875741,75.411635
103.073561,75.228085
103.095150,75.201014
103.179898,75.094743
103.254128,75.032062
103.346695,75.002558
103.443506,75.010723
103.517394,75.046023
103.637516,75.130133
103.843676,75.226267
104.039999,75.278871
104.040000,75.278871
104.040000,74.315686
104.044394,74.320080
104.135606,74.372741
104.237339,74.400000
104.342661,74.400000
104.444394,74.372741
104.535606,74.320080
104.540000,74.315686
Z" /> 
<path style="fill:#000000; fill-opacity:1.000000; stroke:none;fill-rule:evenodd;"
d="M 112.297623,53.019454
112.378405,53.073430
112.432381,53.154212
112.451335,53.249500
112.432381,53.344788
112.378405,53.425570
112.351557,53.448833
112.292816,53.492806
112.292810,53.492812
112.206646,53.607912
112.156403,53.742621
112.156401,53.742628
112.150000,53.802167
112.150000,54.449999
112.150001,54.450000
113.066988,54.450000
113.034075,54.507007
113.000000,54.634174
113.000000,54.765826
113.034075,54.892993
113.066988,54.950000
112.150001,54.950000
112.150000,54.950001
112.150000,55.490500
112.131046,55.585788
112.077070,55.666570
111.996288,55.720546
111.901000,55.739500
105.389784,55.739500
105.389664,55.739497
105.383523,55.739497
105.383522,55.739497
105.211553,55.739500
103.349000,55.739500
103.253712,55.720546
103.172930,55.666570
103.118954,55.585788
103.100000,55.490500
103.100000,54.950001
103.099999,54.950000
102.183012,54.950000
102.215925,54.892993
102.250000,54.765826
102.250000,54.634174
102.215925,54.507007
102.183012,54.450000
103.099999,54.450000
103.100000,54.449999
103.100000,53.802175
103.099999,53.802167
103.093598,53.742628
103.093596,53.742621
103.043353,53.607912
102.957189,53.492812
102.957183,53.492806
102.898443,53.448833
102.833520,53.376555
102.801199,53.284934
102.806400,53.187918
102.848332,53.100278
102.920610,53.035355
103.012231,53.003034
103.047665,53.000500
112.202335,53.000500
Z" /> 
<path style="fill:#000000; fill-opacity:1.000000; stroke:none;fill-rule:evenodd;"
d="M 124.047623,53.019454
124.128405,53.073430
124.182381,53.154212
124.201335,53.249500
124.182381,53.344788
124.128405,53.425570
124.101557,53.448833
124.042816,53.492806
124.042810,53.492812
123.956646,53.607912
123.906403,53.742621
123.906401,53.742628
123.900000,53.802167
123.900000,54.449999
123.900001,54.450000
124.816988,54.450000
124.784075,54.507007
124.750000,54.634174
124.750000,54.765826
124.784075,54.892993
124.816988,54.950000
123.900001,54.950000
123.900000,54.950001
123.900000,55.490500
123.881046,55.585788
123.827070,55.666570
123.746288,55.720546
123.651000,55.739500
118.407680,55.739500
118.407640,55.739499
118.401455,55.739499
118.229486,55.739500
115.099000,55.739500
115.003712,55.720546
114.922930,55.666570
114.868954,55.585788
114.850000,55.490500
114.850000,54.950001
114.849999,54.950000
113.933012,54.950000
113.965925,54.892993
114.000000,54.765826
114.000000,54.634174
113.965925,54.507007
113.933012,54.450000
114.849999,54.450000
114.850000,54.449999
114.850000,53.802175
114.849999,53.802167
114.843598,53.742628
114.843596,53.742621
114.793353,53.607912
114.707189,53.492812
114.707183,53.492806
114.648443,53.448833
114.583520,53.376555
114.551199,53.284934
114.556400,53.187918
114.598332,53.100278
114.670610,53.035355
114.762231,53.003034
114.797665,53.000500
123.952335,53.000500
Z" /> 
<path style="fill:#000000; fill-opacity:1.000000; stroke:none;fill-rule:evenodd;"
d="M 135.797623,53.019454
135.878405,53.073430
135.932381,53.154212
135.951335,53.249500
135.932381,53.344788
135.878405,53.425570
135.851557,53.448833
135.792816,53.492806
135.792810,53.492812
135.706646,53.607912
135.656403,53.742621
135.656401,53.742628
135.650000,53.802167
135.650000,54.449999
135.650001,54.450000
136.566988,54.450000
136.534075,54.507007
136.500000,54.634174
136.500000,54.765826
136.534075,54.892993
136.566988,54.950000
135.650001,54.950000
135.650000,54.950001
135.650000,55.490500
135.631046,55.585788
135.577070,55.666570
135.496288,55.720546
135.401000,55.739500
126.849000,55.739500
126.753712,55.720546
126.672930,55.666570
126.618954,55.585788
126.600000,55.490500
126.600000,54.950001
126.599999,54.950000
125.683012,54.950000
125.715925,54.892993
125.750000,54.765826
125.750000,54.634174
125.715925,54.507007
125.683012,54.450000
126.599999,54.450000
126.600000,54.449999
126.600000,53.802175
126.599999,53.802167
126.593598,53.742628
126.593596,53.742621
126.543353,53.607912
126.457189,53.492812
126.457183,53.492806
126.398443,53.448833
126.333520,53.376555
126.301199,53.284934
126.306400,53.187918
126.348332,53.100278
126.420610,53.035355
126.512231,53.003034
126.547665,53.000500
135.702335,53.000500
Z" /> 
</g>
<g style="fill:#000000; fill-opacity:1.000000; stroke:none;">
<circle cx="74.000000" cy="96.000000" r="1.600000" /> 
<path style="fill:none; 
stroke:#000000; stroke-width:0.500000; stroke-opacity:1; 
stroke-linecap:round; stroke-linejoin:round;fill:none"
d="M 70.000000,50.000000
150.000000,50.000000
150.000000,100.000000
70.000000,100.000000
Z" /> 
</g>
<g style="fill:#000000; fill-opacity:1.000000; stroke:none;">
<circle cx="146.000000" cy="96.000000" r="1.600000" /> 
<circle cx="146.000000" cy="54.000000" r="1.600000" /> 
<circle cx="74.000000" cy="54.000000" r="1.600000" /> 
</g> 
</svg>
