<?xml version="1.0" standalone="no"?>
 <!DOCTYPE svg PUBLIC "-//W3C//DTD SVG 1.1//EN" 
 "http://www.w3.org/Graphics/SVG/1.1/DTD/svg11.dtd"> 
<svg
  xmlns:svg="http://www.w3.org/2000/svg"
  xmlns="http://www.w3.org/2000/svg"
  xmlns:xlink="http://www.w3.org/1999/xlink"
  version="1.1"
  width="297.002200mm" height="210.007200mm" viewBox="0.000000 0.000000 297.002200 210.007200">
<title>SVG Image created as Photoresistor-array-F_Cu.svg date 2024/04/14 23:42:00 </title>
  <desc>Image generated by PCBNEW </desc>
<g style="fill:#000000; fill-opacity:1.000000;stroke:#000000; stroke-opacity:1.000000;
stroke-linecap:round; stroke-linejoin:round;"
 transform="translate(0 0) scale(1 1)">
</g>
<g style="fill:#000000; fill-opacity:1.000000; 
stroke:#000000; stroke-width:0.021200; stroke-opacity:1; 
stroke-linecap:round; stroke-linejoin:round;">
<rect x="99.602200" y="40.200000" width="133.900000" height="36.000000" rx="0.000000" />
</g>
<g style="fill:none; 
stroke:#FFFFFF; stroke-width:0.500000; stroke-opacity:1; 
stroke-linecap:round; stroke-linejoin:round;">
<text x="121.752200" y="57.060224"
transform="scale(-1 1) translate(-243.504400 0)"
textLength="5.100000" font-size="2.666666" lengthAdjust="spacingAndGlyphs"
text-anchor="start" opacity="0">PP</text>
<g class="stroked-text"><desc>PP</desc>
<path d="M120.947063 56.789462
L120.947063 54.789462
" />
<path d="M120.947063 54.789462
L120.185158 54.789462
" />
<path d="M120.185158 54.789462
L119.994682 54.884700
" />
<path d="M119.994682 54.884700
L119.899444 54.979938
" />
<path d="M119.899444 54.979938
L119.804206 55.170414
" />
<path d="M119.804206 55.170414
L119.804206 55.456128
" />
<path d="M119.804206 55.456128
L119.899444 55.646604
" />
<path d="M119.899444 55.646604
L119.994682 55.741843
" />
<path d="M119.994682 55.741843
L120.185158 55.837081
" />
<path d="M120.185158 55.837081
L120.947063 55.837081
" />
<path d="M118.947063 56.789462
L118.947063 54.789462
" />
<path d="M118.947063 54.789462
L118.185158 54.789462
" />
<path d="M118.185158 54.789462
L117.994682 54.884700
" />
<path d="M117.994682 54.884700
L117.899444 54.979938
" />
<path d="M117.899444 54.979938
L117.804206 55.170414
" />
<path d="M117.804206 55.170414
L117.804206 55.456128
" />
<path d="M117.804206 55.456128
L117.899444 55.646604
" />
<path d="M117.899444 55.646604
L117.994682 55.741843
" />
<path d="M117.994682 55.741843
L118.185158 55.837081
" />
<path d="M118.185158 55.837081
L118.947063 55.837081
" />
</g><text x="121.752200" y="60.280112"
transform="scale(-1 1) translate(-243.504400 0)"
textLength="6.814286" font-size="2.666666" lengthAdjust="spacingAndGlyphs"
text-anchor="start" opacity="0">WIIT</text>
<g class="stroked-text"><desc>WIIT</desc>
<path d="M121.137539 58.009350
L120.661349 60.009350
" />
<path d="M120.661349 60.009350
L120.280396 58.580778
" />
<path d="M120.280396 58.580778
L119.899444 60.009350
" />
<path d="M119.899444 60.009350
L119.423253 58.009350
" />
<path d="M118.661349 60.009350
L118.661349 58.009350
" />
<path d="M117.708968 60.009350
L117.708968 58.009350
" />
<path d="M117.042301 58.009350
L115.899444 58.009350
" />
<path d="M116.470873 60.009350
L116.470873 58.009350
" />
</g><text x="121.752200" y="63.500000"
transform="scale(-1 1) translate(-243.504400 0)"
textLength="8.719048" font-size="2.666666" lengthAdjust="spacingAndGlyphs"
text-anchor="start" opacity="0">2024</text>
<g class="stroked-text"><desc>2024</desc>
<path d="M121.042301 61.419714
L120.947063 61.324476
" />
<path d="M120.947063 61.324476
L120.756587 61.229238
" />
<path d="M120.756587 61.229238
L120.280396 61.229238
" />
<path d="M120.280396 61.229238
L120.089920 61.324476
" />
<path d="M120.089920 61.324476
L119.994682 61.419714
" />
<path d="M119.994682 61.419714
L119.899444 61.610190
" />
<path d="M119.899444 61.610190
L119.899444 61.800666
" />
<path d="M119.899444 61.800666
L119.994682 62.086380
" />
<path d="M119.994682 62.086380
L121.137539 63.229238
" />
<path d="M121.137539 63.229238
L119.899444 63.229238
" />
<path d="M118.661349 61.229238
L118.470872 61.229238
" />
<path d="M118.470872 61.229238
L118.280396 61.324476
" />
<path d="M118.280396 61.324476
L118.185158 61.419714
" />
<path d="M118.185158 61.419714
L118.089920 61.610190
" />
<path d="M118.089920 61.610190
L117.994682 61.991142
" />
<path d="M117.994682 61.991142
L117.994682 62.467333
" />
<path d="M117.994682 62.467333
L118.089920 62.848285
" />
<path d="M118.089920 62.848285
L118.185158 63.038761
" />
<path d="M118.185158 63.038761
L118.280396 63.134000
" />
<path d="M118.280396 63.134000
L118.470872 63.229238
" />
<path d="M118.470872 63.229238
L118.661349 63.229238
" />
<path d="M118.661349 63.229238
L118.851825 63.134000
" />
<path d="M118.851825 63.134000
L118.947063 63.038761
" />
<path d="M118.947063 63.038761
L119.042301 62.848285
" />
<path d="M119.042301 62.848285
L119.137539 62.467333
" />
<path d="M119.137539 62.467333
L119.137539 61.991142
" />
<path d="M119.137539 61.991142
L119.042301 61.610190
" />
<path d="M119.042301 61.610190
L118.947063 61.419714
" />
<path d="M118.947063 61.419714
L118.851825 61.324476
" />
<path d="M118.851825 61.324476
L118.661349 61.229238
" />
<path d="M117.232777 61.419714
L117.137539 61.324476
" />
<path d="M117.137539 61.324476
L116.947063 61.229238
" />
<path d="M116.947063 61.229238
L116.470872 61.229238
" />
<path d="M116.470872 61.229238
L116.280396 61.324476
" />
<path d="M116.280396 61.324476
L116.185158 61.419714
" />
<path d="M116.185158 61.419714
L116.089920 61.610190
" />
<path d="M116.089920 61.610190
L116.089920 61.800666
" />
<path d="M116.089920 61.800666
L116.185158 62.086380
" />
<path d="M116.185158 62.086380
L117.328015 63.229238
" />
<path d="M117.328015 63.229238
L116.089920 63.229238
" />
<path d="M114.375634 61.895904
L114.375634 63.229238
" />
<path d="M114.851825 61.134000
L115.328015 62.562571
" />
<path d="M115.328015 62.562571
L114.089920 62.562571
" />
</g></g>
<g style="fill:#FFFFFF; fill-opacity:1.000000; stroke:none;">
<circle cx="127.592200" cy="58.000000" r="0.800000" /> 
</g>
<g style="fill:#FFFFFF; fill-opacity:1.000000; stroke:none;">
<circle cx="137.752200" cy="58.000000" r="0.800000" /> 
<circle cx="187.827200" cy="54.950000" r="0.750000" /> 
</g>
<g style="fill:#FFFFFF; fill-opacity:1.000000; stroke:none;">
<circle cx="187.827200" cy="51.550000" r="0.750000" /> 
</g>
<g style="fill:#FFFFFF; fill-opacity:1.000000; stroke:none;">
<circle cx="182.672200" cy="58.000000" r="0.800000" /> 
</g>
<g style="fill:#FFFFFF; fill-opacity:1.000000; stroke:none;">
<circle cx="192.832200" cy="58.000000" r="0.800000" /> 
<circle cx="132.852200" cy="54.950000" r="0.750000" /> 
</g>
<g style="fill:#FFFFFF; fill-opacity:1.000000; stroke:none;">
<circle cx="132.852200" cy="51.550000" r="0.750000" /> 
</g>
<g style="fill:#FFFFFF; fill-opacity:1.000000; stroke:none;">
<circle cx="164.342200" cy="58.000000" r="0.800000" /> 
</g>
<g style="fill:#FFFFFF; fill-opacity:1.000000; stroke:none;">
<circle cx="174.502200" cy="58.000000" r="0.800000" /> 
<circle cx="146.092200" cy="58.000000" r="0.800000" /> 
</g>
<g style="fill:#FFFFFF; fill-opacity:1.000000; stroke:none;">
<circle cx="156.252200" cy="58.000000" r="0.800000" /> 
<circle cx="169.502200" cy="54.950000" r="0.750000" /> 
</g>
<g style="fill:#FFFFFF; fill-opacity:1.000000; stroke:none;">
<circle cx="169.502200" cy="51.550000" r="0.750000" /> 
</g>
<g style="fill:#FFFFFF; fill-opacity:1.000000; stroke:none;">
<circle cx="151.177200" cy="54.950000" r="0.750000" /> 
</g>
<g style="fill:#FFFFFF; fill-opacity:1.000000; stroke:none;">
<circle cx="151.177200" cy="51.550000" r="0.750000" /> 
</g>
<g style="fill:#FFFFFF; fill-opacity:1.000000; stroke:none;">
<circle cx="218.012200" cy="58.750000" r="0.850000" /> 
<circle cx="215.472200" cy="58.750000" r="0.850000" /> 
<circle cx="212.932200" cy="58.750000" r="0.850000" /> 
<path style="fill:#FFFFFF; fill-opacity:1.000000; stroke:none;fill-rule:evenodd;"
d="M 209.542200,59.600000
211.242200,59.600000
211.242200,57.900000
209.542200,57.900000
Z" /> 
<path style="fill:#FFFFFF; fill-opacity:1.000000; stroke:none;fill-rule:evenodd;"
d="M 209.332200,51.375000
209.332200,53.075000
211.032200,53.075000
211.032200,51.375000
Z" /> 
<circle cx="210.182200" cy="54.765000" r="0.850000" /> 
</g>
<g style="fill:none; 
stroke:#FFFFFF; stroke-width:1.000000; stroke-opacity:1; 
stroke-linecap:round; stroke-linejoin:round;">
<path d="M205.845093 51.842893 A0.999990 0.999990 0.0 0 0 205.137986 51.550010" />
<path d="M205.934307 51.932107 A0.999990 0.999990 0.0 0 0 206.641414 52.224990" />
<path d="M210.182200 52.225000
L206.641414 52.225000
" />
<path d="M205.934307 51.932107
L205.845093 51.842893
" />
<path d="M205.137986 51.550000
L187.827200 51.550000
" />
<path d="M202.581413 54.179213 A1.999981 1.999981 0.0 0 0 203.995627 54.764981" />
<path d="M202.328000 53.925772 A2.000000 2.000000 0.0 0 0 200.913773 53.340000" />
<path d="M202.180650 57.578404 A4.000000 4.000000 0.0 0 0 205.009054 58.750000" />
<path d="M210.182200 54.765000
L203.995627 54.765000
" />
<path d="M202.581413 54.179213
L202.327986 53.925786
" />
<path d="M178.012200 53.340000
L200.913773 53.340000
" />
<path d="M201.653773 57.051573 A4.000032 4.000032 0.0 0 0 198.825346 55.879968" />
<path d="M210.392200 58.750000
L205.009054 58.750000
" />
<path d="M202.180627 57.578427
L201.653773 57.051573
" />
<path d="M198.825346 55.880000
L190.322200 55.880000
" />
<path d="M160.943750 59.171596 A4.000000 4.000000 0.0 0 0 158.115346 58.000000" />
<path d="M163.530650 61.758404 A4.000000 4.000000 0.0 0 0 166.359054 62.930000" />
<path d="M211.145346 62.930000
L166.359054 62.930000
" />
<path d="M156.252200 58.000000
L158.115346 58.000000
" />
<path d="M160.943773 59.171573
L163.530627 61.758427
" />
<path d="M211.145346 62.930032 A4.000032 4.000032 0.0 0 0 213.973773 61.758427" />
<path d="M153.055627 56.828427 A4.000032 4.000032 0.0 0 0 155.884054 58.000032" />
<path d="M212.245346 64.900000 A4.000000 4.000000 0.0 0 0 215.073750 63.728404" />
<path d="M134.730627 56.828427 A4.000032 4.000032 0.0 0 0 137.559054 58.000032" />
<path d="M216.840604 61.961550 A4.000000 4.000000 0.0 0 0 218.012200 59.133146" />
<path d="M176.290650 59.788404 A4.000000 4.000000 0.0 0 0 179.119054 60.960000" />
<path d="M171.380627 56.828427 A4.000032 4.000032 0.0 0 0 174.209054 58.000032" />
<path d="M131.019054 53.340000 A4.000000 4.000000 0.0 0 0 128.190650 54.511596" />
<path d="M143.480627 63.728427 A4.000032 4.000032 0.0 0 0 146.309054 64.900032" />
<path d="M215.472200 58.750000
L215.472200 60.260000
" />
<path d="M215.472200 60.260000
L213.973773 61.758427
" />
<path d="M137.752200 58.000000
L137.559054 58.000000
" />
<path d="M134.730627 56.828427
L132.852200 54.950000
" />
<path d="M218.012200 58.750000
L218.012200 59.133146
" />
<path d="M216.840627 61.961573
L215.073773 63.728427
" />
<path d="M212.245346 64.900000
L146.309054 64.900000
" />
<path d="M143.480627 63.728427
L137.752200 58.000000
" />
<path d="M156.252200 58.000000
L155.884054 58.000000
" />
<path d="M153.055627 56.828427
L151.177200 54.950000
" />
<path d="M174.502200 58.000000
L174.209054 58.000000
" />
<path d="M171.380627 56.828427
L169.502200 54.950000
" />
<path d="M212.932200 58.750000
L212.932200 59.952081
" />
<path d="M212.932200 59.952081
L211.924281 60.960000
" />
<path d="M211.924281 60.960000
L179.119054 60.960000
" />
<path d="M176.290627 59.788427
L174.502200 58.000000
" />
<path d="M190.322200 55.880000
L188.757200 55.880000
" />
<path d="M190.322200 55.880000
L190.712200 55.880000
" />
<path d="M190.712200 55.880000
L192.832200 58.000000
" />
<path d="M188.757200 55.880000
L187.827200 54.950000
" />
<path d="M177.622200 53.340000
L158.572200 53.340000
" />
<path d="M177.622200 53.340000
L178.012200 53.340000
" />
<path d="M178.012200 53.340000
L182.672200 58.000000
" />
<path d="M158.572200 53.340000
L145.872200 53.340000
" />
<path d="M158.572200 53.340000
L159.682200 53.340000
" />
<path d="M159.682200 53.340000
L164.342200 58.000000
" />
<path d="M140.792200 53.340000
L131.019054 53.340000
" />
<path d="M145.872200 53.340000
L140.792200 53.340000
" />
<path d="M140.792200 53.340000
L141.432200 53.340000
" />
<path d="M141.432200 53.340000
L146.092200 58.000000
" />
<path d="M127.592200 55.110000
L127.592200 58.000000
" />
<path d="M128.190627 54.511573
L127.592200 55.110000
" />
<path d="M187.827200 51.550000
L132.852200 51.550000
" />
<path style="fill:#FFFFFF; fill-opacity:1.000000; stroke:none;fill-rule:evenodd;"
d="M 219.008979,50.512351
218.935841,50.500500
212.115164,50.500500
212.019876,50.519454
211.939094,50.573430
211.885118,50.654212
211.866164,50.749500
211.885118,50.844788
211.894460,50.864785
211.966107,51.001946
211.966110,51.001954
212.022085,51.197578
212.022086,51.197582
212.032700,51.316963
212.032700,53.133031
212.032699,53.133043
212.022087,53.252414
212.022087,53.252417
212.022086,53.252418
211.975007,53.416950
211.966110,53.448045
211.966107,53.448053
211.898453,53.577571
211.871898,53.628407
211.743309,53.786109
211.685604,53.833161
211.585608,53.914697
211.585604,53.914700
211.547028,53.934850
211.471344,53.995768
211.424733,54.081011
211.414291,54.177604
211.436641,54.260782
211.455630,54.301504
211.455634,54.301516
211.512837,54.514998
211.512836,54.515000
210.615212,54.515000
210.648125,54.572007
210.682200,54.699174
210.682200,54.830826
210.648125,54.957993
210.615212,55.015000
211.512836,55.015000
211.512837,55.015001
211.455634,55.228483
211.455634,55.228485
211.355801,55.442576
211.220311,55.636076
211.053277,55.803110
210.859777,55.938600
210.645689,56.038431
210.432200,56.095635
210.432200,55.198012
210.375193,55.230925
210.248026,55.265000
210.116374,55.265000
209.989207,55.230925
209.932200,55.198012
209.932200,56.095635
209.718712,56.038431
209.504624,55.938600
209.311124,55.803110
209.144090,55.636076
209.008600,55.442576
208.908767,55.228485
208.908767,55.228483
208.851564,55.015001
208.851564,55.015000
209.749188,55.015000
209.716275,54.957993
209.682200,54.830826
209.682200,54.699174
209.716275,54.572007
209.749188,54.515000
208.851564,54.515000
208.851564,54.514998
208.908767,54.301516
208.908767,54.301514
208.927759,54.260786
208.950851,54.166415
208.936071,54.070391
208.885670,53.987332
208.817373,53.934850
208.778793,53.914698
208.621091,53.786109
208.621090,53.786107
208.615465,53.781521
208.529637,53.735994
208.458111,53.725500
206.512735,53.725500
206.512545,53.725491
206.501010,53.725492
206.221925,53.694050
205.948115,53.631559
205.683024,53.538803
205.429985,53.416950
205.192180,53.267531
204.988145,53.104821
204.901829,53.060231
204.832899,53.050500
188.955852,53.050500
188.860564,53.069454
188.779782,53.123430
188.725806,53.204212
188.706852,53.299500
188.725806,53.394788
188.779782,53.475570
188.815580,53.505229
188.903313,53.565045
188.921685,53.577571
189.113995,53.756008
189.114006,53.756019
189.277588,53.961144
189.408764,54.188348
189.408773,54.188367
189.421765,54.221471
189.474222,54.303247
189.553980,54.358724
189.648897,54.379456
189.653552,54.379500
198.697741,54.379500
198.697793,54.379498
198.722194,54.379498
198.722350,54.379467
199.041481,54.379469
199.041484,54.379470
199.472381,54.413388
199.899295,54.481009
200.319552,54.581908
200.319576,54.581915
200.730649,54.715486
201.129963,54.880890
201.129969,54.880893
201.515092,55.077127
201.883631,55.302972
202.233311,55.557036
202.561985,55.837754
202.561994,55.837762
202.714792,55.990565
202.714795,55.990568
203.154756,56.430526
203.154755,56.430527
203.158140,56.433912
203.158147,56.433918
203.223694,56.499467
203.236704,56.512477
203.246849,56.522067
203.316218,56.584061
203.440218,56.694876
203.462049,56.712285
203.667854,56.858314
203.691497,56.873170
203.912332,56.995224
203.937490,57.007340
204.170610,57.103904
204.196965,57.113127
204.439439,57.182986
204.466663,57.189200
204.715434,57.231470
204.743180,57.234596
205.001522,57.249108
205.015487,57.249500
208.668111,57.249500
208.763399,57.230546
208.825465,57.193479
208.831090,57.188892
208.831091,57.188891
208.988793,57.060302
208.988795,57.060301
208.988798,57.060299
209.169147,56.966093
209.169148,56.966092
209.169151,56.966091
209.364782,56.910114
209.484163,56.899500
209.484165,56.899500
211.300232,56.899500
211.300244,56.899501
211.419615,56.910113
211.615246,56.966090
211.615254,56.966093
211.795604,57.060299
211.795607,57.060301
211.814176,57.075443
211.900004,57.120969
211.996721,57.130184
212.089603,57.101686
212.090860,57.101004
212.161509,57.062427
212.161513,57.062425
212.233023,57.035753
212.409522,56.969923
212.634538,56.920974
212.668173,56.913657
212.932200,56.894773
213.196228,56.913657
213.308760,56.938137
213.454878,56.969923
213.489649,56.982892
213.702888,57.062425
213.702892,57.062427
213.935205,57.189280
213.935211,57.189284
214.052982,57.277445
214.140621,57.319375
214.237636,57.324576
214.329257,57.292254
214.351415,57.277448
214.469189,57.189284
214.469909,57.188891
214.701509,57.062427
214.701513,57.062425
214.773023,57.035753
214.949522,56.969923
215.174538,56.920974
215.208173,56.913657
215.472200,56.894773
215.736228,56.913657
215.848760,56.938137
215.994878,56.969923
216.029649,56.982892
216.242888,57.062425
216.242892,57.062427
216.475205,57.189280
216.475211,57.189284
216.592982,57.277445
216.680621,57.319375
216.777636,57.324576
216.869257,57.292254
216.891415,57.277448
217.009189,57.189284
217.009909,57.188891
217.241509,57.062427
217.241513,57.062425
217.313023,57.035753
217.489522,56.969923
217.714538,56.920974
217.748173,56.913657
218.012200,56.894773
218.276228,56.913657
218.388760,56.938137
218.534878,56.969923
218.569649,56.982892
218.782888,57.062425
218.782892,57.062427
219.015205,57.189280
219.015211,57.189284
219.227115,57.347913
219.414287,57.535085
219.560870,57.730897
219.572916,57.746989
219.572920,57.746995
219.699773,57.979308
219.699775,57.979312
219.748601,58.110222
219.792277,58.227322
219.816326,58.337876
219.848543,58.485972
219.867427,58.750000
219.848543,59.014027
219.839575,59.055250
219.792277,59.272678
219.699774,59.520689
219.612382,59.680734
219.572917,59.753009
219.572912,59.753017
219.495968,59.855802
219.454037,59.943443
219.449369,59.966066
219.411191,60.207094
219.310292,60.627351
219.310285,60.627375
219.176714,61.038448
219.011310,61.437762
219.011307,61.437768
218.815073,61.822891
218.589228,62.191430
218.589227,62.191431
218.335164,62.541111
218.054450,62.869780
218.054447,62.869783
218.054446,62.869784
218.054438,62.869793
217.907855,63.016372
217.907853,63.016375
217.907852,63.016375
216.051283,64.872944
216.051280,64.872946
216.044506,64.879720
216.043938,64.880245
215.981961,64.942223
215.981958,64.942226
215.653291,65.222939
215.303613,65.477000
214.935080,65.702842
214.549963,65.899073
214.549883,65.899106
214.256930,66.020455
214.176149,66.074432
214.122173,66.155214
214.103220,66.250502
214.122175,66.345790
214.176152,66.426571
214.256934,66.480547
214.352220,66.499500
221.252700,66.499500
221.347988,66.480546
221.428770,66.426570
221.482746,66.345788
221.501700,66.250500
221.501700,53.066358
221.489849,53.006777
221.491534,52.996380
221.016673,52.996380
221.004335,53.048592
220.987396,53.285428
220.926569,53.565046
220.901762,53.631555
220.826569,53.833158
220.756683,53.961143
220.689426,54.084315
220.517939,54.313395
220.315595,54.515739
220.086515,54.687226
219.835361,54.824367
219.835359,54.824368
219.818044,54.830826
219.567246,54.924369
219.287628,54.985196
219.002200,55.005610
218.716772,54.985196
218.437154,54.924369
218.169039,54.824367
217.917885,54.687226
217.688805,54.515739
217.486461,54.313395
217.314974,54.084315
217.177833,53.833161
217.077831,53.565046
217.017004,53.285428
216.996590,53.000000
217.017004,52.714572
217.077831,52.434954
217.177833,52.166839
217.314974,51.915685
217.486461,51.686605
217.688805,51.484261
217.912289,51.316963
217.917883,51.312775
218.169042,51.175631
218.314230,51.121479
218.437154,51.075631
218.437153,51.075631
218.716772,51.014804
218.953606,50.997865
218.998581,50.985527
219.050794,50.997865
219.250266,51.012131
219.287629,51.014804
219.567246,51.075631
219.835359,51.175631
220.086518,51.312775
220.250249,51.435343
220.315595,51.484261
220.315596,51.484262
220.517938,51.686604
220.517940,51.686607
220.689425,51.915682
220.826569,52.166841
220.926569,52.434954
220.987396,52.714571
221.004334,52.951404
221.016673,52.996380
221.491534,52.996380
221.501700,52.933641
221.501700,50.749500
221.482746,50.654212
221.428770,50.573430
221.347988,50.519454
221.252700,50.500500
219.068559,50.500500
Z" /> 
<path style="fill:#FFFFFF; fill-opacity:1.000000; stroke:none;fill-rule:evenodd;"
d="M 115.008979,50.512351
114.935841,50.500500
112.751700,50.500500
112.656412,50.519454
112.575630,50.573430
112.521654,50.654212
112.502700,50.749500
112.502700,52.933641
112.521654,53.028929
112.575630,53.109711
112.656412,53.163687
112.751700,53.182641
112.846988,53.163687
112.927770,53.109711
112.981746,53.028929
113.000066,52.951404
113.002138,52.922432
113.017004,52.714572
113.077831,52.434954
113.177833,52.166839
113.314974,51.915685
113.486461,51.686605
113.688805,51.484261
113.912289,51.316963
113.917883,51.312775
114.169042,51.175631
114.314230,51.121479
114.437154,51.075631
114.437153,51.075631
114.716772,51.014804
114.953606,50.997865
114.998581,50.985527
115.050794,50.997865
115.250266,51.012131
115.287629,51.014804
115.567246,51.075631
115.835359,51.175631
116.086518,51.312775
116.250249,51.435343
116.315595,51.484261
116.315596,51.484262
116.517938,51.686604
116.517940,51.686607
116.689425,51.915682
116.826569,52.166841
116.926569,52.434954
116.987396,52.714572
117.007810,53.000000
116.988906,53.264319
117.001013,53.360712
117.049089,53.445138
117.125814,53.504740
117.219507,53.530444
117.237271,53.531078
122.397696,53.531078
122.397696,64.487622
122.397695,64.487622
112.751700,64.487622
112.656412,64.506576
112.575630,64.560552
112.521654,64.641334
112.502700,64.736622
112.502700,66.250500
112.521654,66.345788
112.575630,66.426570
112.656412,66.480546
112.751700,66.499500
144.202096,66.499500
144.297384,66.480546
144.378166,66.426570
144.432142,66.345788
144.451096,66.250500
144.432142,66.155212
144.378166,66.074430
144.297386,66.020455
144.004438,65.899109
144.004436,65.899107
144.004424,65.899103
143.619305,65.702870
143.250769,65.477027
142.901089,65.222964
142.572420,64.942250
142.419605,64.789432
142.412081,64.781908
137.451970,59.821795
137.371191,59.767822
137.349319,59.759937
137.092559,59.680738
136.849425,59.563651
136.691224,59.455790
136.601820,59.417775
136.589922,59.415592
136.485114,59.398992
136.485112,59.398991
136.485109,59.398991
136.064849,59.298091
136.064840,59.298088
136.064826,59.298085
135.653752,59.164514
135.254424,58.999103
134.869305,58.802870
134.500769,58.577027
134.151089,58.322964
133.822420,58.042250
133.780171,58.000000
128.897166,58.000000
128.877341,58.226602
128.877341,58.226603
128.818468,58.446323
128.722333,58.652486
128.722331,58.652488
128.671228,58.725471
128.671226,58.725471
127.992200,58.046445
127.992200,58.052661
127.964941,58.154394
127.912280,58.245606
127.837806,58.320080
127.746594,58.372741
127.644861,58.400000
127.638648,58.400000
128.317673,59.079023
128.317673,59.079025
128.244685,59.130132
128.038524,59.226267
127.818804,59.285140
127.592200,59.304965
127.365598,59.285140
127.365597,59.285140
127.145874,59.226266
126.939724,59.130137
126.939717,59.130133
126.866729,59.079025
127.545754,58.400000
127.539539,58.400000
127.437806,58.372741
127.346594,58.320080
127.272120,58.245606
127.219459,58.154394
127.192200,58.052661
127.192200,58.046446
126.513175,58.725471
126.462067,58.652483
126.462063,58.652476
126.365934,58.446326
126.307060,58.226603
126.307060,58.226602
126.287235,58.000000
126.307060,57.773397
126.307060,57.773396
126.365933,57.553676
126.462068,57.347515
126.513175,57.274527
126.513177,57.274527
127.192200,57.953551
127.192200,57.947339
127.219459,57.845606
127.272120,57.754394
127.346594,57.679920
127.437806,57.627259
127.539539,57.600000
127.545754,57.600000
126.866729,56.920974
126.866729,56.920972
126.939712,56.869869
126.939714,56.869867
127.145877,56.773732
127.365597,56.714859
127.592200,56.695034
127.818803,56.714859
127.818804,56.714859
128.038524,56.773732
128.244686,56.869867
128.244690,56.869870
128.317673,56.920972
128.317673,56.920973
127.638646,57.600000
127.644861,57.600000
127.746594,57.627259
127.837806,57.679920
127.912280,57.754394
127.964941,57.845606
127.992200,57.947339
127.992200,57.953554
128.671227,57.274527
128.671228,57.274527
128.722330,57.347510
128.722333,57.347514
128.818468,57.553676
128.877341,57.773396
128.877341,57.773397
128.897166,58.000000
133.780171,58.000000
133.669605,57.889432
133.629967,57.849794
132.476307,56.696132
132.395525,56.642156
132.373639,56.634267
132.210877,56.584063
131.974496,56.470228
131.757721,56.322433
131.565395,56.143981
131.401814,55.938857
131.270632,55.711643
131.174780,55.467416
131.116398,55.211630
131.096792,54.950000
131.116398,54.688370
131.163727,54.481008
131.174779,54.432587
131.195627,54.379468
131.270632,54.188357
131.330699,54.084317
131.401813,53.961144
131.565395,53.756019
131.565406,53.756008
131.757721,53.577567
131.936418,53.455733
132.004471,53.386395
132.040810,53.296292
132.039902,53.199141
132.001884,53.109733
131.936418,53.044267
131.871491,53.000000
131.757721,52.922433
131.565395,52.743981
131.401814,52.538857
131.270632,52.311643
131.174780,52.067416
131.116398,51.811630
131.096792,51.550000
131.116398,51.288370
131.174780,51.032584
131.248484,50.844788
131.250179,50.840469
131.267347,50.744843
131.246615,50.649926
131.191137,50.570168
131.109360,50.517712
131.018391,50.500500
115.068559,50.500500
Z" /> 
<path style="fill:#FFFFFF; fill-opacity:1.000000; stroke:none;fill-rule:evenodd;"
d="M 133.885564,53.069454
133.804782,53.123430
133.750806,53.204212
133.731852,53.299500
133.750806,53.394788
133.804782,53.475570
133.840580,53.505229
133.928313,53.565045
133.946685,53.577571
134.138995,53.756008
134.139006,53.756019
134.302588,53.961144
134.433764,54.188348
134.433770,54.188360
134.477222,54.299075
134.529620,54.432584
134.535191,54.456991
134.574876,54.545672
134.601877,54.577648
135.704768,55.680538
135.704767,55.680539
135.708140,55.683912
135.708147,55.683918
135.735863,55.711635
135.786704,55.762477
135.796853,55.772072
135.990218,55.944876
136.012049,55.962285
136.217854,56.108314
136.241497,56.123170
136.462332,56.245224
136.487489,56.257340
136.720610,56.353905
136.746967,56.363128
136.814870,56.382691
136.911682,56.390858
136.991839,56.367765
137.092554,56.319264
137.092557,56.319263
137.092559,56.319262
137.350428,56.239720
137.617271,56.199500
137.887129,56.199500
138.087262,56.229665
138.153973,56.239720
138.411847,56.319264
138.654973,56.436348
138.877943,56.588366
139.075763,56.771916
139.244011,56.982892
139.244012,56.982892
139.378943,57.216601
139.378944,57.216604
139.477536,57.467809
139.501648,57.573446
139.541331,57.662127
139.568334,57.694105
144.454768,62.580538
144.454767,62.580539
144.458140,62.583912
144.458147,62.583918
144.536704,62.662477
144.546853,62.672072
144.740218,62.844876
144.762049,62.862285
144.967854,63.008314
144.991497,63.023170
145.212332,63.145224
145.237490,63.157340
145.470610,63.253904
145.496965,63.263127
145.739439,63.332986
145.766663,63.339200
146.015434,63.381470
146.043180,63.384596
146.301522,63.399108
146.315487,63.399500
162.448530,63.399500
162.543818,63.380546
162.624600,63.326570
162.678576,63.245788
162.697530,63.150500
162.678576,63.055212
162.624602,62.974433
162.519952,62.869780
162.469605,62.819432
162.462081,62.811908
159.976247,60.326072
159.976238,60.326065
159.966259,60.316085
159.966253,60.316082
159.887661,60.237487
159.877590,60.227965
159.684166,60.055109
159.662352,60.037714
159.456547,59.891685
159.432914,59.876834
159.212062,59.754771
159.186918,59.742662
158.953785,59.646092
158.927443,59.636874
158.684952,59.567010
158.657748,59.560801
158.408957,59.518527
158.381229,59.515404
158.139335,59.501816
158.122877,59.500892
158.108913,59.500500
157.324406,59.500500
157.229118,59.519454
157.184144,59.543763
157.154974,59.563651
156.911841,59.680738
156.653972,59.760280
156.387129,59.800500
156.387126,59.800500
156.117274,59.800500
156.117271,59.800500
155.850428,59.760280
155.592559,59.680738
155.349425,59.563651
155.244186,59.491899
155.154781,59.453883
155.142882,59.451700
154.810114,59.398992
154.641767,59.358573
154.389849,59.298091
154.389840,59.298088
154.389826,59.298085
153.978752,59.164514
153.579424,58.999103
153.194305,58.802870
152.825769,58.577027
152.476089,58.322964
152.147420,58.042250
152.105171,58.000000
147.397166,58.000000
147.377341,58.226602
147.377341,58.226603
147.318468,58.446323
147.222333,58.652486
147.222331,58.652488
147.171228,58.725471
147.171226,58.725471
146.492200,58.046445
146.492200,58.052661
146.464941,58.154394
146.412280,58.245606
146.337806,58.320080
146.246594,58.372741
146.144861,58.400000
146.138648,58.400000
146.817673,59.079023
146.817673,59.079025
146.744685,59.130132
146.538524,59.226267
146.318804,59.285140
146.092200,59.304965
145.865598,59.285140
145.865597,59.285140
145.645874,59.226266
145.439724,59.130137
145.439717,59.130133
145.366729,59.079025
146.045754,58.400000
146.039539,58.400000
145.937806,58.372741
145.846594,58.320080
145.772120,58.245606
145.719459,58.154394
145.692200,58.052661
145.692200,58.046446
145.013175,58.725471
144.962067,58.652483
144.962063,58.652476
144.865934,58.446326
144.807060,58.226603
144.807060,58.226602
144.787235,58.000000
144.807060,57.773397
144.807060,57.773396
144.865933,57.553676
144.962068,57.347515
145.013175,57.274527
145.013177,57.274527
145.692200,57.953551
145.692200,57.947339
145.719459,57.845606
145.772120,57.754394
145.846594,57.679920
145.937806,57.627259
146.039539,57.600000
146.045754,57.600000
145.366729,56.920974
145.366729,56.920972
145.439712,56.869869
145.439714,56.869867
145.645877,56.773732
145.865597,56.714859
146.092200,56.695034
146.318803,56.714859
146.318804,56.714859
146.538524,56.773732
146.744686,56.869867
146.744690,56.869870
146.817673,56.920972
146.817673,56.920973
146.138646,57.600000
146.144861,57.600000
146.246594,57.627259
146.337806,57.679920
146.412280,57.754394
146.464941,57.845606
146.492200,57.947339
146.492200,57.953554
147.171227,57.274527
147.171228,57.274527
147.222330,57.347510
147.222333,57.347514
147.318468,57.553676
147.377341,57.773396
147.377341,57.773397
147.397166,58.000000
152.105171,58.000000
151.994605,57.889432
151.954967,57.849794
150.801307,56.696132
150.720525,56.642156
150.698639,56.634267
150.535877,56.584063
150.299496,56.470228
150.082721,56.322433
149.890395,56.143981
149.726814,55.938857
149.595632,55.711643
149.499780,55.467416
149.441398,55.211630
149.421792,54.950000
149.441398,54.688370
149.488727,54.481008
149.499779,54.432587
149.520627,54.379468
149.595632,54.188357
149.655699,54.084317
149.726813,53.961144
149.890395,53.756019
149.890406,53.756008
150.082716,53.577571
150.082719,53.577569
150.082721,53.577567
150.188818,53.505231
150.256868,53.435895
150.293207,53.345792
150.292299,53.248641
150.254282,53.159233
150.184943,53.091180
150.094840,53.054841
150.048548,53.050500
133.980852,53.050500
Z" /> 
<path style="fill:#FFFFFF; fill-opacity:1.000000; stroke:none;fill-rule:evenodd;"
d="M 152.210564,53.069454
152.129782,53.123430
152.075806,53.204212
152.056852,53.299500
152.075806,53.394788
152.129782,53.475570
152.165580,53.505229
152.253313,53.565045
152.271685,53.577571
152.463995,53.756008
152.464006,53.756019
152.627588,53.961144
152.758764,54.188348
152.758770,54.188360
152.802222,54.299075
152.854620,54.432584
152.860191,54.456991
152.899876,54.545672
152.926877,54.577648
154.029768,55.680538
154.029767,55.680539
154.033140,55.683912
154.033147,55.683918
154.060863,55.711635
154.111704,55.762477
154.121853,55.772072
154.315218,55.944876
154.337049,55.962285
154.542854,56.108314
154.566497,56.123170
154.787332,56.245224
154.812490,56.257340
155.045610,56.353904
155.071965,56.363127
155.249363,56.414237
155.346174,56.422404
155.426334,56.399311
155.592554,56.319264
155.592557,56.319263
155.592559,56.319262
155.850428,56.239720
156.117271,56.199500
156.387129,56.199500
156.587262,56.229665
156.653973,56.239720
156.911847,56.319264
157.154970,56.436347
157.154973,56.436348
157.154974,56.436349
157.184143,56.456235
157.273549,56.494251
157.324406,56.499500
157.987741,56.499500
157.987793,56.499498
158.012194,56.499498
158.012350,56.499467
158.331481,56.499469
158.331484,56.499470
158.762381,56.533388
159.189295,56.601009
159.609552,56.701908
159.609576,56.701915
160.020649,56.835486
160.419963,57.000890
160.419969,57.000893
160.805092,57.197127
161.173631,57.422972
161.523311,57.677036
161.851985,57.957754
161.851995,57.957763
162.004448,58.110220
162.004450,58.110222
162.794873,58.900644
162.875654,58.954620
162.970942,58.973574
163.066230,58.954620
163.147012,58.900643
163.200988,58.819862
163.219942,58.724574
163.200988,58.629286
163.196612,58.619342
163.115935,58.446329
163.115935,58.446328
163.057060,58.226603
163.057060,58.226602
163.037235,58.000000
163.057060,57.773397
163.057060,57.773396
163.115933,57.553676
163.212068,57.347515
163.263176,57.274527
163.942200,57.953552
163.942200,57.947339
163.969459,57.845606
164.022120,57.754394
164.096594,57.679920
164.187806,57.627259
164.289539,57.600000
164.295754,57.600000
163.616729,56.920974
163.616729,56.920972
163.689712,56.869869
163.689714,56.869867
163.895877,56.773732
164.115597,56.714859
164.342200,56.695034
164.568803,56.714859
164.568804,56.714859
164.788524,56.773732
164.994686,56.869867
164.994690,56.869870
165.067673,56.920972
165.067673,56.920973
164.388646,57.600000
164.394861,57.600000
164.496594,57.627259
164.587806,57.679920
164.662280,57.754394
164.714941,57.845606
164.742200,57.947339
164.742200,57.953554
165.421227,57.274527
165.421228,57.274527
165.472330,57.347510
165.472333,57.347514
165.568468,57.553676
165.627341,57.773396
165.627341,57.773397
165.647166,58.000000
165.627341,58.226602
165.627341,58.226603
165.568468,58.446323
165.472333,58.652486
165.472331,58.652488
165.421228,58.725471
165.421226,58.725471
164.742200,58.046445
164.742200,58.052661
164.714941,58.154394
164.662280,58.245606
164.587806,58.320080
164.496594,58.372741
164.394861,58.400000
164.388648,58.400000
165.067673,59.079023
165.067673,59.079025
164.994685,59.130132
164.788524,59.226267
164.568804,59.285140
164.342200,59.304965
164.115598,59.285140
164.115597,59.285140
163.895872,59.226265
163.895871,59.226265
163.722858,59.145588
163.628488,59.122495
163.532463,59.137274
163.449404,59.187676
163.391956,59.266026
163.368863,59.360396
163.383642,59.456421
163.434044,59.539480
163.441556,59.547328
164.504765,60.610535
164.504768,60.610539
164.508140,60.613912
164.508147,60.613918
164.586704,60.692477
164.596853,60.702072
164.790218,60.874876
164.812049,60.892285
165.017854,61.038314
165.041497,61.053170
165.262332,61.175224
165.287490,61.187340
165.520610,61.283904
165.546965,61.293127
165.789439,61.362986
165.816663,61.369200
166.065434,61.411470
166.093180,61.414596
166.351522,61.429108
166.365487,61.429500
175.208530,61.429500
175.303818,61.410546
175.384600,61.356570
175.438576,61.275788
175.457530,61.180500
175.438576,61.085212
175.384602,61.004433
175.308804,60.928631
175.229605,60.849432
175.197229,60.817056
174.201969,59.821795
174.121190,59.767822
174.099312,59.759935
173.842559,59.680738
173.599425,59.563651
173.471489,59.476425
173.382081,59.438407
173.370181,59.436224
173.135114,59.398992
172.966767,59.358573
172.714849,59.298091
172.714840,59.298088
172.714826,59.298085
172.303752,59.164514
171.904424,58.999103
171.519305,58.802870
171.150769,58.577027
170.801089,58.322964
170.472420,58.042250
170.319605,57.889432
170.279967,57.849794
169.126307,56.696132
169.045525,56.642156
169.023639,56.634267
168.860877,56.584063
168.624496,56.470228
168.407721,56.322433
168.215395,56.143981
168.051814,55.938857
167.920632,55.711643
167.824780,55.467416
167.766398,55.211630
167.746792,54.950000
167.766398,54.688370
167.813727,54.481008
167.824779,54.432587
167.845627,54.379468
167.920632,54.188357
167.980699,54.084317
168.051813,53.961144
168.215395,53.756019
168.215406,53.756008
168.407716,53.577571
168.407719,53.577569
168.407721,53.577567
168.513818,53.505231
168.581868,53.435895
168.618207,53.345792
168.617299,53.248641
168.579282,53.159233
168.509943,53.091180
168.419840,53.054841
168.373548,53.050500
152.305852,53.050500
Z" /> 
<path style="fill:#FFFFFF; fill-opacity:1.000000; stroke:none;fill-rule:evenodd;"
d="M 170.535564,53.069454
170.454782,53.123430
170.400806,53.204212
170.381852,53.299500
170.400806,53.394788
170.454782,53.475570
170.490580,53.505229
170.578313,53.565045
170.596685,53.577571
170.788995,53.756008
170.789006,53.756019
170.952588,53.961144
171.083764,54.188348
171.083770,54.188360
171.127222,54.299075
171.179620,54.432584
171.185191,54.456991
171.224876,54.545672
171.251877,54.577648
172.354768,55.680538
172.354767,55.680539
172.358140,55.683912
172.358147,55.683918
172.385863,55.711635
172.436704,55.762477
172.446853,55.772072
172.640218,55.944876
172.662049,55.962285
172.867854,56.108314
172.891497,56.123170
173.112332,56.245224
173.137490,56.257340
173.370610,56.353904
173.396966,56.363127
173.527439,56.400717
173.624250,56.408884
173.704410,56.385790
173.842551,56.319265
173.842556,56.319263
173.842559,56.319262
174.100428,56.239720
174.367271,56.199500
174.637129,56.199500
174.837262,56.229665
174.903973,56.239720
175.161847,56.319264
175.404973,56.436348
175.627943,56.588366
175.825763,56.771916
175.994011,56.982892
175.994012,56.982892
176.128943,57.216601
176.128944,57.216604
176.227533,57.467801
176.227534,57.467805
176.251646,57.573444
176.291329,57.662125
176.318333,57.694103
177.264768,58.640538
177.264767,58.640539
177.268140,58.643912
177.268147,58.643918
177.346704,58.722477
177.356853,58.732072
177.550218,58.904876
177.572049,58.922285
177.777854,59.068314
177.801497,59.083170
178.022332,59.205224
178.047490,59.217340
178.280610,59.313904
178.306965,59.323127
178.549439,59.392986
178.576663,59.399200
178.825434,59.441470
178.853180,59.444596
179.111522,59.459108
179.125487,59.459500
181.708278,59.459500
181.803566,59.440546
181.884348,59.386570
181.938324,59.305788
181.957278,59.210500
181.956331,59.188801
181.946729,59.079025
182.625754,58.400000
182.619539,58.400000
182.517806,58.372741
182.426594,58.320080
182.352120,58.245606
182.299459,58.154394
182.272200,58.052661
182.272200,58.046446
181.593175,58.725471
181.542067,58.652483
181.542063,58.652476
181.445934,58.446326
181.387060,58.226603
181.387060,58.226602
181.367235,58.000000
181.387060,57.773397
181.387060,57.773396
181.445933,57.553676
181.542068,57.347515
181.593175,57.274527
181.593177,57.274527
182.272200,57.953551
182.272200,57.947339
182.299459,57.845606
182.352120,57.754394
182.426594,57.679920
182.517806,57.627259
182.619539,57.600000
182.625754,57.600000
181.946729,56.920974
181.946729,56.920972
182.019712,56.869869
182.019714,56.869867
182.225877,56.773732
182.445597,56.714859
182.672200,56.695034
182.898803,56.714859
182.898804,56.714859
183.118524,56.773732
183.324686,56.869867
183.324690,56.869870
183.397673,56.920972
183.397673,56.920973
182.718646,57.600000
182.724861,57.600000
182.826594,57.627259
182.917806,57.679920
182.992280,57.754394
183.044941,57.845606
183.072200,57.947339
183.072200,57.953554
183.751227,57.274527
183.751228,57.274527
183.802330,57.347510
183.802333,57.347514
183.898468,57.553676
183.957341,57.773396
183.957341,57.773397
183.977166,58.000000
183.957341,58.226602
183.957341,58.226603
183.898468,58.446323
183.802333,58.652486
183.802331,58.652488
183.751228,58.725471
183.751226,58.725471
183.072200,58.046445
183.072200,58.052661
183.044941,58.154394
182.992280,58.245606
182.917806,58.320080
182.826594,58.372741
182.724861,58.400000
182.718648,58.400000
183.397673,59.079023
183.388069,59.188799
183.398647,59.285376
183.445377,59.370555
183.521147,59.431366
183.614421,59.458553
183.636122,59.459500
191.176132,59.459500
191.271420,59.440546
191.352202,59.386570
191.406178,59.305788
191.425132,59.210500
191.406178,59.115212
191.370807,59.055250
191.354204,59.034430
191.340385,59.017102
191.205457,58.783398
191.106866,58.532195
191.082755,58.426552
191.043076,58.337876
191.016074,58.305900
190.163602,57.453430
190.082821,57.399454
189.987533,57.380500
188.639112,57.380500
188.639108,57.380500
188.405832,57.343553
188.181208,57.270568
187.970766,57.163343
187.779690,57.024517
187.451306,56.696131
187.370528,56.642157
187.348631,56.634265
187.185877,56.584063
186.949496,56.470228
186.732721,56.322433
186.540395,56.143981
186.376814,55.938857
186.245632,55.711643
186.149780,55.467416
186.091398,55.211630
186.071792,54.950000
186.091398,54.688370
186.138727,54.481008
186.149779,54.432587
186.170627,54.379468
186.245632,54.188357
186.305699,54.084317
186.376813,53.961144
186.540395,53.756019
186.540406,53.756008
186.732716,53.577571
186.732719,53.577569
186.732721,53.577567
186.838818,53.505231
186.906868,53.435895
186.943207,53.345792
186.942299,53.248641
186.904282,53.159233
186.834943,53.091180
186.744840,53.054841
186.698548,53.050500
170.630852,53.050500
Z" /> 
</g>
<g style="fill:#000000; fill-opacity:1.000000; stroke:none;">
<circle cx="127.592200" cy="58.000000" r="0.175000" /> 
</g>
<g style="fill:#000000; fill-opacity:1.000000; stroke:none;">
<circle cx="137.752200" cy="58.000000" r="0.175000" /> 
</g>
<g style="fill:#000000; fill-opacity:1.000000; stroke:none;">
<circle cx="187.827200" cy="54.950000" r="0.175000" /> 
</g>
<g style="fill:#000000; fill-opacity:1.000000; stroke:none;">
<circle cx="187.827200" cy="51.550000" r="0.175000" /> 
</g>
<g style="fill:#000000; fill-opacity:1.000000; stroke:none;">
<circle cx="182.672200" cy="58.000000" r="0.175000" /> 
</g>
<g style="fill:#000000; fill-opacity:1.000000; stroke:none;">
<circle cx="192.832200" cy="58.000000" r="0.175000" /> 
</g>
<g style="fill:#000000; fill-opacity:1.000000; stroke:none;">
<circle cx="132.852200" cy="54.950000" r="0.175000" /> 
</g>
<g style="fill:#000000; fill-opacity:1.000000; stroke:none;">
<circle cx="132.852200" cy="51.550000" r="0.175000" /> 
</g>
<g style="fill:#000000; fill-opacity:1.000000; stroke:none;">
<circle cx="164.342200" cy="58.000000" r="0.175000" /> 
</g>
<g style="fill:#000000; fill-opacity:1.000000; stroke:none;">
<circle cx="174.502200" cy="58.000000" r="0.175000" /> 
</g>
<g style="fill:#000000; fill-opacity:1.000000; stroke:none;">
<circle cx="146.092200" cy="58.000000" r="0.175000" /> 
</g>
<g style="fill:#000000; fill-opacity:1.000000; stroke:none;">
<circle cx="156.252200" cy="58.000000" r="0.175000" /> 
</g>
<g style="fill:#000000; fill-opacity:1.000000; stroke:none;">
<circle cx="169.502200" cy="54.950000" r="0.175000" /> 
</g>
<g style="fill:#000000; fill-opacity:1.000000; stroke:none;">
<circle cx="169.502200" cy="51.550000" r="0.175000" /> 
</g>
<g style="fill:#000000; fill-opacity:1.000000; stroke:none;">
<circle cx="151.177200" cy="54.950000" r="0.175000" /> 
</g>
<g style="fill:#000000; fill-opacity:1.000000; stroke:none;">
<circle cx="151.177200" cy="51.550000" r="0.175000" /> 
</g>
<g style="fill:#000000; fill-opacity:1.000000; stroke:none;">
<circle cx="218.012200" cy="58.750000" r="0.175000" /> 
</g>
<g style="fill:#000000; fill-opacity:1.000000; stroke:none;">
<circle cx="215.472200" cy="58.750000" r="0.175000" /> 
</g>
<g style="fill:#000000; fill-opacity:1.000000; stroke:none;">
<circle cx="212.932200" cy="58.750000" r="0.175000" /> 
</g>
<g style="fill:#000000; fill-opacity:1.000000; stroke:none;">
<circle cx="210.392200" cy="58.750000" r="0.175000" /> 
</g>
<g style="fill:#000000; fill-opacity:1.000000; stroke:none;">
<circle cx="210.182200" cy="52.225000" r="0.175000" /> 
</g>
<g style="fill:#000000; fill-opacity:1.000000; stroke:none;">
<circle cx="210.182200" cy="54.765000" r="0.175000" /> 
<path style="fill:none; 
stroke:#FFFFFF; stroke-width:0.500000; stroke-opacity:1; 
stroke-linecap:round; stroke-linejoin:round;fill:none"
d="M 222.002200,50.000000
112.002200,50.000000
112.002200,67.000000
222.002200,67.000000
Z" /> 
</g>
<g style="fill:#FFFFFF; fill-opacity:1.000000; stroke:none;">
<circle cx="219.002200" cy="53.000000" r="1.550000" /> 
<circle cx="115.002200" cy="53.000000" r="1.550000" /> 
</g> 
</svg>
