<?xml version="1.0" standalone="no"?>
 <!DOCTYPE svg PUBLIC "-//W3C//DTD SVG 1.1//EN" 
 "http://www.w3.org/Graphics/SVG/1.1/DTD/svg11.dtd"> 
<svg
  xmlns:svg="http://www.w3.org/2000/svg"
  xmlns="http://www.w3.org/2000/svg"
  xmlns:xlink="http://www.w3.org/1999/xlink"
  version="1.1"
  width="297.002200mm" height="210.007200mm" viewBox="0.000000 0.000000 297.002200 210.007200">
<title>SVG Image created as Photoresistor-array-F_Cu.svg date 2024/04/14 23:40:04 </title>
  <desc>Image generated by PCBNEW </desc>
<g style="fill:#000000; fill-opacity:1.000000;stroke:#000000; stroke-opacity:1.000000;
stroke-linecap:round; stroke-linejoin:round;"
 transform="translate(0 0) scale(1 1)">
</g>
<g style="fill:#000000; fill-opacity:1.000000; 
stroke:#000000; stroke-width:0.021200; stroke-opacity:1; 
stroke-linecap:round; stroke-linejoin:round;">
<rect x="106.752200" y="44.750000" width="120.500000" height="27.500000" rx="0.000000" />
</g>
<g style="fill:none; 
stroke:#FFFFFF; stroke-width:0.500000; stroke-opacity:1; 
stroke-linecap:round; stroke-linejoin:round;">
<text x="121.752200" y="57.060224"
transform="scale(-1 1) translate(-243.504400 0)"
textLength="5.100000" font-size="2.666666" lengthAdjust="spacingAndGlyphs"
text-anchor="start" opacity="0">PP</text>
<g class="stroked-text"><desc>PP</desc>
<path d="M120.947063 56.789462
L120.947063 54.789462
" />
<path d="M120.947063 54.789462
L120.185158 54.789462
" />
<path d="M120.185158 54.789462
L119.994682 54.884700
" />
<path d="M119.994682 54.884700
L119.899444 54.979938
" />
<path d="M119.899444 54.979938
L119.804206 55.170414
" />
<path d="M119.804206 55.170414
L119.804206 55.456128
" />
<path d="M119.804206 55.456128
L119.899444 55.646604
" />
<path d="M119.899444 55.646604
L119.994682 55.741843
" />
<path d="M119.994682 55.741843
L120.185158 55.837081
" />
<path d="M120.185158 55.837081
L120.947063 55.837081
" />
<path d="M118.947063 56.789462
L118.947063 54.789462
" />
<path d="M118.947063 54.789462
L118.185158 54.789462
" />
<path d="M118.185158 54.789462
L117.994682 54.884700
" />
<path d="M117.994682 54.884700
L117.899444 54.979938
" />
<path d="M117.899444 54.979938
L117.804206 55.170414
" />
<path d="M117.804206 55.170414
L117.804206 55.456128
" />
<path d="M117.804206 55.456128
L117.899444 55.646604
" />
<path d="M117.899444 55.646604
L117.994682 55.741843
" />
<path d="M117.994682 55.741843
L118.185158 55.837081
" />
<path d="M118.185158 55.837081
L118.947063 55.837081
" />
</g><text x="121.752200" y="60.280112"
transform="scale(-1 1) translate(-243.504400 0)"
textLength="6.814286" font-size="2.666666" lengthAdjust="spacingAndGlyphs"
text-anchor="start" opacity="0">WIIT</text>
<g class="stroked-text"><desc>WIIT</desc>
<path d="M121.137539 58.009350
L120.661349 60.009350
" />
<path d="M120.661349 60.009350
L120.280396 58.580778
" />
<path d="M120.280396 58.580778
L119.899444 60.009350
" />
<path d="M119.899444 60.009350
L119.423253 58.009350
" />
<path d="M118.661349 60.009350
L118.661349 58.009350
" />
<path d="M117.708968 60.009350
L117.708968 58.009350
" />
<path d="M117.042301 58.009350
L115.899444 58.009350
" />
<path d="M116.470873 60.009350
L116.470873 58.009350
" />
</g><text x="121.752200" y="63.500000"
transform="scale(-1 1) translate(-243.504400 0)"
textLength="8.719048" font-size="2.666666" lengthAdjust="spacingAndGlyphs"
text-anchor="start" opacity="0">2024</text>
<g class="stroked-text"><desc>2024</desc>
<path d="M121.042301 61.419714
L120.947063 61.324476
" />
<path d="M120.947063 61.324476
L120.756587 61.229238
" />
<path d="M120.756587 61.229238
L120.280396 61.229238
" />
<path d="M120.280396 61.229238
L120.089920 61.324476
" />
<path d="M120.089920 61.324476
L119.994682 61.419714
" />
<path d="M119.994682 61.419714
L119.899444 61.610190
" />
<path d="M119.899444 61.610190
L119.899444 61.800666
" />
<path d="M119.899444 61.800666
L119.994682 62.086380
" />
<path d="M119.994682 62.086380
L121.137539 63.229238
" />
<path d="M121.137539 63.229238
L119.899444 63.229238
" />
<path d="M118.661349 61.229238
L118.470872 61.229238
" />
<path d="M118.470872 61.229238
L118.280396 61.324476
" />
<path d="M118.280396 61.324476
L118.185158 61.419714
" />
<path d="M118.185158 61.419714
L118.089920 61.610190
" />
<path d="M118.089920 61.610190
L117.994682 61.991142
" />
<path d="M117.994682 61.991142
L117.994682 62.467333
" />
<path d="M117.994682 62.467333
L118.089920 62.848285
" />
<path d="M118.089920 62.848285
L118.185158 63.038761
" />
<path d="M118.185158 63.038761
L118.280396 63.134000
" />
<path d="M118.280396 63.134000
L118.470872 63.229238
" />
<path d="M118.470872 63.229238
L118.661349 63.229238
" />
<path d="M118.661349 63.229238
L118.851825 63.134000
" />
<path d="M118.851825 63.134000
L118.947063 63.038761
" />
<path d="M118.947063 63.038761
L119.042301 62.848285
" />
<path d="M119.042301 62.848285
L119.137539 62.467333
" />
<path d="M119.137539 62.467333
L119.137539 61.991142
" />
<path d="M119.137539 61.991142
L119.042301 61.610190
" />
<path d="M119.042301 61.610190
L118.947063 61.419714
" />
<path d="M118.947063 61.419714
L118.851825 61.324476
" />
<path d="M118.851825 61.324476
L118.661349 61.229238
" />
<path d="M117.232777 61.419714
L117.137539 61.324476
" />
<path d="M117.137539 61.324476
L116.947063 61.229238
" />
<path d="M116.947063 61.229238
L116.470872 61.229238
" />
<path d="M116.470872 61.229238
L116.280396 61.324476
" />
<path d="M116.280396 61.324476
L116.185158 61.419714
" />
<path d="M116.185158 61.419714
L116.089920 61.610190
" />
<path d="M116.089920 61.610190
L116.089920 61.800666
" />
<path d="M116.089920 61.800666
L116.185158 62.086380
" />
<path d="M116.185158 62.086380
L117.328015 63.229238
" />
<path d="M117.328015 63.229238
L116.089920 63.229238
" />
<path d="M114.375634 61.895904
L114.375634 63.229238
" />
<path d="M114.851825 61.134000
L115.328015 62.562571
" />
<path d="M115.328015 62.562571
L114.089920 62.562571
" />
</g></g>
<g style="fill:#FFFFFF; fill-opacity:1.000000; stroke:none;">
<circle cx="127.592200" cy="58.000000" r="0.800000" /> 
</g>
<g style="fill:#FFFFFF; fill-opacity:1.000000; stroke:none;">
<circle cx="137.752200" cy="58.000000" r="0.800000" /> 
<circle cx="187.827200" cy="54.950000" r="0.750000" /> 
</g>
<g style="fill:#FFFFFF; fill-opacity:1.000000; stroke:none;">
<circle cx="187.827200" cy="51.550000" r="0.750000" /> 
</g>
<g style="fill:#FFFFFF; fill-opacity:1.000000; stroke:none;">
<circle cx="182.672200" cy="58.000000" r="0.800000" /> 
</g>
<g style="fill:#FFFFFF; fill-opacity:1.000000; stroke:none;">
<circle cx="192.832200" cy="58.000000" r="0.800000" /> 
<circle cx="132.852200" cy="54.950000" r="0.750000" /> 
</g>
<g style="fill:#FFFFFF; fill-opacity:1.000000; stroke:none;">
<circle cx="132.852200" cy="51.550000" r="0.750000" /> 
</g>
<g style="fill:#FFFFFF; fill-opacity:1.000000; stroke:none;">
<circle cx="164.342200" cy="58.000000" r="0.800000" /> 
</g>
<g style="fill:#FFFFFF; fill-opacity:1.000000; stroke:none;">
<circle cx="174.502200" cy="58.000000" r="0.800000" /> 
<circle cx="146.092200" cy="58.000000" r="0.800000" /> 
</g>
<g style="fill:#FFFFFF; fill-opacity:1.000000; stroke:none;">
<circle cx="156.252200" cy="58.000000" r="0.800000" /> 
<circle cx="169.502200" cy="54.950000" r="0.750000" /> 
</g>
<g style="fill:#FFFFFF; fill-opacity:1.000000; stroke:none;">
<circle cx="169.502200" cy="51.550000" r="0.750000" /> 
</g>
<g style="fill:#FFFFFF; fill-opacity:1.000000; stroke:none;">
<circle cx="151.177200" cy="54.950000" r="0.750000" /> 
</g>
<g style="fill:#FFFFFF; fill-opacity:1.000000; stroke:none;">
<circle cx="151.177200" cy="51.550000" r="0.750000" /> 
</g>
<g style="fill:#FFFFFF; fill-opacity:1.000000; stroke:none;">
<circle cx="218.012200" cy="58.750000" r="0.850000" /> 
<circle cx="215.472200" cy="58.750000" r="0.850000" /> 
<circle cx="212.932200" cy="58.750000" r="0.850000" /> 
<path style="fill:#FFFFFF; fill-opacity:1.000000; stroke:none;fill-rule:evenodd;"
d="M 209.542200,59.600000
211.242200,59.600000
211.242200,57.900000
209.542200,57.900000
Z" /> 
<path style="fill:#FFFFFF; fill-opacity:1.000000; stroke:none;fill-rule:evenodd;"
d="M 209.332200,51.375000
209.332200,53.075000
211.032200,53.075000
211.032200,51.375000
Z" /> 
<circle cx="210.182200" cy="54.765000" r="0.850000" /> 
</g>
<g style="fill:none; 
stroke:#FFFFFF; stroke-width:1.000000; stroke-opacity:1; 
stroke-linecap:round; stroke-linejoin:round;">
<path d="M205.845093 51.842893 A0.999990 0.999990 0.0 0 0 205.137986 51.550010" />
<path d="M205.934307 51.932107 A0.999990 0.999990 0.0 0 0 206.641414 52.224990" />
<path d="M210.182200 52.225000
L206.641414 52.225000
" />
<path d="M205.934307 51.932107
L205.845093 51.842893
" />
<path d="M205.137986 51.550000
L187.827200 51.550000
" />
<path d="M202.581413 54.179213 A1.999981 1.999981 0.0 0 0 203.995627 54.764981" />
<path d="M202.328000 53.925772 A2.000000 2.000000 0.0 0 0 200.913773 53.340000" />
<path d="M202.180650 57.578404 A4.000000 4.000000 0.0 0 0 205.009054 58.750000" />
<path d="M210.182200 54.765000
L203.995627 54.765000
" />
<path d="M202.581413 54.179213
L202.327986 53.925786
" />
<path d="M178.012200 53.340000
L200.913773 53.340000
" />
<path d="M201.653773 57.051573 A4.000032 4.000032 0.0 0 0 198.825346 55.879968" />
<path d="M210.392200 58.750000
L205.009054 58.750000
" />
<path d="M202.180627 57.578427
L201.653773 57.051573
" />
<path d="M198.825346 55.880000
L190.322200 55.880000
" />
<path d="M160.943750 59.171596 A4.000000 4.000000 0.0 0 0 158.115346 58.000000" />
<path d="M163.530650 61.758404 A4.000000 4.000000 0.0 0 0 166.359054 62.930000" />
<path d="M211.145346 62.930000
L166.359054 62.930000
" />
<path d="M156.252200 58.000000
L158.115346 58.000000
" />
<path d="M160.943773 59.171573
L163.530627 61.758427
" />
<path d="M211.145346 62.930032 A4.000032 4.000032 0.0 0 0 213.973773 61.758427" />
<path d="M153.055627 56.828427 A4.000032 4.000032 0.0 0 0 155.884054 58.000032" />
<path d="M212.245346 64.900000 A4.000000 4.000000 0.0 0 0 215.073750 63.728404" />
<path d="M134.730627 56.828427 A4.000032 4.000032 0.0 0 0 137.559054 58.000032" />
<path d="M216.840604 61.961550 A4.000000 4.000000 0.0 0 0 218.012200 59.133146" />
<path d="M176.290650 59.788404 A4.000000 4.000000 0.0 0 0 179.119054 60.960000" />
<path d="M171.380627 56.828427 A4.000032 4.000032 0.0 0 0 174.209054 58.000032" />
<path d="M131.019054 53.340000 A4.000000 4.000000 0.0 0 0 128.190650 54.511596" />
<path d="M143.480627 63.728427 A4.000032 4.000032 0.0 0 0 146.309054 64.900032" />
<path d="M215.472200 58.750000
L215.472200 60.260000
" />
<path d="M215.472200 60.260000
L213.973773 61.758427
" />
<path d="M137.752200 58.000000
L137.559054 58.000000
" />
<path d="M134.730627 56.828427
L132.852200 54.950000
" />
<path d="M218.012200 58.750000
L218.012200 59.133146
" />
<path d="M216.840627 61.961573
L215.073773 63.728427
" />
<path d="M212.245346 64.900000
L146.309054 64.900000
" />
<path d="M143.480627 63.728427
L137.752200 58.000000
" />
<path d="M156.252200 58.000000
L155.884054 58.000000
" />
<path d="M153.055627 56.828427
L151.177200 54.950000
" />
<path d="M174.502200 58.000000
L174.209054 58.000000
" />
<path d="M171.380627 56.828427
L169.502200 54.950000
" />
<path d="M212.932200 58.750000
L212.932200 59.952081
" />
<path d="M212.932200 59.952081
L211.924281 60.960000
" />
<path d="M211.924281 60.960000
L179.119054 60.960000
" />
<path d="M176.290627 59.788427
L174.502200 58.000000
" />
<path d="M190.322200 55.880000
L188.757200 55.880000
" />
<path d="M190.322200 55.880000
L190.712200 55.880000
" />
<path d="M190.712200 55.880000
L192.832200 58.000000
" />
<path d="M188.757200 55.880000
L187.827200 54.950000
" />
<path d="M177.622200 53.340000
L158.572200 53.340000
" />
<path d="M177.622200 53.340000
L178.012200 53.340000
" />
<path d="M178.012200 53.340000
L182.672200 58.000000
" />
<path d="M158.572200 53.340000
L145.872200 53.340000
" />
<path d="M158.572200 53.340000
L159.682200 53.340000
" />
<path d="M159.682200 53.340000
L164.342200 58.000000
" />
<path d="M140.792200 53.340000
L131.019054 53.340000
" />
<path d="M145.872200 53.340000
L140.792200 53.340000
" />
<path d="M140.792200 53.340000
L141.432200 53.340000
" />
<path d="M141.432200 53.340000
L146.092200 58.000000
" />
<path d="M127.592200 55.110000
L127.592200 58.000000
" />
<path d="M128.190627 54.511573
L127.592200 55.110000
" />
<path d="M187.827200 51.550000
L132.852200 51.550000
" />
</g>
<g style="fill:#000000; fill-opacity:1.000000; stroke:none;">
<circle cx="127.592200" cy="58.000000" r="0.175000" /> 
</g>
<g style="fill:#000000; fill-opacity:1.000000; stroke:none;">
<circle cx="137.752200" cy="58.000000" r="0.175000" /> 
</g>
<g style="fill:#000000; fill-opacity:1.000000; stroke:none;">
<circle cx="187.827200" cy="54.950000" r="0.175000" /> 
</g>
<g style="fill:#000000; fill-opacity:1.000000; stroke:none;">
<circle cx="187.827200" cy="51.550000" r="0.175000" /> 
</g>
<g style="fill:#000000; fill-opacity:1.000000; stroke:none;">
<circle cx="182.672200" cy="58.000000" r="0.175000" /> 
</g>
<g style="fill:#000000; fill-opacity:1.000000; stroke:none;">
<circle cx="192.832200" cy="58.000000" r="0.175000" /> 
</g>
<g style="fill:#000000; fill-opacity:1.000000; stroke:none;">
<circle cx="132.852200" cy="54.950000" r="0.175000" /> 
</g>
<g style="fill:#000000; fill-opacity:1.000000; stroke:none;">
<circle cx="132.852200" cy="51.550000" r="0.175000" /> 
</g>
<g style="fill:#000000; fill-opacity:1.000000; stroke:none;">
<circle cx="164.342200" cy="58.000000" r="0.175000" /> 
</g>
<g style="fill:#000000; fill-opacity:1.000000; stroke:none;">
<circle cx="174.502200" cy="58.000000" r="0.175000" /> 
</g>
<g style="fill:#000000; fill-opacity:1.000000; stroke:none;">
<circle cx="146.092200" cy="58.000000" r="0.175000" /> 
</g>
<g style="fill:#000000; fill-opacity:1.000000; stroke:none;">
<circle cx="156.252200" cy="58.000000" r="0.175000" /> 
</g>
<g style="fill:#000000; fill-opacity:1.000000; stroke:none;">
<circle cx="169.502200" cy="54.950000" r="0.175000" /> 
</g>
<g style="fill:#000000; fill-opacity:1.000000; stroke:none;">
<circle cx="169.502200" cy="51.550000" r="0.175000" /> 
</g>
<g style="fill:#000000; fill-opacity:1.000000; stroke:none;">
<circle cx="151.177200" cy="54.950000" r="0.175000" /> 
</g>
<g style="fill:#000000; fill-opacity:1.000000; stroke:none;">
<circle cx="151.177200" cy="51.550000" r="0.175000" /> 
</g>
<g style="fill:#000000; fill-opacity:1.000000; stroke:none;">
<circle cx="218.012200" cy="58.750000" r="0.175000" /> 
</g>
<g style="fill:#000000; fill-opacity:1.000000; stroke:none;">
<circle cx="215.472200" cy="58.750000" r="0.175000" /> 
</g>
<g style="fill:#000000; fill-opacity:1.000000; stroke:none;">
<circle cx="212.932200" cy="58.750000" r="0.175000" /> 
</g>
<g style="fill:#000000; fill-opacity:1.000000; stroke:none;">
<circle cx="210.392200" cy="58.750000" r="0.175000" /> 
</g>
<g style="fill:#000000; fill-opacity:1.000000; stroke:none;">
<circle cx="210.182200" cy="52.225000" r="0.175000" /> 
</g>
<g style="fill:#000000; fill-opacity:1.000000; stroke:none;">
<circle cx="210.182200" cy="54.765000" r="0.175000" /> 
<path style="fill:none; 
stroke:#FFFFFF; stroke-width:0.500000; stroke-opacity:1; 
stroke-linecap:round; stroke-linejoin:round;fill:none"
d="M 222.002200,50.000000
112.002200,50.000000
112.002200,67.000000
222.002200,67.000000
Z" /> 
</g>
<g style="fill:#FFFFFF; fill-opacity:1.000000; stroke:none;">
<circle cx="219.002200" cy="53.000000" r="1.550000" /> 
<circle cx="115.002200" cy="53.000000" r="1.550000" /> 
</g> 
</svg>
