<?xml version="1.0" standalone="no"?>
 <!DOCTYPE svg PUBLIC "-//W3C//DTD SVG 1.1//EN" 
 "http://www.w3.org/Graphics/SVG/1.1/DTD/svg11.dtd"> 
<svg
  xmlns:svg="http://www.w3.org/2000/svg"
  xmlns="http://www.w3.org/2000/svg"
  xmlns:xlink="http://www.w3.org/1999/xlink"
  version="1.1"
  width="297.002200mm" height="210.007200mm" viewBox="0.000000 0.000000 297.002200 210.007200">
<title>SVG Image created as RobotASK-B_Cu.svg date 2024/04/14 23:10:13 </title>
  <desc>Image generated by PCBNEW </desc>
<g style="fill:#000000; fill-opacity:1.000000;stroke:#000000; stroke-opacity:1.000000;
stroke-linecap:round; stroke-linejoin:round;"
 transform="translate(0 0) scale(1 1)">
</g>
<g style="fill:#000000; fill-opacity:1.000000; 
stroke:#000000; stroke-width:0.021200; stroke-opacity:1; 
stroke-linecap:round; stroke-linejoin:round;">
<rect x="54.481732" y="0.611252" width="118.925821" height="162.017495" rx="0.000000" />
</g>
<g style="fill:none; 
stroke:#FFFFFF; stroke-width:0.500000; stroke-opacity:1; 
stroke-linecap:round; stroke-linejoin:round;">
<text x="119.200000" y="86.540336"
transform="scale(-1 1) translate(-238.400000 0)"
textLength="28.719051" font-size="2.666666" lengthAdjust="spacingAndGlyphs"
text-anchor="end" opacity="0">Tomasz Pawłowski</text>
<g class="stroked-text"><desc>Tomasz Pawłowski</desc>
<path d="M146.957521 84.269574
L145.814664 84.269574
" />
<path d="M146.386093 86.269574
L146.386093 84.269574
" />
<path d="M144.862283 86.269574
L145.052759 86.174336
" />
<path d="M145.052759 86.174336
L145.147997 86.079097
" />
<path d="M145.147997 86.079097
L145.243235 85.888621
" />
<path d="M145.243235 85.888621
L145.243235 85.317193
" />
<path d="M145.243235 85.317193
L145.147997 85.126716
" />
<path d="M145.147997 85.126716
L145.052759 85.031478
" />
<path d="M145.052759 85.031478
L144.862283 84.936240
" />
<path d="M144.862283 84.936240
L144.576568 84.936240
" />
<path d="M144.576568 84.936240
L144.386092 85.031478
" />
<path d="M144.386092 85.031478
L144.290854 85.126716
" />
<path d="M144.290854 85.126716
L144.195616 85.317193
" />
<path d="M144.195616 85.317193
L144.195616 85.888621
" />
<path d="M144.195616 85.888621
L144.290854 86.079097
" />
<path d="M144.290854 86.079097
L144.386092 86.174336
" />
<path d="M144.386092 86.174336
L144.576568 86.269574
" />
<path d="M144.576568 86.269574
L144.862283 86.269574
" />
<path d="M143.338473 86.269574
L143.338473 84.936240
" />
<path d="M143.338473 85.126716
L143.243235 85.031478
" />
<path d="M143.243235 85.031478
L143.052759 84.936240
" />
<path d="M143.052759 84.936240
L142.767044 84.936240
" />
<path d="M142.767044 84.936240
L142.576568 85.031478
" />
<path d="M142.576568 85.031478
L142.481330 85.221955
" />
<path d="M142.481330 85.221955
L142.481330 86.269574
" />
<path d="M142.481330 85.221955
L142.386092 85.031478
" />
<path d="M142.386092 85.031478
L142.195616 84.936240
" />
<path d="M142.195616 84.936240
L141.909902 84.936240
" />
<path d="M141.909902 84.936240
L141.719425 85.031478
" />
<path d="M141.719425 85.031478
L141.624187 85.221955
" />
<path d="M141.624187 85.221955
L141.624187 86.269574
" />
<path d="M139.814663 86.269574
L139.814663 85.221955
" />
<path d="M139.814663 85.221955
L139.909901 85.031478
" />
<path d="M139.909901 85.031478
L140.100377 84.936240
" />
<path d="M140.100377 84.936240
L140.481330 84.936240
" />
<path d="M140.481330 84.936240
L140.671806 85.031478
" />
<path d="M139.814663 86.174336
L140.005139 86.269574
" />
<path d="M140.005139 86.269574
L140.481330 86.269574
" />
<path d="M140.481330 86.269574
L140.671806 86.174336
" />
<path d="M140.671806 86.174336
L140.767044 85.983859
" />
<path d="M140.767044 85.983859
L140.767044 85.793383
" />
<path d="M140.767044 85.793383
L140.671806 85.602907
" />
<path d="M140.671806 85.602907
L140.481330 85.507669
" />
<path d="M140.481330 85.507669
L140.005139 85.507669
" />
<path d="M140.005139 85.507669
L139.814663 85.412431
" />
<path d="M138.957520 86.174336
L138.767044 86.269574
" />
<path d="M138.767044 86.269574
L138.386092 86.269574
" />
<path d="M138.386092 86.269574
L138.195615 86.174336
" />
<path d="M138.195615 86.174336
L138.100377 85.983859
" />
<path d="M138.100377 85.983859
L138.100377 85.888621
" />
<path d="M138.100377 85.888621
L138.195615 85.698145
" />
<path d="M138.195615 85.698145
L138.386092 85.602907
" />
<path d="M138.386092 85.602907
L138.671806 85.602907
" />
<path d="M138.671806 85.602907
L138.862282 85.507669
" />
<path d="M138.862282 85.507669
L138.957520 85.317193
" />
<path d="M138.957520 85.317193
L138.957520 85.221955
" />
<path d="M138.957520 85.221955
L138.862282 85.031478
" />
<path d="M138.862282 85.031478
L138.671806 84.936240
" />
<path d="M138.671806 84.936240
L138.386092 84.936240
" />
<path d="M138.386092 84.936240
L138.195615 85.031478
" />
<path d="M137.433710 84.936240
L136.386091 84.936240
" />
<path d="M136.386091 84.936240
L137.433710 86.269574
" />
<path d="M137.433710 86.269574
L136.386091 86.269574
" />
<path d="M134.100376 86.269574
L134.100376 84.269574
" />
<path d="M134.100376 84.269574
L133.338471 84.269574
" />
<path d="M133.338471 84.269574
L133.147995 84.364812
" />
<path d="M133.147995 84.364812
L133.052757 84.460050
" />
<path d="M133.052757 84.460050
L132.957519 84.650526
" />
<path d="M132.957519 84.650526
L132.957519 84.936240
" />
<path d="M132.957519 84.936240
L133.052757 85.126716
" />
<path d="M133.052757 85.126716
L133.147995 85.221955
" />
<path d="M133.147995 85.221955
L133.338471 85.317193
" />
<path d="M133.338471 85.317193
L134.100376 85.317193
" />
<path d="M131.243233 86.269574
L131.243233 85.221955
" />
<path d="M131.243233 85.221955
L131.338471 85.031478
" />
<path d="M131.338471 85.031478
L131.528947 84.936240
" />
<path d="M131.528947 84.936240
L131.909900 84.936240
" />
<path d="M131.909900 84.936240
L132.100376 85.031478
" />
<path d="M131.243233 86.174336
L131.433709 86.269574
" />
<path d="M131.433709 86.269574
L131.909900 86.269574
" />
<path d="M131.909900 86.269574
L132.100376 86.174336
" />
<path d="M132.100376 86.174336
L132.195614 85.983859
" />
<path d="M132.195614 85.983859
L132.195614 85.793383
" />
<path d="M132.195614 85.793383
L132.100376 85.602907
" />
<path d="M132.100376 85.602907
L131.909900 85.507669
" />
<path d="M131.909900 85.507669
L131.433709 85.507669
" />
<path d="M131.433709 85.507669
L131.243233 85.412431
" />
<path d="M130.481328 84.936240
L130.100376 86.269574
" />
<path d="M130.100376 86.269574
L129.719423 85.317193
" />
<path d="M129.719423 85.317193
L129.338471 86.269574
" />
<path d="M129.338471 86.269574
L128.957519 84.936240
" />
<path d="M127.909900 86.269574
L128.100376 86.174336
" />
<path d="M128.100376 86.174336
L128.195614 85.983859
" />
<path d="M128.195614 85.983859
L128.195614 84.269574
" />
<path d="M128.481328 85.317193
L127.909900 84.936240
" />
<path d="M126.862281 86.269574
L127.052757 86.174336
" />
<path d="M127.052757 86.174336
L127.147995 86.079097
" />
<path d="M127.147995 86.079097
L127.243233 85.888621
" />
<path d="M127.243233 85.888621
L127.243233 85.317193
" />
<path d="M127.243233 85.317193
L127.147995 85.126716
" />
<path d="M127.147995 85.126716
L127.052757 85.031478
" />
<path d="M127.052757 85.031478
L126.862281 84.936240
" />
<path d="M126.862281 84.936240
L126.576566 84.936240
" />
<path d="M126.576566 84.936240
L126.386090 85.031478
" />
<path d="M126.386090 85.031478
L126.290852 85.126716
" />
<path d="M126.290852 85.126716
L126.195614 85.317193
" />
<path d="M126.195614 85.317193
L126.195614 85.888621
" />
<path d="M126.195614 85.888621
L126.290852 86.079097
" />
<path d="M126.290852 86.079097
L126.386090 86.174336
" />
<path d="M126.386090 86.174336
L126.576566 86.269574
" />
<path d="M126.576566 86.269574
L126.862281 86.269574
" />
<path d="M125.528947 84.936240
L125.147995 86.269574
" />
<path d="M125.147995 86.269574
L124.767042 85.317193
" />
<path d="M124.767042 85.317193
L124.386090 86.269574
" />
<path d="M124.386090 86.269574
L124.005138 84.936240
" />
<path d="M123.338471 86.174336
L123.147995 86.269574
" />
<path d="M123.147995 86.269574
L122.767043 86.269574
" />
<path d="M122.767043 86.269574
L122.576566 86.174336
" />
<path d="M122.576566 86.174336
L122.481328 85.983859
" />
<path d="M122.481328 85.983859
L122.481328 85.888621
" />
<path d="M122.481328 85.888621
L122.576566 85.698145
" />
<path d="M122.576566 85.698145
L122.767043 85.602907
" />
<path d="M122.767043 85.602907
L123.052757 85.602907
" />
<path d="M123.052757 85.602907
L123.243233 85.507669
" />
<path d="M123.243233 85.507669
L123.338471 85.317193
" />
<path d="M123.338471 85.317193
L123.338471 85.221955
" />
<path d="M123.338471 85.221955
L123.243233 85.031478
" />
<path d="M123.243233 85.031478
L123.052757 84.936240
" />
<path d="M123.052757 84.936240
L122.767043 84.936240
" />
<path d="M122.767043 84.936240
L122.576566 85.031478
" />
<path d="M121.624185 86.269574
L121.624185 84.269574
" />
<path d="M121.433709 85.507669
L120.862280 86.269574
" />
<path d="M120.862280 84.936240
L121.624185 85.698145
" />
<path d="M120.005137 86.269574
L120.005137 84.936240
" />
<path d="M120.005137 84.269574
L120.100375 84.364812
" />
<path d="M120.100375 84.364812
L120.005137 84.460050
" />
<path d="M120.005137 84.460050
L119.909899 84.364812
" />
<path d="M119.909899 84.364812
L120.005137 84.269574
" />
<path d="M120.005137 84.269574
L120.005137 84.460050
" />
</g><text x="119.200000" y="89.760224"
transform="scale(-1 1) translate(-238.400000 0)"
textLength="27.766670" font-size="2.666666" lengthAdjust="spacingAndGlyphs"
text-anchor="end" opacity="0">Jakub Kamieniarz</text>
<g class="stroked-text"><desc>Jakub Kamieniarz</desc>
<path d="M145.147997 87.489462
L145.147997 88.918033
" />
<path d="M145.147997 88.918033
L145.243236 89.203747
" />
<path d="M145.243236 89.203747
L145.433712 89.394224
" />
<path d="M145.433712 89.394224
L145.719426 89.489462
" />
<path d="M145.719426 89.489462
L145.909902 89.489462
" />
<path d="M143.338473 89.489462
L143.338473 88.441843
" />
<path d="M143.338473 88.441843
L143.433711 88.251366
" />
<path d="M143.433711 88.251366
L143.624187 88.156128
" />
<path d="M143.624187 88.156128
L144.005140 88.156128
" />
<path d="M144.005140 88.156128
L144.195616 88.251366
" />
<path d="M143.338473 89.394224
L143.528949 89.489462
" />
<path d="M143.528949 89.489462
L144.005140 89.489462
" />
<path d="M144.005140 89.489462
L144.195616 89.394224
" />
<path d="M144.195616 89.394224
L144.290854 89.203747
" />
<path d="M144.290854 89.203747
L144.290854 89.013271
" />
<path d="M144.290854 89.013271
L144.195616 88.822795
" />
<path d="M144.195616 88.822795
L144.005140 88.727557
" />
<path d="M144.005140 88.727557
L143.528949 88.727557
" />
<path d="M143.528949 88.727557
L143.338473 88.632319
" />
<path d="M142.386092 89.489462
L142.386092 87.489462
" />
<path d="M142.195616 88.727557
L141.624187 89.489462
" />
<path d="M141.624187 88.156128
L142.386092 88.918033
" />
<path d="M139.909901 88.156128
L139.909901 89.489462
" />
<path d="M140.767044 88.156128
L140.767044 89.203747
" />
<path d="M140.767044 89.203747
L140.671806 89.394224
" />
<path d="M140.671806 89.394224
L140.481330 89.489462
" />
<path d="M140.481330 89.489462
L140.195615 89.489462
" />
<path d="M140.195615 89.489462
L140.005139 89.394224
" />
<path d="M140.005139 89.394224
L139.909901 89.298985
" />
<path d="M138.957520 89.489462
L138.957520 87.489462
" />
<path d="M138.957520 88.251366
L138.767044 88.156128
" />
<path d="M138.767044 88.156128
L138.386091 88.156128
" />
<path d="M138.386091 88.156128
L138.195615 88.251366
" />
<path d="M138.195615 88.251366
L138.100377 88.346604
" />
<path d="M138.100377 88.346604
L138.005139 88.537081
" />
<path d="M138.005139 88.537081
L138.005139 89.108509
" />
<path d="M138.005139 89.108509
L138.100377 89.298985
" />
<path d="M138.100377 89.298985
L138.195615 89.394224
" />
<path d="M138.195615 89.394224
L138.386091 89.489462
" />
<path d="M138.386091 89.489462
L138.767044 89.489462
" />
<path d="M138.767044 89.489462
L138.957520 89.394224
" />
<path d="M135.624186 89.489462
L135.624186 87.489462
" />
<path d="M134.481329 89.489462
L135.338472 88.346604
" />
<path d="M134.481329 87.489462
L135.624186 88.632319
" />
<path d="M132.767043 89.489462
L132.767043 88.441843
" />
<path d="M132.767043 88.441843
L132.862281 88.251366
" />
<path d="M132.862281 88.251366
L133.052757 88.156128
" />
<path d="M133.052757 88.156128
L133.433710 88.156128
" />
<path d="M133.433710 88.156128
L133.624186 88.251366
" />
<path d="M132.767043 89.394224
L132.957519 89.489462
" />
<path d="M132.957519 89.489462
L133.433710 89.489462
" />
<path d="M133.433710 89.489462
L133.624186 89.394224
" />
<path d="M133.624186 89.394224
L133.719424 89.203747
" />
<path d="M133.719424 89.203747
L133.719424 89.013271
" />
<path d="M133.719424 89.013271
L133.624186 88.822795
" />
<path d="M133.624186 88.822795
L133.433710 88.727557
" />
<path d="M133.433710 88.727557
L132.957519 88.727557
" />
<path d="M132.957519 88.727557
L132.767043 88.632319
" />
<path d="M131.814662 89.489462
L131.814662 88.156128
" />
<path d="M131.814662 88.346604
L131.719424 88.251366
" />
<path d="M131.719424 88.251366
L131.528948 88.156128
" />
<path d="M131.528948 88.156128
L131.243233 88.156128
" />
<path d="M131.243233 88.156128
L131.052757 88.251366
" />
<path d="M131.052757 88.251366
L130.957519 88.441843
" />
<path d="M130.957519 88.441843
L130.957519 89.489462
" />
<path d="M130.957519 88.441843
L130.862281 88.251366
" />
<path d="M130.862281 88.251366
L130.671805 88.156128
" />
<path d="M130.671805 88.156128
L130.386091 88.156128
" />
<path d="M130.386091 88.156128
L130.195614 88.251366
" />
<path d="M130.195614 88.251366
L130.100376 88.441843
" />
<path d="M130.100376 88.441843
L130.100376 89.489462
" />
<path d="M129.147995 89.489462
L129.147995 88.156128
" />
<path d="M129.147995 87.489462
L129.243233 87.584700
" />
<path d="M129.243233 87.584700
L129.147995 87.679938
" />
<path d="M129.147995 87.679938
L129.052757 87.584700
" />
<path d="M129.052757 87.584700
L129.147995 87.489462
" />
<path d="M129.147995 87.489462
L129.147995 87.679938
" />
<path d="M127.433709 89.394224
L127.624185 89.489462
" />
<path d="M127.624185 89.489462
L128.005138 89.489462
" />
<path d="M128.005138 89.489462
L128.195614 89.394224
" />
<path d="M128.195614 89.394224
L128.290852 89.203747
" />
<path d="M128.290852 89.203747
L128.290852 88.441843
" />
<path d="M128.290852 88.441843
L128.195614 88.251366
" />
<path d="M128.195614 88.251366
L128.005138 88.156128
" />
<path d="M128.005138 88.156128
L127.624185 88.156128
" />
<path d="M127.624185 88.156128
L127.433709 88.251366
" />
<path d="M127.433709 88.251366
L127.338471 88.441843
" />
<path d="M127.338471 88.441843
L127.338471 88.632319
" />
<path d="M127.338471 88.632319
L128.290852 88.822795
" />
<path d="M126.481328 88.156128
L126.481328 89.489462
" />
<path d="M126.481328 88.346604
L126.386090 88.251366
" />
<path d="M126.386090 88.251366
L126.195614 88.156128
" />
<path d="M126.195614 88.156128
L125.909899 88.156128
" />
<path d="M125.909899 88.156128
L125.719423 88.251366
" />
<path d="M125.719423 88.251366
L125.624185 88.441843
" />
<path d="M125.624185 88.441843
L125.624185 89.489462
" />
<path d="M124.671804 89.489462
L124.671804 88.156128
" />
<path d="M124.671804 87.489462
L124.767042 87.584700
" />
<path d="M124.767042 87.584700
L124.671804 87.679938
" />
<path d="M124.671804 87.679938
L124.576566 87.584700
" />
<path d="M124.576566 87.584700
L124.671804 87.489462
" />
<path d="M124.671804 87.489462
L124.671804 87.679938
" />
<path d="M122.862280 89.489462
L122.862280 88.441843
" />
<path d="M122.862280 88.441843
L122.957518 88.251366
" />
<path d="M122.957518 88.251366
L123.147994 88.156128
" />
<path d="M123.147994 88.156128
L123.528947 88.156128
" />
<path d="M123.528947 88.156128
L123.719423 88.251366
" />
<path d="M122.862280 89.394224
L123.052756 89.489462
" />
<path d="M123.052756 89.489462
L123.528947 89.489462
" />
<path d="M123.528947 89.489462
L123.719423 89.394224
" />
<path d="M123.719423 89.394224
L123.814661 89.203747
" />
<path d="M123.814661 89.203747
L123.814661 89.013271
" />
<path d="M123.814661 89.013271
L123.719423 88.822795
" />
<path d="M123.719423 88.822795
L123.528947 88.727557
" />
<path d="M123.528947 88.727557
L123.052756 88.727557
" />
<path d="M123.052756 88.727557
L122.862280 88.632319
" />
<path d="M121.909899 89.489462
L121.909899 88.156128
" />
<path d="M121.909899 88.537081
L121.814661 88.346604
" />
<path d="M121.814661 88.346604
L121.719423 88.251366
" />
<path d="M121.719423 88.251366
L121.528947 88.156128
" />
<path d="M121.528947 88.156128
L121.338470 88.156128
" />
<path d="M120.862280 88.156128
L119.814661 88.156128
" />
<path d="M119.814661 88.156128
L120.862280 89.489462
" />
<path d="M120.862280 89.489462
L119.814661 89.489462
" />
</g><text x="119.200000" y="92.980112"
transform="scale(-1 1) translate(-238.400000 0)"
textLength="21.100002" font-size="2.666666" lengthAdjust="spacingAndGlyphs"
text-anchor="end" opacity="0">Adam Detmer</text>
<g class="stroked-text"><desc>Adam Detmer</desc>
<path d="M139.147996 92.137921
L138.195615 92.137921
" />
<path d="M139.338472 92.709350
L138.671806 90.709350
" />
<path d="M138.671806 90.709350
L138.005139 92.709350
" />
<path d="M136.481329 92.709350
L136.481329 90.709350
" />
<path d="M136.481329 92.614112
L136.671805 92.709350
" />
<path d="M136.671805 92.709350
L137.052758 92.709350
" />
<path d="M137.052758 92.709350
L137.243234 92.614112
" />
<path d="M137.243234 92.614112
L137.338472 92.518873
" />
<path d="M137.338472 92.518873
L137.433710 92.328397
" />
<path d="M137.433710 92.328397
L137.433710 91.756969
" />
<path d="M137.433710 91.756969
L137.338472 91.566492
" />
<path d="M137.338472 91.566492
L137.243234 91.471254
" />
<path d="M137.243234 91.471254
L137.052758 91.376016
" />
<path d="M137.052758 91.376016
L136.671805 91.376016
" />
<path d="M136.671805 91.376016
L136.481329 91.471254
" />
<path d="M134.671805 92.709350
L134.671805 91.661731
" />
<path d="M134.671805 91.661731
L134.767043 91.471254
" />
<path d="M134.767043 91.471254
L134.957519 91.376016
" />
<path d="M134.957519 91.376016
L135.338472 91.376016
" />
<path d="M135.338472 91.376016
L135.528948 91.471254
" />
<path d="M134.671805 92.614112
L134.862281 92.709350
" />
<path d="M134.862281 92.709350
L135.338472 92.709350
" />
<path d="M135.338472 92.709350
L135.528948 92.614112
" />
<path d="M135.528948 92.614112
L135.624186 92.423635
" />
<path d="M135.624186 92.423635
L135.624186 92.233159
" />
<path d="M135.624186 92.233159
L135.528948 92.042683
" />
<path d="M135.528948 92.042683
L135.338472 91.947445
" />
<path d="M135.338472 91.947445
L134.862281 91.947445
" />
<path d="M134.862281 91.947445
L134.671805 91.852207
" />
<path d="M133.719424 92.709350
L133.719424 91.376016
" />
<path d="M133.719424 91.566492
L133.624186 91.471254
" />
<path d="M133.624186 91.471254
L133.433710 91.376016
" />
<path d="M133.433710 91.376016
L133.147995 91.376016
" />
<path d="M133.147995 91.376016
L132.957519 91.471254
" />
<path d="M132.957519 91.471254
L132.862281 91.661731
" />
<path d="M132.862281 91.661731
L132.862281 92.709350
" />
<path d="M132.862281 91.661731
L132.767043 91.471254
" />
<path d="M132.767043 91.471254
L132.576567 91.376016
" />
<path d="M132.576567 91.376016
L132.290853 91.376016
" />
<path d="M132.290853 91.376016
L132.100376 91.471254
" />
<path d="M132.100376 91.471254
L132.005138 91.661731
" />
<path d="M132.005138 91.661731
L132.005138 92.709350
" />
<path d="M129.528947 92.709350
L129.528947 90.709350
" />
<path d="M129.528947 90.709350
L129.052757 90.709350
" />
<path d="M129.052757 90.709350
L128.767042 90.804588
" />
<path d="M128.767042 90.804588
L128.576566 90.995064
" />
<path d="M128.576566 90.995064
L128.481328 91.185540
" />
<path d="M128.481328 91.185540
L128.386090 91.566492
" />
<path d="M128.386090 91.566492
L128.386090 91.852207
" />
<path d="M128.386090 91.852207
L128.481328 92.233159
" />
<path d="M128.481328 92.233159
L128.576566 92.423635
" />
<path d="M128.576566 92.423635
L128.767042 92.614112
" />
<path d="M128.767042 92.614112
L129.052757 92.709350
" />
<path d="M129.052757 92.709350
L129.528947 92.709350
" />
<path d="M126.767042 92.614112
L126.957518 92.709350
" />
<path d="M126.957518 92.709350
L127.338471 92.709350
" />
<path d="M127.338471 92.709350
L127.528947 92.614112
" />
<path d="M127.528947 92.614112
L127.624185 92.423635
" />
<path d="M127.624185 92.423635
L127.624185 91.661731
" />
<path d="M127.624185 91.661731
L127.528947 91.471254
" />
<path d="M127.528947 91.471254
L127.338471 91.376016
" />
<path d="M127.338471 91.376016
L126.957518 91.376016
" />
<path d="M126.957518 91.376016
L126.767042 91.471254
" />
<path d="M126.767042 91.471254
L126.671804 91.661731
" />
<path d="M126.671804 91.661731
L126.671804 91.852207
" />
<path d="M126.671804 91.852207
L127.624185 92.042683
" />
<path d="M126.100375 91.376016
L125.338471 91.376016
" />
<path d="M125.814661 90.709350
L125.814661 92.423635
" />
<path d="M125.814661 92.423635
L125.719423 92.614112
" />
<path d="M125.719423 92.614112
L125.528947 92.709350
" />
<path d="M125.528947 92.709350
L125.338471 92.709350
" />
<path d="M124.671804 92.709350
L124.671804 91.376016
" />
<path d="M124.671804 91.566492
L124.576566 91.471254
" />
<path d="M124.576566 91.471254
L124.386090 91.376016
" />
<path d="M124.386090 91.376016
L124.100375 91.376016
" />
<path d="M124.100375 91.376016
L123.909899 91.471254
" />
<path d="M123.909899 91.471254
L123.814661 91.661731
" />
<path d="M123.814661 91.661731
L123.814661 92.709350
" />
<path d="M123.814661 91.661731
L123.719423 91.471254
" />
<path d="M123.719423 91.471254
L123.528947 91.376016
" />
<path d="M123.528947 91.376016
L123.243233 91.376016
" />
<path d="M123.243233 91.376016
L123.052756 91.471254
" />
<path d="M123.052756 91.471254
L122.957518 91.661731
" />
<path d="M122.957518 91.661731
L122.957518 92.709350
" />
<path d="M121.243232 92.614112
L121.433708 92.709350
" />
<path d="M121.433708 92.709350
L121.814661 92.709350
" />
<path d="M121.814661 92.709350
L122.005137 92.614112
" />
<path d="M122.005137 92.614112
L122.100375 92.423635
" />
<path d="M122.100375 92.423635
L122.100375 91.661731
" />
<path d="M122.100375 91.661731
L122.005137 91.471254
" />
<path d="M122.005137 91.471254
L121.814661 91.376016
" />
<path d="M121.814661 91.376016
L121.433708 91.376016
" />
<path d="M121.433708 91.376016
L121.243232 91.471254
" />
<path d="M121.243232 91.471254
L121.147994 91.661731
" />
<path d="M121.147994 91.661731
L121.147994 91.852207
" />
<path d="M121.147994 91.852207
L122.100375 92.042683
" />
<path d="M120.290851 92.709350
L120.290851 91.376016
" />
<path d="M120.290851 91.756969
L120.195613 91.566492
" />
<path d="M120.195613 91.566492
L120.100375 91.471254
" />
<path d="M120.100375 91.471254
L119.909899 91.376016
" />
<path d="M119.909899 91.376016
L119.719422 91.376016
" />
</g><text x="119.200000" y="96.200000"
transform="scale(-1 1) translate(-238.400000 0)"
textLength="19.004764" font-size="2.666666" lengthAdjust="spacingAndGlyphs"
text-anchor="end" opacity="0">Jakub Buler</text>
<g class="stroked-text"><desc>Jakub Buler</desc>
<path d="M136.386091 93.929238
L136.386091 95.357809
" />
<path d="M136.386091 95.357809
L136.481330 95.643523
" />
<path d="M136.481330 95.643523
L136.671806 95.834000
" />
<path d="M136.671806 95.834000
L136.957520 95.929238
" />
<path d="M136.957520 95.929238
L137.147996 95.929238
" />
<path d="M134.576567 95.929238
L134.576567 94.881619
" />
<path d="M134.576567 94.881619
L134.671805 94.691142
" />
<path d="M134.671805 94.691142
L134.862281 94.595904
" />
<path d="M134.862281 94.595904
L135.243234 94.595904
" />
<path d="M135.243234 94.595904
L135.433710 94.691142
" />
<path d="M134.576567 95.834000
L134.767043 95.929238
" />
<path d="M134.767043 95.929238
L135.243234 95.929238
" />
<path d="M135.243234 95.929238
L135.433710 95.834000
" />
<path d="M135.433710 95.834000
L135.528948 95.643523
" />
<path d="M135.528948 95.643523
L135.528948 95.453047
" />
<path d="M135.528948 95.453047
L135.433710 95.262571
" />
<path d="M135.433710 95.262571
L135.243234 95.167333
" />
<path d="M135.243234 95.167333
L134.767043 95.167333
" />
<path d="M134.767043 95.167333
L134.576567 95.072095
" />
<path d="M133.624186 95.929238
L133.624186 93.929238
" />
<path d="M133.433710 95.167333
L132.862281 95.929238
" />
<path d="M132.862281 94.595904
L133.624186 95.357809
" />
<path d="M131.147995 94.595904
L131.147995 95.929238
" />
<path d="M132.005138 94.595904
L132.005138 95.643523
" />
<path d="M132.005138 95.643523
L131.909900 95.834000
" />
<path d="M131.909900 95.834000
L131.719424 95.929238
" />
<path d="M131.719424 95.929238
L131.433709 95.929238
" />
<path d="M131.433709 95.929238
L131.243233 95.834000
" />
<path d="M131.243233 95.834000
L131.147995 95.738761
" />
<path d="M130.195614 95.929238
L130.195614 93.929238
" />
<path d="M130.195614 94.691142
L130.005138 94.595904
" />
<path d="M130.005138 94.595904
L129.624185 94.595904
" />
<path d="M129.624185 94.595904
L129.433709 94.691142
" />
<path d="M129.433709 94.691142
L129.338471 94.786380
" />
<path d="M129.338471 94.786380
L129.243233 94.976857
" />
<path d="M129.243233 94.976857
L129.243233 95.548285
" />
<path d="M129.243233 95.548285
L129.338471 95.738761
" />
<path d="M129.338471 95.738761
L129.433709 95.834000
" />
<path d="M129.433709 95.834000
L129.624185 95.929238
" />
<path d="M129.624185 95.929238
L130.005138 95.929238
" />
<path d="M130.005138 95.929238
L130.195614 95.834000
" />
<path d="M126.195613 94.881619
L125.909899 94.976857
" />
<path d="M125.909899 94.976857
L125.814661 95.072095
" />
<path d="M125.814661 95.072095
L125.719423 95.262571
" />
<path d="M125.719423 95.262571
L125.719423 95.548285
" />
<path d="M125.719423 95.548285
L125.814661 95.738761
" />
<path d="M125.814661 95.738761
L125.909899 95.834000
" />
<path d="M125.909899 95.834000
L126.100375 95.929238
" />
<path d="M126.100375 95.929238
L126.862280 95.929238
" />
<path d="M126.862280 95.929238
L126.862280 93.929238
" />
<path d="M126.862280 93.929238
L126.195613 93.929238
" />
<path d="M126.195613 93.929238
L126.005137 94.024476
" />
<path d="M126.005137 94.024476
L125.909899 94.119714
" />
<path d="M125.909899 94.119714
L125.814661 94.310190
" />
<path d="M125.814661 94.310190
L125.814661 94.500666
" />
<path d="M125.814661 94.500666
L125.909899 94.691142
" />
<path d="M125.909899 94.691142
L126.005137 94.786380
" />
<path d="M126.005137 94.786380
L126.195613 94.881619
" />
<path d="M126.195613 94.881619
L126.862280 94.881619
" />
<path d="M124.005137 94.595904
L124.005137 95.929238
" />
<path d="M124.862280 94.595904
L124.862280 95.643523
" />
<path d="M124.862280 95.643523
L124.767042 95.834000
" />
<path d="M124.767042 95.834000
L124.576566 95.929238
" />
<path d="M124.576566 95.929238
L124.290851 95.929238
" />
<path d="M124.290851 95.929238
L124.100375 95.834000
" />
<path d="M124.100375 95.834000
L124.005137 95.738761
" />
<path d="M122.767042 95.929238
L122.957518 95.834000
" />
<path d="M122.957518 95.834000
L123.052756 95.643523
" />
<path d="M123.052756 95.643523
L123.052756 93.929238
" />
<path d="M121.243232 95.834000
L121.433708 95.929238
" />
<path d="M121.433708 95.929238
L121.814661 95.929238
" />
<path d="M121.814661 95.929238
L122.005137 95.834000
" />
<path d="M122.005137 95.834000
L122.100375 95.643523
" />
<path d="M122.100375 95.643523
L122.100375 94.881619
" />
<path d="M122.100375 94.881619
L122.005137 94.691142
" />
<path d="M122.005137 94.691142
L121.814661 94.595904
" />
<path d="M121.814661 94.595904
L121.433708 94.595904
" />
<path d="M121.433708 94.595904
L121.243232 94.691142
" />
<path d="M121.243232 94.691142
L121.147994 94.881619
" />
<path d="M121.147994 94.881619
L121.147994 95.072095
" />
<path d="M121.147994 95.072095
L122.100375 95.262571
" />
<path d="M120.290851 95.929238
L120.290851 94.595904
" />
<path d="M120.290851 94.976857
L120.195613 94.786380
" />
<path d="M120.195613 94.786380
L120.100375 94.691142
" />
<path d="M120.100375 94.691142
L119.909899 94.595904
" />
<path d="M119.909899 94.595904
L119.719422 94.595904
" />
</g></g>
<g style="fill:none; 
stroke:#FFFFFF; stroke-width:0.625000; stroke-opacity:1; 
stroke-linecap:round; stroke-linejoin:round;">
<g transform="rotate(-90.000000 77.255140 63.500000)">
<text x="77.255140" y="63.500000"
transform="scale(-1 1) translate(-154.510280 0)"
textLength="8.517857" font-size="3.333333" lengthAdjust="spacingAndGlyphs"
text-anchor="middle" opacity="0">WIIT</text>
</g>
<g class="stroked-text"><desc>WIIT</desc>
<path d="M74.416687 60.285714
L76.916687 60.880952
" />
<path d="M76.916687 60.880952
L75.130973 61.357143
" />
<path d="M75.130973 61.357143
L76.916687 61.833333
" />
<path d="M76.916687 61.833333
L74.416687 62.428572
" />
<path d="M76.916687 63.380953
L74.416687 63.380953
" />
<path d="M76.916687 64.571429
L74.416687 64.571429
" />
<path d="M74.416687 65.404762
L74.416687 66.833333
" />
<path d="M76.916687 66.119047
L74.416687 66.119047
" />
</g><g transform="rotate(-90.000000 81.280000 63.500000)">
<text x="81.280000" y="63.500000"
transform="scale(-1 1) translate(-162.560000 0)"
textLength="17.803570" font-size="3.333333" lengthAdjust="spacingAndGlyphs"
text-anchor="middle" opacity="0">PP 2024</text>
</g>
<g class="stroked-text"><desc>PP 2024</desc>
<path d="M80.941547 55.880953
L78.441547 55.880953
" />
<path d="M78.441547 55.880953
L78.441547 56.833334
" />
<path d="M78.441547 56.833334
L78.560595 57.071429
" />
<path d="M78.560595 57.071429
L78.679642 57.190476
" />
<path d="M78.679642 57.190476
L78.917738 57.309524
" />
<path d="M78.917738 57.309524
L79.274880 57.309524
" />
<path d="M79.274880 57.309524
L79.512976 57.190476
" />
<path d="M79.512976 57.190476
L79.632023 57.071429
" />
<path d="M79.632023 57.071429
L79.751071 56.833334
" />
<path d="M79.751071 56.833334
L79.751071 55.880953
" />
<path d="M80.941547 58.380953
L78.441547 58.380953
" />
<path d="M78.441547 58.380953
L78.441547 59.333334
" />
<path d="M78.441547 59.333334
L78.560595 59.571429
" />
<path d="M78.560595 59.571429
L78.679642 59.690476
" />
<path d="M78.679642 59.690476
L78.917738 59.809524
" />
<path d="M78.917738 59.809524
L79.274880 59.809524
" />
<path d="M79.274880 59.809524
L79.512976 59.690476
" />
<path d="M79.512976 59.690476
L79.632023 59.571429
" />
<path d="M79.632023 59.571429
L79.751071 59.333334
" />
<path d="M79.751071 59.333334
L79.751071 58.380953
" />
<path d="M78.679642 62.666667
L78.560595 62.785715
" />
<path d="M78.560595 62.785715
L78.441547 63.023810
" />
<path d="M78.441547 63.023810
L78.441547 63.619048
" />
<path d="M78.441547 63.619048
L78.560595 63.857143
" />
<path d="M78.560595 63.857143
L78.679642 63.976191
" />
<path d="M78.679642 63.976191
L78.917738 64.095238
" />
<path d="M78.917738 64.095238
L79.155833 64.095238
" />
<path d="M79.155833 64.095238
L79.512976 63.976191
" />
<path d="M79.512976 63.976191
L80.941547 62.547619
" />
<path d="M80.941547 62.547619
L80.941547 64.095238
" />
<path d="M78.441547 65.642857
L78.441547 65.880952
" />
<path d="M78.441547 65.880952
L78.560595 66.119048
" />
<path d="M78.560595 66.119048
L78.679642 66.238095
" />
<path d="M78.679642 66.238095
L78.917738 66.357143
" />
<path d="M78.917738 66.357143
L79.393928 66.476190
" />
<path d="M79.393928 66.476190
L79.989166 66.476190
" />
<path d="M79.989166 66.476190
L80.465357 66.357143
" />
<path d="M80.465357 66.357143
L80.703452 66.238095
" />
<path d="M80.703452 66.238095
L80.822500 66.119048
" />
<path d="M80.822500 66.119048
L80.941547 65.880952
" />
<path d="M80.941547 65.880952
L80.941547 65.642857
" />
<path d="M80.941547 65.642857
L80.822500 65.404762
" />
<path d="M80.822500 65.404762
L80.703452 65.285714
" />
<path d="M80.703452 65.285714
L80.465357 65.166667
" />
<path d="M80.465357 65.166667
L79.989166 65.047619
" />
<path d="M79.989166 65.047619
L79.393928 65.047619
" />
<path d="M79.393928 65.047619
L78.917738 65.166667
" />
<path d="M78.917738 65.166667
L78.679642 65.285714
" />
<path d="M78.679642 65.285714
L78.560595 65.404762
" />
<path d="M78.560595 65.404762
L78.441547 65.642857
" />
<path d="M78.679642 67.428571
L78.560595 67.547619
" />
<path d="M78.560595 67.547619
L78.441547 67.785714
" />
<path d="M78.441547 67.785714
L78.441547 68.380952
" />
<path d="M78.441547 68.380952
L78.560595 68.619047
" />
<path d="M78.560595 68.619047
L78.679642 68.738095
" />
<path d="M78.679642 68.738095
L78.917738 68.857142
" />
<path d="M78.917738 68.857142
L79.155833 68.857142
" />
<path d="M79.155833 68.857142
L79.512976 68.738095
" />
<path d="M79.512976 68.738095
L80.941547 67.309523
" />
<path d="M80.941547 67.309523
L80.941547 68.857142
" />
<path d="M79.274880 70.999999
L80.941547 70.999999
" />
<path d="M78.322500 70.404761
L80.108214 69.809523
" />
<path d="M80.108214 69.809523
L80.108214 71.357142
" />
</g><path style="fill:#FFFFFF; fill-opacity:1.000000; stroke:none;fill-rule:evenodd;"
d="M 143.200000,65.920000
144.900000,65.920000
144.900000,67.620000
143.200000,67.620000
Z" /> 
</g>
<g style="fill:#FFFFFF; fill-opacity:1.000000; stroke:none;">
<circle cx="141.510000" cy="66.770000" r="0.850000" /> 
<circle cx="138.970000" cy="66.770000" r="0.850000" /> 
<circle cx="136.430000" cy="66.770000" r="0.850000" /> 
<path style="fill:#FFFFFF; fill-opacity:1.000000; stroke:none;fill-rule:evenodd;"
d="M 87.230000,55.350000
85.530000,55.350000
85.530000,53.650000
87.230000,53.650000
Z" /> 
<circle cx="88.920000" cy="54.500000" r="0.850000" /> 
<circle cx="91.460000" cy="54.500000" r="0.850000" /> 
<circle cx="94.000000" cy="54.500000" r="0.850000" /> 
<circle cx="81.110000" cy="80.250000" r="0.800000" /> 
</g>
<g style="fill:#FFFFFF; fill-opacity:1.000000; stroke:none;">
<circle cx="81.110000" cy="90.410000" r="0.800000" /> 
<circle cx="102.750000" cy="90.000000" r="0.800000" /> 
</g>
<g style="fill:#FFFFFF; fill-opacity:1.000000; stroke:none;">
<circle cx="102.750000" cy="87.500000" r="0.800000" /> 
<path style="fill:#FFFFFF; fill-opacity:1.000000; stroke:none;fill-rule:evenodd;"
d="M 100.900000,55.550000
100.900000,53.850000
102.600000,53.850000
102.600000,55.550000
Z" /> 
</g>
<g style="fill:#FFFFFF; fill-opacity:1.000000; stroke:none;">
<circle cx="101.750000" cy="57.240000" r="0.850000" /> 
<circle cx="101.750000" cy="59.780000" r="0.850000" /> 
<circle cx="101.750000" cy="62.320000" r="0.850000" /> 
<circle cx="98.500000" cy="90.000000" r="0.800000" /> 
</g>
<g style="fill:#FFFFFF; fill-opacity:1.000000; stroke:none;">
<circle cx="98.500000" cy="87.500000" r="0.800000" /> 
</g>
<g style="fill:#FFFFFF; fill-opacity:1.000000; stroke:none;">
<circle cx="114.300000" cy="88.000000" r="0.750000" /> 
</g>
<g style="fill:#FFFFFF; fill-opacity:1.000000; stroke:none;">
<circle cx="109.420000" cy="88.000000" r="0.750000" /> 
</g>
<g style="fill:#FFFFFF; fill-opacity:1.000000; stroke:none;">
<circle cx="92.250000" cy="95.110000" r="1.000000" /> 
</g>
<g style="fill:#FFFFFF; fill-opacity:1.000000; stroke:none;">
<circle cx="85.750000" cy="95.110000" r="1.000000" /> 
</g>
<g style="fill:#FFFFFF; fill-opacity:1.000000; stroke:none;">
<circle cx="92.250000" cy="90.610000" r="1.000000" /> 
</g>
<g style="fill:#FFFFFF; fill-opacity:1.000000; stroke:none;">
<circle cx="85.750000" cy="90.610000" r="1.000000" /> 
<path style="fill:#FFFFFF; fill-opacity:1.000000; stroke:none;fill-rule:evenodd;"
d="M 105.090000,69.350000
103.390000,69.350000
103.390000,67.650000
105.090000,67.650000
Z" /> 
</g>
<g style="fill:#FFFFFF; fill-opacity:1.000000; stroke:none;">
<circle cx="106.780000" cy="68.500000" r="0.850000" /> 
<path style="fill:#FFFFFF; fill-opacity:1.000000; stroke:none;fill-rule:evenodd;"
d="M 89.850000,82.420000
88.250000,82.420000
88.250000,80.820000
89.850000,80.820000
Z" /> 
<circle cx="91.590000" cy="81.620000" r="0.800000" /> 
<circle cx="94.130000" cy="81.620000" r="0.800000" /> 
<circle cx="96.670000" cy="81.620000" r="0.800000" /> 
<circle cx="99.210000" cy="81.620000" r="0.800000" /> 
<circle cx="101.750000" cy="81.620000" r="0.800000" /> 
<circle cx="104.290000" cy="81.620000" r="0.800000" /> 
<circle cx="106.830000" cy="81.620000" r="0.800000" /> 
<circle cx="109.370000" cy="81.620000" r="0.800000" /> 
<circle cx="111.910000" cy="81.620000" r="0.800000" /> 
<circle cx="114.450000" cy="81.620000" r="0.800000" /> 
<circle cx="116.990000" cy="81.620000" r="0.800000" /> 
<circle cx="119.530000" cy="81.620000" r="0.800000" /> 
<circle cx="122.070000" cy="81.620000" r="0.800000" /> 
<circle cx="122.070000" cy="74.000000" r="0.800000" /> 
<circle cx="119.530000" cy="74.000000" r="0.800000" /> 
<circle cx="116.990000" cy="74.000000" r="0.800000" /> 
<circle cx="114.450000" cy="74.000000" r="0.800000" /> 
<circle cx="111.910000" cy="74.000000" r="0.800000" /> 
<circle cx="109.370000" cy="74.000000" r="0.800000" /> 
<circle cx="106.830000" cy="74.000000" r="0.800000" /> 
<circle cx="104.290000" cy="74.000000" r="0.800000" /> 
<circle cx="101.750000" cy="74.000000" r="0.800000" /> 
<circle cx="99.210000" cy="74.000000" r="0.800000" /> 
<circle cx="96.670000" cy="74.000000" r="0.800000" /> 
<circle cx="94.130000" cy="74.000000" r="0.800000" /> 
<circle cx="91.590000" cy="74.000000" r="0.800000" /> 
<circle cx="89.050000" cy="74.000000" r="0.800000" /> 
<path style="fill:#FFFFFF; fill-opacity:1.000000; stroke:none;fill-rule:evenodd;"
d="M 89.850000,85.850000
88.150000,85.850000
88.150000,84.150000
89.850000,84.150000
Z" /> 
<circle cx="91.540000" cy="85.000000" r="0.850000" /> 
<circle cx="94.080000" cy="85.000000" r="0.850000" /> 
<path style="fill:#FFFFFF; fill-opacity:1.000000; stroke:none;fill-rule:evenodd;"
d="M 124.400000,55.550000
124.400000,53.850000
126.100000,53.850000
126.100000,55.550000
Z" /> 
<circle cx="125.250000" cy="57.240000" r="0.850000" /> 
<circle cx="125.250000" cy="59.780000" r="0.850000" /> 
<circle cx="125.250000" cy="62.320000" r="0.850000" /> 
<path style="fill:#FFFFFF; fill-opacity:1.000000; stroke:none;fill-rule:evenodd;"
d="M 112.650000,55.550000
112.650000,53.850000
114.350000,53.850000
114.350000,55.550000
Z" /> 
<circle cx="113.500000" cy="57.240000" r="0.850000" /> 
<circle cx="113.500000" cy="59.780000" r="0.850000" /> 
<circle cx="113.500000" cy="62.320000" r="0.850000" /> 
<path style="fill:#FFFFFF; fill-opacity:1.000000; stroke:none;fill-rule:evenodd;"
d="M 136.150000,55.550000
136.150000,53.850000
137.850000,53.850000
137.850000,55.550000
Z" /> 
<circle cx="137.000000" cy="57.240000" r="0.850000" /> 
<circle cx="137.000000" cy="59.780000" r="0.850000" /> 
<circle cx="137.000000" cy="62.320000" r="0.850000" /> 
</g>
<g style="fill:none; 
stroke:#FFFFFF; stroke-width:1.000000; stroke-opacity:1; 
stroke-linecap:round; stroke-linejoin:round;">
<path d="M137.463654 62.319967 A1.999967 1.999967 0.0 0 0 138.877867 61.734214" />
<path d="M139.157996 61.454039 A2.000006 2.000006 0.0 0 0 139.743806 60.039848" />
<path d="M138.753914 57.825786 A2.000000 2.000000 0.0 0 0 137.339699 57.240000" />
<path d="M144.050013 61.945282 A5.000013 5.000013 0.0 0 0 142.585534 58.409748" />
<path d="M140.340252 56.164466 A5.000013 5.000013 0.0 0 0 136.804718 54.699987" />
<path d="M97.089977 61.178932 A5.000023 5.000023 0.0 0 0 98.554466 64.714466" />
<path d="M98.554482 56.135550 A5.000000 5.000000 0.0 0 0 97.090000 59.671068" />
<path d="M102.340000 68.500000
L98.554466 64.714466
" />
<path d="M97.090000 61.178932
L97.090000 59.671068
" />
<path d="M140.340252 56.164466
L142.585534 58.409748
" />
<path d="M98.554466 56.135534
L99.990000 54.700000
" />
<path d="M99.990000 54.700000
L136.804718 54.700000
" />
<path d="M144.050000 61.945282
L144.050000 66.770000
" />
<path d="M113.464466 87.074466
L114.390000 88.000000
" />
<path d="M98.590000 92.000000
L98.625534 92.035534
" />
<path d="M112.925534 91.914466
L112.804466 92.035534
" />
<path d="M112.000000 81.620000
L112.000000 83.538932
" />
<path d="M98.590000 92.000000
L98.590000 90.000000
" />
<path d="M102.161068 93.500000
L109.268932 93.500000
" />
<path d="M114.390000 88.000000
L114.390000 88.378932
" />
<path d="M111.999977 83.538932 A5.000023 5.000023 0.0 0 0 113.464466 87.074466" />
<path d="M98.625534 92.035534 A5.000023 5.000023 0.0 0 0 102.161068 93.500023" />
<path d="M112.925518 91.914450 A5.000000 5.000000 0.0 0 0 114.390000 88.378932" />
<path d="M109.268932 93.500000 A5.000000 5.000000 0.0 0 0 112.804450 92.035518" />
<path d="M96.340000 87.500000
L98.590000 87.500000
" />
<path d="M104.330000 70.490000
L102.340000 68.500000
" />
<path d="M104.330000 70.750000
L104.330000 72.561068
" />
<path d="M77.950000 89.960505
L77.950000 79.218427
" />
<path d="M104.380000 74.000000
L104.380000 72.611068
" />
<path d="M80.868427 76.300000
L102.797156 76.300000
" />
<path d="M96.175787 87.664213
L96.340000 87.500000
" />
<path d="M104.330000 68.500000
L104.330000 70.750000
" />
<path d="M104.330000 68.500000
L102.340000 68.500000
" />
<path d="M101.340000 87.500000
L98.590000 87.500000
" />
<path d="M104.330000 70.750000
L104.330000 70.490000
" />
<path d="M78.535787 77.804213
L79.454214 76.885786
" />
<path d="M104.380000 73.540000
L104.340000 73.500000
" />
<path d="M102.840000 87.500000
L106.920000 83.420000
" />
<path d="M104.380000 74.302943
L104.380000 74.000000
" />
<path d="M103.504263 76.007107
L103.794213 75.717157
" />
<path d="M85.840000 95.110000
L84.342136 95.110000
" />
<path d="M92.340000 95.110000
L85.840000 95.110000
" />
<path d="M104.380000 74.000000
L104.380000 73.540000
" />
<path d="M80.806602 93.645534
L78.535786 91.374718
" />
<path d="M95.590000 94.250000
L95.590000 89.078427
" />
<path d="M95.315787 94.524213
L95.590000 94.250000
" />
<path d="M106.920000 83.420000
L106.920000 81.620000
" />
<path d="M101.340000 87.500000
L102.840000 87.500000
" />
<path d="M104.330000 72.561068
L104.380000 72.611068
" />
<path d="M92.340000 95.110000
L93.901573 95.110000
" />
<path d="M101.840000 87.500000
L101.340000 87.500000
" />
<path d="M77.949997 89.960505 A2.000003 2.000003 0.0 0 0 78.535786 91.374718" />
<path d="M93.901573 95.110000 A2.000000 2.000000 0.0 0 0 95.315801 94.524227" />
<path d="M78.535773 77.804199 A2.000000 2.000000 0.0 0 0 77.950000 79.218427" />
<path d="M103.794213 75.717157 A2.000030 2.000030 0.0 0 0 104.380030 74.302943" />
<path d="M80.806584 93.645552 A5.000000 5.000000 0.0 0 0 84.342136 95.110000" />
<path d="M102.797156 76.300000 A1.000200 1.000200 0.0 0 0 103.504276 76.007120" />
<path d="M80.868427 76.300019 A1.999981 1.999981 0.0 0 0 79.454214 76.885786" />
<path d="M96.175787 87.664213 A1.999981 1.999981 0.0 0 0 95.590019 89.078427" />
<path d="M108.974466 88.535534
L109.510000 88.000000
" />
<path d="M109.510000 88.000000
L109.510000 81.670000
" />
<path d="M109.510000 81.670000
L109.460000 81.620000
" />
<path d="M102.840000 90.000000
L105.438932 90.000000
" />
<path d="M105.438932 90.000023 A5.000023 5.000023 0.0 0 0 108.974466 88.535534" />
<path d="M106.920000 74.000000
L109.460000 74.000000
" />
<path d="M101.840000 62.320000
L100.637919 62.320000
" />
<path d="M106.091573 78.367308
L106.920000 77.538881
" />
<path d="M117.590000 57.240000
L137.090000 57.240000
" />
<path d="M105.840000 57.240000
L117.590000 57.240000
" />
<path d="M106.920000 74.000000
L106.920000 77.538881
" />
<path d="M106.870000 68.500000
L106.870000 67.350000
" />
<path d="M106.334213 78.953095
L104.380000 80.907308
" />
<path d="M83.096653 79.831774
L82.678427 80.250000
" />
<path d="M112.387919 62.320000
L107.307919 57.240000
" />
<path d="M125.340000 62.320000
L124.137919 62.320000
" />
<path d="M137.090000 57.240000
L137.339699 57.240000
" />
<path d="M136.520000 66.770000
L136.520000 62.890000
" />
<path d="M104.380000 80.907308
L104.380000 81.620000
" />
<path d="M99.340000 58.537919
L100.637919 57.240000
" />
<path d="M139.743806 58.846194
L139.743806 60.039848
" />
<path d="M138.753913 57.825787
L139.468680 58.540554
" />
<path d="M82.678427 80.250000
L81.200000 80.250000
" />
<path d="M106.870000 67.350000
L101.840000 62.320000
" />
<path d="M86.632187 78.367308
L106.091573 78.367308
" />
<path d="M139.468680 58.540554
L139.468680 58.571068
" />
<path d="M100.637919 62.320000
L99.340000 61.022081
" />
<path d="M139.158019 61.454062
L138.877867 61.734214
" />
<path d="M101.840000 57.240000
L105.840000 57.240000
" />
<path d="M139.468680 58.571068
L139.743806 58.846194
" />
<path d="M106.870000 68.500000
L106.870000 73.950000
" />
<path d="M106.870000 73.950000
L106.920000 74.000000
" />
<path d="M124.137919 62.320000
L119.057919 57.240000
" />
<path d="M107.307919 57.240000
L105.840000 57.240000
" />
<path d="M119.057919 57.240000
L117.590000 57.240000
" />
<path d="M99.340000 61.022081
L99.340000 58.537919
" />
<path d="M100.637919 57.240000
L101.840000 57.240000
" />
<path d="M136.520000 62.890000
L137.090000 62.320000
" />
<path d="M113.590000 62.320000
L112.387919 62.320000
" />
<path d="M137.463654 62.320000
L137.090000 62.320000
" />
<path d="M86.632187 78.367296 A5.000004 5.000004 0.0 0 0 83.096653 79.831774" />
<path d="M106.334223 78.953105 A2.000000 2.000000 0.0 0 0 106.920000 77.538881" />
<path d="M117.080000 74.000000
L117.080000 73.697057
" />
<path d="M101.920302 59.780000
L101.840000 59.780000
" />
<path d="M116.494213 72.282843
L105.455836 61.244466
" />
<path d="M117.080000 73.697057 A2.000000 2.000000 0.0 0 0 116.494192 72.282864" />
<path d="M105.455835 61.244467 A5.000000 5.000000 0.0 0 0 101.920302 59.780000" />
<path d="M119.034214 63.157479
L116.242521 60.365786
" />
<path d="M114.828308 59.780000
L113.590000 59.780000
" />
<path d="M119.620000 64.571692
L119.620000 74.000000
" />
<path d="M116.242521 60.365786 A2.000006 2.000006 0.0 0 0 114.828308 59.779994" />
<path d="M119.620006 64.571692 A2.000006 2.000006 0.0 0 0 119.034214 63.157479" />
<path d="M127.190000 61.256346
L127.190000 66.321573
" />
<path d="M122.160000 73.008427
L122.160000 74.000000
" />
<path d="M126.604213 67.735787
L122.745786 71.594214
" />
<path d="M126.542081 59.780000
L125.340000 59.780000
" />
<path d="M126.604213 59.842132
L126.542081 59.780000
" />
<path d="M127.189967 61.256346 A1.999967 1.999967 0.0 0 0 126.604213 59.842132" />
<path d="M126.604213 67.735787 A1.999981 1.999981 0.0 0 0 127.189981 66.321573" />
<path d="M122.745772 71.594200 A2.000000 2.000000 0.0 0 0 122.160000 73.008427" />
<path d="M121.768932 78.250000
L121.389698 78.250000
" />
<path d="M117.854164 79.714466
L117.080000 80.488630
" />
<path d="M128.625534 73.464466
L125.304466 76.785534
" />
<path d="M137.090000 59.780000
L135.887919 59.780000
" />
<path d="M117.080000 80.488630
L117.080000 81.620000
" />
<path d="M117.080000 81.922943
L117.080000 81.620000
" />
<path d="M130.090000 68.891627
L130.090000 69.928932
" />
<path d="M135.887919 59.780000
L132.433146 63.234773
" />
<path d="M121.768932 78.250023 A5.000023 5.000023 0.0 0 0 125.304466 76.785534" />
<path d="M128.625518 73.464450 A5.000000 5.000000 0.0 0 0 130.090000 69.928932" />
<path d="M121.389698 78.249998 A5.000002 5.000002 0.0 0 0 117.854164 79.714466" />
<path d="M132.433146 63.234773 A7.999981 7.999981 0.0 0 0 130.090019 68.891627" />
<path d="M101.840000 74.000000
L101.790000 73.950000
" />
<path d="M101.840000 74.000000
L101.840000 73.535534
" />
<path d="M94.090000 63.300252
L94.090000 54.500000
" />
<path d="M101.547107 72.828427
L95.554466 66.835786
" />
<path d="M94.090034 63.300252 A4.999966 4.999966 0.0 0 0 95.554466 66.835786" />
<path d="M101.839976 73.535534 A0.999976 0.999976 0.0 0 0 101.547107 72.828427" />
<path d="M99.300000 72.868630
L93.014466 66.583096
" />
<path d="M99.250000 73.950000
L99.300000 74.000000
" />
<path d="M99.300000 74.000000
L99.300000 72.868630
" />
<path d="M91.550000 63.047562
L91.550000 54.500000
" />
<path d="M91.550000 63.047562 A5.000000 5.000000 0.0 0 0 93.014447 66.583115" />
<path d="M96.760000 74.000000
L96.760000 73.282844
" />
<path d="M96.710000 73.950000
L96.760000 74.000000
" />
<path d="M89.010000 63.047562
L89.010000 54.500000
" />
<path d="M96.467107 72.575737
L90.474466 66.583096
" />
<path d="M89.010027 63.047562 A4.999973 4.999973 0.0 0 0 90.474466 66.583096" />
<path d="M96.759969 73.282844 A0.999969 0.999969 0.0 0 0 96.467107 72.575737" />
<path d="M94.220000 72.868630
L87.934466 66.583096
" />
<path d="M94.170000 73.950000
L94.220000 74.000000
" />
<path d="M86.470000 54.500000
L86.470000 63.047562
" />
<path d="M94.220000 74.000000
L94.220000 72.868630
" />
<path d="M86.470000 63.047562 A5.000000 5.000000 0.0 0 0 87.934447 66.583115" />
<path d="M89.140000 84.950000
L89.090000 85.000000
" />
<path d="M89.140000 81.620000
L89.140000 84.950000
" />
<path d="M87.625534 88.824466
L85.840000 90.610000
" />
<path d="M89.090000 85.000000
L89.090000 85.288932
" />
<path d="M92.340000 90.610000
L85.840000 90.610000
" />
<path d="M85.640000 90.410000
L85.840000 90.610000
" />
<path d="M81.200000 90.410000
L85.640000 90.410000
" />
<path d="M87.625518 88.824450 A5.000000 5.000000 0.0 0 0 89.090000 85.288932" />
<path d="M91.680000 81.620000
L91.680000 84.950000
" />
<path d="M91.680000 84.950000
L91.630000 85.000000
" />
<path d="M94.170000 81.670000
L94.220000 81.620000
" />
<path d="M94.170000 85.000000
L94.170000 81.670000
" />
</g>
<g style="fill:#000000; fill-opacity:1.000000; stroke:none;">
<circle cx="144.050000" cy="66.770000" r="0.175000" /> 
</g>
<g style="fill:#000000; fill-opacity:1.000000; stroke:none;">
<circle cx="141.510000" cy="66.770000" r="0.175000" /> 
</g>
<g style="fill:#000000; fill-opacity:1.000000; stroke:none;">
<circle cx="138.970000" cy="66.770000" r="0.175000" /> 
</g>
<g style="fill:#000000; fill-opacity:1.000000; stroke:none;">
<circle cx="136.430000" cy="66.770000" r="0.175000" /> 
</g>
<g style="fill:#000000; fill-opacity:1.000000; stroke:none;">
<circle cx="86.380000" cy="54.500000" r="0.175000" /> 
</g>
<g style="fill:#000000; fill-opacity:1.000000; stroke:none;">
<circle cx="88.920000" cy="54.500000" r="0.175000" /> 
</g>
<g style="fill:#000000; fill-opacity:1.000000; stroke:none;">
<circle cx="91.460000" cy="54.500000" r="0.175000" /> 
</g>
<g style="fill:#000000; fill-opacity:1.000000; stroke:none;">
<circle cx="94.000000" cy="54.500000" r="0.175000" /> 
</g>
<g style="fill:#000000; fill-opacity:1.000000; stroke:none;">
<circle cx="81.110000" cy="80.250000" r="0.175000" /> 
</g>
<g style="fill:#000000; fill-opacity:1.000000; stroke:none;">
<circle cx="81.110000" cy="90.410000" r="0.175000" /> 
</g>
<g style="fill:#000000; fill-opacity:1.000000; stroke:none;">
<circle cx="102.750000" cy="90.000000" r="0.175000" /> 
</g>
<g style="fill:#000000; fill-opacity:1.000000; stroke:none;">
<circle cx="102.750000" cy="87.500000" r="0.175000" /> 
</g>
<g style="fill:#000000; fill-opacity:1.000000; stroke:none;">
<circle cx="101.750000" cy="54.700000" r="0.175000" /> 
</g>
<g style="fill:#000000; fill-opacity:1.000000; stroke:none;">
<circle cx="101.750000" cy="57.240000" r="0.175000" /> 
</g>
<g style="fill:#000000; fill-opacity:1.000000; stroke:none;">
<circle cx="101.750000" cy="59.780000" r="0.175000" /> 
</g>
<g style="fill:#000000; fill-opacity:1.000000; stroke:none;">
<circle cx="101.750000" cy="62.320000" r="0.175000" /> 
</g>
<g style="fill:#000000; fill-opacity:1.000000; stroke:none;">
<circle cx="98.500000" cy="90.000000" r="0.175000" /> 
</g>
<g style="fill:#000000; fill-opacity:1.000000; stroke:none;">
<circle cx="98.500000" cy="87.500000" r="0.175000" /> 
</g>
<g style="fill:#000000; fill-opacity:1.000000; stroke:none;">
<circle cx="114.300000" cy="88.000000" r="0.175000" /> 
</g>
<g style="fill:#000000; fill-opacity:1.000000; stroke:none;">
<circle cx="109.420000" cy="88.000000" r="0.175000" /> 
</g>
<g style="fill:#000000; fill-opacity:1.000000; stroke:none;">
<circle cx="92.250000" cy="95.110000" r="0.175000" /> 
</g>
<g style="fill:#000000; fill-opacity:1.000000; stroke:none;">
<circle cx="85.750000" cy="95.110000" r="0.175000" /> 
</g>
<g style="fill:#000000; fill-opacity:1.000000; stroke:none;">
<circle cx="92.250000" cy="90.610000" r="0.175000" /> 
</g>
<g style="fill:#000000; fill-opacity:1.000000; stroke:none;">
<circle cx="85.750000" cy="90.610000" r="0.175000" /> 
</g>
<g style="fill:#000000; fill-opacity:1.000000; stroke:none;">
<circle cx="104.240000" cy="68.500000" r="0.175000" /> 
</g>
<g style="fill:#000000; fill-opacity:1.000000; stroke:none;">
<circle cx="106.780000" cy="68.500000" r="0.175000" /> 
</g>
<g style="fill:#000000; fill-opacity:1.000000; stroke:none;">
<circle cx="89.050000" cy="81.620000" r="0.175000" /> 
</g>
<g style="fill:#000000; fill-opacity:1.000000; stroke:none;">
<circle cx="91.590000" cy="81.620000" r="0.175000" /> 
</g>
<g style="fill:#000000; fill-opacity:1.000000; stroke:none;">
<circle cx="94.130000" cy="81.620000" r="0.175000" /> 
</g>
<g style="fill:#000000; fill-opacity:1.000000; stroke:none;">
<circle cx="96.670000" cy="81.620000" r="0.175000" /> 
</g>
<g style="fill:#000000; fill-opacity:1.000000; stroke:none;">
<circle cx="99.210000" cy="81.620000" r="0.175000" /> 
</g>
<g style="fill:#000000; fill-opacity:1.000000; stroke:none;">
<circle cx="101.750000" cy="81.620000" r="0.175000" /> 
</g>
<g style="fill:#000000; fill-opacity:1.000000; stroke:none;">
<circle cx="104.290000" cy="81.620000" r="0.175000" /> 
</g>
<g style="fill:#000000; fill-opacity:1.000000; stroke:none;">
<circle cx="106.830000" cy="81.620000" r="0.175000" /> 
</g>
<g style="fill:#000000; fill-opacity:1.000000; stroke:none;">
<circle cx="109.370000" cy="81.620000" r="0.175000" /> 
</g>
<g style="fill:#000000; fill-opacity:1.000000; stroke:none;">
<circle cx="111.910000" cy="81.620000" r="0.175000" /> 
</g>
<g style="fill:#000000; fill-opacity:1.000000; stroke:none;">
<circle cx="114.450000" cy="81.620000" r="0.175000" /> 
</g>
<g style="fill:#000000; fill-opacity:1.000000; stroke:none;">
<circle cx="116.990000" cy="81.620000" r="0.175000" /> 
</g>
<g style="fill:#000000; fill-opacity:1.000000; stroke:none;">
<circle cx="119.530000" cy="81.620000" r="0.175000" /> 
</g>
<g style="fill:#000000; fill-opacity:1.000000; stroke:none;">
<circle cx="122.070000" cy="81.620000" r="0.175000" /> 
</g>
<g style="fill:#000000; fill-opacity:1.000000; stroke:none;">
<circle cx="122.070000" cy="74.000000" r="0.175000" /> 
</g>
<g style="fill:#000000; fill-opacity:1.000000; stroke:none;">
<circle cx="119.530000" cy="74.000000" r="0.175000" /> 
</g>
<g style="fill:#000000; fill-opacity:1.000000; stroke:none;">
<circle cx="116.990000" cy="74.000000" r="0.175000" /> 
</g>
<g style="fill:#000000; fill-opacity:1.000000; stroke:none;">
<circle cx="114.450000" cy="74.000000" r="0.175000" /> 
</g>
<g style="fill:#000000; fill-opacity:1.000000; stroke:none;">
<circle cx="111.910000" cy="74.000000" r="0.175000" /> 
</g>
<g style="fill:#000000; fill-opacity:1.000000; stroke:none;">
<circle cx="109.370000" cy="74.000000" r="0.175000" /> 
</g>
<g style="fill:#000000; fill-opacity:1.000000; stroke:none;">
<circle cx="106.830000" cy="74.000000" r="0.175000" /> 
</g>
<g style="fill:#000000; fill-opacity:1.000000; stroke:none;">
<circle cx="104.290000" cy="74.000000" r="0.175000" /> 
</g>
<g style="fill:#000000; fill-opacity:1.000000; stroke:none;">
<circle cx="101.750000" cy="74.000000" r="0.175000" /> 
</g>
<g style="fill:#000000; fill-opacity:1.000000; stroke:none;">
<circle cx="99.210000" cy="74.000000" r="0.175000" /> 
</g>
<g style="fill:#000000; fill-opacity:1.000000; stroke:none;">
<circle cx="96.670000" cy="74.000000" r="0.175000" /> 
</g>
<g style="fill:#000000; fill-opacity:1.000000; stroke:none;">
<circle cx="94.130000" cy="74.000000" r="0.175000" /> 
</g>
<g style="fill:#000000; fill-opacity:1.000000; stroke:none;">
<circle cx="91.590000" cy="74.000000" r="0.175000" /> 
</g>
<g style="fill:#000000; fill-opacity:1.000000; stroke:none;">
<circle cx="89.050000" cy="74.000000" r="0.175000" /> 
</g>
<g style="fill:#000000; fill-opacity:1.000000; stroke:none;">
<circle cx="89.000000" cy="85.000000" r="0.175000" /> 
</g>
<g style="fill:#000000; fill-opacity:1.000000; stroke:none;">
<circle cx="91.540000" cy="85.000000" r="0.175000" /> 
</g>
<g style="fill:#000000; fill-opacity:1.000000; stroke:none;">
<circle cx="94.080000" cy="85.000000" r="0.175000" /> 
</g>
<g style="fill:#000000; fill-opacity:1.000000; stroke:none;">
<circle cx="125.250000" cy="54.700000" r="0.175000" /> 
</g>
<g style="fill:#000000; fill-opacity:1.000000; stroke:none;">
<circle cx="125.250000" cy="57.240000" r="0.175000" /> 
</g>
<g style="fill:#000000; fill-opacity:1.000000; stroke:none;">
<circle cx="125.250000" cy="59.780000" r="0.175000" /> 
</g>
<g style="fill:#000000; fill-opacity:1.000000; stroke:none;">
<circle cx="125.250000" cy="62.320000" r="0.175000" /> 
</g>
<g style="fill:#000000; fill-opacity:1.000000; stroke:none;">
<circle cx="113.500000" cy="54.700000" r="0.175000" /> 
</g>
<g style="fill:#000000; fill-opacity:1.000000; stroke:none;">
<circle cx="113.500000" cy="57.240000" r="0.175000" /> 
</g>
<g style="fill:#000000; fill-opacity:1.000000; stroke:none;">
<circle cx="113.500000" cy="59.780000" r="0.175000" /> 
</g>
<g style="fill:#000000; fill-opacity:1.000000; stroke:none;">
<circle cx="113.500000" cy="62.320000" r="0.175000" /> 
</g>
<g style="fill:#000000; fill-opacity:1.000000; stroke:none;">
<circle cx="137.000000" cy="54.700000" r="0.175000" /> 
</g>
<g style="fill:#000000; fill-opacity:1.000000; stroke:none;">
<circle cx="137.000000" cy="57.240000" r="0.175000" /> 
</g>
<g style="fill:#000000; fill-opacity:1.000000; stroke:none;">
<circle cx="137.000000" cy="59.780000" r="0.175000" /> 
</g>
<g style="fill:#000000; fill-opacity:1.000000; stroke:none;">
<circle cx="137.000000" cy="62.320000" r="0.175000" /> 
</g>
<g style="fill:#FFFFFF; fill-opacity:1.000000; stroke:none;">
<circle cx="73.000000" cy="97.000000" r="1.600000" /> 
<path style="fill:none; 
stroke:#FFFFFF; stroke-width:0.500000; stroke-opacity:1; 
stroke-linecap:round; stroke-linejoin:round;fill:none"
d="M 70.000000,50.000000
150.000000,50.000000
150.000000,100.000000
70.000000,100.000000
Z" /> 
</g>
<g style="fill:#FFFFFF; fill-opacity:1.000000; stroke:none;">
<circle cx="147.000000" cy="97.000000" r="1.600000" /> 
<circle cx="147.000000" cy="53.000000" r="1.600000" /> 
<circle cx="73.000000" cy="53.000000" r="1.600000" /> 
</g> 
</svg>
